<?xml version="1.0" encoding="UTF-8" standalone="no"?><!-- Generator: Gravit.io --><svg xmlns="http://www.w3.org/2000/svg" xmlns:xlink="http://www.w3.org/1999/xlink" style="isolation:isolate" viewBox="0 0 1200 800" width="1200pt" height="800pt"><defs><clipPath id="_clipPath_v3USaGpXDPkDcA9LR3mg2K80rIP4gKsA"><rect width="1200" height="800"/></clipPath></defs><g clip-path="url(#_clipPath_v3USaGpXDPkDcA9LR3mg2K80rIP4gKsA)"><g><defs><linearGradient id="_lgradient_0" x1="0.1464466094067262" y1="0.8535533905932737" x2="0.8535533905932737" y2="0.14644660940672627"><stop offset="0%" style="stop-color:#2B4860"/><stop offset="100%" style="stop-color:#113557"/></linearGradient></defs><path d="M 122.498 181.633 L 626.033 107.217 C 636.953 105.603 647.129 113.159 648.742 124.078 L 687.503 386.348 C 689.117 397.268 681.561 407.443 670.642 409.057 L 167.107 483.473 C 156.187 485.087 146.011 477.531 144.398 466.612 L 105.637 204.342 C 104.023 193.422 111.579 183.247 122.498 181.633 Z" style="stroke:none;fill:url(#_lgradient_0);stroke-miterlimit:10;"/><path d="M 122.498 181.63 L 626.036 107.217 C 636.955 105.603 647.131 113.158 648.745 124.078 L 651.54 142.989 L 108.432 223.25 L 105.637 204.338 C 104.023 193.419 111.579 183.244 122.498 181.63 Z" style="stroke:none;fill:#A6B8C8;stroke-miterlimit:10;"/><path d=" M 121.956 201.485 C 121.171 196.177 124.843 191.232 130.151 190.447 C 135.458 189.663 140.404 193.335 141.188 198.642 C 141.972 203.95 138.3 208.895 132.993 209.68 C 127.686 210.464 122.74 206.792 121.956 201.485 Z " fill="rgb(213,23,23)"/><path d=" M 145.145 198.058 C 144.361 192.75 148.033 187.805 153.34 187.02 C 158.647 186.236 163.593 189.908 164.377 195.215 C 165.162 200.523 161.49 205.468 156.182 206.253 C 150.875 207.037 145.929 203.365 145.145 198.058 Z " fill="rgb(107,135,159)"/><path d=" M 168.334 194.63 C 167.55 189.323 171.222 184.378 176.529 183.593 C 181.837 182.809 186.782 186.481 187.567 191.788 C 188.351 197.095 184.679 202.041 179.372 202.825 C 174.064 203.61 169.119 199.938 168.334 194.63 Z " fill="rgb(107,135,159)"/><path d="M 136.149 239.373 L 157.911 236.155 C 160.673 235.747 163.247 237.658 163.655 240.421 L 163.655 240.421 C 164.063 243.184 162.152 245.759 159.391 246.167 L 137.629 249.385 C 134.867 249.793 132.293 247.882 131.885 245.119 L 131.885 245.119 C 131.477 242.356 133.388 239.781 136.149 239.373 Z" style="stroke:none;fill:#00FF8C;stroke-miterlimit:10;"/></g><g filter="url(#mxCK3foHNBct1lIqx2dNad7s1NBOZO2L)"><defs><linearGradient id="_lgradient_1" x1="0.1464466094067262" y1="0.8535533905932737" x2="0.8535533905932737" y2="0.14644660940672627"><stop offset="0%" style="stop-color:#5896E1"/><stop offset="100%" style="stop-color:#6BAEFF"/></linearGradient></defs><path d="M 416.57 357.76 L 925.57 357.76 C 936.608 357.76 945.57 366.722 945.57 377.76 L 945.57 642.88 C 945.57 653.918 936.608 662.88 925.57 662.88 L 416.57 662.88 C 405.532 662.88 396.57 653.918 396.57 642.88 L 396.57 377.76 C 396.57 366.722 405.532 357.76 416.57 357.76 Z" style="stroke:none;fill:url(#_lgradient_1);stroke-miterlimit:10;"/><path d="M 416.57 357.76 L 925.57 357.76 C 936.608 357.76 945.57 366.722 945.57 377.761 L 945.57 396.88 L 396.57 396.88 L 396.57 377.761 C 396.57 366.722 405.532 357.76 416.57 357.76 Z" style="stroke:none;fill:#FFFFFF;stroke-miterlimit:10;"/><circle vector-effect="non-scaling-stroke" cx="422.8493250711332" cy="377.32106671765416" r="9.720588235293917" fill="rgb(213,23,23)"/><circle vector-effect="non-scaling-stroke" cx="446.2905015417212" cy="377.32106671765416" r="9.720588235293917" fill="rgb(191,207,221)"/><circle vector-effect="non-scaling-stroke" cx="469.7316780123092" cy="377.3210667176542" r="9.720588235293917" fill="rgb(191,207,221)"/></g><defs><filter id="mxCK3foHNBct1lIqx2dNad7s1NBOZO2L" x="-200%" y="-200%" width="400%" height="400%" filterUnits="objectBoundingBox" color-interpolation-filters="sRGB"><feGaussianBlur xmlns="http://www.w3.org/2000/svg" in="SourceGraphic" stdDeviation="16.74507534507221"/><feOffset xmlns="http://www.w3.org/2000/svg" dx="0" dy="0" result="pf_100_offsetBlur"/><feFlood xmlns="http://www.w3.org/2000/svg" flood-color="#000000" flood-opacity="0.19"/><feComposite xmlns="http://www.w3.org/2000/svg" in2="pf_100_offsetBlur" operator="in" result="pf_100_dropShadow"/><feBlend xmlns="http://www.w3.org/2000/svg" in="SourceGraphic" in2="pf_100_dropShadow" mode="normal"/></filter></defs><defs><filter id="xnWreLgHmMyetToj9y9U2QPaXlT7n1MN" x="-200%" y="-200%" width="400%" height="400%" filterUnits="objectBoundingBox" color-interpolation-filters="sRGB"><feGaussianBlur xmlns="http://www.w3.org/2000/svg" in="SourceGraphic" stdDeviation="4.293609062839028"/><feOffset xmlns="http://www.w3.org/2000/svg" dx="0" dy="0" result="pf_100_offsetBlur"/><feFlood xmlns="http://www.w3.org/2000/svg" flood-color="#000000" flood-opacity="0.4"/><feComposite xmlns="http://www.w3.org/2000/svg" in2="pf_100_offsetBlur" operator="in" result="pf_100_dropShadow"/><feBlend xmlns="http://www.w3.org/2000/svg" in="SourceGraphic" in2="pf_100_dropShadow" mode="normal"/></filter></defs><g filter="url(#xnWreLgHmMyetToj9y9U2QPaXlT7n1MN)"><path d="M 426.17 410 L 642.4 410 C 647.698 410 652 414.302 652 419.6 L 652 560.4 C 652 565.698 647.698 570 642.4 570 L 426.17 570 C 420.872 570 416.57 565.698 416.57 560.4 L 416.57 419.6 C 416.57 414.302 420.872 410 426.17 410 Z" style="stroke:none;fill:#FFFFFF;stroke-miterlimit:10;"/></g><path d=" M 365 609 L 444.161 640.076 L 378.627 692.944 L 365 609 Z " fill-rule="evenodd" fill="rgb(28,45,66)"/><circle vector-effect="non-scaling-stroke" cx="666.1588505512574" cy="201.44117647058826" r="21.55882352941171" fill="rgb(0,255,140)"/></g></svg>