<svg width="55" height="55" viewBox="0 0 55 55" fill="none" xmlns="http://www.w3.org/2000/svg">
<rect x="1" y="1" width="53" height="53" rx="9" stroke="#FFC000" stroke-width="2"/>
<path d="M15 13C13.8954 13 13 13.8954 13 15V40C13 41.1046 13.8954 42 15 42H18.2973C19.4019 42 20.2973 41.1046 20.2973 40V28.2214L25.0166 40.5816C25.3124 41.3563 26.0557 41.8682 26.885 41.8682H29.1159C29.9443 41.8682 30.687 41.3575 30.9835 40.5839L35.7027 28.2703V40C35.7027 41.1046 36.5981 42 37.7027 42H41C42.1046 42 43 41.1046 43 40V15C43 13.8954 42.1046 13 41 13H35.9469C35.1241 13 34.3853 13.5039 34.0849 14.2699L28 29.7874L21.9151 14.2699C21.6147 13.5039 20.8759 13 20.0531 13H15Z" stroke="#FFC000" stroke-width="2"/>
</svg>
