<?xml version="1.0" encoding="utf-8"?>
<svg width="1920px" height="1080px" viewBox="0 0 1920 1080" version="1.1" xmlns:xlink="http://www.w3.org/1999/xlink" xmlns="http://www.w3.org/2000/svg">
  <defs>
    <filter filterUnits="userSpaceOnUse" color-interpolation-filters="sRGB" id="filter_1">
      <feFlood flood-opacity="0" result="BackgroundImageFix" />
      <feColorMatrix in="SourceAlpha" type="matrix" values="0 0 0 0 0 0 0 0 0 0 0 0 0 0 0 0 0 0 127 0" />
      <feOffset dx="16" dy="16" />
      <feGaussianBlur stdDeviation="8" />
      <feColorMatrix type="matrix" values="0 0 0 0 0.11372549 0 0 0 0 0.11372549 0 0 0 0 0.11372549 0 0 0 0.49803922 0" />
      <feBlend mode="normal" in2="BackgroundImageFix" result="effect0_dropShadow" />
      <feColorMatrix in="SourceAlpha" type="matrix" values="0 0 0 0 0 0 0 0 0 0 0 0 0 0 0 0 0 0 127 0" />
      <feOffset dx="-16" dy="-16" />
      <feGaussianBlur stdDeviation="8" />
      <feColorMatrix type="matrix" values="0 0 0 0 1 0 0 0 0 1 0 0 0 0 1 0 0 0 0.09019608 0" />
      <feBlend mode="normal" in2="effect0_dropShadow" result="effect1_dropShadow" />
      <feBlend mode="normal" in="SourceGraphic" in2="effect1_dropShadow" result="shape" />
    </filter>
    <filter filterUnits="userSpaceOnUse" color-interpolation-filters="sRGB" id="filter_2">
      <feFlood flood-opacity="0" result="BackgroundImageFix" />
      <feBlend mode="normal" in="SourceGraphic" in2="BackgroundImageFix" result="shape" />
      <feColorMatrix in="SourceAlpha" type="matrix" values="0 0 0 0 0 0 0 0 0 0 0 0 0 0 0 0 0 0 127 0" result="hardAlpha" />
      <feOffset dx="5" dy="5" />
      <feGaussianBlur stdDeviation="9" />
      <feComposite in2="hardAlpha" operator="arithmetic" k2="-1" k3="1" />
      <feColorMatrix type="matrix" values="0 0 0 0 0 0 0 0 0 0 0 0 0 0 0 0 0 0 0.49803922 0" />
      <feBlend mode="normal" in2="shape" result="effect0_innerShadow" />
      <feColorMatrix in="SourceAlpha" type="matrix" values="0 0 0 0 0 0 0 0 0 0 0 0 0 0 0 0 0 0 127 0" result="hardAlpha" />
      <feOffset dx="-5" dy="-5" />
      <feGaussianBlur stdDeviation="9" />
      <feComposite in2="hardAlpha" operator="arithmetic" k2="-1" k3="1" />
      <feColorMatrix type="matrix" values="0 0 0 0 1 0 0 0 0 1 0 0 0 0 1 0 0 0 0.5411765 0" />
      <feBlend mode="normal" in2="effect0_innerShadow" result="effect1_innerShadow" />
    </filter>
    <filter filterUnits="userSpaceOnUse" color-interpolation-filters="sRGB" id="filter_3">
      <feFlood flood-opacity="0" result="BackgroundImageFix" />
      <feColorMatrix in="SourceAlpha" type="matrix" values="0 0 0 0 0 0 0 0 0 0 0 0 0 0 0 0 0 0 127 0" />
      <feOffset dx="4" dy="4" />
      <feGaussianBlur stdDeviation="6" />
      <feColorMatrix type="matrix" values="0 0 0 0 0 0 0 0 0 0 0 0 0 0 0 0 0 0 0.49803922 0" />
      <feBlend mode="normal" in2="BackgroundImageFix" result="effect0_dropShadow" />
      <feColorMatrix in="SourceAlpha" type="matrix" values="0 0 0 0 0 0 0 0 0 0 0 0 0 0 0 0 0 0 127 0" />
      <feOffset dx="-4" dy="-4" />
      <feGaussianBlur stdDeviation="6" />
      <feColorMatrix type="matrix" values="0 0 0 0 0.39215687 0 0 0 0 0.39215687 0 0 0 0 0.39215687 0 0 0 0.49803922 0" />
      <feBlend mode="normal" in2="effect0_dropShadow" result="effect1_dropShadow" />
      <feBlend mode="normal" in="SourceGraphic" in2="effect1_dropShadow" result="shape" />
    </filter>
    <filter filterUnits="userSpaceOnUse" color-interpolation-filters="sRGB" id="filter_4">
      <feFlood flood-opacity="0" result="BackgroundImageFix" />
      <feBlend mode="normal" in="SourceGraphic" in2="BackgroundImageFix" result="shape" />
      <feColorMatrix in="SourceAlpha" type="matrix" values="0 0 0 0 0 0 0 0 0 0 0 0 0 0 0 0 0 0 127 0" result="hardAlpha" />
      <feOffset dx="2" dy="2" />
      <feGaussianBlur stdDeviation="2" />
      <feComposite in2="hardAlpha" operator="arithmetic" k2="-1" k3="1" />
      <feColorMatrix type="matrix" values="0 0 0 0 0 0 0 0 0 0 0 0 0 0 0 0 0 0 0.49803922 0" />
      <feBlend mode="normal" in2="shape" result="effect0_innerShadow" />
      <feColorMatrix in="SourceAlpha" type="matrix" values="0 0 0 0 0 0 0 0 0 0 0 0 0 0 0 0 0 0 127 0" result="hardAlpha" />
      <feOffset dx="-2" dy="-2" />
      <feGaussianBlur stdDeviation="2" />
      <feComposite in2="hardAlpha" operator="arithmetic" k2="-1" k3="1" />
      <feColorMatrix type="matrix" values="0 0 0 0 0.6862745 0 0 0 0 0.6862745 0 0 0 0 0.6862745 0 0 0 0.49803922 0" />
      <feBlend mode="normal" in2="effect0_innerShadow" result="effect1_innerShadow" />
    </filter>
    <path d="M1241.58 221.92L1129.9 621.659L1035.41 621.659L960.384 337.031L881.925 621.659L788.004 622.232L680.337 221.92L766.241 221.92L836.682 532.319L918.005 221.92L1007.34 221.92L1084.09 530.601L1155.1 221.92L1241.58 221.92Z" id="path_1" />
    <path d="M1170.5 819.628C1170.5 821.068 1170.4 822.364 1170.21 823.516L1141.05 823.516C1141.29 826.396 1142.3 828.652 1144.08 830.284C1145.85 831.916 1148.04 832.732 1150.63 832.732C1154.37 832.732 1157.04 831.124 1158.62 827.908L1169.49 827.908C1168.34 831.748 1166.13 834.904 1162.87 837.376C1159.6 839.848 1155.6 841.084 1150.84 841.084C1147 841.084 1143.56 840.232 1140.51 838.528C1137.46 836.824 1135.09 834.412 1133.38 831.292C1131.68 828.172 1130.83 824.572 1130.83 820.492C1130.83 816.364 1131.67 812.74 1133.35 809.62C1135.03 806.5 1137.38 804.1 1140.4 802.42C1143.43 800.74 1146.91 799.9 1150.84 799.9C1154.64 799.9 1158.03 800.716 1161.03 802.348C1164.03 803.98 1166.36 806.296 1168.02 809.296C1169.67 812.296 1170.5 815.74 1170.5 819.628L1170.5 819.628ZM1160.06 816.748C1160.01 814.156 1159.08 812.08 1157.25 810.52C1155.43 808.96 1153.2 808.18 1150.56 808.18C1148.06 808.18 1145.96 808.936 1144.26 810.448C1142.55 811.96 1141.51 814.06 1141.12 816.748L1160.06 816.748ZM1087.48 820.492C1087.48 816.364 1088.32 812.752 1090 809.656C1091.68 806.56 1094.01 804.16 1096.99 802.456C1099.96 800.752 1103.37 799.9 1107.21 799.9C1112.16 799.9 1116.25 801.136 1119.49 803.608C1122.73 806.08 1124.9 809.548 1126 814.012L1115.13 814.012C1114.56 812.284 1113.58 810.928 1112.22 809.944C1110.85 808.96 1109.16 808.468 1107.14 808.468C1104.26 808.468 1101.98 809.512 1100.3 811.6C1098.62 813.688 1097.78 816.652 1097.78 820.492C1097.78 824.284 1098.62 827.224 1100.3 829.312C1101.98 831.4 1104.26 832.444 1107.14 832.444C1111.22 832.444 1113.88 830.62 1115.13 826.972L1126 826.972C1124.9 831.292 1122.72 834.724 1119.45 837.268C1116.19 839.812 1112.11 841.084 1107.21 841.084C1103.37 841.084 1099.96 840.232 1096.99 838.528C1094.01 836.824 1091.68 834.424 1090 831.328C1088.32 828.232 1087.48 824.62 1087.48 820.492L1087.48 820.492ZM1038.67 820.348C1038.67 816.316 1039.47 812.74 1041.08 809.62C1042.69 806.5 1044.87 804.1 1047.63 802.42C1050.39 800.74 1053.48 799.9 1056.88 799.9C1059.86 799.9 1062.46 800.5 1064.7 801.7C1066.93 802.9 1068.72 804.412 1070.06 806.236L1070.06 800.548L1080.21 800.548L1080.21 840.436L1070.06 840.436L1070.06 834.604C1068.76 836.476 1066.98 838.024 1064.7 839.248C1062.42 840.472 1059.79 841.084 1056.81 841.084C1053.45 841.084 1050.39 840.22 1047.63 838.492C1044.87 836.764 1042.69 834.328 1041.08 831.184C1039.47 828.04 1038.67 824.428 1038.67 820.348L1038.67 820.348ZM1070.06 820.492C1070.06 818.044 1069.58 815.944 1068.62 814.192C1067.66 812.44 1066.36 811.096 1064.73 810.16C1063.1 809.224 1061.35 808.756 1059.48 808.756C1057.6 808.756 1055.88 809.212 1054.29 810.124C1052.71 811.036 1051.42 812.368 1050.44 814.12C1049.46 815.872 1048.96 817.948 1048.96 820.348C1048.96 822.748 1049.46 824.848 1050.44 826.648C1051.42 828.448 1052.72 829.828 1054.33 830.788C1055.94 831.748 1057.65 832.228 1059.48 832.228C1061.35 832.228 1063.1 831.76 1064.73 830.824C1066.36 829.888 1067.66 828.544 1068.62 826.792C1069.58 825.04 1070.06 822.94 1070.06 820.492L1070.06 820.492ZM1002.52 806.308C1003.82 804.484 1005.61 802.96 1007.89 801.736C1010.17 800.512 1012.77 799.9 1015.7 799.9C1019.11 799.9 1022.19 800.74 1024.95 802.42C1027.71 804.1 1029.9 806.488 1031.5 809.584C1033.11 812.68 1033.92 816.268 1033.92 820.348C1033.92 824.428 1033.11 828.04 1031.5 831.184C1029.9 834.328 1027.71 836.764 1024.95 838.492C1022.19 840.22 1019.11 841.084 1015.7 841.084C1012.77 841.084 1010.19 840.484 1007.96 839.284C1005.73 838.084 1003.92 836.572 1002.52 834.748L1002.52 859.444L992.444 859.444L992.444 800.548L1002.52 800.548L1002.52 806.308ZM1023.62 820.348C1023.62 817.948 1023.13 815.872 1022.14 814.12C1021.16 812.368 1019.86 811.036 1018.26 810.124C1016.65 809.212 1014.91 808.756 1013.04 808.756C1011.21 808.756 1009.5 809.224 1007.89 810.16C1006.28 811.096 1004.98 812.452 1004 814.228C1003.02 816.004 1002.52 818.092 1002.52 820.492C1002.52 822.892 1003.02 824.98 1004 826.756C1004.98 828.532 1006.28 829.888 1007.89 830.824C1009.5 831.76 1011.21 832.228 1013.04 832.228C1014.91 832.228 1016.65 831.748 1018.26 830.788C1019.86 829.828 1021.16 828.46 1022.14 826.684C1023.13 824.908 1023.62 822.796 1023.62 820.348L1023.62 820.348ZM968.468 841.084C965.204 841.084 962.276 840.496 959.684 839.32C957.092 838.144 955.04 836.548 953.528 834.532C952.016 832.516 951.188 830.284 951.044 827.836L961.196 827.836C961.388 829.372 962.144 830.644 963.464 831.652C964.784 832.66 966.428 833.164 968.396 833.164C970.316 833.164 971.816 832.78 972.896 832.012C973.976 831.244 974.516 830.26 974.516 829.06C974.516 827.764 973.856 826.792 972.536 826.144C971.216 825.496 969.116 824.788 966.236 824.02C963.26 823.3 960.824 822.556 958.928 821.788C957.032 821.02 955.4 819.844 954.032 818.26C952.664 816.676 951.98 814.54 951.98 811.852C951.98 809.644 952.616 807.628 953.888 805.804C955.16 803.98 956.984 802.54 959.36 801.484C961.736 800.428 964.532 799.9 967.748 799.9C972.5 799.9 976.292 801.088 979.124 803.464C981.956 805.84 983.516 809.044 983.804 813.076L974.156 813.076C974.012 811.492 973.352 810.232 972.176 809.296C971 808.36 969.428 807.892 967.46 807.892C965.636 807.892 964.232 808.228 963.248 808.9C962.264 809.572 961.772 810.508 961.772 811.708C961.772 813.052 962.444 814.072 963.788 814.768C965.132 815.464 967.22 816.172 970.052 816.892C972.932 817.612 975.308 818.356 977.18 819.124C979.052 819.892 980.672 821.08 982.04 822.688C983.408 824.296 984.116 826.42 984.164 829.06C984.164 831.364 983.528 833.428 982.256 835.252C980.984 837.076 979.16 838.504 976.784 839.536C974.408 840.568 971.636 841.084 968.468 841.084L968.468 841.084ZM945.86 819.628C945.86 821.068 945.764 822.364 945.572 823.516L916.412 823.516C916.652 826.396 917.66 828.652 919.436 830.284C921.212 831.916 923.396 832.732 925.988 832.732C929.732 832.732 932.396 831.124 933.98 827.908L944.852 827.908C943.7 831.748 941.492 834.904 938.228 837.376C934.964 839.848 930.956 841.084 926.204 841.084C922.364 841.084 918.92 840.232 915.872 838.528C912.824 836.824 910.448 834.412 908.744 831.292C907.04 828.172 906.188 824.572 906.188 820.492C906.188 816.364 907.028 812.74 908.708 809.62C910.388 806.5 912.74 804.1 915.764 802.42C918.788 800.74 922.268 799.9 926.204 799.9C929.996 799.9 933.392 800.716 936.392 802.348C939.392 803.98 941.72 806.296 943.376 809.296C945.032 812.296 945.86 815.74 945.86 819.628L945.86 819.628ZM935.42 816.748C935.372 814.156 934.436 812.08 932.612 810.52C930.788 808.96 928.556 808.18 925.916 808.18C923.42 808.18 921.32 808.936 919.616 810.448C917.912 811.96 916.868 814.06 916.484 816.748L935.42 816.748ZM892.58 808.828L892.58 828.124C892.58 829.468 892.904 830.44 893.552 831.04C894.2 831.64 895.292 831.94 896.828 831.94L901.508 831.94L901.508 840.436L895.172 840.436C886.676 840.436 882.428 836.308 882.428 828.052L882.428 808.828L877.676 808.828L877.676 800.548L882.428 800.548L882.428 790.684L892.58 790.684L892.58 800.548L901.508 800.548L901.508 808.828L892.58 808.828ZM865.94 795.796C864.164 795.796 862.688 795.232 861.512 794.104C860.336 792.976 859.748 791.572 859.748 789.892C859.748 788.212 860.336 786.808 861.512 785.68C862.688 784.552 864.164 783.988 865.94 783.988C867.716 783.988 869.192 784.552 870.368 785.68C871.544 786.808 872.132 788.212 872.132 789.892C872.132 791.572 871.544 792.976 870.368 794.104C869.192 795.232 867.716 795.796 865.94 795.796L865.94 795.796ZM870.908 800.548L870.908 840.436L860.828 840.436L860.828 800.548L870.908 800.548ZM835.7 799.972C838.724 799.972 841.412 800.632 843.764 801.952C846.116 803.272 847.952 805.216 849.272 807.784C850.592 810.352 851.252 813.436 851.252 817.036L851.252 840.436L841.172 840.436L841.172 818.404C841.172 815.236 840.38 812.8 838.796 811.096C837.212 809.392 835.052 808.54 832.316 808.54C829.532 808.54 827.336 809.392 825.728 811.096C824.12 812.8 823.316 815.236 823.316 818.404L823.316 840.436L813.236 840.436L813.236 787.156L823.316 787.156L823.316 805.516C824.612 803.788 826.34 802.432 828.5 801.448C830.66 800.464 833.06 799.972 835.7 799.972L835.7 799.972ZM807.764 800.548L796.1 840.436L785.228 840.436L777.956 812.572L770.684 840.436L759.74 840.436L748.004 800.548L758.228 800.548L765.284 830.932L772.916 800.548L783.572 800.548L791.06 830.86L798.116 800.548L807.764 800.548ZM1100.41 711.628C1100.41 713.068 1100.31 714.364 1100.12 715.516L1070.96 715.516C1071.2 718.396 1072.21 720.652 1073.98 722.284C1075.76 723.916 1077.94 724.732 1080.54 724.732C1084.28 724.732 1086.94 723.124 1088.53 719.908L1099.4 719.908C1098.25 723.748 1096.04 726.904 1092.78 729.376C1089.51 731.848 1085.5 733.084 1080.75 733.084C1076.91 733.084 1073.47 732.232 1070.42 730.528C1067.37 728.824 1065 726.412 1063.29 723.292C1061.59 720.172 1060.74 716.572 1060.74 712.492C1060.74 708.364 1061.58 704.74 1063.26 701.62C1064.94 698.5 1067.29 696.1 1070.31 694.42C1073.34 692.74 1076.82 691.9 1080.75 691.9C1084.54 691.9 1087.94 692.716 1090.94 694.348C1093.94 695.98 1096.27 698.296 1097.92 701.296C1099.58 704.296 1100.41 707.74 1100.41 711.628L1100.41 711.628ZM1089.97 708.748C1089.92 706.156 1088.98 704.08 1087.16 702.52C1085.34 700.96 1083.1 700.18 1080.46 700.18C1077.97 700.18 1075.87 700.936 1074.16 702.448C1072.46 703.96 1071.42 706.06 1071.03 708.748L1089.97 708.748ZM1017.39 712.492C1017.39 708.364 1018.23 704.752 1019.91 701.656C1021.59 698.56 1023.92 696.16 1026.9 694.456C1029.87 692.752 1033.28 691.9 1037.12 691.9C1042.06 691.9 1046.16 693.136 1049.4 695.608C1052.64 698.08 1054.81 701.548 1055.91 706.012L1045.04 706.012C1044.46 704.284 1043.49 702.928 1042.12 701.944C1040.76 700.96 1039.06 700.468 1037.05 700.468C1034.17 700.468 1031.89 701.512 1030.21 703.6C1028.53 705.688 1027.69 708.652 1027.69 712.492C1027.69 716.284 1028.53 719.224 1030.21 721.312C1031.89 723.4 1034.17 724.444 1037.05 724.444C1041.13 724.444 1043.79 722.62 1045.04 718.972L1055.91 718.972C1054.81 723.292 1052.62 726.724 1049.36 729.268C1046.1 731.812 1042.02 733.084 1037.12 733.084C1033.28 733.084 1029.87 732.232 1026.9 730.528C1023.92 728.824 1021.59 726.424 1019.91 723.328C1018.23 720.232 1017.39 716.62 1017.39 712.492L1017.39 712.492ZM1005.08 687.796C1003.3 687.796 1001.83 687.232 1000.65 686.104C999.476 684.976 998.888 683.572 998.888 681.892C998.888 680.212 999.476 678.808 1000.65 677.68C1001.83 676.552 1003.3 675.988 1005.08 675.988C1006.86 675.988 1008.33 676.552 1009.51 677.68C1010.68 678.808 1011.27 680.212 1011.27 681.892C1011.27 683.572 1010.68 684.976 1009.51 686.104C1008.33 687.232 1006.86 687.796 1005.08 687.796L1005.08 687.796ZM1010.05 692.548L1010.05 732.436L999.968 732.436L999.968 692.548L1010.05 692.548ZM973.472 723.148L983.552 692.548L994.28 692.548L979.52 732.436L967.28 732.436L952.592 692.548L963.392 692.548L973.472 723.148ZM937.832 698.74C939.128 696.628 940.82 694.972 942.908 693.772C944.996 692.572 947.384 691.972 950.072 691.972L950.072 702.556L947.408 702.556C944.24 702.556 941.852 703.3 940.244 704.788C938.636 706.276 937.832 708.868 937.832 712.564L937.832 732.436L927.752 732.436L927.752 692.548L937.832 692.548L937.832 698.74ZM920.408 711.628C920.408 713.068 920.312 714.364 920.12 715.516L890.96 715.516C891.2 718.396 892.208 720.652 893.984 722.284C895.76 723.916 897.944 724.732 900.536 724.732C904.28 724.732 906.944 723.124 908.528 719.908L919.4 719.908C918.248 723.748 916.04 726.904 912.776 729.376C909.512 731.848 905.504 733.084 900.752 733.084C896.912 733.084 893.468 732.232 890.42 730.528C887.372 728.824 884.996 726.412 883.292 723.292C881.588 720.172 880.736 716.572 880.736 712.492C880.736 708.364 881.576 704.74 883.256 701.62C884.936 698.5 887.288 696.1 890.312 694.42C893.336 692.74 896.816 691.9 900.752 691.9C904.544 691.9 907.94 692.716 910.94 694.348C913.94 695.98 916.268 698.296 917.924 701.296C919.58 704.296 920.408 707.74 920.408 711.628L920.408 711.628ZM909.968 708.748C909.92 706.156 908.984 704.08 907.16 702.52C905.336 700.96 903.104 700.18 900.464 700.18C897.968 700.18 895.868 700.936 894.164 702.448C892.46 703.96 891.416 706.06 891.032 708.748L909.968 708.748ZM877.856 692.548L866.192 732.436L855.32 732.436L848.048 704.572L840.776 732.436L829.832 732.436L818.096 692.548L828.32 692.548L835.376 722.932L843.008 692.548L853.664 692.548L861.152 722.86L868.208 692.548L877.856 692.548Z" id="path_2" />
    <rect width="1920" height="1080" id="artboard_1" />
    <clipPath id="clip_1">
      <use xlink:href="#artboard_1" clip-rule="evenodd" />
    </clipPath>
  </defs>
  <g id="Artboard" clip-path="url(#clip_1)">
    <use xlink:href="#artboard_1" stroke="none" fill="#3E3E3E" />
    <g id="W" filter="url(#filter_1)">
      <use stroke="none" fill="#7990B5" xlink:href="#path_1" fill-rule="evenodd" filter="url(#filter_2)" />
      <use xlink:href="#path_1" fill="none" stroke="#7990B5" stroke-width="15" stroke-linecap="round" stroke-linejoin="round" />
    </g>
    <g id="wervice-whitespace" filter="url(#filter_3)">
      <use stroke="none" fill="#878787" xlink:href="#path_2" filter="url(#filter_4)" />
      <use xlink:href="#path_2" fill="none" stroke="#878787" stroke-width="2" stroke-linejoin="round" />
    </g>
  </g>
</svg>