<?xml version="1.0" encoding="utf-8"?>
<svg width="120px" height="120px" viewBox="0 0 120 120" version="1.1" xmlns:xlink="http://www.w3.org/1999/xlink" xmlns="http://www.w3.org/2000/svg">
  <defs>
    <linearGradient gradientUnits="userSpaceOnUse" x1="0" y1="0" x2="55.227272" y2="81.00001" id="gradient_1">
      <stop offset="0%" stop-color="#072344" />
      <stop offset="100%" stop-color="#03142A" />
    </linearGradient>
    <linearGradient gradientUnits="userSpaceOnUse" x1="0" y1="0" x2="39.448048" y2="11.834416" id="gradient_2">
      <stop offset="0%" stop-color="#7AABE6" />
      <stop offset="46.913578%" stop-color="#3C76BC" />
    </linearGradient>
    <linearGradient gradientUnits="userSpaceOnUse" x1="0" y1="0" x2="11.164542" y2="11.164543" id="gradient_3">
      <stop offset="0%" stop-color="#E38559" />
      <stop offset="72.22222%" stop-color="#E26D37" />
    </linearGradient>
    <linearGradient gradientUnits="userSpaceOnUse" x1="0" y1="0" x2="11.164543" y2="11.164543" id="gradient_4">
      <stop offset="0%" stop-color="#E38559" />
      <stop offset="72.22222%" stop-color="#E26D37" />
    </linearGradient>
    <linearGradient gradientUnits="userSpaceOnUse" x1="0" y1="0" x2="11.164539" y2="11.164543" id="gradient_5">
      <stop offset="0%" stop-color="#E38559" />
      <stop offset="72.22222%" stop-color="#E26D37" />
    </linearGradient>
    <linearGradient gradientUnits="userSpaceOnUse" x1="0" y1="0" x2="25.246754" y2="11.045452" id="gradient_6">
      <stop offset="0%" stop-color="#54BAF1" />
      <stop offset="60.493828%" stop-color="#1187C6" />
    </linearGradient>
    <rect width="120" height="120" id="artboard_1" />
    <clipPath id="clip_1">
      <use xlink:href="#artboard_1" clip-rule="evenodd" />
    </clipPath>
  </defs>
  <g id="Artboard" clip-path="url(#clip_1)">
    <use xlink:href="#artboard_1" stroke="none" fill="#FFFFFF" />
    <g id="Group-2" transform="translate(32.49997 20.199997)">
      <g id="Group">
        <path d="M4.999 0L50.2283 0Q50.351 0 50.4736 0.00602151Q50.5961 0.012043 50.7183 0.0240715Q50.8404 0.0361001 50.9618 0.0541066Q51.0832 0.0721132 51.2035 0.0960544Q51.3239 0.119996 51.4429 0.149814Q51.562 0.179632 51.6794 0.215255Q51.7968 0.250879 51.9124 0.292221Q52.0279 0.333564 52.1413 0.380526Q52.2547 0.427489 52.3656 0.479957Q52.4766 0.532426 52.5848 0.590276Q52.693 0.648125 52.7983 0.711215Q52.9035 0.774305 53.0056 0.842483Q53.1076 0.910662 53.2062 0.983765Q53.3047 1.05687 53.3996 1.13472Q53.4945 1.21257 53.5854 1.29499Q53.6763 1.3774 53.7631 1.46417Q53.8499 1.55095 53.9323 1.64188Q54.0147 1.73281 54.0925 1.82767Q54.1704 1.92253 54.2435 2.0211Q54.3166 2.11967 54.3848 2.2217Q54.453 2.32374 54.5161 2.429Q54.5791 2.53426 54.637 2.64249Q54.6948 2.75072 54.7473 2.86165Q54.7998 2.97259 54.8467 3.08597Q54.8937 3.19934 54.935 3.31489Q54.9764 3.43043 55.012 3.54787Q55.0476 3.6653 55.0774 3.78434Q55.1073 3.90338 55.1312 4.02374Q55.1552 4.1441 55.1732 4.26549Q55.1912 4.38688 55.2032 4.50901Q55.2152 4.63114 55.2213 4.75371Q55.2273 4.87628 55.2273 4.999L55.2273 76.001Q55.2273 76.1237 55.2212 76.2463Q55.2152 76.3689 55.2032 76.491Q55.1912 76.6131 55.1732 76.7345Q55.1552 76.8559 55.1312 76.9763Q55.1073 77.0966 55.0775 77.2157Q55.0476 77.3347 55.012 77.4521Q54.9764 77.5696 54.935 77.6851Q54.8937 77.8007 54.8467 77.914Q54.7998 78.0274 54.7473 78.1383Q54.6948 78.2493 54.637 78.3575Q54.5791 78.4657 54.5161 78.571Q54.453 78.6763 54.3848 78.7783Q54.3166 78.8803 54.2435 78.9789Q54.1704 79.0775 54.0925 79.1723Q54.0147 79.2672 53.9323 79.3581Q53.8499 79.449 53.7631 79.5358Q53.6763 79.6226 53.5854 79.705Q53.4945 79.7874 53.3996 79.8653Q53.3047 79.9431 53.2062 80.0162Q53.1076 80.0893 53.0056 80.1575Q52.9035 80.2257 52.7983 80.2888Q52.693 80.3519 52.5848 80.4097Q52.4766 80.4676 52.3656 80.52Q52.2547 80.5725 52.1413 80.6195Q52.0279 80.6664 51.9124 80.7078Q51.7968 80.7491 51.6794 80.7848Q51.562 80.8204 51.4429 80.8502Q51.3239 80.88 51.2035 80.904Q51.0832 80.9279 50.9618 80.9459Q50.8404 80.9639 50.7183 80.9759Q50.5961 80.988 50.4736 80.994Q50.351 81 50.2283 81L4.999 81Q4.87628 81 4.75371 80.994Q4.63114 80.988 4.50901 80.9759Q4.38688 80.9639 4.26549 80.9459Q4.1441 80.9279 4.02374 80.904Q3.90338 80.88 3.78434 80.8502Q3.6653 80.8204 3.54787 80.7848Q3.43043 80.7491 3.31489 80.7078Q3.19934 80.6664 3.08597 80.6195Q2.97259 80.5725 2.86165 80.52Q2.75072 80.4676 2.64249 80.4097Q2.53426 80.3519 2.429 80.2888Q2.32374 80.2257 2.2217 80.1575Q2.11967 80.0893 2.0211 80.0162Q1.92253 79.9431 1.82767 79.8653Q1.73281 79.7874 1.64188 79.705Q1.55095 79.6226 1.46417 79.5358Q1.3774 79.449 1.29499 79.3581Q1.21257 79.2672 1.13472 79.1723Q1.05687 79.0775 0.983765 78.9789Q0.910662 78.8803 0.842483 78.7783Q0.774305 78.6763 0.711215 78.571Q0.648125 78.4657 0.590276 78.3575Q0.532426 78.2493 0.479957 78.1383Q0.427489 78.0274 0.380526 77.914Q0.333564 77.8007 0.292221 77.6851Q0.250879 77.5696 0.215255 77.4521Q0.179632 77.3347 0.149814 77.2157Q0.119996 77.0966 0.0960544 76.9763Q0.0721132 76.8559 0.0541066 76.7345Q0.0361001 76.6131 0.0240715 76.491Q0.012043 76.3689 0.00602151 76.2463Q0 76.1237 0 76.001L0 4.999Q0 4.87628 0.00602151 4.75371Q0.012043 4.63114 0.0240715 4.50901Q0.0361001 4.38688 0.0541066 4.26549Q0.0721132 4.1441 0.0960544 4.02374Q0.119996 3.90338 0.149814 3.78434Q0.179632 3.6653 0.215255 3.54787Q0.250879 3.43043 0.292221 3.31489Q0.333564 3.19934 0.380526 3.08597Q0.427489 2.97259 0.479957 2.86165Q0.532426 2.75072 0.590276 2.64249Q0.648125 2.53426 0.711215 2.429Q0.774305 2.32374 0.842483 2.2217Q0.910662 2.11967 0.983765 2.0211Q1.05687 1.92253 1.13472 1.82767Q1.21257 1.73281 1.29499 1.64188Q1.3774 1.55095 1.46417 1.46417Q1.55095 1.3774 1.64188 1.29499Q1.73281 1.21257 1.82767 1.13472Q1.92253 1.05687 2.0211 0.983765Q2.11967 0.910662 2.2217 0.842483Q2.32374 0.774305 2.429 0.711215Q2.53426 0.648125 2.64249 0.590276Q2.75072 0.532426 2.86165 0.479957Q2.97259 0.427489 3.08597 0.380526Q3.19934 0.333564 3.31489 0.292221Q3.43043 0.250879 3.54787 0.215255Q3.6653 0.179632 3.78434 0.149814Q3.90338 0.119996 4.02374 0.0960544Q4.1441 0.0721132 4.26549 0.0541066Q4.38688 0.0361001 4.50901 0.0240715Q4.63114 0.012043 4.75371 0.00602151Q4.87628 0 4.999 0L4.999 0Z" id="Rectangle" fill="url(#gradient_1)" fill-rule="evenodd" stroke="none" />
        <path d="M10.213 14.0172L46.6631 14.0172Q46.7367 14.0172 46.81 14.0244Q46.8833 14.0316 46.9555 14.046Q47.0277 14.0604 47.0982 14.0818Q47.1687 14.1031 47.2367 14.1313Q47.3047 14.1595 47.3697 14.1942Q47.4346 14.2289 47.4958 14.2698Q47.5571 14.3108 47.614 14.3575Q47.6709 14.4042 47.723 14.4563Q47.7751 14.5083 47.8218 14.5653Q47.8685 14.6222 47.9094 14.6834Q47.9503 14.7446 47.985 14.8096Q48.0198 14.8745 48.0479 14.9426Q48.0761 15.0106 48.0975 15.0811Q48.1189 15.1515 48.1332 15.2238Q48.1476 15.296 48.1548 15.3693Q48.1621 15.4426 48.1621 15.5162L48.1621 24.3526Q48.1621 24.4263 48.1548 24.4996Q48.1476 24.5728 48.1332 24.6451Q48.1189 24.7173 48.0975 24.7878Q48.0761 24.8582 48.0479 24.9263Q48.0198 24.9943 47.9851 25.0592Q47.9503 25.1242 47.9094 25.1854Q47.8685 25.2467 47.8218 25.3036Q47.7751 25.3605 47.723 25.4126Q47.6709 25.4647 47.614 25.5114Q47.5571 25.5581 47.4958 25.599Q47.4346 25.6399 47.3697 25.6746Q47.3047 25.7093 47.2367 25.7375Q47.1687 25.7657 47.0982 25.7871Q47.0277 25.8085 46.9555 25.8228Q46.8833 25.8372 46.81 25.8444Q46.7367 25.8516 46.6631 25.8516L10.213 25.8516Q10.1394 25.8516 10.0661 25.8444Q9.99279 25.8372 9.92056 25.8228Q9.84834 25.8085 9.77787 25.7871Q9.7074 25.7657 9.63936 25.7375Q9.57133 25.7093 9.50638 25.6746Q9.44143 25.6399 9.3802 25.599Q9.31897 25.5581 9.26205 25.5114Q9.20512 25.4647 9.15305 25.4126Q9.10098 25.3605 9.05426 25.3036Q9.00754 25.2467 8.96663 25.1854Q8.92572 25.1242 8.891 25.0593Q8.85629 24.9943 8.82811 24.9263Q8.79993 24.8582 8.77855 24.7878Q8.75717 24.7173 8.74281 24.6451Q8.72844 24.5728 8.72122 24.4996Q8.714 24.4263 8.714 24.3526L8.714 15.5162Q8.714 15.4426 8.72122 15.3693Q8.72844 15.296 8.74281 15.2238Q8.75717 15.1515 8.77855 15.0811Q8.79993 15.0106 8.82811 14.9426Q8.85629 14.8745 8.89101 14.8096Q8.92572 14.7446 8.96663 14.6834Q9.00754 14.6222 9.05426 14.5653Q9.10098 14.5083 9.15305 14.4563Q9.20512 14.4042 9.26205 14.3575Q9.31897 14.3108 9.3802 14.2698Q9.44143 14.2289 9.50638 14.1942Q9.57133 14.1595 9.63936 14.1313Q9.7074 14.1031 9.77787 14.0818Q9.84834 14.0604 9.92056 14.046Q9.99279 14.0316 10.0661 14.0244Q10.1394 14.0172 10.213 14.0172L10.213 14.0172Z" id="Rectangle-2" fill="url(#gradient_2)" fill-rule="evenodd" stroke="none" />
        <path d="M10.3321 29.3812L18.4986 29.3812Q18.5722 29.3812 18.6455 29.3884Q18.7188 29.3956 18.791 29.41Q18.8633 29.4243 18.9337 29.4457Q19.0042 29.4671 19.0722 29.4953Q19.1403 29.5235 19.2052 29.5582Q19.2702 29.5929 19.3314 29.6338Q19.3926 29.6747 19.4496 29.7214Q19.5065 29.7681 19.5585 29.8202Q19.6106 29.8723 19.6573 29.9292Q19.7041 29.9861 19.745 30.0474Q19.7859 30.1086 19.8206 30.1735Q19.8553 30.2385 19.8835 30.3065Q19.9117 30.3746 19.933 30.445Q19.9544 30.5155 19.9688 30.5877Q19.9832 30.66 19.9904 30.7332Q19.9976 30.8065 19.9976 30.8802L19.9976 39.0467Q19.9976 39.1203 19.9904 39.1936Q19.9832 39.2669 19.9688 39.3391Q19.9544 39.4114 19.9331 39.4818Q19.9117 39.5523 19.8835 39.6203Q19.8553 39.6884 19.8206 39.7533Q19.7859 39.8183 19.745 39.8795Q19.7041 39.9407 19.6573 39.9977Q19.6106 40.0546 19.5585 40.1067Q19.5065 40.1587 19.4496 40.2054Q19.3926 40.2522 19.3314 40.2931Q19.2702 40.334 19.2052 40.3687Q19.1403 40.4034 19.0722 40.4316Q19.0042 40.4598 18.9337 40.4812Q18.8633 40.5025 18.791 40.5169Q18.7188 40.5313 18.6455 40.5385Q18.5722 40.5457 18.4986 40.5457L10.3321 40.5457Q10.2584 40.5457 10.1851 40.5385Q10.1118 40.5313 10.0396 40.5169Q9.96739 40.5025 9.89692 40.4812Q9.82645 40.4598 9.75841 40.4316Q9.69038 40.4034 9.62543 40.3687Q9.56048 40.334 9.49925 40.2931Q9.43802 40.2522 9.3811 40.2054Q9.32417 40.1587 9.2721 40.1067Q9.22003 40.0546 9.17331 39.9977Q9.12659 39.9407 9.08568 39.8795Q9.04477 39.8183 9.01005 39.7533Q8.97534 39.6884 8.94716 39.6203Q8.91898 39.5523 8.8976 39.4818Q8.87622 39.4114 8.86186 39.3391Q8.84749 39.2669 8.84027 39.1936Q8.83305 39.1203 8.83305 39.0467L8.83305 30.8802Q8.83305 30.8065 8.84027 30.7332Q8.84749 30.66 8.86186 30.5877Q8.87622 30.5155 8.8976 30.445Q8.91898 30.3746 8.94716 30.3065Q8.97534 30.2385 9.01005 30.1735Q9.04477 30.1086 9.08568 30.0474Q9.12659 29.9861 9.17331 29.9292Q9.22003 29.8723 9.2721 29.8202Q9.32417 29.7681 9.3811 29.7214Q9.43802 29.6747 9.49925 29.6338Q9.56048 29.5929 9.62543 29.5582Q9.69038 29.5235 9.75841 29.4953Q9.82645 29.4671 9.89692 29.4457Q9.96739 29.4243 10.0396 29.41Q10.1118 29.3956 10.1851 29.3884Q10.2584 29.3812 10.3321 29.3812Z" id="Rectangle-3" fill="url(#gradient_3)" fill-rule="evenodd" stroke="none" />
        <path d="M24.4738 29.3812L32.6404 29.3812Q32.714 29.3812 32.7873 29.3884Q32.8606 29.3956 32.9328 29.41Q33.005 29.4243 33.0755 29.4457Q33.146 29.4671 33.214 29.4953Q33.282 29.5235 33.347 29.5582Q33.4119 29.5929 33.4731 29.6338Q33.5344 29.6747 33.5913 29.7214Q33.6482 29.7681 33.7003 29.8202Q33.7524 29.8723 33.7991 29.9292Q33.8458 29.9861 33.8867 30.0474Q33.9276 30.1086 33.9623 30.1735Q33.9971 30.2385 34.0252 30.3065Q34.0534 30.3746 34.0748 30.445Q34.0962 30.5155 34.1105 30.5877Q34.1249 30.66 34.1321 30.7332Q34.1394 30.8065 34.1394 30.8802L34.1394 39.0467Q34.1394 39.1203 34.1321 39.1936Q34.1249 39.2669 34.1105 39.3391Q34.0962 39.4114 34.0748 39.4818Q34.0534 39.5523 34.0252 39.6203Q33.9971 39.6884 33.9623 39.7533Q33.9276 39.8183 33.8867 39.8795Q33.8458 39.9407 33.7991 39.9977Q33.7524 40.0546 33.7003 40.1067Q33.6482 40.1587 33.5913 40.2054Q33.5344 40.2522 33.4731 40.2931Q33.4119 40.334 33.347 40.3687Q33.282 40.4034 33.214 40.4316Q33.146 40.4598 33.0755 40.4812Q33.005 40.5025 32.9328 40.5169Q32.8606 40.5313 32.7873 40.5385Q32.714 40.5457 32.6404 40.5457L24.4738 40.5457Q24.4002 40.5457 24.3269 40.5385Q24.2536 40.5313 24.1814 40.5169Q24.1091 40.5025 24.0387 40.4812Q23.9682 40.4598 23.9002 40.4316Q23.8321 40.4034 23.7672 40.3687Q23.7022 40.334 23.641 40.2931Q23.5798 40.2522 23.5229 40.2054Q23.4659 40.1587 23.4139 40.1067Q23.3618 40.0546 23.3151 39.9977Q23.2683 39.9407 23.2274 39.8795Q23.1865 39.8183 23.1518 39.7533Q23.1171 39.6884 23.0889 39.6203Q23.0607 39.5523 23.0394 39.4818Q23.018 39.4114 23.0036 39.3391Q22.9892 39.2669 22.982 39.1936Q22.9748 39.1203 22.9748 39.0467L22.9748 30.8802Q22.9748 30.8065 22.982 30.7332Q22.9892 30.66 23.0036 30.5877Q23.018 30.5155 23.0394 30.445Q23.0607 30.3746 23.0889 30.3065Q23.1171 30.2385 23.1518 30.1735Q23.1865 30.1086 23.2274 30.0474Q23.2683 29.9861 23.3151 29.9292Q23.3618 29.8723 23.4139 29.8202Q23.4659 29.7681 23.5229 29.7214Q23.5798 29.6747 23.641 29.6338Q23.7022 29.5929 23.7672 29.5582Q23.8321 29.5235 23.9002 29.4953Q23.9682 29.4671 24.0387 29.4457Q24.1091 29.4243 24.1814 29.41Q24.2536 29.3956 24.3269 29.3884Q24.4002 29.3812 24.4738 29.3812Z" id="Rectangle-4" fill="url(#gradient_4)" fill-rule="evenodd" stroke="none" />
        <path d="M38.6155 29.3812L46.7821 29.3812Q46.8557 29.3812 46.929 29.3884Q47.0023 29.3956 47.0745 29.41Q47.1468 29.4243 47.2172 29.4457Q47.2877 29.4671 47.3557 29.4953Q47.4238 29.5235 47.4887 29.5582Q47.5537 29.5929 47.6149 29.6338Q47.6761 29.6747 47.733 29.7214Q47.79 29.7681 47.842 29.8202Q47.8941 29.8723 47.9408 29.9292Q47.9875 29.9861 48.0285 30.0474Q48.0694 30.1086 48.1041 30.1735Q48.1388 30.2385 48.167 30.3065Q48.1952 30.3746 48.2165 30.445Q48.2379 30.5155 48.2523 30.5877Q48.2666 30.66 48.2739 30.7332Q48.2811 30.8065 48.2811 30.8802L48.2811 39.0467Q48.2811 39.1203 48.2739 39.1936Q48.2666 39.2669 48.2523 39.3391Q48.2379 39.4114 48.2165 39.4818Q48.1952 39.5523 48.167 39.6203Q48.1388 39.6884 48.1041 39.7533Q48.0694 39.8183 48.0285 39.8795Q47.9875 39.9407 47.9408 39.9977Q47.8941 40.0546 47.842 40.1067Q47.79 40.1587 47.733 40.2054Q47.6761 40.2522 47.6149 40.2931Q47.5537 40.334 47.4887 40.3687Q47.4238 40.4034 47.3557 40.4316Q47.2877 40.4598 47.2172 40.4812Q47.1468 40.5025 47.0745 40.5169Q47.0023 40.5313 46.929 40.5385Q46.8557 40.5457 46.7821 40.5457L38.6155 40.5457Q38.5419 40.5457 38.4686 40.5385Q38.3953 40.5313 38.3231 40.5169Q38.2509 40.5025 38.1804 40.4812Q38.1099 40.4598 38.0419 40.4316Q37.9739 40.4034 37.9089 40.3687Q37.844 40.334 37.7827 40.2931Q37.7215 40.2522 37.6646 40.2054Q37.6077 40.1587 37.5556 40.1067Q37.5035 40.0546 37.4568 39.9977Q37.4101 39.9407 37.3692 39.8795Q37.3283 39.8183 37.2935 39.7533Q37.2588 39.6884 37.2306 39.6203Q37.2025 39.5523 37.1811 39.4818Q37.1597 39.4114 37.1453 39.3391Q37.131 39.2669 37.1238 39.1936Q37.1166 39.1203 37.1165 39.0467L37.1165 30.8802Q37.1166 30.8065 37.1238 30.7332Q37.131 30.66 37.1453 30.5877Q37.1597 30.5155 37.1811 30.445Q37.2025 30.3746 37.2306 30.3065Q37.2588 30.2385 37.2935 30.1735Q37.3283 30.1086 37.3692 30.0474Q37.4101 29.9861 37.4568 29.9292Q37.5035 29.8723 37.5556 29.8202Q37.6077 29.7681 37.6646 29.7214Q37.7215 29.6747 37.7827 29.6338Q37.844 29.5929 37.9089 29.5582Q37.9739 29.5235 38.0419 29.4953Q38.1099 29.4671 38.1804 29.4457Q38.2509 29.4243 38.3231 29.41Q38.3953 29.3956 38.4686 29.3884Q38.5419 29.3812 38.6155 29.3812Z" id="Rectangle-5" fill="url(#gradient_4)" fill-rule="evenodd" stroke="none" />
        <path d="M10.213 43.7209L18.3795 43.7209Q18.4532 43.7209 18.5265 43.7281Q18.5998 43.7353 18.672 43.7497Q18.7442 43.7641 18.8147 43.7854Q18.8852 43.8068 18.9532 43.835Q19.0212 43.8632 19.0862 43.8979Q19.1511 43.9326 19.2123 43.9735Q19.2736 44.0144 19.3305 44.0611Q19.3874 44.1079 19.4395 44.1599Q19.4916 44.212 19.5383 44.2689Q19.585 44.3259 19.6259 44.3871Q19.6668 44.4483 19.7015 44.5133Q19.7363 44.5782 19.7644 44.6462Q19.7926 44.7143 19.814 44.7848Q19.8354 44.8552 19.8497 44.9274Q19.8641 44.9997 19.8713 45.073Q19.8785 45.1462 19.8785 45.2199L19.8785 53.3864Q19.8785 53.4601 19.8713 53.5334Q19.8641 53.6066 19.8497 53.6789Q19.8354 53.7511 19.814 53.8216Q19.7926 53.892 19.7644 53.9601Q19.7363 54.0281 19.7015 54.0931Q19.6668 54.158 19.6259 54.2192Q19.585 54.2805 19.5383 54.3374Q19.4916 54.3943 19.4395 54.4464Q19.3874 54.4984 19.3305 54.5452Q19.2736 54.5919 19.2123 54.6328Q19.1511 54.6737 19.0862 54.7084Q19.0212 54.7431 18.9532 54.7713Q18.8852 54.7995 18.8147 54.8209Q18.7442 54.8423 18.672 54.8566Q18.5998 54.871 18.5265 54.8782Q18.4532 54.8854 18.3795 54.8854L10.213 54.8854Q10.1394 54.8854 10.0661 54.8782Q9.99279 54.871 9.92056 54.8566Q9.84834 54.8423 9.77787 54.8209Q9.7074 54.7995 9.63936 54.7713Q9.57133 54.7431 9.50638 54.7084Q9.44143 54.6737 9.3802 54.6328Q9.31897 54.5919 9.26205 54.5452Q9.20512 54.4985 9.15305 54.4464Q9.10098 54.3943 9.05426 54.3374Q9.00754 54.2805 8.96663 54.2192Q8.92572 54.158 8.891 54.0931Q8.85629 54.0281 8.82811 53.9601Q8.79993 53.892 8.77855 53.8216Q8.75717 53.7511 8.74281 53.6789Q8.72844 53.6066 8.72122 53.5334Q8.714 53.4601 8.714 53.3864L8.714 45.2199Q8.714 45.1462 8.72122 45.073Q8.72844 44.9997 8.74281 44.9274Q8.75717 44.8552 8.77855 44.7848Q8.79993 44.7143 8.82811 44.6462Q8.85629 44.5782 8.89101 44.5133Q8.92572 44.4483 8.96663 44.3871Q9.00754 44.3259 9.05426 44.2689Q9.10098 44.212 9.15305 44.1599Q9.20512 44.1079 9.26205 44.0611Q9.31897 44.0144 9.3802 43.9735Q9.44143 43.9326 9.50638 43.8979Q9.57133 43.8632 9.63936 43.835Q9.7074 43.8068 9.77787 43.7854Q9.84834 43.7641 9.92056 43.7497Q9.99279 43.7353 10.0661 43.7281Q10.1394 43.7209 10.213 43.7209Z" id="Rectangle-6" fill="url(#gradient_3)" fill-rule="evenodd" stroke="none" />
        <path d="M24.4143 43.7209L32.5809 43.7209Q32.6545 43.7209 32.7278 43.7281Q32.8011 43.7353 32.8733 43.7497Q32.9455 43.7641 33.016 43.7854Q33.0865 43.8068 33.1545 43.835Q33.2225 43.8632 33.2875 43.8979Q33.3524 43.9326 33.4136 43.9735Q33.4749 44.0144 33.5318 44.0611Q33.5887 44.1079 33.6408 44.1599Q33.6929 44.212 33.7396 44.2689Q33.7863 44.3259 33.8272 44.3871Q33.8681 44.4483 33.9028 44.5133Q33.9376 44.5782 33.9657 44.6462Q33.9939 44.7143 34.0153 44.7848Q34.0367 44.8552 34.051 44.9274Q34.0654 44.9997 34.0726 45.073Q34.0799 45.1462 34.0799 45.2199L34.0799 53.3864Q34.0799 53.4601 34.0726 53.5334Q34.0654 53.6066 34.051 53.6789Q34.0367 53.7511 34.0153 53.8216Q33.9939 53.892 33.9657 53.9601Q33.9376 54.0281 33.9028 54.0931Q33.8681 54.158 33.8272 54.2192Q33.7863 54.2805 33.7396 54.3374Q33.6929 54.3943 33.6408 54.4464Q33.5887 54.4984 33.5318 54.5452Q33.4749 54.5919 33.4137 54.6328Q33.3524 54.6737 33.2875 54.7084Q33.2225 54.7431 33.1545 54.7713Q33.0865 54.7995 33.016 54.8209Q32.9455 54.8423 32.8733 54.8566Q32.8011 54.871 32.7278 54.8782Q32.6545 54.8854 32.5809 54.8854L24.4143 54.8854Q24.3407 54.8854 24.2674 54.8782Q24.1941 54.871 24.1219 54.8566Q24.0496 54.8423 23.9792 54.8209Q23.9087 54.7995 23.8407 54.7713Q23.7726 54.7431 23.7077 54.7084Q23.6427 54.6737 23.5815 54.6328Q23.5203 54.5919 23.4634 54.5452Q23.4064 54.4985 23.3544 54.4464Q23.3023 54.3943 23.2556 54.3374Q23.2089 54.2805 23.1679 54.2192Q23.127 54.158 23.0923 54.0931Q23.0576 54.0281 23.0294 53.9601Q23.0012 53.892 22.9799 53.8216Q22.9585 53.7511 22.9441 53.6789Q22.9298 53.6066 22.9225 53.5334Q22.9153 53.4601 22.9153 53.3864L22.9153 45.2199Q22.9153 45.1462 22.9225 45.073Q22.9298 44.9997 22.9441 44.9274Q22.9585 44.8552 22.9799 44.7848Q23.0012 44.7143 23.0294 44.6462Q23.0576 44.5782 23.0923 44.5133Q23.127 44.4483 23.1679 44.3871Q23.2089 44.3259 23.2556 44.2689Q23.3023 44.212 23.3544 44.1599Q23.4064 44.1079 23.4634 44.0611Q23.5203 44.0144 23.5815 43.9735Q23.6427 43.9326 23.7077 43.8979Q23.7726 43.8632 23.8407 43.835Q23.9087 43.8068 23.9792 43.7854Q24.0496 43.7641 24.1219 43.7497Q24.1941 43.7353 24.2674 43.7281Q24.3407 43.7209 24.4143 43.7209Z" id="Rectangle-7" fill="url(#gradient_5)" fill-rule="evenodd" stroke="none" />
        <path d="M38.6156 43.7209L46.7822 43.7209Q46.8558 43.7209 46.9291 43.7281Q47.0024 43.7353 47.0746 43.7497Q47.1468 43.7641 47.2173 43.7854Q47.2878 43.8068 47.3558 43.835Q47.4238 43.8632 47.4888 43.8979Q47.5537 43.9326 47.6149 43.9735Q47.6762 44.0144 47.7331 44.0611Q47.79 44.1079 47.8421 44.1599Q47.8942 44.212 47.9409 44.2689Q47.9876 44.3259 48.0285 44.3871Q48.0694 44.4483 48.1041 44.5133Q48.1389 44.5782 48.167 44.6462Q48.1952 44.7143 48.2166 44.7848Q48.238 44.8552 48.2523 44.9274Q48.2667 44.9997 48.2739 45.073Q48.2812 45.1462 48.2812 45.2199L48.2812 53.3864Q48.2812 53.4601 48.2739 53.5334Q48.2667 53.6066 48.2523 53.6789Q48.238 53.7511 48.2166 53.8216Q48.1952 53.892 48.167 53.9601Q48.1389 54.0281 48.1041 54.0931Q48.0694 54.158 48.0285 54.2192Q47.9876 54.2805 47.9409 54.3374Q47.8942 54.3943 47.8421 54.4464Q47.79 54.4984 47.7331 54.5452Q47.6762 54.5919 47.6149 54.6328Q47.5537 54.6737 47.4888 54.7084Q47.4238 54.7431 47.3558 54.7713Q47.2878 54.7995 47.2173 54.8209Q47.1468 54.8423 47.0746 54.8566Q47.0024 54.871 46.9291 54.8782Q46.8558 54.8854 46.7822 54.8854L38.6156 54.8854Q38.542 54.8854 38.4687 54.8782Q38.3954 54.871 38.3232 54.8566Q38.2509 54.8423 38.1805 54.8209Q38.11 54.7995 38.042 54.7713Q37.9739 54.7431 37.909 54.7084Q37.844 54.6737 37.7828 54.6328Q37.7216 54.5919 37.6646 54.5452Q37.6077 54.4985 37.5557 54.4464Q37.5036 54.3943 37.4569 54.3374Q37.4101 54.2805 37.3692 54.2192Q37.3283 54.158 37.2936 54.0931Q37.2589 54.0281 37.2307 53.9601Q37.2025 53.892 37.1811 53.8216Q37.1598 53.7511 37.1454 53.6789Q37.131 53.6066 37.1238 53.5334Q37.1166 53.4601 37.1166 53.3864L37.1166 45.2199Q37.1166 45.1462 37.1238 45.073Q37.131 44.9997 37.1454 44.9274Q37.1598 44.8552 37.1811 44.7848Q37.2025 44.7143 37.2307 44.6462Q37.2589 44.5782 37.2936 44.5133Q37.3283 44.4483 37.3692 44.3871Q37.4101 44.3259 37.4569 44.2689Q37.5036 44.212 37.5557 44.1599Q37.6077 44.1079 37.6647 44.0611Q37.7216 44.0144 37.7828 43.9735Q37.844 43.9326 37.909 43.8979Q37.9739 43.8632 38.042 43.835Q38.11 43.8068 38.1805 43.7854Q38.2509 43.7641 38.3232 43.7497Q38.3954 43.7353 38.4687 43.7281Q38.542 43.7209 38.6156 43.7209Z" id="Rectangle-8" fill="url(#gradient_4)" fill-rule="evenodd" stroke="none" />
        <path d="M10.213 58.08L18.3795 58.08Q18.4532 58.08 18.5265 58.0872Q18.5998 58.0944 18.672 58.1088Q18.7442 58.1231 18.8147 58.1445Q18.8852 58.1659 18.9532 58.1941Q19.0212 58.2223 19.0862 58.257Q19.1511 58.2917 19.2123 58.3326Q19.2736 58.3735 19.3305 58.4202Q19.3874 58.4669 19.4395 58.519Q19.4916 58.5711 19.5383 58.628Q19.585 58.6849 19.6259 58.7462Q19.6668 58.8074 19.7015 58.8723Q19.7363 58.9373 19.7644 59.0053Q19.7926 59.0734 19.814 59.1438Q19.8354 59.2143 19.8497 59.2865Q19.8641 59.3588 19.8713 59.432Q19.8785 59.5053 19.8785 59.579L19.8785 67.7455Q19.8785 67.8192 19.8713 67.8924Q19.8641 67.9657 19.8497 68.0379Q19.8354 68.1102 19.814 68.1807Q19.7926 68.2511 19.7644 68.3192Q19.7363 68.3872 19.7015 68.4521Q19.6668 68.5171 19.6259 68.5783Q19.585 68.6395 19.5383 68.6965Q19.4916 68.7534 19.4395 68.8055Q19.3874 68.8575 19.3305 68.9043Q19.2736 68.951 19.2123 68.9919Q19.1511 69.0328 19.0862 69.0675Q19.0212 69.1022 18.9532 69.1304Q18.8852 69.1586 18.8147 69.18Q18.7442 69.2013 18.672 69.2157Q18.5998 69.2301 18.5265 69.2373Q18.4532 69.2445 18.3795 69.2445L10.213 69.2445Q10.1394 69.2445 10.0661 69.2373Q9.99279 69.2301 9.92056 69.2157Q9.84834 69.2013 9.77787 69.18Q9.7074 69.1586 9.63936 69.1304Q9.57133 69.1022 9.50638 69.0675Q9.44143 69.0328 9.3802 68.9919Q9.31897 68.951 9.26205 68.9043Q9.20512 68.8575 9.15305 68.8055Q9.10098 68.7534 9.05426 68.6965Q9.00754 68.6395 8.96663 68.5783Q8.92572 68.5171 8.891 68.4521Q8.85629 68.3872 8.82811 68.3191Q8.79993 68.2511 8.77855 68.1807Q8.75717 68.1102 8.74281 68.0379Q8.72844 67.9657 8.72122 67.8924Q8.714 67.8192 8.714 67.7455L8.714 59.579Q8.714 59.5053 8.72122 59.432Q8.72844 59.3588 8.74281 59.2865Q8.75717 59.2143 8.77855 59.1438Q8.79993 59.0734 8.82811 59.0053Q8.85629 58.9373 8.89101 58.8723Q8.92572 58.8074 8.96663 58.7462Q9.00754 58.6849 9.05426 58.628Q9.10098 58.5711 9.15305 58.519Q9.20512 58.4669 9.26205 58.4202Q9.31897 58.3735 9.3802 58.3326Q9.44143 58.2917 9.50638 58.257Q9.57133 58.2223 9.63936 58.1941Q9.7074 58.1659 9.77787 58.1445Q9.84834 58.1231 9.92056 58.1088Q9.99279 58.0944 10.0661 58.0872Q10.1394 58.08 10.213 58.08Z" id="Rectangle-9" fill="url(#gradient_3)" fill-rule="evenodd" stroke="none" />
        <path d="M24.5334 58.1395L46.7822 58.1395Q46.8558 58.1395 46.9291 58.1467Q47.0024 58.154 47.0746 58.1683Q47.1468 58.1827 47.2173 58.2041Q47.2878 58.2254 47.3558 58.2536Q47.4238 58.2818 47.4888 58.3165Q47.5537 58.3512 47.615 58.3921Q47.6762 58.4331 47.7331 58.4798Q47.79 58.5265 47.8421 58.5786Q47.8942 58.6306 47.9409 58.6876Q47.9876 58.7445 48.0285 58.8057Q48.0694 58.867 48.1042 58.9319Q48.1389 58.9968 48.167 59.0649Q48.1952 59.1329 48.2166 59.2034Q48.238 59.2739 48.2524 59.3461Q48.2667 59.4183 48.2739 59.4916Q48.2812 59.5649 48.2812 59.6385L48.2812 67.686Q48.2812 67.7596 48.2739 67.8329Q48.2667 67.9062 48.2524 67.9784Q48.238 68.0506 48.2166 68.1211Q48.1952 68.1916 48.1671 68.2596Q48.1389 68.3277 48.1042 68.3926Q48.0694 68.4576 48.0285 68.5188Q47.9876 68.58 47.9409 68.6369Q47.8942 68.6939 47.8421 68.7459Q47.79 68.798 47.7331 68.8447Q47.6762 68.8914 47.615 68.9323Q47.5537 68.9733 47.4888 69.008Q47.4238 69.0427 47.3558 69.0709Q47.2878 69.0991 47.2173 69.1204Q47.1468 69.1418 47.0746 69.1562Q47.0024 69.1705 46.9291 69.1778Q46.8558 69.185 46.7822 69.185L24.5334 69.185Q24.4598 69.185 24.3865 69.1778Q24.3132 69.1705 24.241 69.1562Q24.1687 69.1418 24.0983 69.1204Q24.0278 69.099 23.9598 69.0709Q23.8917 69.0427 23.8268 69.008Q23.7618 68.9733 23.7006 68.9323Q23.6394 68.8914 23.5825 68.8447Q23.5255 68.798 23.4735 68.7459Q23.4214 68.6939 23.3747 68.6369Q23.3279 68.58 23.287 68.5188Q23.2461 68.4575 23.2114 68.3926Q23.1767 68.3277 23.1485 68.2596Q23.1203 68.1916 23.099 68.1211Q23.0776 68.0506 23.0632 67.9784Q23.0488 67.9062 23.0416 67.8329Q23.0344 67.7596 23.0344 67.686L23.0344 59.6385Q23.0344 59.5649 23.0416 59.4916Q23.0488 59.4183 23.0632 59.3461Q23.0776 59.2739 23.099 59.2034Q23.1203 59.1329 23.1485 59.0649Q23.1767 58.9968 23.2114 58.9319Q23.2461 58.867 23.287 58.8057Q23.3279 58.7445 23.3747 58.6876Q23.4214 58.6306 23.4735 58.5786Q23.5255 58.5265 23.5825 58.4798Q23.6394 58.4331 23.7006 58.3921Q23.7618 58.3512 23.8268 58.3165Q23.8917 58.2818 23.9598 58.2536Q24.0278 58.2254 24.0983 58.2041Q24.1687 58.1827 24.241 58.1683Q24.3132 58.154 24.3865 58.1467Q24.4598 58.1395 24.5334 58.1395Z" id="Rectangle-11" fill="url(#gradient_6)" fill-rule="evenodd" stroke="none" />
      </g>
    </g>
  </g>
</svg>