<?xml version="1.0" encoding="utf-8"?>
<svg width="120px" height="120px" viewBox="0 0 120 120" version="1.1" xmlns:xlink="http://www.w3.org/1999/xlink" xmlns="http://www.w3.org/2000/svg">
  <defs>
    <linearGradient gradientUnits="userSpaceOnUse" x1="0" y1="0" x2="82" y2="67" id="gradient_1">
      <stop offset="0%" stop-color="#2A83FF" />
      <stop offset="100%" stop-color="#B027FF" />
    </linearGradient>
    <filter filterUnits="userSpaceOnUse" color-interpolation-filters="sRGB" id="filter_1">
      <feFlood flood-opacity="0" result="BackgroundImageFix" />
      <feBlend mode="normal" in="SourceGraphic" in2="BackgroundImageFix" result="shape" />
      <feColorMatrix in="SourceAlpha" type="matrix" values="0 0 0 0 0 0 0 0 0 0 0 0 0 0 0 0 0 0 127 0" result="hardAlpha" />
      <feOffset dx="0" dy="0" />
      <feGaussianBlur stdDeviation="1" />
      <feComposite in2="hardAlpha" operator="arithmetic" k2="-1" k3="1" />
      <feColorMatrix type="matrix" values="0 0 0 0 0.42745098 0 0 0 0 0.33333334 0 0 0 0 1 0 0 0 1 0" />
      <feBlend mode="normal" in2="shape" result="effect0_innerShadow" />
    </filter>
    <path d="M28.999 74.2367L37.7643 74.2367Q37.8625 74.2367 37.9603 74.2463Q38.058 74.256 38.1543 74.2751Q38.2506 74.2943 38.3446 74.3228Q38.4386 74.3513 38.5293 74.3889Q38.62 74.4265 38.7066 74.4727Q38.7932 74.519 38.8749 74.5736Q38.9566 74.6282 39.0325 74.6905Q39.1084 74.7528 39.1778 74.8222Q39.2473 74.8916 39.3096 74.9676Q39.3719 75.0435 39.4264 75.1251Q39.481 75.2068 39.5273 75.2934Q39.5736 75.38 39.6111 75.4707Q39.6487 75.5615 39.6772 75.6554Q39.7057 75.7494 39.7249 75.8457Q39.7441 75.942 39.7537 76.0398Q39.7633 76.1375 39.7633 76.2357L39.7633 85.001Q39.7633 85.0992 39.7537 85.197Q39.7441 85.2947 39.7249 85.391Q39.7057 85.4873 39.6772 85.5813Q39.6487 85.6753 39.6111 85.766Q39.5736 85.8567 39.5273 85.9434Q39.481 86.03 39.4264 86.1116Q39.3719 86.1933 39.3096 86.2692Q39.2473 86.3451 39.1778 86.4145Q39.1084 86.484 39.0325 86.5463Q38.9566 86.6086 38.8749 86.6631Q38.7932 86.7177 38.7066 86.764Q38.62 86.8103 38.5293 86.8479Q38.4386 86.8854 38.3446 86.914Q38.2506 86.9425 38.1543 86.9616Q38.058 86.9808 37.9603 86.9904Q37.8625 87 37.7643 87L28.999 87Q28.9008 87 28.8031 86.9904Q28.7053 86.9808 28.609 86.9616Q28.5127 86.9425 28.4187 86.914Q28.3247 86.8854 28.234 86.8479Q28.1433 86.8103 28.0567 86.764Q27.9701 86.7177 27.8884 86.6631Q27.8067 86.6086 27.7308 86.5463Q27.6549 86.484 27.5855 86.4145Q27.516 86.3451 27.4537 86.2692Q27.3914 86.1933 27.3369 86.1116Q27.2823 86.03 27.236 85.9434Q27.1897 85.8567 27.1521 85.766Q27.1146 85.6753 27.0861 85.5813Q27.0576 85.4873 27.0384 85.391Q27.0192 85.2947 27.0096 85.197Q27 85.0992 27 85.001L27 76.2357Q27 76.1375 27.0096 76.0398Q27.0192 75.942 27.0384 75.8457Q27.0576 75.7494 27.0861 75.6554Q27.1146 75.5615 27.1521 75.4707Q27.1897 75.38 27.236 75.2934Q27.2823 75.2068 27.3369 75.1251Q27.3914 75.0435 27.4537 74.9676Q27.516 74.8916 27.5855 74.8222Q27.6549 74.7528 27.7308 74.6905Q27.8067 74.6282 27.8884 74.5736Q27.9701 74.519 28.0567 74.4727Q28.1433 74.4265 28.234 74.3889Q28.3247 74.3513 28.4187 74.3228Q28.5127 74.2943 28.609 74.2751Q28.7053 74.256 28.803 74.2463Q28.9008 74.2367 28.999 74.2367Z" id="path_1" />
    <path d="M46.8476 74.2367L55.613 74.2367Q55.7112 74.2367 55.8089 74.2463Q55.9066 74.256 56.003 74.2751Q56.0993 74.2943 56.1932 74.3228Q56.2872 74.3513 56.3779 74.3889Q56.4687 74.4265 56.5553 74.4727Q56.6419 74.519 56.7236 74.5736Q56.8052 74.6282 56.8811 74.6905Q56.957 74.7528 57.0265 74.8222Q57.0959 74.8916 57.1582 74.9676Q57.2205 75.0435 57.2751 75.1251Q57.3296 75.2068 57.3759 75.2934Q57.4222 75.38 57.4598 75.4707Q57.4974 75.5615 57.5259 75.6554Q57.5544 75.7494 57.5736 75.8457Q57.5927 75.942 57.6024 76.0398Q57.612 76.1375 57.612 76.2357L57.612 85.001Q57.612 85.0992 57.6024 85.197Q57.5927 85.2947 57.5736 85.391Q57.5544 85.4873 57.5259 85.5813Q57.4974 85.6753 57.4598 85.766Q57.4222 85.8567 57.3759 85.9434Q57.3296 86.03 57.2751 86.1116Q57.2205 86.1933 57.1582 86.2692Q57.0959 86.3451 57.0265 86.4145Q56.957 86.484 56.8811 86.5463Q56.8052 86.6086 56.7236 86.6631Q56.6419 86.7177 56.5553 86.764Q56.4687 86.8103 56.378 86.8479Q56.2872 86.8854 56.1932 86.914Q56.0993 86.9425 56.003 86.9616Q55.9066 86.9808 55.8089 86.9904Q55.7112 87 55.613 87L46.8476 87Q46.7494 87 46.6517 86.9904Q46.554 86.9808 46.4577 86.9616Q46.3613 86.9425 46.2674 86.914Q46.1734 86.8854 46.0827 86.8479Q45.9919 86.8103 45.9053 86.764Q45.8187 86.7177 45.7371 86.6631Q45.6554 86.6086 45.5795 86.5463Q45.5036 86.484 45.4341 86.4145Q45.3647 86.3451 45.3024 86.2692Q45.2401 86.1933 45.1855 86.1116Q45.131 86.03 45.0847 85.9434Q45.0384 85.8567 45.0008 85.766Q44.9632 85.6753 44.9347 85.5813Q44.9062 85.4873 44.8871 85.391Q44.8679 85.2947 44.8583 85.197Q44.8487 85.0992 44.8486 85.001L44.8486 76.2357Q44.8487 76.1375 44.8583 76.0398Q44.8679 75.942 44.8871 75.8457Q44.9062 75.7494 44.9347 75.6554Q44.9632 75.5615 45.0008 75.4707Q45.0384 75.38 45.0847 75.2934Q45.131 75.2068 45.1855 75.1251Q45.2401 75.0435 45.3024 74.9676Q45.3647 74.8916 45.4341 74.8222Q45.5036 74.7528 45.5795 74.6905Q45.6554 74.6282 45.7371 74.5736Q45.8187 74.519 45.9053 74.4727Q45.9919 74.4265 46.0827 74.3889Q46.1734 74.3513 46.2674 74.3228Q46.3613 74.2943 46.4577 74.2751Q46.554 74.256 46.6517 74.2463Q46.7494 74.2367 46.8476 74.2367Z" id="path_2" />
    <path d="M64.7263 74.2217L73.4916 74.2217Q73.5899 74.2217 73.6876 74.2313Q73.7853 74.2409 73.8816 74.2601Q73.9779 74.2792 74.0719 74.3077Q74.1659 74.3363 74.2566 74.3738Q74.3474 74.4114 74.434 74.4577Q74.5206 74.504 74.6022 74.5585Q74.6839 74.6131 74.7598 74.6754Q74.8357 74.7377 74.9051 74.8072Q74.9746 74.8766 75.0369 74.9525Q75.0992 75.0284 75.1537 75.1101Q75.2083 75.1917 75.2546 75.2783Q75.3009 75.365 75.3385 75.4557Q75.376 75.5464 75.4046 75.6404Q75.4331 75.7344 75.4522 75.8307Q75.4714 75.927 75.481 76.0247Q75.4906 76.1225 75.4906 76.2207L75.4906 84.986Q75.4906 85.0842 75.481 85.1819Q75.4714 85.2797 75.4522 85.376Q75.4331 85.4723 75.4046 85.5663Q75.376 85.6602 75.3385 85.751Q75.3009 85.8417 75.2546 85.9283Q75.2083 86.0149 75.1537 86.0966Q75.0992 86.1782 75.0369 86.2541Q74.9746 86.33 74.9051 86.3995Q74.8357 86.4689 74.7598 86.5312Q74.6839 86.5935 74.6022 86.6481Q74.5206 86.7027 74.434 86.7489Q74.3474 86.7952 74.2566 86.8328Q74.1659 86.8704 74.0719 86.8989Q73.9779 86.9274 73.8816 86.9466Q73.7853 86.9657 73.6876 86.9754Q73.5899 86.985 73.4916 86.985L64.7263 86.985Q64.6281 86.985 64.5304 86.9754Q64.4326 86.9657 64.3363 86.9466Q64.24 86.9274 64.146 86.8989Q64.0521 86.8704 63.9613 86.8328Q63.8706 86.7952 63.784 86.7489Q63.6974 86.7027 63.6157 86.6481Q63.5341 86.5935 63.4582 86.5312Q63.3822 86.4689 63.3128 86.3995Q63.2434 86.33 63.1811 86.2541Q63.1188 86.1782 63.0642 86.0966Q63.0096 86.0149 62.9633 85.9283Q62.9171 85.8417 62.8795 85.751Q62.8419 85.6602 62.8134 85.5663Q62.7849 85.4723 62.7657 85.376Q62.7466 85.2797 62.7369 85.1819Q62.7273 85.0842 62.7273 84.986L62.7273 76.2207Q62.7273 76.1225 62.7369 76.0247Q62.7466 75.927 62.7657 75.8307Q62.7849 75.7344 62.8134 75.6404Q62.8419 75.5464 62.8795 75.4557Q62.9171 75.365 62.9633 75.2783Q63.0096 75.1917 63.0642 75.1101Q63.1188 75.0284 63.1811 74.9525Q63.2434 74.8766 63.3128 74.8072Q63.3822 74.7377 63.4582 74.6754Q63.5341 74.6131 63.6157 74.5585Q63.6974 74.504 63.784 74.4577Q63.8706 74.4114 63.9613 74.3738Q64.052 74.3363 64.146 74.3077Q64.24 74.2792 64.3363 74.2601Q64.4326 74.2409 64.5304 74.2313Q64.6281 74.2217 64.7263 74.2217Z" id="path_3" />
    <path d="M83.2356 74.2217L92.001 74.2217Q92.0992 74.2217 92.1969 74.2313Q92.2946 74.2409 92.3909 74.2601Q92.4873 74.2792 92.5812 74.3077Q92.6752 74.3363 92.7659 74.3738Q92.8567 74.4114 92.9433 74.4577Q93.0299 74.504 93.1115 74.5585Q93.1932 74.6131 93.2691 74.6754Q93.345 74.7377 93.4145 74.8072Q93.4839 74.8766 93.5462 74.9525Q93.6085 75.0284 93.6631 75.1101Q93.7176 75.1917 93.7639 75.2783Q93.8102 75.365 93.8478 75.4557Q93.8854 75.5464 93.9139 75.6404Q93.9424 75.7344 93.9615 75.8307Q93.9807 75.927 93.9903 76.0247Q94 76.1225 94 76.2207L94 84.986Q94 85.0842 93.9903 85.1819Q93.9807 85.2797 93.9615 85.376Q93.9424 85.4723 93.9139 85.5663Q93.8854 85.6602 93.8478 85.751Q93.8102 85.8417 93.7639 85.9283Q93.7176 86.0149 93.6631 86.0966Q93.6085 86.1782 93.5462 86.2541Q93.4839 86.33 93.4145 86.3995Q93.345 86.4689 93.2691 86.5312Q93.1932 86.5935 93.1115 86.6481Q93.0299 86.7027 92.9433 86.7489Q92.8567 86.7952 92.7659 86.8328Q92.6752 86.8704 92.5812 86.8989Q92.4873 86.9274 92.3909 86.9466Q92.2946 86.9657 92.1969 86.9754Q92.0992 86.985 92.001 86.985L83.2356 86.985Q83.1374 86.985 83.0397 86.9754Q82.942 86.9657 82.8456 86.9466Q82.7493 86.9274 82.6554 86.8989Q82.5614 86.8704 82.4706 86.8328Q82.3799 86.7952 82.2933 86.7489Q82.2067 86.7027 82.125 86.6481Q82.0434 86.5935 81.9675 86.5312Q81.8916 86.4689 81.8221 86.3995Q81.7527 86.33 81.6904 86.2541Q81.6281 86.1782 81.5735 86.0966Q81.519 86.0149 81.4727 85.9283Q81.4264 85.8417 81.3888 85.751Q81.3512 85.6602 81.3227 85.5663Q81.2942 85.4723 81.275 85.376Q81.2559 85.2797 81.2463 85.1819Q81.2366 85.0842 81.2366 84.986L81.2366 76.2207Q81.2366 76.1225 81.2463 76.0247Q81.2559 75.927 81.275 75.8307Q81.2942 75.7344 81.3227 75.6404Q81.3512 75.5464 81.3888 75.4557Q81.4264 75.365 81.4727 75.2783Q81.519 75.1917 81.5735 75.1101Q81.6281 75.0284 81.6904 74.9525Q81.7527 74.8766 81.8221 74.8072Q81.8916 74.7377 81.9675 74.6754Q82.0434 74.6131 82.125 74.5585Q82.2067 74.504 82.2933 74.4577Q82.3799 74.4114 82.4706 74.3738Q82.5614 74.3363 82.6554 74.3077Q82.7493 74.2792 82.8456 74.2601Q82.942 74.2409 83.0397 74.2313Q83.1374 74.2217 83.2356 74.2217Z" id="path_4" />
    <rect width="120" height="120" id="artboard_1" />
    <clipPath id="clip_1">
      <use xlink:href="#artboard_1" clip-rule="evenodd" />
    </clipPath>
  </defs>
  <g id="Artboard" clip-path="url(#clip_1)">
    <use xlink:href="#artboard_1" stroke="none" fill="#FFFFFF" />
    <path d="M23.999 27L96.001 27Q96.1237 27 96.2463 27.006Q96.3689 27.012 96.491 27.0241Q96.6131 27.0361 96.7345 27.0541Q96.8559 27.0721 96.9762 27.0961Q97.0966 27.12 97.2157 27.1498Q97.3347 27.1796 97.4521 27.2153Q97.5696 27.2509 97.6851 27.2922Q97.8007 27.3336 97.914 27.3805Q98.0274 27.4275 98.1384 27.48Q98.2493 27.5324 98.3575 27.5903Q98.4657 27.6481 98.571 27.7112Q98.6762 27.7743 98.7783 27.8425Q98.8803 27.9107 98.9789 27.9838Q99.0775 28.0569 99.1723 28.1347Q99.2672 28.2126 99.3581 28.295Q99.449 28.3774 99.5358 28.4642Q99.6226 28.5509 99.705 28.6419Q99.7874 28.7328 99.8653 28.8277Q99.9431 28.9225 100.016 29.0211Q100.089 29.1197 100.158 29.2217Q100.226 29.3237 100.289 29.429Q100.352 29.5343 100.41 29.6425Q100.468 29.7507 100.52 29.8616Q100.573 29.9726 100.619 30.086Q100.666 30.1993 100.708 30.3149Q100.749 30.4304 100.785 30.5479Q100.82 30.6653 100.85 30.7843Q100.88 30.9034 100.904 31.0237Q100.928 31.1441 100.946 31.2655Q100.964 31.3869 100.976 31.509Q100.988 31.6311 100.994 31.7537Q101 31.8763 101 31.999L101 89.001Q101 89.1237 100.994 89.2463Q100.988 89.3689 100.976 89.491Q100.964 89.6131 100.946 89.7345Q100.928 89.8559 100.904 89.9762Q100.88 90.0966 100.85 90.2156Q100.82 90.3347 100.785 90.4521Q100.749 90.5696 100.708 90.6851Q100.666 90.8007 100.619 90.914Q100.573 91.0274 100.52 91.1383Q100.468 91.2493 100.41 91.3575Q100.352 91.4657 100.289 91.571Q100.226 91.6762 100.158 91.7783Q100.089 91.8803 100.016 91.9789Q99.9431 92.0775 99.8653 92.1723Q99.7874 92.2672 99.705 92.3581Q99.6226 92.4491 99.5358 92.5358Q99.449 92.6226 99.3581 92.705Q99.2672 92.7874 99.1723 92.8653Q99.0775 92.9431 98.9789 93.0162Q98.8803 93.0893 98.7783 93.1575Q98.6762 93.2257 98.571 93.2888Q98.4657 93.3519 98.3575 93.4097Q98.2493 93.4676 98.1384 93.52Q98.0274 93.5725 97.914 93.6195Q97.8007 93.6664 97.6851 93.7078Q97.5696 93.7491 97.4521 93.7847Q97.3347 93.8204 97.2157 93.8502Q97.0966 93.88 96.9762 93.9039Q96.8559 93.9279 96.7345 93.9459Q96.6131 93.9639 96.491 93.9759Q96.3689 93.988 96.2463 93.994Q96.1237 94 96.001 94L23.999 94Q23.8763 94 23.7537 93.994Q23.6311 93.988 23.509 93.9759Q23.3869 93.9639 23.2655 93.9459Q23.1441 93.9279 23.0237 93.9039Q22.9034 93.88 22.7843 93.8502Q22.6653 93.8204 22.5479 93.7847Q22.4304 93.7491 22.3149 93.7078Q22.1993 93.6664 22.086 93.6195Q21.9726 93.5725 21.8617 93.52Q21.7507 93.4676 21.6425 93.4097Q21.5343 93.3519 21.429 93.2888Q21.3237 93.2257 21.2217 93.1575Q21.1197 93.0893 21.0211 93.0162Q20.9225 92.9431 20.8277 92.8653Q20.7328 92.7874 20.6419 92.705Q20.5509 92.6226 20.4642 92.5358Q20.3774 92.4491 20.295 92.3581Q20.2126 92.2672 20.1347 92.1723Q20.0569 92.0775 19.9838 91.9789Q19.9107 91.8803 19.8425 91.7783Q19.7743 91.6762 19.7112 91.571Q19.6481 91.4657 19.5903 91.3575Q19.5324 91.2493 19.48 91.1383Q19.4275 91.0274 19.3805 90.914Q19.3336 90.8007 19.2922 90.6851Q19.2509 90.5696 19.2153 90.4521Q19.1796 90.3347 19.1498 90.2157Q19.12 90.0966 19.0961 89.9762Q19.0721 89.8559 19.0541 89.7345Q19.0361 89.6131 19.0241 89.491Q19.012 89.3689 19.006 89.2463Q19 89.1237 19 89.001L19 31.999Q19 31.8763 19.006 31.7537Q19.012 31.6311 19.0241 31.509Q19.0361 31.3869 19.0541 31.2655Q19.0721 31.1441 19.0961 31.0237Q19.12 30.9034 19.1498 30.7843Q19.1796 30.6653 19.2153 30.5479Q19.2509 30.4304 19.2922 30.3149Q19.3336 30.1993 19.3805 30.086Q19.4275 29.9726 19.48 29.8617Q19.5324 29.7507 19.5903 29.6425Q19.6481 29.5343 19.7112 29.429Q19.7743 29.3237 19.8425 29.2217Q19.9107 29.1197 19.9838 29.0211Q20.0569 28.9225 20.1347 28.8277Q20.2126 28.7328 20.295 28.6419Q20.3774 28.5509 20.4642 28.4642Q20.5509 28.3774 20.6419 28.295Q20.7328 28.2126 20.8277 28.1347Q20.9225 28.0569 21.0211 27.9838Q21.1197 27.9107 21.2217 27.8425Q21.3237 27.7743 21.429 27.7112Q21.5343 27.6481 21.6425 27.5903Q21.7507 27.5324 21.8617 27.48Q21.9726 27.4275 22.086 27.3805Q22.1993 27.3336 22.3149 27.2922Q22.4304 27.2509 22.5479 27.2153Q22.6653 27.1796 22.7843 27.1498Q22.9034 27.12 23.0237 27.0961Q23.1441 27.0721 23.2655 27.0541Q23.3869 27.0361 23.509 27.0241Q23.6311 27.012 23.7537 27.006Q23.8763 27 23.999 27Z" id="Rectangle" fill="url(#gradient_1)" fill-rule="evenodd" stroke="none" />
    <g id="Rectangle-2">
      <use stroke="none" fill="#FFFFFF" xlink:href="#path_1" fill-rule="evenodd" filter="url(#filter_1)" />
    </g>
    <g id="Rectangle-3">
      <use stroke="none" fill="#FFFFFF" xlink:href="#path_2" fill-rule="evenodd" filter="url(#filter_1)" />
    </g>
    <g id="Rectangle-4">
      <use stroke="none" fill="#FFFFFF" xlink:href="#path_3" fill-rule="evenodd" filter="url(#filter_1)" />
    </g>
    <g id="Rectangle-5">
      <use stroke="none" fill="#FFFFFF" xlink:href="#path_4" fill-rule="evenodd" filter="url(#filter_1)" />
    </g>
  </g>
</svg>