<?xml version="1.0" encoding="utf-8"?>
<svg width="120px" height="120px" viewBox="0 0 120 120" version="1.1" xmlns:xlink="http://www.w3.org/1999/xlink" xmlns="http://www.w3.org/2000/svg">
  <defs>
    <linearGradient gradientUnits="userSpaceOnUse" x1="0" y1="0" x2="73.11829" y2="43.076923" id="gradient_1">
      <stop offset="0%" stop-color="#FFAA4E" />
      <stop offset="100%" stop-color="#FF8000" />
    </linearGradient>
    <linearGradient gradientUnits="userSpaceOnUse" x1="0" y1="0" x2="73.11829" y2="43.076935" id="gradient_2">
      <stop offset="0%" stop-color="#FFAA4F" />
      <stop offset="100%" stop-color="#FF9D00" />
    </linearGradient>
    <linearGradient gradientUnits="userSpaceOnUse" x1="0" y1="0" x2="73.11829" y2="43.076927" id="gradient_3">
      <stop offset="0%" stop-color="#FFA270" />
      <stop offset="100%" stop-color="#FFBB00" />
    </linearGradient>
    <linearGradient gradientUnits="userSpaceOnUse" x1="0" y1="0" x2="73.11829" y2="43.076927" id="gradient_4">
      <stop offset="0%" stop-color="#FFA35C" />
      <stop offset="100%" stop-color="#FFD000" />
    </linearGradient>
    <rect width="120" height="120" id="artboard_1" />
    <clipPath id="clip_1">
      <use xlink:href="#artboard_1" clip-rule="evenodd" />
    </clipPath>
  </defs>
  <g id="Artboard" clip-path="url(#clip_1)">
    <use xlink:href="#artboard_1" stroke="none" fill="#FFFFFF" />
    <g id="Group" transform="translate(24 20.000008)">
      <path d="M0 58.4615C0 46.5662 16.3681 36.9231 36.5591 36.9231C56.7502 36.9231 73.1183 46.5662 73.1183 58.4615C73.1183 70.3569 56.7502 80 36.5591 80C16.3681 80 0 70.3569 0 58.4615Z" id="Ellipse-4" fill="url(#gradient_1)" fill-rule="evenodd" stroke="#FFFFFF" stroke-width="4" />
      <path d="M0 46.1539C0 34.2585 16.3681 24.6154 36.5591 24.6154C56.7502 24.6154 73.1183 34.2585 73.1183 46.1539C73.1183 58.0492 56.7502 67.6923 36.5591 67.6923C16.3681 67.6923 0 58.0492 0 46.1539Z" id="Ellipse-3" fill="url(#gradient_2)" fill-rule="evenodd" stroke="#FFFFFF" stroke-width="4" />
      <path d="M0 33.8462C0 21.9508 16.3681 12.3077 36.5591 12.3077C56.7502 12.3077 73.1183 21.9508 73.1183 33.8462C73.1183 45.7415 56.7502 55.3846 36.5591 55.3846C16.3681 55.3846 0 45.7415 0 33.8462Z" id="Ellipse-2" fill="url(#gradient_3)" fill-rule="evenodd" stroke="#FFFFFF" stroke-width="4" />
      <path d="M0 21.5385C0 9.6431 16.3681 0 36.5591 0C56.7502 0 73.1183 9.6431 73.1183 21.5385C73.1183 33.4338 56.7502 43.0769 36.5591 43.0769C16.3681 43.0769 0 33.4338 0 21.5385Z" id="Ellipse" fill="url(#gradient_4)" fill-rule="evenodd" stroke="#FFFFFF" stroke-width="4" />
    </g>
  </g>
</svg>