<?xml version="1.0" encoding="utf-8"?>
<svg width="120px" height="120px" viewBox="0 0 120 120" version="1.1" xmlns:xlink="http://www.w3.org/1999/xlink" xmlns="http://www.w3.org/2000/svg">
  <defs>
    <linearGradient gradientUnits="userSpaceOnUse" x1="5.1249943" y1="0" x2="5.1249943" y2="34.16662" id="gradient_1">
      <stop offset="0%" stop-color="#072F51" />
      <stop offset="100%" stop-color="#134B7B" />
    </linearGradient>
    <linearGradient gradientUnits="userSpaceOnUse" x1="5.1249943" y1="0" x2="5.1249943" y2="34.166622" id="gradient_2">
      <stop offset="0%" stop-color="#072F51" />
      <stop offset="100%" stop-color="#134B7B" />
    </linearGradient>
    <rect width="120" height="120" id="artboard_1" />
    <clipPath id="clip_1">
      <use xlink:href="#artboard_1" clip-rule="evenodd" />
    </clipPath>
  </defs>
  <g id="Artboard" clip-path="url(#clip_1)">
    <use xlink:href="#artboard_1" stroke="none" fill="#FFFFFF" />
    <g id="Group-5" transform="translate(20 18.99997)">
      <g id="Group">
        <path d="M5.12399 0L5.12599 0Q5.25178 0 5.37742 0.00617207Q5.50305 0.0123441 5.62823 0.0246734Q5.75341 0.0370027 5.87784 0.0554595Q6.00227 0.0739163 6.12564 0.0984561Q6.24901 0.122996 6.37102 0.15356Q6.49304 0.184123 6.61341 0.220637Q6.73378 0.257151 6.85221 0.299528Q6.97065 0.341904 7.08686 0.390041Q7.20307 0.438177 7.31678 0.491958Q7.43049 0.545739 7.54143 0.605035Q7.65236 0.66433 7.76025 0.728998Q7.86814 0.793665 7.97273 0.863549Q8.07732 0.933432 8.17835 1.00836Q8.27939 1.08329 8.37662 1.16309Q8.47386 1.24289 8.56706 1.32736Q8.66026 1.41184 8.7492 1.50078Q8.83815 1.58973 8.92262 1.68293Q9.0071 1.77613 9.08689 1.87337Q9.16669 1.9706 9.24162 2.07163Q9.31656 2.17267 9.38644 2.27726Q9.45632 2.38184 9.52099 2.48973Q9.58566 2.59763 9.64495 2.70856Q9.70425 2.81949 9.75803 2.9332Q9.81181 3.04691 9.85995 3.16313Q9.90808 3.27934 9.95046 3.39777Q9.99284 3.51621 10.0294 3.63658Q10.0659 3.75695 10.0964 3.87896Q10.127 4.00098 10.1515 4.12435Q10.1761 4.24772 10.1945 4.37215Q10.213 4.49657 10.2253 4.62176Q10.2376 4.74694 10.2438 4.87257Q10.25 4.99821 10.25 5.12399L10.25 29.0426Q10.25 29.1684 10.2438 29.294Q10.2376 29.4197 10.2253 29.5449Q10.213 29.67 10.1945 29.7945Q10.1761 29.9189 10.1515 30.0423Q10.127 30.1656 10.0964 30.2876Q10.0659 30.4097 10.0294 30.53Q9.99284 30.6504 9.95046 30.7688Q9.90808 30.8873 9.85995 31.0035Q9.81181 31.1197 9.75803 31.2334Q9.70425 31.3471 9.64495 31.4581Q9.58566 31.569 9.52099 31.6769Q9.45632 31.7848 9.38644 31.8894Q9.31656 31.9939 9.24162 32.095Q9.16669 32.196 9.0869 32.2932Q9.0071 32.3905 8.92262 32.4837Q8.83815 32.5769 8.7492 32.6658Q8.66026 32.7548 8.56706 32.8393Q8.47386 32.9237 8.37662 33.0035Q8.27939 33.0833 8.17835 33.1583Q8.07732 33.2332 7.97273 33.3031Q7.86814 33.373 7.76025 33.4376Q7.65236 33.5023 7.54143 33.5616Q7.43049 33.6209 7.31678 33.6747Q7.20307 33.7284 7.08686 33.7766Q6.97065 33.8247 6.85221 33.8671Q6.73378 33.9095 6.61341 33.946Q6.49304 33.9825 6.37102 34.0131Q6.24901 34.0436 6.12564 34.0682Q6.00227 34.0927 5.87784 34.1112Q5.75341 34.1296 5.62823 34.1419Q5.50305 34.1543 5.37742 34.1604Q5.25178 34.1666 5.12599 34.1666L5.12399 34.1666Q4.99821 34.1666 4.87257 34.1604Q4.74694 34.1543 4.62176 34.1419Q4.49657 34.1296 4.37215 34.1112Q4.24772 34.0927 4.12435 34.0682Q4.00098 34.0436 3.87896 34.0131Q3.75695 33.9825 3.63658 33.946Q3.51621 33.9095 3.39777 33.8671Q3.27934 33.8247 3.16313 33.7766Q3.04691 33.7284 2.9332 33.6747Q2.81949 33.6209 2.70856 33.5616Q2.59763 33.5023 2.48973 33.4376Q2.38184 33.373 2.27726 33.3031Q2.17267 33.2332 2.07163 33.1583Q1.9706 33.0833 1.87337 33.0035Q1.77613 32.9237 1.68293 32.8393Q1.58973 32.7548 1.50078 32.6658Q1.41184 32.5769 1.32736 32.4837Q1.24289 32.3905 1.16309 32.2932Q1.08329 32.196 1.00836 32.095Q0.933432 31.9939 0.863549 31.8894Q0.793665 31.7848 0.728998 31.6769Q0.66433 31.569 0.605035 31.4581Q0.545739 31.3471 0.491958 31.2334Q0.438177 31.1197 0.390041 31.0035Q0.341904 30.8873 0.299528 30.7688Q0.257151 30.6504 0.220637 30.53Q0.184123 30.4097 0.15356 30.2876Q0.122996 30.1656 0.0984561 30.0423Q0.0739163 29.9189 0.0554595 29.7945Q0.0370027 29.67 0.0246734 29.5449Q0.0123441 29.4197 0.00617207 29.294Q0 29.1684 0 29.0426L0 5.12399Q0 4.99821 0.00617207 4.87257Q0.0123441 4.74694 0.0246734 4.62176Q0.0370027 4.49657 0.0554595 4.37215Q0.0739163 4.24772 0.0984561 4.12435Q0.122996 4.00098 0.15356 3.87896Q0.184123 3.75695 0.220637 3.63658Q0.257151 3.51621 0.299528 3.39777Q0.341904 3.27934 0.390041 3.16313Q0.438177 3.04691 0.491958 2.9332Q0.545739 2.81949 0.605035 2.70856Q0.66433 2.59763 0.728998 2.48973Q0.793665 2.38184 0.863549 2.27726Q0.933432 2.17267 1.00836 2.07163Q1.08329 1.9706 1.16309 1.87337Q1.24289 1.77613 1.32736 1.68293Q1.41184 1.58973 1.50078 1.50078Q1.58973 1.41184 1.68293 1.32736Q1.77613 1.24289 1.87337 1.16309Q1.9706 1.08329 2.07163 1.00836Q2.17267 0.933432 2.27726 0.863549Q2.38184 0.793665 2.48973 0.728998Q2.59763 0.66433 2.70856 0.605035Q2.81949 0.545739 2.9332 0.491958Q3.04691 0.438177 3.16313 0.390041Q3.27934 0.341904 3.39777 0.299528Q3.51621 0.257151 3.63658 0.220637Q3.75695 0.184123 3.87896 0.15356Q4.00098 0.122996 4.12435 0.0984561Q4.24772 0.0739163 4.37215 0.0554595Q4.49657 0.0370027 4.62176 0.0246734Q4.74694 0.0123441 4.87257 0.00617207Q4.99821 0 5.12399 0Z" id="Rectangle" fill="url(#gradient_1)" fill-rule="evenodd" stroke="none" />
        <path d="M34.165 5.12375L34.165 5.12575Q34.165 5.25153 34.1588 5.37716Q34.1527 5.50279 34.1403 5.62796Q34.128 5.75314 34.1096 5.87756Q34.0911 6.00198 34.0666 6.12534Q34.042 6.24871 34.0115 6.37072Q33.9809 6.49273 33.9444 6.6131Q33.9079 6.73346 33.8655 6.85189Q33.8231 6.97032 33.775 7.08652Q33.7269 7.20273 33.6731 7.31644Q33.6193 7.43014 33.56 7.54107Q33.5007 7.652 33.4361 7.75988Q33.3714 7.86777 33.3015 7.97235Q33.2316 8.07694 33.1567 8.17796Q33.0818 8.27899 33.002 8.37622Q32.9222 8.47345 32.8377 8.56665Q32.7532 8.65985 32.6643 8.74879Q32.5754 8.83773 32.4822 8.9222Q32.389 9.00667 32.2917 9.08646Q32.1945 9.16626 32.0935 9.24119Q31.9925 9.31611 31.8879 9.38599Q31.7833 9.45587 31.6754 9.52054Q31.5675 9.5852 31.4566 9.6445Q31.3457 9.70379 31.232 9.75757Q31.1182 9.81135 31.002 9.85948Q30.8858 9.90761 30.7674 9.94999Q30.649 9.99236 30.5286 10.0289Q30.4082 10.0654 30.2862 10.096Q30.1642 10.1265 30.0409 10.1511Q29.9175 10.1756 29.7931 10.194Q29.6687 10.2125 29.5435 10.2248Q29.4183 10.2372 29.2927 10.2433Q29.1671 10.2495 29.0413 10.2495L5.12377 10.2495Q4.99799 10.2495 4.87236 10.2434Q4.74673 10.2372 4.62155 10.2249Q4.49638 10.2125 4.37196 10.1941Q4.24754 10.1756 4.12418 10.1511Q4.00081 10.1265 3.8788 10.096Q3.75679 10.0654 3.63642 10.0289Q3.51606 9.9924 3.39763 9.95002Q3.2792 9.90765 3.16299 9.85952Q3.04679 9.81138 2.93308 9.7576Q2.81938 9.70382 2.70845 9.64453Q2.59752 9.58524 2.48963 9.52058Q2.38175 9.45591 2.27717 9.38603Q2.17258 9.31615 2.07155 9.24122Q1.97053 9.1663 1.8733 9.0865Q1.77607 9.00671 1.68287 8.92224Q1.58967 8.83777 1.50073 8.74883Q1.41179 8.65989 1.32732 8.56669Q1.24285 8.47349 1.16306 8.37626Q1.08326 8.27903 1.00833 8.178Q0.933405 8.07698 0.863525 7.97239Q0.793645 7.86781 0.72898 7.75992Q0.664316 7.65204 0.605023 7.54111Q0.54573 7.43018 0.491952 7.31648Q0.438173 7.20277 0.390039 7.08657Q0.341905 6.97036 0.29953 6.85193Q0.257156 6.7335 0.220643 6.61314Q0.184131 6.49277 0.153569 6.37076Q0.123006 6.24875 0.0984674 6.12539Q0.0739287 6.00202 0.0554727 5.8776Q0.0370167 5.75318 0.0246879 5.62801Q0.0123591 5.50283 0.00618723 5.3772Q1.53524e-05 5.25157 1.52588e-05 5.12579L1.52588e-05 5.12379Q1.50715e-05 4.99801 0.00618666 4.87238Q0.0123583 4.74675 0.0246868 4.62158Q0.0370153 4.4964 0.055471 4.37198Q0.0739267 4.24756 0.0984652 4.1242Q0.123004 4.00083 0.153566 3.87882Q0.184128 3.75681 0.22064 3.63645Q0.257152 3.51608 0.299526 3.39765Q0.3419 3.27922 0.390034 3.16302Q0.438169 3.04681 0.491947 2.93311Q0.545725 2.8194 0.605017 2.70847Q0.66431 2.59754 0.728974 2.48966Q0.793638 2.38177 0.863518 2.27719Q0.933398 2.17261 1.00833 2.07158Q1.08325 1.97055 1.16305 1.87332Q1.24284 1.77609 1.32731 1.68289Q1.41178 1.58969 1.50072 1.50075Q1.58966 1.41181 1.68286 1.32734Q1.77606 1.24287 1.87329 1.16308Q1.97052 1.08328 2.07154 1.00836Q2.17257 0.933428 2.27715 0.863548Q2.38174 0.793667 2.48962 0.729003Q2.59751 0.664339 2.70844 0.605046Q2.81937 0.545753 2.93307 0.491974Q3.04678 0.438196 3.16298 0.390061Q3.27919 0.341927 3.39762 0.299553Q3.51605 0.257178 3.63641 0.220666Q3.75678 0.184153 3.87879 0.153591Q4.0008 0.123028 4.12416 0.0984895Q4.24753 0.0739507 4.37195 0.0554946Q4.49637 0.0370385 4.62154 0.0247097Q4.74672 0.0123808 4.87235 0.00620891Q4.99798 3.69719e-05 5.12376 3.68124e-05L29.0413 6.49482e-06Q29.167 6.33538e-06 29.2927 0.00617796Q29.4183 0.0123496 29.5435 0.0246781Q29.6686 0.0370066 29.7931 0.0554624Q29.9175 0.0739181 30.0408 0.0984566Q30.1642 0.122995 30.2862 0.153557Q30.4082 0.184119 30.5286 0.220632Q30.649 0.257144 30.7674 0.299518Q30.8858 0.341892 31.002 0.390026Q31.1182 0.43816 31.2319 0.491939Q31.3456 0.545717 31.4566 0.605009Q31.5675 0.664302 31.6754 0.728966Q31.7833 0.79363 31.8879 0.86351Q31.9924 0.93339 32.0935 1.00832Q32.1945 1.08325 32.2917 1.16304Q32.389 1.24283 32.4822 1.3273Q32.5754 1.41177 32.6643 1.50071Q32.7532 1.58965 32.8377 1.68285Q32.9222 1.77605 33.002 1.87328Q33.0818 1.97051 33.1567 2.07154Q33.2316 2.17256 33.3015 2.27715Q33.3714 2.38173 33.4361 2.48962Q33.5007 2.5975 33.56 2.70843Q33.6193 2.81936 33.6731 2.93306Q33.7269 3.04677 33.775 3.16298Q33.8231 3.27918 33.8655 3.39761Q33.9079 3.51604 33.9444 3.6364Q33.9809 3.75677 34.0115 3.87878Q34.042 4.00079 34.0666 4.12416Q34.0911 4.24752 34.1096 4.37194Q34.128 4.49636 34.1403 4.62154Q34.1527 4.74671 34.1588 4.87234Q34.165 4.99797 34.165 5.12375Z" id="Rectangle-2" fill="#134B7B" fill-rule="evenodd" stroke="none" />
      </g>
      <g id="Group-2" transform="matrix(1 0 0 -1 0 82.00003)">
        <path d="M5.12399 0L5.12599 0Q5.25178 0 5.37742 0.00617207Q5.50305 0.0123441 5.62823 0.0246734Q5.75341 0.0370027 5.87784 0.0554595Q6.00227 0.0739163 6.12564 0.0984561Q6.24901 0.122996 6.37102 0.15356Q6.49304 0.184123 6.61341 0.220637Q6.73378 0.257151 6.85221 0.299528Q6.97065 0.341904 7.08686 0.390041Q7.20307 0.438177 7.31678 0.491958Q7.43049 0.545739 7.54143 0.605035Q7.65236 0.66433 7.76025 0.728998Q7.86814 0.793665 7.97273 0.863549Q8.07732 0.933432 8.17835 1.00836Q8.27939 1.08329 8.37662 1.16309Q8.47386 1.24289 8.56706 1.32736Q8.66026 1.41184 8.7492 1.50078Q8.83815 1.58973 8.92262 1.68293Q9.0071 1.77613 9.08689 1.87337Q9.16669 1.9706 9.24162 2.07163Q9.31656 2.17267 9.38644 2.27726Q9.45632 2.38184 9.52099 2.48973Q9.58566 2.59763 9.64495 2.70856Q9.70425 2.81949 9.75803 2.9332Q9.81181 3.04691 9.85995 3.16313Q9.90808 3.27934 9.95046 3.39777Q9.99284 3.51621 10.0294 3.63658Q10.0659 3.75695 10.0964 3.87896Q10.127 4.00098 10.1515 4.12435Q10.1761 4.24772 10.1945 4.37215Q10.213 4.49657 10.2253 4.62176Q10.2376 4.74694 10.2438 4.87257Q10.25 4.99821 10.25 5.12399L10.25 29.0426Q10.25 29.1684 10.2438 29.2941Q10.2376 29.4197 10.2253 29.5449Q10.213 29.67 10.1945 29.7945Q10.1761 29.9189 10.1515 30.0423Q10.127 30.1656 10.0964 30.2877Q10.0659 30.4097 10.0294 30.53Q9.99284 30.6504 9.95046 30.7688Q9.90808 30.8873 9.85995 31.0035Q9.81181 31.1197 9.75803 31.2334Q9.70425 31.3471 9.64495 31.4581Q9.58566 31.569 9.52099 31.6769Q9.45632 31.7848 9.38644 31.8894Q9.31656 31.9939 9.24162 32.095Q9.16669 32.196 9.0869 32.2933Q9.0071 32.3905 8.92262 32.4837Q8.83815 32.5769 8.7492 32.6658Q8.66026 32.7548 8.56706 32.8393Q8.47386 32.9237 8.37662 33.0035Q8.27939 33.0833 8.17835 33.1583Q8.07732 33.2332 7.97273 33.3031Q7.86814 33.373 7.76025 33.4376Q7.65236 33.5023 7.54143 33.5616Q7.43049 33.6209 7.31678 33.6747Q7.20307 33.7284 7.08686 33.7766Q6.97065 33.8247 6.85221 33.8671Q6.73378 33.9095 6.61341 33.946Q6.49304 33.9825 6.37102 34.0131Q6.24901 34.0436 6.12564 34.0682Q6.00227 34.0927 5.87784 34.1112Q5.75341 34.1296 5.62823 34.142Q5.50305 34.1543 5.37742 34.1604Q5.25178 34.1666 5.12599 34.1666L5.12399 34.1666Q4.99821 34.1666 4.87257 34.1604Q4.74694 34.1543 4.62176 34.1419Q4.49657 34.1296 4.37215 34.1112Q4.24772 34.0927 4.12435 34.0682Q4.00098 34.0436 3.87896 34.0131Q3.75695 33.9825 3.63658 33.946Q3.51621 33.9095 3.39777 33.8671Q3.27934 33.8247 3.16313 33.7766Q3.04691 33.7284 2.9332 33.6747Q2.81949 33.6209 2.70856 33.5616Q2.59763 33.5023 2.48973 33.4376Q2.38184 33.373 2.27726 33.3031Q2.17267 33.2332 2.07163 33.1583Q1.9706 33.0833 1.87337 33.0035Q1.77613 32.9237 1.68293 32.8393Q1.58973 32.7548 1.50078 32.6658Q1.41184 32.5769 1.32736 32.4837Q1.24289 32.3905 1.16309 32.2933Q1.08329 32.196 1.00836 32.095Q0.933432 31.9939 0.863549 31.8894Q0.793665 31.7848 0.728998 31.6769Q0.66433 31.569 0.605035 31.4581Q0.545739 31.3471 0.491958 31.2334Q0.438177 31.1197 0.390041 31.0035Q0.341904 30.8873 0.299528 30.7688Q0.257151 30.6504 0.220637 30.53Q0.184123 30.4097 0.15356 30.2877Q0.122996 30.1656 0.0984561 30.0423Q0.0739163 29.9189 0.0554595 29.7945Q0.0370027 29.67 0.0246734 29.5449Q0.0123441 29.4197 0.00617207 29.2941Q0 29.1684 0 29.0426L0 5.12399Q0 4.99821 0.00617207 4.87257Q0.0123441 4.74694 0.0246734 4.62176Q0.0370027 4.49657 0.0554595 4.37215Q0.0739163 4.24772 0.0984561 4.12435Q0.122996 4.00098 0.15356 3.87896Q0.184123 3.75695 0.220637 3.63658Q0.257151 3.51621 0.299528 3.39777Q0.341904 3.27934 0.390041 3.16313Q0.438177 3.04691 0.491958 2.9332Q0.545739 2.81949 0.605035 2.70856Q0.66433 2.59763 0.728998 2.48973Q0.793665 2.38184 0.863549 2.27726Q0.933432 2.17267 1.00836 2.07163Q1.08329 1.9706 1.16309 1.87337Q1.24289 1.77613 1.32736 1.68293Q1.41184 1.58973 1.50078 1.50078Q1.58973 1.41184 1.68293 1.32736Q1.77613 1.24289 1.87337 1.16309Q1.9706 1.08329 2.07163 1.00836Q2.17267 0.933432 2.27726 0.863549Q2.38184 0.793665 2.48973 0.728998Q2.59763 0.66433 2.70856 0.605035Q2.81949 0.545739 2.9332 0.491958Q3.04691 0.438177 3.16313 0.390041Q3.27934 0.341904 3.39777 0.299528Q3.51621 0.257151 3.63658 0.220637Q3.75695 0.184123 3.87896 0.15356Q4.00098 0.122996 4.12435 0.0984561Q4.24772 0.0739163 4.37215 0.0554595Q4.49657 0.0370027 4.62176 0.0246734Q4.74694 0.0123441 4.87257 0.00617207Q4.99821 0 5.12399 0Z" id="Rectangle" fill="url(#gradient_2)" fill-rule="evenodd" stroke="none" />
        <path d="M34.165 5.12375L34.165 5.12575Q34.165 5.25153 34.1588 5.37716Q34.1527 5.50279 34.1403 5.62796Q34.128 5.75314 34.1096 5.87756Q34.0911 6.00198 34.0666 6.12534Q34.042 6.24871 34.0115 6.37072Q33.9809 6.49273 33.9444 6.6131Q33.9079 6.73346 33.8655 6.85189Q33.8231 6.97032 33.775 7.08652Q33.7269 7.20273 33.6731 7.31644Q33.6193 7.43014 33.56 7.54107Q33.5007 7.652 33.4361 7.75988Q33.3714 7.86777 33.3015 7.97235Q33.2316 8.07694 33.1567 8.17796Q33.0818 8.27899 33.002 8.37622Q32.9222 8.47345 32.8377 8.56665Q32.7532 8.65985 32.6643 8.74879Q32.5754 8.83773 32.4822 8.9222Q32.389 9.00667 32.2917 9.08646Q32.1945 9.16626 32.0935 9.24119Q31.9925 9.31611 31.8879 9.38599Q31.7833 9.45587 31.6754 9.52054Q31.5675 9.5852 31.4566 9.6445Q31.3457 9.70379 31.232 9.75757Q31.1182 9.81135 31.002 9.85948Q30.8858 9.90761 30.7674 9.94999Q30.649 9.99236 30.5286 10.0289Q30.4082 10.0654 30.2862 10.096Q30.1642 10.1265 30.0409 10.1511Q29.9175 10.1756 29.7931 10.194Q29.6687 10.2125 29.5435 10.2248Q29.4183 10.2372 29.2927 10.2433Q29.1671 10.2495 29.0413 10.2495L5.12377 10.2495Q4.99799 10.2495 4.87236 10.2434Q4.74673 10.2372 4.62155 10.2249Q4.49638 10.2125 4.37196 10.1941Q4.24754 10.1756 4.12418 10.1511Q4.00081 10.1265 3.8788 10.096Q3.75679 10.0654 3.63642 10.0289Q3.51606 9.9924 3.39763 9.95002Q3.2792 9.90765 3.16299 9.85952Q3.04679 9.81138 2.93308 9.7576Q2.81938 9.70382 2.70845 9.64453Q2.59752 9.58524 2.48963 9.52058Q2.38175 9.45591 2.27717 9.38603Q2.17258 9.31615 2.07155 9.24122Q1.97053 9.1663 1.8733 9.0865Q1.77607 9.00671 1.68287 8.92224Q1.58967 8.83777 1.50073 8.74883Q1.41179 8.65989 1.32732 8.56669Q1.24285 8.47349 1.16306 8.37626Q1.08326 8.27903 1.00833 8.178Q0.933405 8.07698 0.863525 7.97239Q0.793645 7.86781 0.72898 7.75992Q0.664316 7.65204 0.605023 7.54111Q0.54573 7.43018 0.491952 7.31648Q0.438173 7.20277 0.390039 7.08657Q0.341905 6.97036 0.29953 6.85193Q0.257156 6.7335 0.220643 6.61314Q0.184131 6.49277 0.153569 6.37076Q0.123006 6.24875 0.0984674 6.12539Q0.0739287 6.00202 0.0554727 5.8776Q0.0370167 5.75318 0.0246879 5.62801Q0.0123591 5.50283 0.00618723 5.3772Q1.53524e-05 5.25157 1.52588e-05 5.12579L1.52588e-05 5.12379Q1.50715e-05 4.99801 0.00618666 4.87238Q0.0123583 4.74675 0.0246868 4.62158Q0.0370153 4.4964 0.055471 4.37198Q0.0739267 4.24756 0.0984652 4.1242Q0.123004 4.00083 0.153566 3.87882Q0.184128 3.75681 0.22064 3.63645Q0.257152 3.51608 0.299526 3.39765Q0.3419 3.27922 0.390034 3.16302Q0.438169 3.04681 0.491947 2.93311Q0.545725 2.8194 0.605017 2.70847Q0.66431 2.59754 0.728974 2.48966Q0.793638 2.38177 0.863518 2.27719Q0.933398 2.17261 1.00833 2.07158Q1.08325 1.97055 1.16305 1.87332Q1.24284 1.77609 1.32731 1.68289Q1.41178 1.58969 1.50072 1.50075Q1.58966 1.41181 1.68286 1.32734Q1.77606 1.24287 1.87329 1.16308Q1.97052 1.08328 2.07154 1.00836Q2.17257 0.933428 2.27715 0.863548Q2.38174 0.793667 2.48962 0.729003Q2.59751 0.664339 2.70844 0.605046Q2.81937 0.545753 2.93307 0.491974Q3.04678 0.438196 3.16298 0.390061Q3.27919 0.341927 3.39762 0.299553Q3.51605 0.257178 3.63641 0.220666Q3.75678 0.184153 3.87879 0.153591Q4.0008 0.123028 4.12416 0.0984895Q4.24753 0.0739507 4.37195 0.0554946Q4.49637 0.0370385 4.62154 0.0247097Q4.74672 0.0123808 4.87235 0.00620891Q4.99798 3.69719e-05 5.12376 3.68124e-05L29.0413 6.49482e-06Q29.167 6.33538e-06 29.2927 0.00617796Q29.4183 0.0123496 29.5435 0.0246781Q29.6686 0.0370066 29.7931 0.0554624Q29.9175 0.0739181 30.0408 0.0984566Q30.1642 0.122995 30.2862 0.153557Q30.4082 0.184119 30.5286 0.220632Q30.649 0.257144 30.7674 0.299518Q30.8858 0.341892 31.002 0.390026Q31.1182 0.43816 31.2319 0.491939Q31.3456 0.545717 31.4566 0.605009Q31.5675 0.664302 31.6754 0.728966Q31.7833 0.79363 31.8879 0.86351Q31.9924 0.93339 32.0935 1.00832Q32.1945 1.08325 32.2917 1.16304Q32.389 1.24283 32.4822 1.3273Q32.5754 1.41177 32.6643 1.50071Q32.7532 1.58965 32.8377 1.68285Q32.9222 1.77605 33.002 1.87328Q33.0818 1.97051 33.1567 2.07154Q33.2316 2.17256 33.3015 2.27715Q33.3714 2.38173 33.4361 2.48962Q33.5007 2.5975 33.56 2.70843Q33.6193 2.81936 33.6731 2.93306Q33.7269 3.04677 33.775 3.16298Q33.8231 3.27918 33.8655 3.39761Q33.9079 3.51604 33.9444 3.6364Q33.9809 3.75677 34.0115 3.87878Q34.042 4.00079 34.0666 4.12416Q34.0911 4.24752 34.1096 4.37194Q34.128 4.49636 34.1403 4.62154Q34.1527 4.74671 34.1588 4.87234Q34.165 4.99797 34.165 5.12375Z" id="Rectangle-2" fill="#134B7B" fill-rule="evenodd" stroke="none" />
      </g>
      <g id="Group-3" transform="matrix(-1 0 0 -1 81.99994 82.00003)">
        <path d="M5.12399 0L5.12599 0Q5.25178 0 5.37742 0.00617207Q5.50305 0.0123441 5.62823 0.0246734Q5.75341 0.0370027 5.87784 0.0554595Q6.00227 0.0739163 6.12564 0.0984561Q6.24901 0.122996 6.37102 0.15356Q6.49304 0.184123 6.61341 0.220637Q6.73378 0.257151 6.85221 0.299528Q6.97065 0.341904 7.08686 0.390041Q7.20307 0.438177 7.31678 0.491958Q7.43049 0.545739 7.54143 0.605035Q7.65236 0.66433 7.76025 0.728998Q7.86814 0.793665 7.97273 0.863549Q8.07732 0.933432 8.17835 1.00836Q8.27939 1.08329 8.37662 1.16309Q8.47386 1.24289 8.56706 1.32736Q8.66026 1.41184 8.7492 1.50078Q8.83815 1.58973 8.92262 1.68293Q9.0071 1.77613 9.08689 1.87337Q9.16669 1.9706 9.24162 2.07163Q9.31656 2.17267 9.38644 2.27726Q9.45632 2.38184 9.52099 2.48973Q9.58566 2.59763 9.64495 2.70856Q9.70425 2.81949 9.75803 2.9332Q9.81181 3.04691 9.85995 3.16313Q9.90808 3.27934 9.95046 3.39777Q9.99284 3.51621 10.0294 3.63658Q10.0659 3.75695 10.0964 3.87896Q10.127 4.00098 10.1515 4.12435Q10.1761 4.24772 10.1945 4.37215Q10.213 4.49657 10.2253 4.62176Q10.2376 4.74694 10.2438 4.87257Q10.25 4.99821 10.25 5.12399L10.25 29.0426Q10.25 29.1684 10.2438 29.2941Q10.2376 29.4197 10.2253 29.5449Q10.213 29.67 10.1945 29.7945Q10.1761 29.9189 10.1515 30.0423Q10.127 30.1656 10.0964 30.2877Q10.0659 30.4097 10.0294 30.53Q9.99284 30.6504 9.95046 30.7688Q9.90808 30.8873 9.85995 31.0035Q9.81181 31.1197 9.75803 31.2334Q9.70425 31.3471 9.64495 31.4581Q9.58566 31.569 9.52099 31.6769Q9.45632 31.7848 9.38644 31.8894Q9.31656 31.9939 9.24162 32.095Q9.16669 32.196 9.0869 32.2933Q9.0071 32.3905 8.92262 32.4837Q8.83815 32.5769 8.7492 32.6658Q8.66026 32.7548 8.56706 32.8393Q8.47386 32.9237 8.37662 33.0035Q8.27939 33.0833 8.17835 33.1583Q8.07732 33.2332 7.97273 33.3031Q7.86814 33.373 7.76025 33.4376Q7.65236 33.5023 7.54143 33.5616Q7.43049 33.6209 7.31678 33.6747Q7.20307 33.7284 7.08686 33.7766Q6.97065 33.8247 6.85221 33.8671Q6.73378 33.9095 6.61341 33.946Q6.49304 33.9825 6.37102 34.0131Q6.24901 34.0436 6.12564 34.0682Q6.00227 34.0927 5.87784 34.1112Q5.75341 34.1296 5.62823 34.142Q5.50305 34.1543 5.37742 34.1604Q5.25178 34.1666 5.12599 34.1666L5.12399 34.1666Q4.99821 34.1666 4.87257 34.1604Q4.74694 34.1543 4.62176 34.1419Q4.49657 34.1296 4.37215 34.1112Q4.24772 34.0927 4.12435 34.0682Q4.00098 34.0436 3.87896 34.0131Q3.75695 33.9825 3.63658 33.946Q3.51621 33.9095 3.39777 33.8671Q3.27934 33.8247 3.16313 33.7766Q3.04691 33.7284 2.9332 33.6747Q2.81949 33.6209 2.70856 33.5616Q2.59763 33.5023 2.48973 33.4376Q2.38184 33.373 2.27726 33.3031Q2.17267 33.2332 2.07163 33.1583Q1.9706 33.0833 1.87337 33.0035Q1.77613 32.9237 1.68293 32.8393Q1.58973 32.7548 1.50078 32.6658Q1.41184 32.5769 1.32736 32.4837Q1.24289 32.3905 1.16309 32.2933Q1.08329 32.196 1.00836 32.095Q0.933432 31.9939 0.863549 31.8894Q0.793665 31.7848 0.728998 31.6769Q0.66433 31.569 0.605035 31.4581Q0.545739 31.3471 0.491958 31.2334Q0.438177 31.1197 0.390041 31.0035Q0.341904 30.8873 0.299528 30.7688Q0.257151 30.6504 0.220637 30.53Q0.184123 30.4097 0.15356 30.2877Q0.122996 30.1656 0.0984561 30.0423Q0.0739163 29.9189 0.0554595 29.7945Q0.0370027 29.67 0.0246734 29.5449Q0.0123441 29.4197 0.00617207 29.2941Q0 29.1684 0 29.0426L0 5.12399Q0 4.99821 0.00617207 4.87257Q0.0123441 4.74694 0.0246734 4.62176Q0.0370027 4.49657 0.0554595 4.37215Q0.0739163 4.24772 0.0984561 4.12435Q0.122996 4.00098 0.15356 3.87896Q0.184123 3.75695 0.220637 3.63658Q0.257151 3.51621 0.299528 3.39777Q0.341904 3.27934 0.390041 3.16313Q0.438177 3.04691 0.491958 2.9332Q0.545739 2.81949 0.605035 2.70856Q0.66433 2.59763 0.728998 2.48973Q0.793665 2.38184 0.863549 2.27726Q0.933432 2.17267 1.00836 2.07163Q1.08329 1.9706 1.16309 1.87337Q1.24289 1.77613 1.32736 1.68293Q1.41184 1.58973 1.50078 1.50078Q1.58973 1.41184 1.68293 1.32736Q1.77613 1.24289 1.87337 1.16309Q1.9706 1.08329 2.07163 1.00836Q2.17267 0.933432 2.27726 0.863549Q2.38184 0.793665 2.48973 0.728998Q2.59763 0.66433 2.70856 0.605035Q2.81949 0.545739 2.9332 0.491958Q3.04691 0.438177 3.16313 0.390041Q3.27934 0.341904 3.39777 0.299528Q3.51621 0.257151 3.63658 0.220637Q3.75695 0.184123 3.87896 0.15356Q4.00098 0.122996 4.12435 0.0984561Q4.24772 0.0739163 4.37215 0.0554595Q4.49657 0.0370027 4.62176 0.0246734Q4.74694 0.0123441 4.87257 0.00617207Q4.99821 0 5.12399 0Z" id="Rectangle" fill="url(#gradient_2)" fill-rule="evenodd" stroke="none" />
        <path d="M34.165 5.12375L34.165 5.12575Q34.165 5.25153 34.1588 5.37716Q34.1526 5.50279 34.1403 5.62796Q34.128 5.75314 34.1095 5.87756Q34.0911 6.00198 34.0665 6.12534Q34.042 6.24871 34.0114 6.37072Q33.9809 6.49273 33.9444 6.6131Q33.9078 6.73346 33.8655 6.85189Q33.8231 6.97032 33.775 7.08652Q33.7268 7.20273 33.673 7.31644Q33.6193 7.43014 33.56 7.54107Q33.5007 7.652 33.436 7.75988Q33.3714 7.86777 33.3015 7.97235Q33.2316 8.07694 33.1567 8.17796Q33.0817 8.27899 33.002 8.37622Q32.9222 8.47345 32.8377 8.56665Q32.7532 8.65985 32.6643 8.74879Q32.5753 8.83773 32.4821 8.9222Q32.3889 9.00667 32.2917 9.08646Q32.1945 9.16626 32.0934 9.24119Q31.9924 9.31611 31.8878 9.38599Q31.7833 9.45587 31.6754 9.52054Q31.5675 9.5852 31.4566 9.6445Q31.3456 9.70379 31.2319 9.75757Q31.1182 9.81135 31.002 9.85948Q30.8858 9.90761 30.7674 9.94999Q30.6489 9.99236 30.5286 10.0289Q30.4082 10.0654 30.2862 10.096Q30.1642 10.1265 30.0408 10.1511Q29.9175 10.1756 29.793 10.194Q29.6686 10.2125 29.5435 10.2248Q29.4183 10.2372 29.2927 10.2433Q29.167 10.2495 29.0412 10.2495L5.12374 10.2495Q4.99796 10.2495 4.87233 10.2434Q4.7467 10.2372 4.62152 10.2249Q4.49635 10.2125 4.37193 10.1941Q4.24751 10.1756 4.12414 10.1511Q4.00078 10.1265 3.87877 10.096Q3.75676 10.0654 3.63639 10.0289Q3.51603 9.9924 3.3976 9.95002Q3.27917 9.90765 3.16296 9.85952Q3.04676 9.81138 2.93305 9.7576Q2.81935 9.70382 2.70842 9.64453Q2.59749 9.58524 2.4896 9.52058Q2.38172 9.45591 2.27713 9.38603Q2.17255 9.31615 2.07152 9.24122Q1.9705 9.1663 1.87327 9.0865Q1.77604 9.00671 1.68284 8.92224Q1.58964 8.83777 1.5007 8.74883Q1.41176 8.65989 1.32729 8.56669Q1.24282 8.47349 1.16302 8.37626Q1.08323 8.27903 1.0083 8.178Q0.933375 8.07698 0.863494 7.97239Q0.793614 7.86781 0.72895 7.75992Q0.664285 7.65204 0.604992 7.54111Q0.5457 7.43018 0.491921 7.31648Q0.438143 7.20277 0.390008 7.08657Q0.341874 6.97036 0.2995 6.85193Q0.257125 6.7335 0.220613 6.61314Q0.1841 6.49277 0.153538 6.37076Q0.122976 6.24875 0.0984369 6.12539Q0.0738982 6.00202 0.0554422 5.8776Q0.0369862 5.75318 0.0246574 5.62801Q0.0123286 5.50283 0.00615671 5.3772Q-1.51651e-05 5.25157 -1.52588e-05 5.12579L-1.52588e-05 5.12379Q-1.54461e-05 4.99801 0.00615615 4.87238Q0.0123277 4.74675 0.0246562 4.62158Q0.0369847 4.4964 0.0554405 4.37198Q0.0738962 4.24756 0.0984346 4.1242Q0.122973 4.00083 0.153535 3.87882Q0.184097 3.75681 0.220609 3.63645Q0.257122 3.51608 0.299496 3.39765Q0.34187 3.27922 0.390004 3.16302Q0.438138 3.04681 0.491916 2.93311Q0.545694 2.8194 0.604987 2.70847Q0.664279 2.59754 0.728944 2.48966Q0.793608 2.38177 0.863488 2.27719Q0.933368 2.17261 1.0083 2.07158Q1.08322 1.97055 1.16302 1.87332Q1.24281 1.77609 1.32728 1.68289Q1.41175 1.58969 1.50069 1.50075Q1.58963 1.41181 1.68283 1.32734Q1.77603 1.24287 1.87326 1.16308Q1.97049 1.08328 2.07151 1.00836Q2.17254 0.933428 2.27712 0.863548Q2.38171 0.793667 2.48959 0.729003Q2.59748 0.664339 2.70841 0.605046Q2.81934 0.545753 2.93304 0.491974Q3.04675 0.438196 3.16295 0.390061Q3.27916 0.341927 3.39759 0.299553Q3.51602 0.257178 3.63638 0.220666Q3.75674 0.184153 3.87876 0.153591Q4.00077 0.123028 4.12413 0.0984895Q4.2475 0.0739507 4.37192 0.0554946Q4.49634 0.0370385 4.62151 0.0247097Q4.74669 0.0123808 4.87232 0.00620891Q4.99794 3.69719e-05 5.12373 3.68124e-05L29.0412 6.49482e-06Q29.167 6.33538e-06 29.2926 0.00617796Q29.4183 0.0123496 29.5434 0.0246781Q29.6686 0.0370066 29.793 0.0554624Q29.9175 0.0739181 30.0408 0.0984566Q30.1642 0.122995 30.2862 0.153557Q30.4082 0.184119 30.5286 0.220632Q30.6489 0.257144 30.7674 0.299518Q30.8858 0.341892 31.002 0.390026Q31.1182 0.43816 31.2319 0.491939Q31.3456 0.545717 31.4565 0.605009Q31.5675 0.664302 31.6754 0.728966Q31.7832 0.79363 31.8878 0.86351Q31.9924 0.93339 32.0934 1.00832Q32.1945 1.08325 32.2917 1.16304Q32.3889 1.24283 32.4821 1.3273Q32.5753 1.41177 32.6643 1.50071Q32.7532 1.58965 32.8377 1.68285Q32.9222 1.77605 33.0019 1.87328Q33.0817 1.97051 33.1567 2.07154Q33.2316 2.17256 33.3015 2.27715Q33.3714 2.38173 33.436 2.48962Q33.5007 2.5975 33.56 2.70843Q33.6193 2.81936 33.673 2.93306Q33.7268 3.04677 33.775 3.16298Q33.8231 3.27918 33.8655 3.39761Q33.9078 3.51604 33.9444 3.6364Q33.9809 3.75677 34.0114 3.87878Q34.042 4.00079 34.0665 4.12416Q34.0911 4.24752 34.1095 4.37194Q34.128 4.49636 34.1403 4.62154Q34.1526 4.74671 34.1588 4.87234Q34.165 4.99797 34.165 5.12375Z" id="Rectangle-2" fill="#134B7B" fill-rule="evenodd" stroke="none" />
      </g>
      <g id="Group-4" transform="matrix(-1 0 0 1 81.99994 3.0517578E-05)">
        <path d="M5.12399 0L5.12599 0Q5.25178 0 5.37742 0.00617207Q5.50305 0.0123441 5.62823 0.0246734Q5.75341 0.0370027 5.87784 0.0554595Q6.00227 0.0739163 6.12564 0.0984561Q6.24901 0.122996 6.37102 0.15356Q6.49304 0.184123 6.61341 0.220637Q6.73378 0.257151 6.85221 0.299528Q6.97065 0.341904 7.08686 0.390041Q7.20307 0.438177 7.31678 0.491958Q7.43049 0.545739 7.54143 0.605035Q7.65236 0.66433 7.76025 0.728998Q7.86814 0.793665 7.97273 0.863549Q8.07732 0.933432 8.17835 1.00836Q8.27939 1.08329 8.37662 1.16309Q8.47386 1.24289 8.56706 1.32736Q8.66026 1.41184 8.7492 1.50078Q8.83815 1.58973 8.92262 1.68293Q9.0071 1.77613 9.08689 1.87337Q9.16669 1.9706 9.24162 2.07163Q9.31656 2.17267 9.38644 2.27726Q9.45632 2.38184 9.52099 2.48973Q9.58566 2.59763 9.64495 2.70856Q9.70425 2.81949 9.75803 2.9332Q9.81181 3.04691 9.85995 3.16313Q9.90808 3.27934 9.95046 3.39777Q9.99284 3.51621 10.0294 3.63658Q10.0659 3.75695 10.0964 3.87896Q10.127 4.00098 10.1515 4.12435Q10.1761 4.24772 10.1945 4.37215Q10.213 4.49657 10.2253 4.62176Q10.2376 4.74694 10.2438 4.87257Q10.25 4.99821 10.25 5.12399L10.25 29.0426Q10.25 29.1684 10.2438 29.294Q10.2376 29.4197 10.2253 29.5449Q10.213 29.67 10.1945 29.7945Q10.1761 29.9189 10.1515 30.0423Q10.127 30.1656 10.0964 30.2876Q10.0659 30.4097 10.0294 30.53Q9.99284 30.6504 9.95046 30.7688Q9.90808 30.8873 9.85995 31.0035Q9.81181 31.1197 9.75803 31.2334Q9.70425 31.3471 9.64495 31.4581Q9.58566 31.569 9.52099 31.6769Q9.45632 31.7848 9.38644 31.8894Q9.31656 31.9939 9.24162 32.095Q9.16669 32.196 9.0869 32.2932Q9.0071 32.3905 8.92262 32.4837Q8.83815 32.5769 8.7492 32.6658Q8.66026 32.7548 8.56706 32.8393Q8.47386 32.9237 8.37662 33.0035Q8.27939 33.0833 8.17835 33.1583Q8.07732 33.2332 7.97273 33.3031Q7.86814 33.373 7.76025 33.4376Q7.65236 33.5023 7.54143 33.5616Q7.43049 33.6209 7.31678 33.6747Q7.20307 33.7284 7.08686 33.7766Q6.97065 33.8247 6.85221 33.8671Q6.73378 33.9095 6.61341 33.946Q6.49304 33.9825 6.37102 34.0131Q6.24901 34.0436 6.12564 34.0682Q6.00227 34.0927 5.87784 34.1112Q5.75341 34.1296 5.62823 34.1419Q5.50305 34.1543 5.37742 34.1604Q5.25178 34.1666 5.12599 34.1666L5.12399 34.1666Q4.99821 34.1666 4.87257 34.1604Q4.74694 34.1543 4.62176 34.1419Q4.49657 34.1296 4.37215 34.1112Q4.24772 34.0927 4.12435 34.0682Q4.00098 34.0436 3.87896 34.0131Q3.75695 33.9825 3.63658 33.946Q3.51621 33.9095 3.39777 33.8671Q3.27934 33.8247 3.16313 33.7766Q3.04691 33.7284 2.9332 33.6747Q2.81949 33.6209 2.70856 33.5616Q2.59763 33.5023 2.48973 33.4376Q2.38184 33.373 2.27726 33.3031Q2.17267 33.2332 2.07163 33.1583Q1.9706 33.0833 1.87337 33.0035Q1.77613 32.9237 1.68293 32.8393Q1.58973 32.7548 1.50078 32.6658Q1.41184 32.5769 1.32736 32.4837Q1.24289 32.3905 1.16309 32.2932Q1.08329 32.196 1.00836 32.095Q0.933432 31.9939 0.863549 31.8894Q0.793665 31.7848 0.728998 31.6769Q0.66433 31.569 0.605035 31.4581Q0.545739 31.3471 0.491958 31.2334Q0.438177 31.1197 0.390041 31.0035Q0.341904 30.8873 0.299528 30.7688Q0.257151 30.6504 0.220637 30.53Q0.184123 30.4097 0.15356 30.2876Q0.122996 30.1656 0.0984561 30.0423Q0.0739163 29.9189 0.0554595 29.7945Q0.0370027 29.67 0.0246734 29.5449Q0.0123441 29.4197 0.00617207 29.294Q0 29.1684 0 29.0426L0 5.12399Q0 4.99821 0.00617207 4.87257Q0.0123441 4.74694 0.0246734 4.62176Q0.0370027 4.49657 0.0554595 4.37215Q0.0739163 4.24772 0.0984561 4.12435Q0.122996 4.00098 0.15356 3.87896Q0.184123 3.75695 0.220637 3.63658Q0.257151 3.51621 0.299528 3.39777Q0.341904 3.27934 0.390041 3.16313Q0.438177 3.04691 0.491958 2.9332Q0.545739 2.81949 0.605035 2.70856Q0.66433 2.59763 0.728998 2.48973Q0.793665 2.38184 0.863549 2.27726Q0.933432 2.17267 1.00836 2.07163Q1.08329 1.9706 1.16309 1.87337Q1.24289 1.77613 1.32736 1.68293Q1.41184 1.58973 1.50078 1.50078Q1.58973 1.41184 1.68293 1.32736Q1.77613 1.24289 1.87337 1.16309Q1.9706 1.08329 2.07163 1.00836Q2.17267 0.933432 2.27726 0.863549Q2.38184 0.793665 2.48973 0.728998Q2.59763 0.66433 2.70856 0.605035Q2.81949 0.545739 2.9332 0.491958Q3.04691 0.438177 3.16313 0.390041Q3.27934 0.341904 3.39777 0.299528Q3.51621 0.257151 3.63658 0.220637Q3.75695 0.184123 3.87896 0.15356Q4.00098 0.122996 4.12435 0.0984561Q4.24772 0.0739163 4.37215 0.0554595Q4.49657 0.0370027 4.62176 0.0246734Q4.74694 0.0123441 4.87257 0.00617207Q4.99821 0 5.12399 0Z" id="Rectangle" fill="url(#gradient_1)" fill-rule="evenodd" stroke="none" />
        <path d="M34.165 5.12375L34.165 5.12575Q34.165 5.25153 34.1588 5.37716Q34.1526 5.50279 34.1403 5.62796Q34.128 5.75314 34.1095 5.87756Q34.0911 6.00198 34.0665 6.12534Q34.042 6.24871 34.0114 6.37072Q33.9809 6.49273 33.9444 6.6131Q33.9078 6.73346 33.8655 6.85189Q33.8231 6.97032 33.775 7.08652Q33.7268 7.20273 33.673 7.31644Q33.6193 7.43014 33.56 7.54107Q33.5007 7.652 33.436 7.75988Q33.3714 7.86777 33.3015 7.97235Q33.2316 8.07694 33.1567 8.17796Q33.0817 8.27899 33.002 8.37622Q32.9222 8.47345 32.8377 8.56665Q32.7532 8.65985 32.6643 8.74879Q32.5753 8.83773 32.4821 8.9222Q32.3889 9.00667 32.2917 9.08646Q32.1945 9.16626 32.0934 9.24119Q31.9924 9.31611 31.8878 9.38599Q31.7833 9.45587 31.6754 9.52054Q31.5675 9.5852 31.4566 9.6445Q31.3456 9.70379 31.2319 9.75757Q31.1182 9.81135 31.002 9.85948Q30.8858 9.90761 30.7674 9.94999Q30.6489 9.99236 30.5286 10.0289Q30.4082 10.0654 30.2862 10.096Q30.1642 10.1265 30.0408 10.1511Q29.9175 10.1756 29.793 10.194Q29.6686 10.2125 29.5435 10.2248Q29.4183 10.2372 29.2927 10.2433Q29.167 10.2495 29.0412 10.2495L5.12374 10.2495Q4.99796 10.2495 4.87233 10.2434Q4.7467 10.2372 4.62152 10.2249Q4.49635 10.2125 4.37193 10.1941Q4.24751 10.1756 4.12414 10.1511Q4.00078 10.1265 3.87877 10.096Q3.75676 10.0654 3.63639 10.0289Q3.51603 9.9924 3.3976 9.95002Q3.27917 9.90765 3.16296 9.85952Q3.04676 9.81138 2.93305 9.7576Q2.81935 9.70382 2.70842 9.64453Q2.59749 9.58524 2.4896 9.52058Q2.38172 9.45591 2.27713 9.38603Q2.17255 9.31615 2.07152 9.24122Q1.9705 9.1663 1.87327 9.0865Q1.77604 9.00671 1.68284 8.92224Q1.58964 8.83777 1.5007 8.74883Q1.41176 8.65989 1.32729 8.56669Q1.24282 8.47349 1.16302 8.37626Q1.08323 8.27903 1.0083 8.178Q0.933375 8.07698 0.863494 7.97239Q0.793614 7.86781 0.72895 7.75992Q0.664285 7.65204 0.604992 7.54111Q0.5457 7.43018 0.491921 7.31648Q0.438143 7.20277 0.390008 7.08657Q0.341874 6.97036 0.2995 6.85193Q0.257125 6.7335 0.220613 6.61314Q0.1841 6.49277 0.153538 6.37076Q0.122976 6.24875 0.0984369 6.12539Q0.0738982 6.00202 0.0554422 5.8776Q0.0369862 5.75318 0.0246574 5.62801Q0.0123286 5.50283 0.00615671 5.3772Q-1.51651e-05 5.25157 -1.52588e-05 5.12579L-1.52588e-05 5.12379Q-1.54461e-05 4.99801 0.00615615 4.87238Q0.0123277 4.74675 0.0246562 4.62158Q0.0369847 4.4964 0.0554405 4.37198Q0.0738962 4.24756 0.0984346 4.1242Q0.122973 4.00083 0.153535 3.87882Q0.184097 3.75681 0.220609 3.63645Q0.257122 3.51608 0.299496 3.39765Q0.34187 3.27922 0.390004 3.16302Q0.438138 3.04681 0.491916 2.93311Q0.545694 2.8194 0.604987 2.70847Q0.664279 2.59754 0.728944 2.48966Q0.793608 2.38177 0.863488 2.27719Q0.933368 2.17261 1.0083 2.07158Q1.08322 1.97055 1.16302 1.87332Q1.24281 1.77609 1.32728 1.68289Q1.41175 1.58969 1.50069 1.50075Q1.58963 1.41181 1.68283 1.32734Q1.77603 1.24287 1.87326 1.16308Q1.97049 1.08328 2.07151 1.00836Q2.17254 0.933428 2.27712 0.863548Q2.38171 0.793667 2.48959 0.729003Q2.59748 0.664339 2.70841 0.605046Q2.81934 0.545753 2.93304 0.491974Q3.04675 0.438196 3.16295 0.390061Q3.27916 0.341927 3.39759 0.299553Q3.51602 0.257178 3.63638 0.220666Q3.75674 0.184153 3.87876 0.153591Q4.00077 0.123028 4.12413 0.0984895Q4.2475 0.0739507 4.37192 0.0554946Q4.49634 0.0370385 4.62151 0.0247097Q4.74669 0.0123808 4.87232 0.00620891Q4.99794 3.69719e-05 5.12373 3.68124e-05L29.0412 6.49482e-06Q29.167 6.33538e-06 29.2926 0.00617796Q29.4183 0.0123496 29.5434 0.0246781Q29.6686 0.0370066 29.793 0.0554624Q29.9175 0.0739181 30.0408 0.0984566Q30.1642 0.122995 30.2862 0.153557Q30.4082 0.184119 30.5286 0.220632Q30.6489 0.257144 30.7674 0.299518Q30.8858 0.341892 31.002 0.390026Q31.1182 0.43816 31.2319 0.491939Q31.3456 0.545717 31.4565 0.605009Q31.5675 0.664302 31.6754 0.728966Q31.7832 0.79363 31.8878 0.86351Q31.9924 0.93339 32.0934 1.00832Q32.1945 1.08325 32.2917 1.16304Q32.3889 1.24283 32.4821 1.3273Q32.5753 1.41177 32.6643 1.50071Q32.7532 1.58965 32.8377 1.68285Q32.9222 1.77605 33.0019 1.87328Q33.0817 1.97051 33.1567 2.07154Q33.2316 2.17256 33.3015 2.27715Q33.3714 2.38173 33.436 2.48962Q33.5007 2.5975 33.56 2.70843Q33.6193 2.81936 33.673 2.93306Q33.7268 3.04677 33.775 3.16298Q33.8231 3.27918 33.8655 3.39761Q33.9078 3.51604 33.9444 3.6364Q33.9809 3.75677 34.0114 3.87878Q34.042 4.00079 34.0665 4.12416Q34.0911 4.24752 34.1095 4.37194Q34.128 4.49636 34.1403 4.62154Q34.1526 4.74671 34.1588 4.87234Q34.165 4.99797 34.165 5.12375Z" id="Rectangle-2" fill="#134B7B" fill-rule="evenodd" stroke="none" />
      </g>
    </g>
  </g>
</svg>