<?xml version="1.0" encoding="utf-8"?>
<svg width="120px" height="120px" viewBox="0 0 120 120" version="1.1" xmlns:xlink="http://www.w3.org/1999/xlink" xmlns="http://www.w3.org/2000/svg">
  <defs>
    <linearGradient gradientUnits="userSpaceOnUse" x1="25" y1="0" x2="25" y2="50" id="gradient_1">
      <stop offset="24.691359%" stop-color="#F8C822" />
      <stop offset="100%" stop-color="#8B6F0C" />
    </linearGradient>
    <linearGradient gradientUnits="userSpaceOnUse" x1="34.98001" y1="0" x2="34.98002" y2="52.999996" id="gradient_2">
      <stop offset="0%" stop-color="#FFCB16" />
      <stop offset="100%" stop-color="#FFD74D" />
    </linearGradient>
    <rect width="120" height="120" id="artboard_1" />
    <clipPath id="clip_1">
      <use xlink:href="#artboard_1" clip-rule="evenodd" />
    </clipPath>
  </defs>
  <g id="Artboard" clip-path="url(#clip_1)">
    <use xlink:href="#artboard_1" stroke="none" fill="#FFFFFF" />
    <g id="Group-3" transform="translate(26 21)">
      <g id="Group-2">
        <path d="M9 25C9 11.1929 20.1929 0 34 0C47.8071 0 59 11.1929 59 25C59 38.8071 47.8071 50 34 50C20.1929 50 9 38.8071 9 25Z" id="Ellipse" fill="url(#gradient_1)" fill-rule="evenodd" stroke="none" />
        <path d="M19 25C19 16.7157 25.7157 10 34 10C42.2843 10 49 16.7157 49 25C49 33.2843 42.2843 40 34 40C25.7157 40 19 33.2843 19 25Z" id="Ellipse-2" fill="#FFFFFF" fill-rule="evenodd" stroke="none" />
        <path d="M10.999 25L58.961 25Q59.231 25 59.5007 25.0132Q59.7704 25.0265 60.0391 25.053Q60.3078 25.0794 60.5749 25.119Q60.842 25.1587 61.1068 25.2113Q61.3716 25.264 61.6335 25.3296Q61.8955 25.3952 62.1538 25.4736Q62.4122 25.552 62.6664 25.643Q62.9207 25.7339 63.1701 25.8372Q63.4196 25.9406 63.6637 26.056Q63.9078 26.1715 64.1459 26.2987Q64.384 26.426 64.6156 26.5648Q64.8472 26.7037 65.0717 26.8537Q65.2962 27.0037 65.5131 27.1645Q65.73 27.3254 65.9387 27.4967Q66.1474 27.6679 66.3475 27.8493Q66.5475 28.0306 66.7385 28.2215Q66.9294 28.4125 67.1107 28.6125Q67.292 28.8126 67.4633 29.0213Q67.6346 29.23 67.7955 29.4469Q67.9563 29.6638 68.1063 29.8883Q68.2563 30.1128 68.3951 30.3444Q68.534 30.576 68.6612 30.8141Q68.7885 31.0522 68.904 31.2963Q69.0194 31.5404 69.1227 31.7899Q69.2261 32.0393 69.317 32.2935Q69.408 32.5478 69.4864 32.8062Q69.5648 33.0645 69.6304 33.3265Q69.696 33.5884 69.7486 33.8532Q69.8013 34.118 69.841 34.3851Q69.8806 34.6522 69.907 34.9209Q69.9335 35.1896 69.9467 35.4593Q69.96 35.729 69.96 35.999L69.96 51.501Q69.96 52.1515 69.9281 52.8012Q69.8962 53.451 69.8324 54.0984Q69.7686 54.7457 69.6732 55.3892Q69.5777 56.0327 69.4508 56.6707Q69.3239 57.3087 69.1658 57.9397Q69.0078 58.5707 68.819 59.1933Q68.6301 59.8158 68.411 60.4282Q68.1918 61.0407 67.9429 61.6417Q67.6939 62.2427 67.4158 62.8308Q67.1377 63.4188 66.831 63.9925Q66.5244 64.5662 66.1899 65.1242Q65.8555 65.6822 65.4941 66.2231Q65.1327 66.7639 64.7452 67.2864Q64.3577 67.8089 63.945 68.3118Q63.5323 68.8146 63.0955 69.2966Q62.6586 69.7786 62.1986 70.2386Q61.7386 70.6986 61.2566 71.1355Q60.7746 71.5723 60.2718 71.985Q59.7689 72.3977 59.2464 72.7852Q58.7239 73.1727 58.183 73.5341Q57.6422 73.8955 57.0842 74.2299Q56.5262 74.5644 55.9525 74.871Q55.3788 75.1777 54.7908 75.4558Q54.2027 75.7339 53.6017 75.9829Q53.0007 76.2318 52.3882 76.451Q51.7757 76.6701 51.1532 76.859Q50.5307 77.0478 49.8997 77.2058Q49.2687 77.3639 48.6307 77.4908Q47.9927 77.6177 47.3492 77.7132Q46.7057 77.8086 46.0584 77.8724Q45.411 77.9362 44.7612 77.9681Q44.1115 78 43.461 78L26.499 78Q25.8485 78 25.1988 77.9681Q24.549 77.9362 23.9016 77.8724Q23.2543 77.8086 22.6108 77.7132Q21.9673 77.6177 21.3293 77.4908Q20.6913 77.3639 20.0603 77.2058Q19.4292 77.0478 18.8067 76.859Q18.1842 76.6701 17.5718 76.451Q16.9593 76.2318 16.3583 75.9829Q15.7573 75.7339 15.1692 75.4558Q14.5812 75.1777 14.0075 74.871Q13.4338 74.5644 12.8758 74.2299Q12.3178 73.8955 11.7769 73.5341Q11.2361 73.1727 10.7136 72.7852Q10.1911 72.3977 9.68821 71.985Q9.18536 71.5723 8.70336 71.1355Q8.22136 70.6986 7.76138 70.2386Q7.30139 69.7786 6.86454 69.2966Q6.42768 68.8146 6.015 68.3118Q5.60231 67.8089 5.2148 67.2864Q4.82729 66.7639 4.46589 66.2231Q4.10448 65.6822 3.77005 65.1242Q3.43562 64.5662 3.12897 63.9925Q2.82232 63.4188 2.54419 62.8308Q2.26606 62.2427 2.01712 61.6417Q1.76818 61.0407 1.54902 60.4282Q1.32987 59.8158 1.14104 59.1933Q0.952204 58.5708 0.794142 57.9397Q0.63608 57.3087 0.509171 56.6707Q0.382262 56.0327 0.286812 55.3892Q0.191361 54.7457 0.1276 54.0984Q0.0638384 53.451 0.0319192 52.8012Q0 52.1515 0 51.501L0 35.999Q0 35.729 0.0132488 35.4593Q0.0264976 35.1896 0.0529632 34.9209Q0.0794288 34.6522 0.119048 34.3851Q0.158666 34.118 0.211343 33.8532Q0.264019 33.5884 0.329626 33.3265Q0.395233 33.0645 0.473613 32.8062Q0.551993 32.5478 0.642957 32.2935Q0.73392 32.0393 0.837249 31.7899Q0.940577 31.5404 1.05602 31.2963Q1.17147 31.0522 1.29875 30.8141Q1.42603 30.576 1.56484 30.3444Q1.70366 30.1128 1.85367 29.8883Q2.00367 29.6638 2.16452 29.4469Q2.32537 29.23 2.49666 29.0213Q2.66795 28.8126 2.84928 28.6125Q3.03061 28.4125 3.22153 28.2215Q3.41246 28.0306 3.61252 27.8493Q3.81259 27.6679 4.02131 27.4967Q4.23003 27.3254 4.4469 27.1645Q4.66378 27.0037 4.88828 26.8537Q5.11279 26.7037 5.34438 26.5648Q5.57598 26.426 5.81411 26.2987Q6.05223 26.1715 6.29632 26.056Q6.54041 25.9406 6.78986 25.8372Q7.03932 25.7339 7.29355 25.643Q7.54777 25.552 7.80616 25.4736Q8.06454 25.3952 8.32646 25.3296Q8.58838 25.264 8.8532 25.2113Q9.11802 25.1587 9.38511 25.119Q9.6522 25.0794 9.92091 25.053Q10.1896 25.0265 10.4593 25.0132Q10.729 25 10.999 25Z" id="Rectangle" fill="url(#gradient_2)" fill-rule="evenodd" stroke="none" />
        <g id="Group" transform="translate(26 38)">
          <path d="M1.41177 7.05882C1.41177 3.16034 4.57212 0 8.4706 0C12.3691 0 15.5294 3.16034 15.5294 7.05882C15.5294 10.9573 12.3691 14.1176 8.4706 14.1176C4.57212 14.1176 1.41177 10.9573 1.41177 7.05882Z" id="Ellipse-3" fill="#3E330C" fill-rule="evenodd" stroke="none" />
          <path d="M8.47058 4.23529L16.9412 24L0 24L8.47058 4.23529Z" id="Triangle" fill="#3E330C" fill-rule="evenodd" stroke="none" />
        </g>
      </g>
    </g>
  </g>
</svg>