<?xml version="1.0" encoding="utf-8"?>
<svg width="120px" height="120px" viewBox="0 0 120 120" version="1.1" xmlns:xlink="http://www.w3.org/1999/xlink" xmlns="http://www.w3.org/2000/svg">
  <defs>
    <linearGradient gradientUnits="userSpaceOnUse" x1="45.5" y1="0" x2="45.5" y2="20.248386" id="gradient_1">
      <stop offset="0%" stop-color="#04335E" />
      <stop offset="100%" stop-color="#11518A" />
    </linearGradient>
    <linearGradient gradientUnits="userSpaceOnUse" x1="46.5" y1="-22.792603" x2="46.5" y2="27" id="gradient_2">
      <stop offset="0%" stop-color="#001C43" />
      <stop offset="100%" stop-color="#072846" />
    </linearGradient>
    <path d="M4.999 0L75.001 0Q75.1237 0 75.2463 0.00602151Q75.3689 0.012043 75.491 0.0240715Q75.6131 0.0361001 75.7345 0.0541066Q75.8559 0.0721132 75.9762 0.0960544Q76.0966 0.119996 76.2157 0.149814Q76.3347 0.179632 76.4521 0.215255Q76.5696 0.250879 76.6851 0.292221Q76.8006 0.333564 76.914 0.380526Q77.0274 0.427489 77.1384 0.479957Q77.2493 0.532426 77.3575 0.590276Q77.4657 0.648125 77.571 0.711215Q77.6763 0.774305 77.7783 0.842483Q77.8803 0.910662 77.9789 0.983765Q78.0775 1.05687 78.1723 1.13472Q78.2672 1.21257 78.3581 1.29499Q78.4491 1.3774 78.5358 1.46417Q78.6226 1.55095 78.705 1.64188Q78.7874 1.73281 78.8653 1.82767Q78.9431 1.92253 79.0162 2.0211Q79.0893 2.11967 79.1575 2.2217Q79.2257 2.32374 79.2888 2.429Q79.3519 2.53426 79.4097 2.64249Q79.4676 2.75072 79.52 2.86165Q79.5725 2.97259 79.6195 3.08597Q79.6664 3.19934 79.7078 3.31489Q79.7491 3.43043 79.7847 3.54787Q79.8204 3.6653 79.8502 3.78434Q79.88 3.90338 79.9039 4.02374Q79.9279 4.1441 79.9459 4.26549Q79.9639 4.38688 79.9759 4.50901Q79.988 4.63114 79.994 4.75371Q80 4.87628 80 4.999L80 45.001Q80 45.1237 79.994 45.2463Q79.988 45.3689 79.9759 45.491Q79.9639 45.6131 79.9459 45.7345Q79.9279 45.8559 79.9039 45.9763Q79.88 46.0966 79.8502 46.2157Q79.8204 46.3347 79.7847 46.4521Q79.7491 46.5696 79.7078 46.6851Q79.6664 46.8007 79.6195 46.914Q79.5725 47.0274 79.52 47.1384Q79.4676 47.2493 79.4097 47.3575Q79.3519 47.4657 79.2888 47.571Q79.2257 47.6763 79.1575 47.7783Q79.0893 47.8803 79.0162 47.9789Q78.9431 48.0775 78.8653 48.1723Q78.7874 48.2672 78.705 48.3581Q78.6226 48.4491 78.5358 48.5358Q78.4491 48.6226 78.3581 48.705Q78.2672 48.7874 78.1723 48.8653Q78.0775 48.9431 77.9789 49.0162Q77.8803 49.0893 77.7783 49.1575Q77.6763 49.2257 77.571 49.2888Q77.4657 49.3519 77.3575 49.4097Q77.2493 49.4676 77.1384 49.52Q77.0274 49.5725 76.914 49.6195Q76.8006 49.6664 76.6851 49.7078Q76.5696 49.7491 76.4521 49.7847Q76.3347 49.8204 76.2157 49.8502Q76.0966 49.88 75.9762 49.9039Q75.8559 49.9279 75.7345 49.9459Q75.6131 49.9639 75.491 49.9759Q75.3689 49.988 75.2463 49.994Q75.1237 50 75.001 50L4.999 50Q4.87628 50 4.75371 49.994Q4.63114 49.988 4.50901 49.9759Q4.38688 49.9639 4.26549 49.9459Q4.1441 49.9279 4.02374 49.9039Q3.90338 49.88 3.78434 49.8502Q3.6653 49.8204 3.54787 49.7847Q3.43043 49.7491 3.31489 49.7078Q3.19934 49.6664 3.08597 49.6195Q2.97259 49.5725 2.86165 49.52Q2.75072 49.4676 2.64249 49.4097Q2.53426 49.3519 2.429 49.2888Q2.32374 49.2257 2.2217 49.1575Q2.11967 49.0893 2.0211 49.0162Q1.92253 48.9431 1.82767 48.8653Q1.73281 48.7874 1.64188 48.705Q1.55095 48.6226 1.46417 48.5358Q1.3774 48.4491 1.29499 48.3581Q1.21257 48.2672 1.13472 48.1723Q1.05687 48.0775 0.983765 47.9789Q0.910662 47.8803 0.842483 47.7783Q0.774305 47.6763 0.711215 47.571Q0.648125 47.4657 0.590276 47.3575Q0.532426 47.2493 0.479957 47.1384Q0.427489 47.0274 0.380526 46.914Q0.333564 46.8007 0.292221 46.6851Q0.250879 46.5696 0.215255 46.4521Q0.179632 46.3347 0.149814 46.2157Q0.119996 46.0966 0.0960544 45.9763Q0.0721132 45.8559 0.0541066 45.7345Q0.0361001 45.6131 0.0240715 45.491Q0.012043 45.3689 0.00602151 45.2463Q0 45.1237 0 45.001L0 4.999Q0 4.87628 0.00602151 4.75371Q0.012043 4.63114 0.0240715 4.50901Q0.0361001 4.38688 0.0541066 4.26549Q0.0721132 4.1441 0.0960544 4.02374Q0.119996 3.90338 0.149814 3.78434Q0.179632 3.6653 0.215255 3.54787Q0.250879 3.43043 0.292221 3.31489Q0.333564 3.19934 0.380526 3.08597Q0.427489 2.97259 0.479957 2.86165Q0.532426 2.75072 0.590276 2.64249Q0.648125 2.53426 0.711215 2.429Q0.774305 2.32374 0.842483 2.2217Q0.910662 2.11967 0.983765 2.0211Q1.05687 1.92253 1.13472 1.82767Q1.21257 1.73281 1.29499 1.64188Q1.3774 1.55095 1.46417 1.46417Q1.55095 1.3774 1.64188 1.29499Q1.73281 1.21257 1.82767 1.13472Q1.92253 1.05687 2.0211 0.983765Q2.11967 0.910662 2.2217 0.842483Q2.32374 0.774305 2.429 0.711215Q2.53426 0.648125 2.64249 0.590276Q2.75072 0.532426 2.86165 0.479957Q2.97259 0.427489 3.08597 0.380526Q3.19934 0.333564 3.31489 0.292221Q3.43043 0.250879 3.54787 0.215255Q3.6653 0.179632 3.78434 0.149814Q3.90338 0.119996 4.02374 0.0960544Q4.1441 0.0721132 4.26549 0.0541066Q4.38688 0.0361001 4.50901 0.0240715Q4.63114 0.012043 4.75371 0.00602151Q4.87628 0 4.999 0Z" id="path_1" />
    <rect width="120" height="120" id="artboard_1" />
    <clipPath id="clip_1">
      <use xlink:href="#artboard_1" clip-rule="evenodd" />
    </clipPath>
    <clipPath id="mask_1">
      <use xlink:href="#path_1" />
    </clipPath>
  </defs>
  <g id="Artboard" clip-path="url(#clip_1)">
    <use xlink:href="#artboard_1" stroke="none" fill="#FFFFFF" />
    <g id="Triangle-2-+-Triangle-Mask" transform="translate(20 35)">
      <path d="M4.999 0L75.001 0Q75.1237 0 75.2463 0.00602151Q75.3689 0.012043 75.491 0.0240715Q75.6131 0.0361001 75.7345 0.0541066Q75.8559 0.0721132 75.9762 0.0960544Q76.0966 0.119996 76.2157 0.149814Q76.3347 0.179632 76.4521 0.215255Q76.5696 0.250879 76.6851 0.292221Q76.8006 0.333564 76.914 0.380526Q77.0274 0.427489 77.1384 0.479957Q77.2493 0.532426 77.3575 0.590276Q77.4657 0.648125 77.571 0.711215Q77.6763 0.774305 77.7783 0.842483Q77.8803 0.910662 77.9789 0.983765Q78.0775 1.05687 78.1723 1.13472Q78.2672 1.21257 78.3581 1.29499Q78.4491 1.3774 78.5358 1.46417Q78.6226 1.55095 78.705 1.64188Q78.7874 1.73281 78.8653 1.82767Q78.9431 1.92253 79.0162 2.0211Q79.0893 2.11967 79.1575 2.2217Q79.2257 2.32374 79.2888 2.429Q79.3519 2.53426 79.4097 2.64249Q79.4676 2.75072 79.52 2.86165Q79.5725 2.97259 79.6195 3.08597Q79.6664 3.19934 79.7078 3.31489Q79.7491 3.43043 79.7847 3.54787Q79.8204 3.6653 79.8502 3.78434Q79.88 3.90338 79.9039 4.02374Q79.9279 4.1441 79.9459 4.26549Q79.9639 4.38688 79.9759 4.50901Q79.988 4.63114 79.994 4.75371Q80 4.87628 80 4.999L80 45.001Q80 45.1237 79.994 45.2463Q79.988 45.3689 79.9759 45.491Q79.9639 45.6131 79.9459 45.7345Q79.9279 45.8559 79.9039 45.9763Q79.88 46.0966 79.8502 46.2157Q79.8204 46.3347 79.7847 46.4521Q79.7491 46.5696 79.7078 46.6851Q79.6664 46.8007 79.6195 46.914Q79.5725 47.0274 79.52 47.1384Q79.4676 47.2493 79.4097 47.3575Q79.3519 47.4657 79.2888 47.571Q79.2257 47.6763 79.1575 47.7783Q79.0893 47.8803 79.0162 47.9789Q78.9431 48.0775 78.8653 48.1723Q78.7874 48.2672 78.705 48.3581Q78.6226 48.4491 78.5358 48.5358Q78.4491 48.6226 78.3581 48.705Q78.2672 48.7874 78.1723 48.8653Q78.0775 48.9431 77.9789 49.0162Q77.8803 49.0893 77.7783 49.1575Q77.6763 49.2257 77.571 49.2888Q77.4657 49.3519 77.3575 49.4097Q77.2493 49.4676 77.1384 49.52Q77.0274 49.5725 76.914 49.6195Q76.8006 49.6664 76.6851 49.7078Q76.5696 49.7491 76.4521 49.7847Q76.3347 49.8204 76.2157 49.8502Q76.0966 49.88 75.9762 49.9039Q75.8559 49.9279 75.7345 49.9459Q75.6131 49.9639 75.491 49.9759Q75.3689 49.988 75.2463 49.994Q75.1237 50 75.001 50L4.999 50Q4.87628 50 4.75371 49.994Q4.63114 49.988 4.50901 49.9759Q4.38688 49.9639 4.26549 49.9459Q4.1441 49.9279 4.02374 49.9039Q3.90338 49.88 3.78434 49.8502Q3.6653 49.8204 3.54787 49.7847Q3.43043 49.7491 3.31489 49.7078Q3.19934 49.6664 3.08597 49.6195Q2.97259 49.5725 2.86165 49.52Q2.75072 49.4676 2.64249 49.4097Q2.53426 49.3519 2.429 49.2888Q2.32374 49.2257 2.2217 49.1575Q2.11967 49.0893 2.0211 49.0162Q1.92253 48.9431 1.82767 48.8653Q1.73281 48.7874 1.64188 48.705Q1.55095 48.6226 1.46417 48.5358Q1.3774 48.4491 1.29499 48.3581Q1.21257 48.2672 1.13472 48.1723Q1.05687 48.0775 0.983765 47.9789Q0.910662 47.8803 0.842483 47.7783Q0.774305 47.6763 0.711215 47.571Q0.648125 47.4657 0.590276 47.3575Q0.532426 47.2493 0.479957 47.1384Q0.427489 47.0274 0.380526 46.914Q0.333564 46.8007 0.292221 46.6851Q0.250879 46.5696 0.215255 46.4521Q0.179632 46.3347 0.149814 46.2157Q0.119996 46.0966 0.0960544 45.9763Q0.0721132 45.8559 0.0541066 45.7345Q0.0361001 45.6131 0.0240715 45.491Q0.012043 45.3689 0.00602151 45.2463Q0 45.1237 0 45.001L0 4.999Q0 4.87628 0.00602151 4.75371Q0.012043 4.63114 0.0240715 4.50901Q0.0361001 4.38688 0.0541066 4.26549Q0.0721132 4.1441 0.0960544 4.02374Q0.119996 3.90338 0.149814 3.78434Q0.179632 3.6653 0.215255 3.54787Q0.250879 3.43043 0.292221 3.31489Q0.333564 3.19934 0.380526 3.08597Q0.427489 2.97259 0.479957 2.86165Q0.532426 2.75072 0.590276 2.64249Q0.648125 2.53426 0.711215 2.429Q0.774305 2.32374 0.842483 2.2217Q0.910662 2.11967 0.983765 2.0211Q1.05687 1.92253 1.13472 1.82767Q1.21257 1.73281 1.29499 1.64188Q1.3774 1.55095 1.46417 1.46417Q1.55095 1.3774 1.64188 1.29499Q1.73281 1.21257 1.82767 1.13472Q1.92253 1.05687 2.0211 0.983765Q2.11967 0.910662 2.2217 0.842483Q2.32374 0.774305 2.429 0.711215Q2.53426 0.648125 2.64249 0.590276Q2.75072 0.532426 2.86165 0.479957Q2.97259 0.427489 3.08597 0.380526Q3.19934 0.333564 3.31489 0.292221Q3.43043 0.250879 3.54787 0.215255Q3.6653 0.179632 3.78434 0.149814Q3.90338 0.119996 4.02374 0.0960544Q4.1441 0.0721132 4.26549 0.0541066Q4.38688 0.0361001 4.50901 0.0240715Q4.63114 0.012043 4.75371 0.00602151Q4.87628 0 4.999 0Z" id="Mask" fill="#1961A2" fill-rule="evenodd" stroke="none" />
      <g clip-path="url(#mask_1)">
        <path d="M40.5001 12L86.0001 50L-4.99988 50L40.5001 12Z" id="Triangle-2" fill="url(#gradient_1)" fill-rule="evenodd" stroke="none" />
        <path d="M40.5 27L87 0L-6 0L40.5 27Z" id="Triangle" fill="url(#gradient_2)" fill-rule="evenodd" stroke="none" />
      </g>
    </g>
  </g>
</svg>