<?xml version="1.0" encoding="utf-8"?>
<svg width="120px" height="120px" viewBox="0 0 120 120" version="1.1" xmlns:xlink="http://www.w3.org/1999/xlink" xmlns="http://www.w3.org/2000/svg">
  <defs>
    <linearGradient gradientUnits="userSpaceOnUse" x1="0" y1="0" x2="29.5" y2="29.500002" id="gradient_1">
      <stop offset="0%" stop-color="#49AAFF" />
      <stop offset="100%" stop-color="#51A4F8" />
    </linearGradient>
    <linearGradient gradientUnits="userSpaceOnUse" x1="0" y1="0" x2="71.420265" y2="74.99793" id="gradient_2">
      <stop offset="0%" stop-color="#2D2D2D" />
      <stop offset="100%" stop-color="#1E1E1E" />
    </linearGradient>
    <path d="M0 0L90 0L90 90L0 90L0 0Z" id="path_1" />
    <rect width="120" height="120" id="artboard_1" />
    <clipPath id="clip_1">
      <use xlink:href="#artboard_1" clip-rule="evenodd" />
    </clipPath>
    <clipPath id="mask_1">
      <use xlink:href="#path_1" />
    </clipPath>
  </defs>
  <g id="Artboard" clip-path="url(#clip_1)">
    <use xlink:href="#artboard_1" stroke="none" fill="#FFFFFF" />
    <g id="Group" transform="translate(15 15)">
      <path d="M31 45.75C31 37.6038 37.6038 31 45.75 31C53.8962 31 60.5 37.6038 60.5 45.75C60.5 53.8962 53.8962 60.5 45.75 60.5C37.6038 60.5 31 53.8962 31 45.75Z" id="Ellipse" fill="url(#gradient_1)" fill-rule="evenodd" stroke="none" />
      <g id="Settings-icon">
        <path d="M0 0L90 0L90 90L0 90L0 0Z" id="Background" fill="#FFFFFF" fill-opacity="0" fill-rule="evenodd" stroke="none" />
        <g clip-path="url(#mask_1)">
          <path d="M73.3856 49.2787C72.0487 48.2981 71.25 46.7231 71.25 45.0637C71.25 43.4044 72.0487 41.8294 73.3837 40.8506L79.56 36.3225C80.5444 35.5988 80.9512 34.3256 80.5669 33.165C78.9769 28.3875 76.4625 24.03 73.0912 20.2106C72.2794 19.2956 70.9706 19.0069 69.8512 19.4981L62.8969 22.5563C61.3819 23.2238 59.6175 23.1281 58.1794 22.2975C56.7431 21.4688 55.7794 19.9913 55.5975 18.3431L54.7612 10.7081C54.6281 9.49313 53.7244 8.50313 52.5281 8.25751C47.6587 7.26188 42.5419 7.24501 37.5862 8.23876C36.3825 8.48063 35.4769 9.47063 35.3437 10.6913L34.515 18.2775C34.3331 19.9275 33.3694 21.405 31.9294 22.2338C30.4931 23.0625 28.7344 23.1619 27.2137 22.4925L20.2219 19.4175C19.1119 18.9263 17.7994 19.2113 16.9875 20.1244C13.605 23.9288 11.0794 28.2806 9.4725 33.0544C9.08249 34.2131 9.48749 35.4938 10.4756 36.2194L16.6125 40.7194C17.9512 41.7019 18.75 43.2769 18.75 44.9362C18.75 46.5956 17.9512 48.1706 16.6162 49.1494L10.44 53.6775C9.45562 54.4012 9.04875 55.6744 9.43312 56.835C11.0231 61.6125 13.5375 65.97 16.9087 69.7894C17.7206 70.7062 19.0331 70.9969 20.1487 70.5019L27.1031 67.4437C28.6181 66.7762 30.3806 66.8719 31.8206 67.7025C33.2569 68.5312 34.2206 70.0087 34.4025 71.6569L35.2387 79.2919C35.3719 80.5069 36.2756 81.4969 37.4719 81.7425C39.9356 82.245 42.4669 82.5 45 82.5C47.4712 82.5 49.965 82.2506 52.4119 81.7594C53.6156 81.5175 54.5212 80.5275 54.6544 79.3069L55.485 71.7206C55.6669 70.0706 56.6306 68.5931 58.0706 67.7644C59.5069 66.9375 61.2675 66.84 62.7862 67.5056L69.7781 70.5806C70.8919 71.0737 72.2006 70.7887 73.0125 69.8737C76.395 66.0694 78.9206 61.7175 80.5275 56.9437C80.9175 55.785 80.5125 54.5044 79.5244 53.7787L73.3856 49.2787L73.3856 49.2787ZM45 58.125C37.7512 58.125 31.875 52.2487 31.875 45C31.875 37.7512 37.7512 31.875 45 31.875C52.2487 31.875 58.125 37.7512 58.125 45C58.125 52.2487 52.2487 58.125 45 58.125L45 58.125Z" id="Shape" fill="url(#gradient_2)" fill-rule="evenodd" stroke="none" />
        </g>
      </g>
    </g>
  </g>
</svg>