<?xml version="1.0" encoding="utf-8"?>
<svg width="120px" height="120px" viewBox="0 0 120 120" version="1.1" xmlns:xlink="http://www.w3.org/1999/xlink" xmlns="http://www.w3.org/2000/svg">
  <defs>
    <linearGradient gradientUnits="userSpaceOnUse" x1="21.05267" y1="0" x2="21.05267" y2="42.105335" id="gradient_1">
      <stop offset="0%" stop-color="#0088FF" />
      <stop offset="100%" stop-color="#004284" />
    </linearGradient>
    <path d="M0 21.0527C0 9.4256 9.4256 0 21.0527 0C32.6797 0 42.1053 9.4256 42.1053 21.0527C42.1053 32.6797 32.6797 42.1053 21.0527 42.1053C9.4256 42.1053 0 32.6797 0 21.0527Z" id="path_1" />
    <rect width="120" height="120" id="artboard_1" />
    <clipPath id="clip_1">
      <use xlink:href="#artboard_1" clip-rule="evenodd" />
    </clipPath>
    <clipPath id="mask_1">
      <use xlink:href="#path_1" />
    </clipPath>
  </defs>
  <g id="Artboard" clip-path="url(#clip_1)">
    <use xlink:href="#artboard_1" stroke="none" fill="#FFFFFF" />
    <g id="Group-3" transform="translate(17 20)">
      <g id="Group-2">
        <g id="Ellipse-2-Mask" transform="translate(21.894531 0)">
          <path d="M0 21.0527C0 9.4256 9.4256 0 21.0527 0C32.6797 0 42.1053 9.4256 42.1053 21.0527C42.1053 32.6797 32.6797 42.1053 21.0527 42.1053C9.4256 42.1053 0 32.6797 0 21.0527Z" id="Mask" fill="url(#gradient_1)" fill-rule="evenodd" stroke="none" />
          <g clip-path="url(#mask_1)">
            <path d="M7.57874 21.0528C7.57874 13.6115 13.6111 7.5791 21.0524 7.5791C28.4938 7.5791 34.5261 13.6115 34.5261 21.0528C34.5261 28.4941 28.4938 34.5265 21.0524 34.5265C13.6111 34.5265 7.57874 28.4941 7.57874 21.0528Z" id="Ellipse-2" fill="#FFFFFF" fill-rule="evenodd" stroke="none" />
          </g>
        </g>
        <path d="M4.999 21.0525L81.738 21.0525Q81.8607 21.0525 81.9833 21.0585Q82.1059 21.0646 82.228 21.0766Q82.3501 21.0886 82.4715 21.1066Q82.5929 21.1246 82.7132 21.1486Q82.8336 21.1725 82.9526 21.2023Q83.0717 21.2322 83.1891 21.2678Q83.3066 21.3034 83.4221 21.3447Q83.5376 21.3861 83.651 21.433Q83.7644 21.48 83.8753 21.5325Q83.9863 21.5849 84.0945 21.6428Q84.2027 21.7006 84.308 21.7637Q84.4132 21.8268 84.5153 21.895Q84.6173 21.9632 84.7159 22.0363Q84.8145 22.1094 84.9093 22.1872Q85.0042 22.2651 85.0951 22.3475Q85.186 22.4299 85.2728 22.5167Q85.3596 22.6035 85.442 22.6944Q85.5244 22.7853 85.6023 22.8802Q85.6801 22.9751 85.7532 23.0736Q85.8263 23.1722 85.8945 23.2742Q85.9627 23.3763 86.0258 23.4815Q86.0889 23.5868 86.1467 23.695Q86.2046 23.8032 86.257 23.9142Q86.3095 24.0251 86.3565 24.1385Q86.4034 24.2519 86.4448 24.3674Q86.4861 24.483 86.5217 24.6004Q86.5574 24.7178 86.5872 24.8369Q86.617 24.9559 86.6409 25.0763Q86.6649 25.1966 86.6829 25.318Q86.7009 25.4394 86.7129 25.5615Q86.7249 25.6837 86.731 25.8062Q86.737 25.9288 86.737 26.0515L86.737 70.001Q86.737 70.2465 86.7249 70.4916Q86.7129 70.7368 86.6888 70.9811Q86.6648 71.2253 86.6288 71.4681Q86.5927 71.711 86.5449 71.9517Q86.497 72.1924 86.4373 72.4305Q86.3777 72.6686 86.3064 72.9035Q86.2352 73.1384 86.1525 73.3696Q86.0698 73.6007 85.9759 73.8274Q85.8819 74.0542 85.777 74.2761Q85.672 74.498 85.5563 74.7145Q85.4406 74.931 85.3144 75.1415Q85.1882 75.352 85.0518 75.5561Q84.9155 75.7602 84.7692 75.9574Q84.623 76.1545 84.4673 76.3443Q84.3116 76.534 84.1467 76.7159Q83.9819 76.8978 83.8083 77.0714Q83.6348 77.2449 83.4529 77.4098Q83.271 77.5746 83.0813 77.7303Q82.8915 77.886 82.6944 78.0323Q82.4972 78.1785 82.2931 78.3149Q82.089 78.4512 81.8785 78.5774Q81.668 78.7036 81.4515 78.8193Q81.235 78.935 81.0131 79.04Q80.7912 79.1449 80.5644 79.2389Q80.3377 79.3328 80.1065 79.4155Q79.8754 79.4982 79.6405 79.5694Q79.4056 79.6407 79.1675 79.7003Q78.9294 79.76 78.6887 79.8079Q78.448 79.8558 78.2051 79.8918Q77.9623 79.9278 77.7181 79.9519Q77.4738 79.9759 77.2286 79.988Q76.9835 80 76.738 80L9.999 80Q9.75354 80 9.50837 79.988Q9.26321 79.9759 9.01893 79.9519Q8.77465 79.9278 8.53184 79.8918Q8.28904 79.8558 8.04829 79.8079Q7.80755 79.76 7.56944 79.7003Q7.33134 79.6407 7.09644 79.5694Q6.86155 79.4982 6.63044 79.4155Q6.39932 79.3328 6.17255 79.2389Q5.94577 79.1449 5.72388 79.04Q5.50198 78.935 5.2855 78.8193Q5.06903 78.7036 4.85849 78.5774Q4.64795 78.4512 4.44385 78.3149Q4.23976 78.1785 4.0426 78.0323Q3.84545 77.886 3.6557 77.7303Q3.46596 77.5746 3.28408 77.4098Q3.10221 77.2449 2.92864 77.0714Q2.75507 76.8978 2.59023 76.7159Q2.42539 76.534 2.26967 76.3443Q2.11395 76.1545 1.96773 75.9574Q1.82151 75.7602 1.68514 75.5561Q1.54876 75.352 1.42257 75.1415Q1.29638 74.931 1.18067 74.7145Q1.06496 74.498 0.960011 74.2761Q0.855062 74.0542 0.761128 73.8274Q0.667194 73.6007 0.584501 73.3696Q0.501807 73.1384 0.430553 72.9035Q0.3593 72.6687 0.299657 72.4305Q0.240015 72.1925 0.192128 71.9517Q0.144241 71.711 0.108224 71.4681Q0.0722074 71.2253 0.0481479 70.9811Q0.0240885 70.7368 0.0120442 70.4916Q0 70.2465 0 70.001L0 26.0515Q0 25.9288 0.00602151 25.8062Q0.012043 25.6837 0.0240715 25.5615Q0.0361001 25.4394 0.0541066 25.318Q0.0721132 25.1966 0.0960544 25.0763Q0.119996 24.9559 0.149814 24.8369Q0.179632 24.7178 0.215255 24.6004Q0.250879 24.483 0.292221 24.3674Q0.333564 24.2519 0.380526 24.1385Q0.427489 24.0251 0.479957 23.9142Q0.532426 23.8032 0.590276 23.695Q0.648125 23.5868 0.711215 23.4815Q0.774305 23.3763 0.842483 23.2742Q0.910662 23.1722 0.983765 23.0736Q1.05687 22.9751 1.13472 22.8802Q1.21257 22.7853 1.29499 22.6944Q1.3774 22.6035 1.46417 22.5167Q1.55095 22.4299 1.64188 22.3475Q1.73281 22.2651 1.82767 22.1872Q1.92253 22.1094 2.0211 22.0363Q2.11967 21.9632 2.2217 21.895Q2.32374 21.8268 2.429 21.7637Q2.53426 21.7006 2.64249 21.6428Q2.75072 21.5849 2.86165 21.5325Q2.97259 21.48 3.08597 21.433Q3.19934 21.3861 3.31489 21.3447Q3.43043 21.3034 3.54787 21.2678Q3.6653 21.2322 3.78434 21.2023Q3.90338 21.1725 4.02374 21.1486Q4.1441 21.1246 4.26549 21.1066Q4.38688 21.0886 4.50901 21.0766Q4.63114 21.0646 4.75371 21.0585Q4.87628 21.0525 4.999 21.0525Z" id="Rectangle" fill="#006EDD" fill-rule="evenodd" stroke="none" />
        <g id="Group" transform="translate(31.157837 32.84207)">
          <path d="M12.0403 35.3685L24.0807 22.5756L0 22.5756L12.0403 35.3685Z" id="Triangle" fill="#AFD9FF" fill-rule="evenodd" stroke="#AFD9FF" stroke-width="4" stroke-linejoin="round" />
          <path d="M8.27753 0L16.5553 0L16.5553 26.3382L8.27753 26.3382L8.27753 0Z" id="Rectangle-2" fill="#AFD9FF" fill-rule="evenodd" stroke="#AFD9FF" stroke-width="4" stroke-linejoin="round" />
        </g>
      </g>
    </g>
  </g>
</svg>