<?xml version="1.0" encoding="utf-8"?>
<svg width="120px" height="120px" viewBox="0 0 120 120" version="1.1" xmlns:xlink="http://www.w3.org/1999/xlink" xmlns="http://www.w3.org/2000/svg">
  <defs>
    <linearGradient gradientUnits="userSpaceOnUse" x1="0" y1="0" x2="80" y2="80" id="gradient_1">
      <stop offset="0%" stop-color="#515151" />
      <stop offset="100%" stop-color="#313131" />
    </linearGradient>
    <linearGradient gradientUnits="userSpaceOnUse" x1="3.6000004" y1="15.2" x2="3.6000004" y2="30.4" id="gradient_2">
      <stop offset="0%" stop-color="#19CC7E" />
      <stop offset="100%" stop-color="#059562" />
    </linearGradient>
    <linearGradient gradientUnits="userSpaceOnUse" x1="3.600002" y1="11.2" x2="-1.573611E-07" y2="11.2" id="gradient_3">
      <stop offset="0%" stop-color="#19CC7E" />
      <stop offset="100%" stop-color="#059562" />
    </linearGradient>
    <filter filterUnits="userSpaceOnUse" color-interpolation-filters="sRGB" id="filter_1">
      <feFlood flood-opacity="0" result="BackgroundImageFix" />
      <feBlend mode="normal" in="SourceGraphic" in2="BackgroundImageFix" result="shape" />
      <feColorMatrix in="SourceAlpha" type="matrix" values="0 0 0 0 0 0 0 0 0 0 0 0 0 0 0 0 0 0 127 0" result="hardAlpha" />
      <feOffset dx="0" dy="0" />
      <feGaussianBlur stdDeviation="2" />
      <feComposite in2="hardAlpha" operator="arithmetic" k2="-1" k3="1" />
      <feColorMatrix type="matrix" values="0 0 0 0 0 0 0 0 0 0 0 0 0 0 0 0 0 0 0.2901961 0" />
      <feBlend mode="normal" in2="shape" result="effect0_innerShadow" />
    </filter>
    <filter filterUnits="userSpaceOnUse" color-interpolation-filters="sRGB" id="filter_2">
      <feFlood flood-opacity="0" result="BackgroundImageFix" />
      <feColorMatrix in="SourceAlpha" type="matrix" values="0 0 0 0 0 0 0 0 0 0 0 0 0 0 0 0 0 0 127 0" />
      <feOffset dx="0" dy="2" />
      <feGaussianBlur stdDeviation="2" />
      <feColorMatrix type="matrix" values="0 0 0 0 0 0 0 0 0 0 0 0 0 0 0 0 0 0 0.078431375 0" />
      <feBlend mode="normal" in2="BackgroundImageFix" result="effect0_dropShadow" />
      <feBlend mode="normal" in="SourceGraphic" in2="effect0_dropShadow" result="shape" />
    </filter>
    <path d="M0 40C0 17.9086 17.9086 0 40 0C62.0914 0 80 17.9086 80 40C80 62.0914 62.0914 80 40 80C17.9086 80 0 62.0914 0 40Z" id="path_1" />
    <rect width="120" height="120" id="artboard_1" />
    <clipPath id="clip_1">
      <use xlink:href="#artboard_1" clip-rule="evenodd" />
    </clipPath>
  </defs>
  <g id="Artboard" clip-path="url(#clip_1)">
    <use xlink:href="#artboard_1" stroke="none" fill="#FFFFFF" />
    <g id="Group" transform="translate(20 20)">
      <g id="Ellipse">
        <use stroke="none" fill="url(#gradient_1)" xlink:href="#path_1" fill-rule="evenodd" filter="url(#filter_1)" />
      </g>
      <path d="M40.399 9.6L40.401 9.6Q40.5778 9.6 40.7538 9.61733Q40.9297 9.63466 41.1031 9.66915Q41.2765 9.70365 41.4457 9.75497Q41.6149 9.8063 41.7783 9.87395Q41.9416 9.94162 42.0975 10.025Q42.2535 10.1083 42.4005 10.2065Q42.5475 10.3048 42.6842 10.4169Q42.8208 10.5291 42.9459 10.6541Q43.0709 10.7791 43.1831 10.9158Q43.2952 11.0525 43.3934 11.1995Q43.4917 11.3465 43.575 11.5024Q43.6584 11.6584 43.726 11.8217Q43.7937 11.9851 43.845 12.1543Q43.8963 12.3235 43.9308 12.4969Q43.9653 12.6703 43.9827 12.8462Q44 13.0222 44 13.199L44 36.401Q44 36.5778 43.9827 36.7538Q43.9653 36.9297 43.9308 37.1031Q43.8963 37.2765 43.845 37.4457Q43.7937 37.6149 43.726 37.7783Q43.6584 37.9416 43.575 38.0976Q43.4917 38.2535 43.3934 38.4005Q43.2952 38.5475 43.1831 38.6842Q43.0709 38.8209 42.9459 38.9459Q42.8208 39.0709 42.6842 39.1831Q42.5475 39.2952 42.4005 39.3935Q42.2535 39.4917 42.0975 39.575Q41.9416 39.6584 41.7783 39.726Q41.6149 39.7937 41.4457 39.845Q41.2765 39.8964 41.1031 39.9308Q40.9297 39.9653 40.7538 39.9827Q40.5778 40 40.401 40L40.399 40Q40.2222 40 40.0462 39.9827Q39.8703 39.9653 39.6969 39.9308Q39.5234 39.8964 39.3543 39.845Q39.1851 39.7937 39.0217 39.726Q38.8584 39.6584 38.7024 39.575Q38.5465 39.4917 38.3995 39.3935Q38.2525 39.2952 38.1158 39.1831Q37.9791 39.0709 37.8541 38.9459Q37.7291 38.8209 37.6169 38.6842Q37.5048 38.5475 37.4065 38.4005Q37.3083 38.2535 37.225 38.0976Q37.1416 37.9416 37.0739 37.7783Q37.0063 37.6149 36.955 37.4457Q36.9036 37.2765 36.8691 37.1031Q36.8346 36.9297 36.8173 36.7538Q36.8 36.5778 36.8 36.401L36.8 13.199Q36.8 13.0222 36.8173 12.8462Q36.8346 12.6703 36.8691 12.4969Q36.9036 12.3235 36.955 12.1543Q37.0063 11.9851 37.0739 11.8217Q37.1416 11.6584 37.225 11.5024Q37.3083 11.3465 37.4065 11.1995Q37.5048 11.0525 37.6169 10.9158Q37.7291 10.7791 37.8541 10.6541Q37.9791 10.5291 38.1158 10.4169Q38.2525 10.3048 38.3995 10.2065Q38.5465 10.1083 38.7024 10.025Q38.8584 9.94162 39.0217 9.87395Q39.1851 9.8063 39.3543 9.75497Q39.5234 9.70365 39.6969 9.66915Q39.8703 9.63466 40.0462 9.61733Q40.2222 9.6 40.399 9.6Z" id="Rectangle" fill="url(#gradient_2)" fill-rule="evenodd" stroke="none" />
      <path d="M62.4 39.999L62.4 40.001Q62.4 40.1778 62.3827 40.3538Q62.3653 40.5297 62.3308 40.7031Q62.2963 40.8765 62.245 41.0457Q62.1937 41.2149 62.126 41.3783Q62.0584 41.5416 61.975 41.6976Q61.8917 41.8535 61.7935 42.0005Q61.6952 42.1475 61.5831 42.2842Q61.4709 42.4209 61.3459 42.5459Q61.2209 42.6709 61.0842 42.7831Q60.9475 42.8952 60.8005 42.9935Q60.6535 43.0917 60.4976 43.175Q60.3416 43.2584 60.1783 43.326Q60.0149 43.3937 59.8457 43.445Q59.6765 43.4964 59.5031 43.5308Q59.3297 43.5653 59.1538 43.5827Q58.9778 43.6 58.801 43.6L43.599 43.6Q43.4222 43.6 43.2462 43.5827Q43.0703 43.5653 42.8969 43.5308Q42.7234 43.4964 42.5543 43.445Q42.3851 43.3937 42.2217 43.326Q42.0584 43.2584 41.9024 43.175Q41.7465 43.0917 41.5995 42.9935Q41.4525 42.8952 41.3158 42.7831Q41.1791 42.6709 41.0541 42.5459Q40.9291 42.4209 40.8169 42.2842Q40.7048 42.1475 40.6065 42.0005Q40.5083 41.8535 40.425 41.6976Q40.3416 41.5416 40.2739 41.3783Q40.2063 41.2149 40.155 41.0457Q40.1036 40.8765 40.0691 40.7031Q40.0347 40.5297 40.0173 40.3538Q40 40.1778 40 40.001L40 39.999Q40 39.8222 40.0173 39.6462Q40.0347 39.4703 40.0691 39.2969Q40.1036 39.1235 40.155 38.9543Q40.2063 38.7851 40.2739 38.6217Q40.3416 38.4584 40.425 38.3024Q40.5083 38.1465 40.6065 37.9995Q40.7048 37.8525 40.8169 37.7158Q40.9291 37.5792 41.0541 37.4541Q41.1791 37.3291 41.3158 37.2169Q41.4525 37.1048 41.5995 37.0065Q41.7465 36.9083 41.9024 36.825Q42.0584 36.7416 42.2217 36.674Q42.3851 36.6063 42.5543 36.555Q42.7234 36.5037 42.8969 36.4692Q43.0703 36.4347 43.2462 36.4173Q43.4222 36.4 43.599 36.4L58.801 36.4Q58.9778 36.4 59.1538 36.4173Q59.3297 36.4347 59.5031 36.4692Q59.6765 36.5037 59.8457 36.555Q60.0149 36.6063 60.1783 36.674Q60.3416 36.7416 60.4976 36.825Q60.6535 36.9083 60.8005 37.0065Q60.9475 37.1048 61.0842 37.2169Q61.2208 37.3291 61.3459 37.4541Q61.4709 37.5792 61.5831 37.7158Q61.6952 37.8525 61.7934 37.9995Q61.8917 38.1465 61.975 38.3024Q62.0584 38.4584 62.126 38.6217Q62.1937 38.7851 62.245 38.9543Q62.2963 39.1235 62.3308 39.2969Q62.3653 39.4703 62.3827 39.6462Q62.4 39.8222 62.4 39.999Z" id="Rectangle-2" fill="url(#gradient_3)" fill-rule="evenodd" stroke="none" />
      <path d="M34.4 40.4C34.4 37.0863 37.0863 34.4 40.4 34.4C43.7137 34.4 46.4 37.0863 46.4 40.4C46.4 43.7137 43.7137 46.4 40.4 46.4C37.0863 46.4 34.4 43.7137 34.4 40.4Z" id="Ellipse-2" fill="#B6FFDF" fill-rule="evenodd" stroke="none" filter="url(#filter_2)" />
    </g>
  </g>
</svg>