<?xml version="1.0" encoding="utf-8"?>
<svg width="120px" height="120px" viewBox="0 0 120 120" version="1.1" xmlns:xlink="http://www.w3.org/1999/xlink" xmlns="http://www.w3.org/2000/svg">
  <defs>
    <rect width="120" height="120" id="artboard_1" />
    <clipPath id="clip_1">
      <use xlink:href="#artboard_1" clip-rule="evenodd" />
    </clipPath>
  </defs>
  <g id="Artboard" clip-path="url(#clip_1)">
    <use xlink:href="#artboard_1" stroke="none" fill="#FFFFFF" />
    <g id="Group" transform="translate(31 20)">
      <path d="M16.8214 0L33.6449 0L33.6449 35.1402L16.8214 35.1402Q16.4085 35.1402 15.996 35.1199Q15.5836 35.0997 15.1726 35.0592Q14.7617 35.0187 14.3532 34.9581Q13.9447 34.8975 13.5397 34.817Q13.1347 34.7364 12.7342 34.6361Q12.3336 34.5357 11.9384 34.4159Q11.5433 34.296 11.1545 34.1569Q10.7657 34.0178 10.3841 33.8597Q10.0026 33.7017 9.62934 33.5251Q9.25605 33.3486 8.89186 33.1539Q8.52768 32.9593 8.17349 32.747Q7.81929 32.5347 7.47594 32.3053Q7.1326 32.0758 6.80092 31.8298Q6.46924 31.5839 6.15003 31.3219Q5.83082 31.0599 5.52485 30.7826Q5.21888 30.5053 4.92688 30.2133Q4.63489 29.9213 4.35757 29.6153Q4.08026 29.3094 3.81829 28.9902Q3.55632 28.6709 3.31033 28.3393Q3.06434 28.0076 2.83492 27.6642Q2.6055 27.3209 2.39321 26.9667Q2.18091 26.6125 1.98625 26.2483Q1.79159 25.8841 1.61504 25.5108Q1.43848 25.1375 1.28046 24.756Q1.12243 24.3745 0.983312 23.9857Q0.844196 23.5969 0.724325 23.2018Q0.604454 22.8066 0.504117 22.406Q0.40378 22.0055 0.323219 21.6004Q0.242658 21.1954 0.182067 20.787Q0.121475 20.3785 0.0809998 19.9675Q0.0405243 19.5566 0.0202622 19.1441Q0 18.7317 0 18.3188L0 16.8214Q0 16.4085 0.0202622 15.996Q0.0405243 15.5836 0.0809998 15.1726Q0.121475 14.7617 0.182067 14.3532Q0.242658 13.9447 0.323219 13.5397Q0.40378 13.1347 0.504117 12.7342Q0.604454 12.3336 0.724325 11.9384Q0.844196 11.5433 0.983312 11.1545Q1.12243 10.7657 1.28046 10.3841Q1.43848 10.0026 1.61504 9.62934Q1.79159 9.25605 1.98625 8.89186Q2.18091 8.52768 2.39321 8.17349Q2.6055 7.81929 2.83492 7.47594Q3.06434 7.1326 3.31033 6.80092Q3.55632 6.46924 3.81829 6.15003Q4.08026 5.83082 4.35757 5.52485Q4.63489 5.21888 4.92688 4.92688Q5.21888 4.63489 5.52485 4.35757Q5.83082 4.08026 6.15003 3.81829Q6.46924 3.55632 6.80092 3.31033Q7.1326 3.06434 7.47594 2.83492Q7.81929 2.6055 8.17349 2.39321Q8.52768 2.18091 8.89186 1.98625Q9.25605 1.79159 9.62934 1.61504Q10.0026 1.43848 10.3841 1.28046Q10.7657 1.12243 11.1545 0.983312Q11.5433 0.844196 11.9384 0.724325Q12.3336 0.604454 12.7342 0.504117Q13.1347 0.40378 13.5397 0.323219Q13.9447 0.242658 14.3532 0.182067Q14.7617 0.121475 15.1726 0.0809998Q15.5836 0.0405243 15.996 0.0202622Q16.4085 0 16.8214 0Z" id="Rectangle" fill="#0B2D43" fill-rule="evenodd" stroke="none" />
      <path d="M26.1682 0L33.6449 0L33.6449 80L26.1682 80L26.1682 0Z" id="Rectangle-2" fill="#0B2D43" fill-rule="evenodd" stroke="none" />
      <path d="M41.1215 0L48.5982 0L48.5982 80L41.1215 80L41.1215 0Z" id="Rectangle-3" fill="#0B2D43" fill-rule="evenodd" stroke="none" />
      <path d="M33.6449 0L41.1215 0L41.1215 8.97196L33.6449 8.97196L33.6449 0Z" id="Rectangle-4" fill="#0B2D43" fill-rule="evenodd" stroke="none" />
    </g>
  </g>
</svg>