<?xml version="1.0" encoding="utf-8"?>
<svg width="120px" height="120px" viewBox="0 0 120 120" version="1.1" xmlns:xlink="http://www.w3.org/1999/xlink" xmlns="http://www.w3.org/2000/svg">
  <defs>
    <filter filterUnits="userSpaceOnUse" color-interpolation-filters="sRGB" id="filter_1">
      <feFlood flood-opacity="0" result="BackgroundImageFix" />
      <feColorMatrix in="SourceAlpha" type="matrix" values="0 0 0 0 0 0 0 0 0 0 0 0 0 0 0 0 0 0 127 0" />
      <feOffset dx="2" dy="2" />
      <feGaussianBlur stdDeviation="2" />
      <feColorMatrix type="matrix" values="0 0 0 0 0 0 0 0 0 0 0 0 0 0 0 0 0 0 0.32156864 0" />
      <feBlend mode="normal" in2="BackgroundImageFix" result="effect0_dropShadow" />
      <feColorMatrix in="SourceAlpha" type="matrix" values="0 0 0 0 0 0 0 0 0 0 0 0 0 0 0 0 0 0 127 0" />
      <feOffset dx="-2" dy="-2" />
      <feGaussianBlur stdDeviation="2" />
      <feColorMatrix type="matrix" values="0 0 0 0 1 0 0 0 0 1 0 0 0 0 1 0 0 0 0.92156863 0" />
      <feBlend mode="normal" in2="effect0_dropShadow" result="effect1_dropShadow" />
      <feBlend mode="normal" in="SourceGraphic" in2="effect1_dropShadow" result="shape" />
    </filter>
    <filter filterUnits="userSpaceOnUse" color-interpolation-filters="sRGB" id="filter_2">
      <feFlood flood-opacity="0" result="BackgroundImageFix" />
      <feColorMatrix in="SourceAlpha" type="matrix" values="0 0 0 0 0 0 0 0 0 0 0 0 0 0 0 0 0 0 127 0" />
      <feOffset dx="2" dy="2" />
      <feGaussianBlur stdDeviation="2" />
      <feColorMatrix type="matrix" values="0 0 0 0 0 0 0 0 0 0 0 0 0 0 0 0 0 0 0.32941177 0" />
      <feBlend mode="normal" in2="BackgroundImageFix" result="effect0_dropShadow" />
      <feColorMatrix in="SourceAlpha" type="matrix" values="0 0 0 0 0 0 0 0 0 0 0 0 0 0 0 0 0 0 127 0" />
      <feOffset dx="-2" dy="-2" />
      <feGaussianBlur stdDeviation="2" />
      <feColorMatrix type="matrix" values="0 0 0 0 1 0 0 0 0 1 0 0 0 0 1 0 0 0 0.49803922 0" />
      <feBlend mode="normal" in2="effect0_dropShadow" result="effect1_dropShadow" />
      <feBlend mode="normal" in="SourceGraphic" in2="effect1_dropShadow" result="shape" />
    </filter>
    <rect width="120" height="120" id="artboard_1" />
    <clipPath id="clip_1">
      <use xlink:href="#artboard_1" clip-rule="evenodd" />
    </clipPath>
  </defs>
  <g id="Artboard" clip-path="url(#clip_1)">
    <use xlink:href="#artboard_1" stroke="none" fill="#FFFFFF" fill-opacity="0" />
    <g id="Group-2" transform="translate(23 23)">
      <g id="Group">
        <path d="M4.999 0L70.001 0Q70.1237 0 70.2463 0.00602151Q70.3689 0.012043 70.491 0.0240715Q70.6131 0.0361001 70.7345 0.0541066Q70.8559 0.0721132 70.9762 0.0960544Q71.0966 0.119996 71.2157 0.149814Q71.3347 0.179632 71.4521 0.215255Q71.5696 0.250879 71.6851 0.292221Q71.8007 0.333564 71.914 0.380526Q72.0274 0.427489 72.1383 0.479957Q72.2493 0.532426 72.3575 0.590276Q72.4657 0.648125 72.571 0.711215Q72.6762 0.774305 72.7783 0.842483Q72.8803 0.910662 72.9789 0.983765Q73.0775 1.05687 73.1723 1.13472Q73.2672 1.21257 73.3581 1.29499Q73.449 1.3774 73.5358 1.46417Q73.6226 1.55095 73.705 1.64188Q73.7874 1.73281 73.8653 1.82767Q73.9431 1.92253 74.0162 2.0211Q74.0893 2.11967 74.1575 2.2217Q74.2257 2.32374 74.2888 2.429Q74.3519 2.53426 74.4097 2.64249Q74.4676 2.75072 74.52 2.86165Q74.5725 2.97259 74.6195 3.08597Q74.6664 3.19934 74.7078 3.31489Q74.7491 3.43043 74.7847 3.54787Q74.8204 3.6653 74.8502 3.78434Q74.88 3.90338 74.9039 4.02374Q74.9279 4.1441 74.9459 4.26549Q74.9639 4.38688 74.9759 4.50901Q74.988 4.63114 74.994 4.75371Q75 4.87628 75 4.999L75 70.001Q75 70.1237 74.994 70.2463Q74.988 70.3689 74.9759 70.491Q74.9639 70.6131 74.9459 70.7345Q74.9279 70.8559 74.9039 70.9762Q74.88 71.0966 74.8502 71.2157Q74.8204 71.3347 74.7847 71.4521Q74.7491 71.5696 74.7078 71.6851Q74.6664 71.8007 74.6195 71.914Q74.5725 72.0274 74.52 72.1383Q74.4676 72.2493 74.4097 72.3575Q74.3519 72.4657 74.2888 72.571Q74.2257 72.6762 74.1575 72.7783Q74.0893 72.8803 74.0162 72.9789Q73.9431 73.0775 73.8653 73.1723Q73.7874 73.2672 73.705 73.3581Q73.6226 73.449 73.5358 73.5358Q73.449 73.6226 73.3581 73.705Q73.2672 73.7874 73.1723 73.8653Q73.0775 73.9431 72.9789 74.0162Q72.8803 74.0893 72.7783 74.1575Q72.6762 74.2257 72.571 74.2888Q72.4657 74.3519 72.3575 74.4097Q72.2493 74.4676 72.1383 74.52Q72.0274 74.5725 71.914 74.6195Q71.8007 74.6664 71.6851 74.7078Q71.5696 74.7491 71.4521 74.7847Q71.3347 74.8204 71.2157 74.8502Q71.0966 74.88 70.9762 74.9039Q70.8559 74.9279 70.7345 74.9459Q70.6131 74.9639 70.491 74.9759Q70.3689 74.988 70.2463 74.994Q70.1237 75 70.001 75L4.999 75Q4.87628 75 4.75371 74.994Q4.63114 74.988 4.50901 74.9759Q4.38688 74.9639 4.26549 74.9459Q4.1441 74.9279 4.02374 74.9039Q3.90338 74.88 3.78434 74.8502Q3.6653 74.8204 3.54787 74.7847Q3.43043 74.7491 3.31489 74.7078Q3.19934 74.6664 3.08597 74.6195Q2.97259 74.5725 2.86165 74.52Q2.75072 74.4676 2.64249 74.4097Q2.53426 74.3519 2.429 74.2888Q2.32374 74.2257 2.2217 74.1575Q2.11967 74.0893 2.0211 74.0162Q1.92253 73.9431 1.82767 73.8653Q1.73281 73.7874 1.64188 73.705Q1.55095 73.6226 1.46417 73.5358Q1.3774 73.449 1.29499 73.3581Q1.21257 73.2672 1.13472 73.1723Q1.05687 73.0775 0.983765 72.9789Q0.910662 72.8803 0.842483 72.7783Q0.774305 72.6762 0.711215 72.571Q0.648125 72.4657 0.590276 72.3575Q0.532426 72.2493 0.479957 72.1383Q0.427489 72.0274 0.380526 71.914Q0.333564 71.8007 0.292221 71.6851Q0.250879 71.5696 0.215255 71.4521Q0.179632 71.3347 0.149814 71.2157Q0.119996 71.0966 0.0960544 70.9762Q0.0721132 70.8559 0.0541066 70.7345Q0.0361001 70.6131 0.0240715 70.491Q0.012043 70.3689 0.00602151 70.2463Q0 70.1237 0 70.001L0 4.999Q0 4.87628 0.00602151 4.75371Q0.012043 4.63114 0.0240715 4.50901Q0.0361001 4.38688 0.0541066 4.26549Q0.0721132 4.1441 0.0960544 4.02374Q0.119996 3.90338 0.149814 3.78434Q0.179632 3.6653 0.215255 3.54787Q0.250879 3.43043 0.292221 3.31489Q0.333564 3.19934 0.380526 3.08597Q0.427489 2.97259 0.479957 2.86165Q0.532426 2.75072 0.590276 2.64249Q0.648125 2.53426 0.711215 2.429Q0.774305 2.32374 0.842483 2.2217Q0.910662 2.11967 0.983765 2.0211Q1.05687 1.92253 1.13472 1.82767Q1.21257 1.73281 1.29499 1.64188Q1.3774 1.55095 1.46417 1.46417Q1.55095 1.3774 1.64188 1.29499Q1.73281 1.21257 1.82767 1.13472Q1.92253 1.05687 2.0211 0.983765Q2.11967 0.910662 2.2217 0.842483Q2.32374 0.774305 2.429 0.711215Q2.53426 0.648125 2.64249 0.590276Q2.75072 0.532426 2.86165 0.479957Q2.97259 0.427489 3.08597 0.380526Q3.19934 0.333564 3.31489 0.292221Q3.43043 0.250879 3.54787 0.215255Q3.6653 0.179632 3.78434 0.149814Q3.90338 0.119996 4.02374 0.0960544Q4.1441 0.0721132 4.26549 0.0541066Q4.38688 0.0361001 4.50901 0.0240715Q4.63114 0.012043 4.75371 0.00602151Q4.87628 0 4.999 0Z" id="Rectangle" fill="#D6D6D6" fill-rule="evenodd" stroke="none" />
        <g id="Group" transform="translate(6.4285583 7.5)">
          <path d="M4.999 0L21.7867 0Q21.9094 0 22.032 0.00602151Q22.1546 0.012043 22.2767 0.0240715Q22.3988 0.0361001 22.5202 0.0541066Q22.6416 0.0721132 22.762 0.0960544Q22.8823 0.119996 23.0014 0.149814Q23.1204 0.179632 23.2378 0.215255Q23.3553 0.250879 23.4708 0.292221Q23.5864 0.333564 23.6997 0.380526Q23.8131 0.427489 23.9241 0.479957Q24.035 0.532426 24.1432 0.590276Q24.2514 0.648125 24.3567 0.711215Q24.462 0.774305 24.564 0.842483Q24.666 0.910662 24.7646 0.983765Q24.8632 1.05687 24.958 1.13472Q25.0529 1.21257 25.1438 1.29499Q25.2348 1.3774 25.3215 1.46417Q25.4083 1.55095 25.4907 1.64188Q25.5731 1.73281 25.651 1.82767Q25.7288 1.92253 25.8019 2.0211Q25.875 2.11967 25.9432 2.2217Q26.0114 2.32374 26.0745 2.429Q26.1376 2.53426 26.1954 2.64249Q26.2533 2.75072 26.3057 2.86165Q26.3582 2.97259 26.4052 3.08597Q26.4521 3.19934 26.4935 3.31489Q26.5348 3.43043 26.5705 3.54787Q26.6061 3.6653 26.6359 3.78434Q26.6657 3.90338 26.6897 4.02374Q26.7136 4.1441 26.7316 4.26549Q26.7496 4.38688 26.7616 4.50901Q26.7737 4.63114 26.7797 4.75371Q26.7857 4.87628 26.7857 4.999L26.7857 21.7867Q26.7857 21.9094 26.7797 22.032Q26.7737 22.1546 26.7616 22.2767Q26.7496 22.3988 26.7316 22.5202Q26.7136 22.6416 26.6897 22.762Q26.6657 22.8823 26.6359 23.0014Q26.6061 23.1204 26.5705 23.2378Q26.5348 23.3553 26.4935 23.4708Q26.4521 23.5864 26.4052 23.6997Q26.3582 23.8131 26.3058 23.9241Q26.2533 24.035 26.1954 24.1432Q26.1376 24.2514 26.0745 24.3567Q26.0114 24.462 25.9432 24.564Q25.875 24.666 25.8019 24.7646Q25.7288 24.8632 25.651 24.958Q25.5731 25.0529 25.4907 25.1438Q25.4083 25.2348 25.3215 25.3215Q25.2348 25.4083 25.1438 25.4907Q25.0529 25.5731 24.958 25.651Q24.8632 25.7288 24.7646 25.8019Q24.666 25.875 24.564 25.9432Q24.462 26.0114 24.3567 26.0745Q24.2514 26.1376 24.1432 26.1954Q24.035 26.2533 23.9241 26.3058Q23.8131 26.3582 23.6997 26.4052Q23.5864 26.4521 23.4708 26.4935Q23.3553 26.5348 23.2378 26.5705Q23.1204 26.6061 23.0014 26.6359Q22.8823 26.6657 22.762 26.6897Q22.6416 26.7136 22.5202 26.7316Q22.3988 26.7496 22.2767 26.7616Q22.1546 26.7737 22.032 26.7797Q21.9094 26.7857 21.7867 26.7857L4.999 26.7857Q4.87628 26.7857 4.75371 26.7797Q4.63114 26.7737 4.50901 26.7616Q4.38688 26.7496 4.26549 26.7316Q4.1441 26.7136 4.02374 26.6897Q3.90338 26.6657 3.78434 26.6359Q3.6653 26.6061 3.54787 26.5705Q3.43043 26.5348 3.31489 26.4935Q3.19934 26.4521 3.08597 26.4052Q2.97259 26.3582 2.86165 26.3058Q2.75072 26.2533 2.64249 26.1954Q2.53426 26.1376 2.429 26.0745Q2.32374 26.0114 2.2217 25.9432Q2.11967 25.875 2.0211 25.8019Q1.92253 25.7288 1.82767 25.651Q1.73281 25.5731 1.64188 25.4907Q1.55095 25.4083 1.46417 25.3215Q1.3774 25.2348 1.29499 25.1438Q1.21257 25.0529 1.13472 24.958Q1.05687 24.8632 0.983765 24.7646Q0.910662 24.666 0.842483 24.564Q0.774305 24.462 0.711215 24.3567Q0.648125 24.2514 0.590276 24.1432Q0.532426 24.035 0.479957 23.9241Q0.427489 23.8131 0.380526 23.6997Q0.333564 23.5864 0.292221 23.4708Q0.250879 23.3553 0.215255 23.2378Q0.179632 23.1204 0.149814 23.0014Q0.119996 22.8823 0.0960544 22.762Q0.0721132 22.6416 0.0541066 22.5202Q0.0361001 22.3988 0.0240715 22.2767Q0.012043 22.1546 0.00602151 22.032Q0 21.9094 0 21.7867L0 4.999Q0 4.87628 0.00602151 4.75371Q0.012043 4.63114 0.0240715 4.50901Q0.0361001 4.38688 0.0541066 4.26549Q0.0721132 4.1441 0.0960544 4.02374Q0.119996 3.90338 0.149814 3.78434Q0.179632 3.6653 0.215255 3.54787Q0.250879 3.43043 0.292221 3.31489Q0.333564 3.19934 0.380526 3.08597Q0.427489 2.97259 0.479957 2.86165Q0.532426 2.75072 0.590276 2.64249Q0.648125 2.53426 0.711215 2.429Q0.774305 2.32374 0.842483 2.2217Q0.910662 2.11967 0.983765 2.0211Q1.05687 1.92253 1.13472 1.82767Q1.21257 1.73281 1.29499 1.64188Q1.3774 1.55095 1.46417 1.46417Q1.55095 1.3774 1.64188 1.29499Q1.73281 1.21257 1.82767 1.13472Q1.92253 1.05687 2.0211 0.983765Q2.11967 0.910662 2.2217 0.842483Q2.32374 0.774305 2.429 0.711215Q2.53426 0.648125 2.64249 0.590276Q2.75072 0.532426 2.86165 0.479957Q2.97259 0.427489 3.08597 0.380526Q3.19934 0.333564 3.31489 0.292221Q3.43043 0.250879 3.54787 0.215255Q3.6653 0.179632 3.78434 0.149814Q3.90338 0.119996 4.02374 0.0960544Q4.1441 0.0721132 4.26549 0.0541066Q4.38688 0.0361001 4.50901 0.0240715Q4.63114 0.012043 4.75371 0.00602151Q4.87628 0 4.999 0L4.999 0Z" id="Rectangle-2" fill="#D4D4D4" fill-rule="evenodd" stroke="none" filter="url(#filter_1)" />
          <g id="+" fill="#7E7E7E" transform="translate(3.2142944 3.2142792)">
            <path d="M16.3106 10.7066L11.1986 10.7066L11.1986 15.8906L9.15857 15.8906L9.15857 10.7066L4.07057 10.7066L4.07057 8.85857L9.15857 8.85857L9.15857 3.65057L11.1986 3.65057L11.1986 8.85857L16.3106 8.85857L16.3106 10.7066Z" />
          </g>
        </g>
        <g id="Group-2" transform="translate(39.642853 7.5)">
          <path d="M4.999 0L21.7867 0Q21.9094 0 22.032 0.00602151Q22.1546 0.012043 22.2767 0.0240715Q22.3988 0.0361001 22.5202 0.0541066Q22.6416 0.0721132 22.762 0.0960544Q22.8823 0.119996 23.0014 0.149814Q23.1204 0.179632 23.2378 0.215255Q23.3553 0.250879 23.4708 0.292221Q23.5864 0.333564 23.6997 0.380526Q23.8131 0.427489 23.9241 0.479957Q24.035 0.532426 24.1432 0.590276Q24.2515 0.648125 24.3567 0.711215Q24.462 0.774305 24.564 0.842483Q24.666 0.910662 24.7646 0.983765Q24.8632 1.05687 24.958 1.13472Q25.0529 1.21257 25.1438 1.29499Q25.2348 1.3774 25.3215 1.46417Q25.4083 1.55095 25.4907 1.64188Q25.5731 1.73281 25.651 1.82767Q25.7288 1.92253 25.8019 2.0211Q25.875 2.11967 25.9432 2.2217Q26.0114 2.32374 26.0745 2.429Q26.1376 2.53426 26.1954 2.64249Q26.2533 2.75072 26.3058 2.86165Q26.3582 2.97259 26.4052 3.08597Q26.4522 3.19934 26.4935 3.31489Q26.5348 3.43043 26.5705 3.54787Q26.6061 3.6653 26.6359 3.78434Q26.6657 3.90338 26.6897 4.02374Q26.7136 4.1441 26.7316 4.26549Q26.7496 4.38688 26.7616 4.50901Q26.7737 4.63114 26.7797 4.75371Q26.7857 4.87628 26.7857 4.999L26.7857 21.7867Q26.7857 21.9094 26.7797 22.032Q26.7737 22.1546 26.7616 22.2767Q26.7496 22.3988 26.7316 22.5202Q26.7136 22.6416 26.6897 22.762Q26.6657 22.8823 26.6359 23.0014Q26.6061 23.1204 26.5705 23.2378Q26.5348 23.3553 26.4935 23.4708Q26.4521 23.5864 26.4052 23.6997Q26.3582 23.8131 26.3058 23.9241Q26.2533 24.035 26.1954 24.1432Q26.1376 24.2514 26.0745 24.3567Q26.0114 24.462 25.9432 24.564Q25.875 24.666 25.8019 24.7646Q25.7288 24.8632 25.651 24.958Q25.5731 25.0529 25.4907 25.1438Q25.4083 25.2348 25.3215 25.3215Q25.2348 25.4083 25.1438 25.4907Q25.0529 25.5731 24.958 25.651Q24.8632 25.7288 24.7646 25.8019Q24.666 25.875 24.564 25.9432Q24.462 26.0114 24.3567 26.0745Q24.2515 26.1376 24.1432 26.1954Q24.035 26.2533 23.9241 26.3058Q23.8131 26.3582 23.6997 26.4052Q23.5864 26.4521 23.4708 26.4935Q23.3553 26.5348 23.2379 26.5705Q23.1204 26.6061 23.0014 26.6359Q22.8823 26.6657 22.762 26.6897Q22.6416 26.7136 22.5202 26.7316Q22.3988 26.7496 22.2767 26.7616Q22.1546 26.7737 22.032 26.7797Q21.9094 26.7857 21.7867 26.7857L4.999 26.7857Q4.87628 26.7857 4.75371 26.7797Q4.63114 26.7737 4.50901 26.7616Q4.38688 26.7496 4.26549 26.7316Q4.1441 26.7136 4.02374 26.6897Q3.90338 26.6657 3.78434 26.6359Q3.6653 26.6061 3.54787 26.5705Q3.43043 26.5348 3.31489 26.4935Q3.19934 26.4521 3.08597 26.4052Q2.97259 26.3582 2.86165 26.3058Q2.75072 26.2533 2.64249 26.1954Q2.53426 26.1376 2.429 26.0745Q2.32374 26.0114 2.2217 25.9432Q2.11967 25.875 2.0211 25.8019Q1.92253 25.7288 1.82767 25.651Q1.73281 25.5731 1.64188 25.4907Q1.55095 25.4083 1.46417 25.3215Q1.3774 25.2348 1.29499 25.1438Q1.21257 25.0529 1.13472 24.958Q1.05687 24.8632 0.983765 24.7646Q0.910662 24.666 0.842483 24.564Q0.774305 24.462 0.711215 24.3567Q0.648125 24.2514 0.590276 24.1432Q0.532426 24.035 0.479957 23.9241Q0.427489 23.8131 0.380526 23.6997Q0.333564 23.5864 0.292221 23.4708Q0.250879 23.3553 0.215255 23.2378Q0.179632 23.1204 0.149814 23.0014Q0.119996 22.8823 0.0960544 22.762Q0.0721132 22.6416 0.0541066 22.5202Q0.0361001 22.3988 0.0240715 22.2767Q0.012043 22.1546 0.00602151 22.032Q0 21.9094 0 21.7867L0 4.999Q0 4.87628 0.00602151 4.75371Q0.012043 4.63114 0.0240715 4.50901Q0.0361001 4.38688 0.0541066 4.26549Q0.0721132 4.1441 0.0960544 4.02374Q0.119996 3.90338 0.149814 3.78434Q0.179632 3.6653 0.215255 3.54787Q0.250879 3.43043 0.292221 3.31489Q0.333564 3.19934 0.380526 3.08597Q0.427489 2.97259 0.479957 2.86165Q0.532426 2.75072 0.590276 2.64249Q0.648125 2.53426 0.711215 2.429Q0.774305 2.32374 0.842483 2.2217Q0.910662 2.11967 0.983765 2.0211Q1.05687 1.92253 1.13472 1.82767Q1.21257 1.73281 1.29499 1.64188Q1.3774 1.55095 1.46417 1.46417Q1.55095 1.3774 1.64188 1.29499Q1.73281 1.21257 1.82767 1.13472Q1.92253 1.05687 2.0211 0.983765Q2.11967 0.910662 2.2217 0.842483Q2.32374 0.774305 2.429 0.711215Q2.53426 0.648125 2.64249 0.590276Q2.75072 0.532426 2.86165 0.479957Q2.97259 0.427489 3.08597 0.380526Q3.19934 0.333564 3.31489 0.292221Q3.43043 0.250879 3.54787 0.215255Q3.6653 0.179632 3.78434 0.149814Q3.90338 0.119996 4.02374 0.0960544Q4.1441 0.0721132 4.26549 0.0541066Q4.38688 0.0361001 4.50901 0.0240715Q4.63114 0.012043 4.75371 0.00602151Q4.87628 0 4.999 0Z" id="Rectangle-3" fill="#D4D4D4" fill-rule="evenodd" stroke="none" filter="url(#filter_1)" />
          <g id="-" fill="#7E7E7E" transform="translate(3.2142944 3.2142792)">
            <path d="M14.5346 8.83457L14.5346 10.6826L4.95857 10.6826L4.95857 8.83457L14.5346 8.83457Z" />
          </g>
        </g>
        <g id="Group-3" transform="translate(6.4285583 41.785706)">
          <path d="M4.999 0L21.7867 0Q21.9094 0 22.032 0.00602151Q22.1546 0.012043 22.2767 0.0240715Q22.3988 0.0361001 22.5202 0.0541066Q22.6416 0.0721132 22.762 0.0960544Q22.8823 0.119996 23.0014 0.149814Q23.1204 0.179632 23.2378 0.215255Q23.3553 0.250879 23.4708 0.292221Q23.5864 0.333564 23.6997 0.380526Q23.8131 0.427489 23.9241 0.479957Q24.035 0.532426 24.1432 0.590276Q24.2514 0.648125 24.3567 0.711215Q24.462 0.774305 24.564 0.842483Q24.666 0.910662 24.7646 0.983765Q24.8632 1.05687 24.958 1.13472Q25.0529 1.21257 25.1438 1.29499Q25.2348 1.3774 25.3215 1.46417Q25.4083 1.55095 25.4907 1.64188Q25.5731 1.73281 25.651 1.82767Q25.7288 1.92253 25.8019 2.0211Q25.875 2.11967 25.9432 2.2217Q26.0114 2.32374 26.0745 2.429Q26.1376 2.53426 26.1954 2.64249Q26.2533 2.75072 26.3057 2.86165Q26.3582 2.97259 26.4052 3.08597Q26.4521 3.19934 26.4935 3.31489Q26.5348 3.43043 26.5705 3.54787Q26.6061 3.6653 26.6359 3.78434Q26.6657 3.90338 26.6897 4.02374Q26.7136 4.1441 26.7316 4.26549Q26.7496 4.38688 26.7616 4.50901Q26.7737 4.63114 26.7797 4.75371Q26.7857 4.87628 26.7857 4.999L26.7857 21.7867Q26.7857 21.9094 26.7797 22.032Q26.7737 22.1546 26.7616 22.2767Q26.7496 22.3988 26.7316 22.5202Q26.7136 22.6416 26.6897 22.762Q26.6657 22.8823 26.6359 23.0014Q26.6061 23.1204 26.5705 23.2378Q26.5348 23.3553 26.4935 23.4708Q26.4521 23.5864 26.4052 23.6997Q26.3582 23.8131 26.3058 23.9241Q26.2533 24.035 26.1954 24.1432Q26.1376 24.2514 26.0745 24.3567Q26.0114 24.462 25.9432 24.564Q25.875 24.666 25.8019 24.7646Q25.7288 24.8632 25.651 24.958Q25.5731 25.0529 25.4907 25.1438Q25.4083 25.2348 25.3215 25.3215Q25.2348 25.4083 25.1438 25.4907Q25.0529 25.5731 24.958 25.651Q24.8632 25.7288 24.7646 25.8019Q24.666 25.875 24.564 25.9432Q24.462 26.0114 24.3567 26.0745Q24.2514 26.1376 24.1432 26.1954Q24.035 26.2533 23.9241 26.3058Q23.8131 26.3582 23.6997 26.4052Q23.5864 26.4521 23.4708 26.4935Q23.3553 26.5348 23.2378 26.5705Q23.1204 26.6061 23.0014 26.6359Q22.8823 26.6657 22.762 26.6897Q22.6416 26.7136 22.5202 26.7316Q22.3988 26.7496 22.2767 26.7616Q22.1546 26.7737 22.032 26.7797Q21.9094 26.7857 21.7867 26.7857L4.999 26.7857Q4.87628 26.7857 4.75371 26.7797Q4.63114 26.7737 4.50901 26.7616Q4.38688 26.7496 4.26549 26.7316Q4.1441 26.7136 4.02374 26.6897Q3.90338 26.6657 3.78434 26.6359Q3.6653 26.6061 3.54787 26.5705Q3.43043 26.5348 3.31489 26.4935Q3.19934 26.4521 3.08597 26.4052Q2.97259 26.3582 2.86165 26.3058Q2.75072 26.2533 2.64249 26.1954Q2.53426 26.1376 2.429 26.0745Q2.32374 26.0114 2.2217 25.9432Q2.11967 25.875 2.0211 25.8019Q1.92253 25.7288 1.82767 25.651Q1.73281 25.5731 1.64188 25.4907Q1.55095 25.4083 1.46417 25.3215Q1.3774 25.2348 1.29499 25.1438Q1.21257 25.0529 1.13472 24.958Q1.05687 24.8632 0.983765 24.7646Q0.910662 24.666 0.842483 24.564Q0.774305 24.462 0.711215 24.3567Q0.648125 24.2514 0.590276 24.1432Q0.532426 24.035 0.479957 23.9241Q0.427489 23.8131 0.380526 23.6997Q0.333564 23.5864 0.292221 23.4708Q0.250879 23.3553 0.215255 23.2378Q0.179632 23.1204 0.149814 23.0014Q0.119996 22.8823 0.0960544 22.762Q0.0721132 22.6416 0.0541066 22.5202Q0.0361001 22.3988 0.0240715 22.2767Q0.012043 22.1546 0.00602151 22.032Q0 21.9094 0 21.7867L0 4.999Q0 4.87628 0.00602151 4.75371Q0.012043 4.63114 0.0240715 4.50901Q0.0361001 4.38688 0.0541066 4.26549Q0.0721132 4.1441 0.0960544 4.02374Q0.119996 3.90338 0.149814 3.78434Q0.179632 3.6653 0.215255 3.54787Q0.250879 3.43043 0.292221 3.31489Q0.333564 3.19934 0.380526 3.08597Q0.427489 2.97259 0.479957 2.86165Q0.532426 2.75072 0.590276 2.64249Q0.648125 2.53426 0.711215 2.429Q0.774305 2.32374 0.842483 2.2217Q0.910662 2.11967 0.983765 2.0211Q1.05687 1.92253 1.13472 1.82767Q1.21257 1.73281 1.29499 1.64188Q1.3774 1.55095 1.46417 1.46417Q1.55095 1.3774 1.64188 1.29499Q1.73281 1.21257 1.82767 1.13472Q1.92253 1.05687 2.0211 0.983765Q2.11967 0.910662 2.2217 0.842483Q2.32374 0.774305 2.429 0.711215Q2.53426 0.648125 2.64249 0.590276Q2.75072 0.532426 2.86165 0.479957Q2.97259 0.427489 3.08597 0.380526Q3.19934 0.333564 3.31489 0.292221Q3.43043 0.250879 3.54787 0.215255Q3.6653 0.179632 3.78434 0.149814Q3.90338 0.119996 4.02374 0.0960544Q4.1441 0.0721132 4.26549 0.0541066Q4.38688 0.0361001 4.50901 0.0240715Q4.63114 0.012043 4.75371 0.00602151Q4.87628 0 4.999 0L4.999 0Z" id="Rectangle-4" fill="#D4D4D4" fill-rule="evenodd" stroke="none" filter="url(#filter_1)" />
          <g id="รท" fill="#7E7E7E" transform="translate(3.2142944 3.2142944)">
            <path d="M10.3346 6.07457Q9.71057 6.07457 9.27857 5.64257Q8.84657 5.21057 8.84657 4.58657Q8.84657 3.96257 9.27857 3.53057Q9.71057 3.09857 10.3346 3.09857Q10.9346 3.09857 11.3546 3.53057Q11.7746 3.96257 11.7746 4.58657Q11.7746 5.21057 11.3546 5.64257Q10.9346 6.07457 10.3346 6.07457ZM16.4066 8.83457L16.4066 10.6826L4.16657 10.6826L4.16657 8.83457L16.4066 8.83457ZM10.3346 16.3706Q9.71057 16.3706 9.27857 15.9386Q8.84657 15.5066 8.84657 14.8826Q8.84657 14.2586 9.27857 13.8266Q9.71057 13.3946 10.3346 13.3946Q10.9346 13.3946 11.3546 13.8266Q11.7746 14.2586 11.7746 14.8826Q11.7746 15.5066 11.3546 15.9386Q10.9346 16.3706 10.3346 16.3706Z" />
          </g>
        </g>
        <g id="Group-4" transform="translate(39.642853 41.785706)">
          <path d="M4.999 0L21.7867 0Q21.9094 0 22.032 0.00602151Q22.1546 0.012043 22.2767 0.0240715Q22.3988 0.0361001 22.5202 0.0541066Q22.6416 0.0721132 22.762 0.0960544Q22.8823 0.119996 23.0014 0.149814Q23.1204 0.179632 23.2378 0.215255Q23.3553 0.250879 23.4708 0.292221Q23.5864 0.333564 23.6997 0.380526Q23.8131 0.427489 23.9241 0.479957Q24.035 0.532426 24.1432 0.590276Q24.2515 0.648125 24.3567 0.711215Q24.462 0.774305 24.564 0.842483Q24.666 0.910662 24.7646 0.983765Q24.8632 1.05687 24.958 1.13472Q25.0529 1.21257 25.1438 1.29499Q25.2348 1.3774 25.3215 1.46417Q25.4083 1.55095 25.4907 1.64188Q25.5731 1.73281 25.651 1.82767Q25.7288 1.92253 25.8019 2.0211Q25.875 2.11967 25.9432 2.2217Q26.0114 2.32374 26.0745 2.429Q26.1376 2.53426 26.1954 2.64249Q26.2533 2.75072 26.3058 2.86165Q26.3582 2.97259 26.4052 3.08597Q26.4522 3.19934 26.4935 3.31489Q26.5348 3.43043 26.5705 3.54787Q26.6061 3.6653 26.6359 3.78434Q26.6657 3.90338 26.6897 4.02374Q26.7136 4.1441 26.7316 4.26549Q26.7496 4.38688 26.7616 4.50901Q26.7737 4.63114 26.7797 4.75371Q26.7857 4.87628 26.7857 4.999L26.7857 21.7867Q26.7857 21.9094 26.7797 22.032Q26.7737 22.1546 26.7616 22.2767Q26.7496 22.3988 26.7316 22.5202Q26.7136 22.6416 26.6897 22.762Q26.6657 22.8823 26.6359 23.0014Q26.6061 23.1204 26.5705 23.2378Q26.5348 23.3553 26.4935 23.4708Q26.4521 23.5864 26.4052 23.6997Q26.3582 23.8131 26.3058 23.9241Q26.2533 24.035 26.1954 24.1432Q26.1376 24.2514 26.0745 24.3567Q26.0114 24.462 25.9432 24.564Q25.875 24.666 25.8019 24.7646Q25.7288 24.8632 25.651 24.958Q25.5731 25.0529 25.4907 25.1438Q25.4083 25.2348 25.3215 25.3215Q25.2348 25.4083 25.1438 25.4907Q25.0529 25.5731 24.958 25.651Q24.8632 25.7288 24.7646 25.8019Q24.666 25.875 24.564 25.9432Q24.462 26.0114 24.3567 26.0745Q24.2515 26.1376 24.1432 26.1954Q24.035 26.2533 23.9241 26.3058Q23.8131 26.3582 23.6997 26.4052Q23.5864 26.4521 23.4708 26.4935Q23.3553 26.5348 23.2379 26.5705Q23.1204 26.6061 23.0014 26.6359Q22.8823 26.6657 22.762 26.6897Q22.6416 26.7136 22.5202 26.7316Q22.3988 26.7496 22.2767 26.7616Q22.1546 26.7737 22.032 26.7797Q21.9094 26.7857 21.7867 26.7857L4.999 26.7857Q4.87628 26.7857 4.75371 26.7797Q4.63114 26.7737 4.50901 26.7616Q4.38688 26.7496 4.26549 26.7316Q4.1441 26.7136 4.02374 26.6897Q3.90338 26.6657 3.78434 26.6359Q3.6653 26.6061 3.54787 26.5705Q3.43043 26.5348 3.31489 26.4935Q3.19934 26.4521 3.08597 26.4052Q2.97259 26.3582 2.86165 26.3058Q2.75072 26.2533 2.64249 26.1954Q2.53426 26.1376 2.429 26.0745Q2.32374 26.0114 2.2217 25.9432Q2.11967 25.875 2.0211 25.8019Q1.92253 25.7288 1.82767 25.651Q1.73281 25.5731 1.64188 25.4907Q1.55095 25.4083 1.46417 25.3215Q1.3774 25.2348 1.29499 25.1438Q1.21257 25.0529 1.13472 24.958Q1.05687 24.8632 0.983765 24.7646Q0.910662 24.666 0.842483 24.564Q0.774305 24.462 0.711215 24.3567Q0.648125 24.2514 0.590276 24.1432Q0.532426 24.035 0.479957 23.9241Q0.427489 23.8131 0.380526 23.6997Q0.333564 23.5864 0.292221 23.4708Q0.250879 23.3553 0.215255 23.2378Q0.179632 23.1204 0.149814 23.0014Q0.119996 22.8823 0.0960544 22.762Q0.0721132 22.6416 0.0541066 22.5202Q0.0361001 22.3988 0.0240715 22.2767Q0.012043 22.1546 0.00602151 22.032Q0 21.9094 0 21.7867L0 4.999Q0 4.87628 0.00602151 4.75371Q0.012043 4.63114 0.0240715 4.50901Q0.0361001 4.38688 0.0541066 4.26549Q0.0721132 4.1441 0.0960544 4.02374Q0.119996 3.90338 0.149814 3.78434Q0.179632 3.6653 0.215255 3.54787Q0.250879 3.43043 0.292221 3.31489Q0.333564 3.19934 0.380526 3.08597Q0.427489 2.97259 0.479957 2.86165Q0.532426 2.75072 0.590276 2.64249Q0.648125 2.53426 0.711215 2.429Q0.774305 2.32374 0.842483 2.2217Q0.910662 2.11967 0.983765 2.0211Q1.05687 1.92253 1.13472 1.82767Q1.21257 1.73281 1.29499 1.64188Q1.3774 1.55095 1.46417 1.46417Q1.55095 1.3774 1.64188 1.29499Q1.73281 1.21257 1.82767 1.13472Q1.92253 1.05687 2.0211 0.983765Q2.11967 0.910662 2.2217 0.842483Q2.32374 0.774305 2.429 0.711215Q2.53426 0.648125 2.64249 0.590276Q2.75072 0.532426 2.86165 0.479957Q2.97259 0.427489 3.08597 0.380526Q3.19934 0.333564 3.31489 0.292221Q3.43043 0.250879 3.54787 0.215255Q3.6653 0.179632 3.78434 0.149814Q3.90338 0.119996 4.02374 0.0960544Q4.1441 0.0721132 4.26549 0.0541066Q4.38688 0.0361001 4.50901 0.0240715Q4.63114 0.012043 4.75371 0.00602151Q4.87628 0 4.999 0Z" id="Rectangle-5" fill="#FF8000" fill-rule="evenodd" stroke="none" filter="url(#filter_2)" />
          <g id="=" fill="#4B2600" transform="translate(3.2142944 3.2142944)">
            <path d="M16.4066 6.26657L16.4066 8.11457L3.92657 8.11457L3.92657 6.26657L16.4066 6.26657ZM16.4066 11.4266L16.4066 13.2746L3.92657 13.2746L3.92657 11.4266L16.4066 11.4266Z" />
          </g>
        </g>
      </g>
    </g>
  </g>
</svg>