<?xml version="1.0" encoding="utf-8"?>
<svg width="120px" height="120px" viewBox="0 0 120 120" version="1.1" xmlns:xlink="http://www.w3.org/1999/xlink" xmlns="http://www.w3.org/2000/svg">
  <defs>
    <filter filterUnits="userSpaceOnUse" color-interpolation-filters="sRGB" id="filter_1">
      <feFlood flood-opacity="0" result="BackgroundImageFix" />
      <feColorMatrix in="SourceAlpha" type="matrix" values="0 0 0 0 0 0 0 0 0 0 0 0 0 0 0 0 0 0 127 0" />
      <feOffset dx="2" dy="2" />
      <feGaussianBlur stdDeviation="2" />
      <feColorMatrix type="matrix" values="0 0 0 0 0 0 0 0 0 0 0 0 0 0 0 0 0 0 0.47058824 0" />
      <feBlend mode="normal" in2="BackgroundImageFix" result="effect0_dropShadow" />
      <feColorMatrix in="SourceAlpha" type="matrix" values="0 0 0 0 0 0 0 0 0 0 0 0 0 0 0 0 0 0 127 0" />
      <feOffset dx="-1" dy="-1" />
      <feGaussianBlur stdDeviation="2" />
      <feColorMatrix type="matrix" values="0 0 0 0 1 0 0 0 0 1 0 0 0 0 1 0 0 0 0.23921569 0" />
      <feBlend mode="normal" in2="effect0_dropShadow" result="effect1_dropShadow" />
      <feBlend mode="normal" in="SourceGraphic" in2="effect1_dropShadow" result="shape" />
    </filter>
    <rect width="120" height="120" id="artboard_1" />
    <clipPath id="clip_1">
      <use xlink:href="#artboard_1" clip-rule="evenodd" />
    </clipPath>
  </defs>
  <g id="Artboard" clip-path="url(#clip_1)">
    <use xlink:href="#artboard_1" stroke="none" fill="#FFFFFF" fill-opacity="0" />
    <g filter="url(#filter_1)">
      <g id="Group" transform="matrix(0.7071072 0.7071063 -0.7071063 0.7071072 60.311523 18.095963)">
        <path d="M4.7967 1.52588e-05L4.7987 1.52588e-05Q4.91645 1.52588e-05 5.03406 0.00579313Q5.15167 0.011571 5.26886 0.0231128Q5.38604 0.0346546 5.50252 0.0519326Q5.619 0.0692105 5.73449 0.092183Q5.84998 0.115155 5.96421 0.143767Q6.07843 0.172379 6.19111 0.206561Q6.3038 0.240743 6.41467 0.280412Q6.52553 0.320082 6.63432 0.365144Q6.74311 0.410206 6.84956 0.460552Q6.95601 0.510898 7.05986 0.566407Q7.16371 0.621915 7.26471 0.682452Q7.36571 0.742989 7.46361 0.80841Q7.56152 0.87383 7.6561 0.943975Q7.75068 1.01412 7.84171 1.08882Q7.93273 1.16352 8.01998 1.2426Q8.10723 1.32168 8.1905 1.40494Q8.27376 1.48821 8.35284 1.57546Q8.43192 1.66271 8.50662 1.75373Q8.58132 1.84476 8.65146 1.93934Q8.72161 2.03392 8.78703 2.13182Q8.85245 2.22973 8.91299 2.33073Q8.97352 2.43173 9.02903 2.53558Q9.08454 2.63943 9.13489 2.74588Q9.18523 2.85232 9.23029 2.96111Q9.27536 3.0699 9.31503 3.18077Q9.3547 3.29164 9.38888 3.40433Q9.42306 3.51701 9.45167 3.63123Q9.48028 3.74546 9.50326 3.86095Q9.52623 3.97644 9.54351 4.09292Q9.56079 4.20939 9.57233 4.32658Q9.58387 4.44377 9.58965 4.56138Q9.59542 4.67899 9.59542 4.79674L9.59542 55.1749Q9.59542 55.2926 9.58965 55.4103Q9.58387 55.5279 9.57233 55.6451Q9.56079 55.7622 9.54351 55.8787Q9.52623 55.9952 9.50326 56.1107Q9.48028 56.2262 9.45167 56.3404Q9.42306 56.4546 9.38888 56.5673Q9.3547 56.68 9.31503 56.7909Q9.27536 56.9017 9.23029 57.0105Q9.18523 57.1193 9.13489 57.2258Q9.08454 57.3322 9.02903 57.4361Q8.97352 57.5399 8.91299 57.6409Q8.85245 57.7419 8.78703 57.8398Q8.72161 57.9377 8.65146 58.0323Q8.58132 58.1269 8.50662 58.2179Q8.43192 58.3089 8.35284 58.3962Q8.27376 58.4834 8.1905 58.5667Q8.10723 58.65 8.01998 58.729Q7.93273 58.8081 7.84171 58.8828Q7.75068 58.9575 7.6561 59.0277Q7.56152 59.0978 7.46362 59.1632Q7.36571 59.2286 7.26471 59.2892Q7.16371 59.3497 7.05986 59.4052Q6.95601 59.4607 6.84956 59.5111Q6.74311 59.5614 6.63432 59.6065Q6.52554 59.6515 6.41467 59.6912Q6.3038 59.7309 6.19111 59.7651Q6.07843 59.7993 5.96421 59.8279Q5.84998 59.8565 5.73449 59.8794Q5.619 59.9024 5.50252 59.9197Q5.38604 59.937 5.26886 59.9485Q5.15167 59.9601 5.03406 59.9658Q4.91645 59.9716 4.7987 59.9716L4.7967 59.9716Q4.67894 59.9716 4.56133 59.9658Q4.44372 59.9601 4.32654 59.9485Q4.20935 59.937 4.09287 59.9197Q3.97639 59.9024 3.8609 59.8795Q3.74541 59.8565 3.63119 59.8279Q3.51696 59.7993 3.40428 59.7651Q3.2916 59.7309 3.18073 59.6912Q3.06986 59.6515 2.96107 59.6065Q2.85228 59.5614 2.74583 59.5111Q2.63938 59.4607 2.53554 59.4052Q2.43169 59.3497 2.33069 59.2892Q2.22969 59.2286 2.13178 59.1632Q2.03387 59.0978 1.93929 59.0277Q1.84471 58.9575 1.75369 58.8828Q1.66266 58.8081 1.57541 58.729Q1.48816 58.65 1.4049 58.5667Q1.32163 58.4834 1.24256 58.3962Q1.16348 58.3089 1.08878 58.2179Q1.01407 58.1269 0.943929 58.0323Q0.873784 57.9377 0.808364 57.8398Q0.742944 57.7419 0.682406 57.6409Q0.621869 57.5399 0.566361 57.4361Q0.510853 57.3322 0.460507 57.2258Q0.410161 57.1193 0.365099 57.0105Q0.320036 56.9017 0.280367 56.7909Q0.240697 56.68 0.206515 56.5673Q0.172333 56.4546 0.143721 56.3404Q0.11511 56.2262 0.0921372 56.1107Q0.0691648 55.9952 0.0518868 55.8787Q0.0346088 55.7622 0.023067 55.6451Q0.0115252 55.5279 0.00574735 55.4103Q-3.05176e-05 55.2926 -3.05176e-05 55.1749L-3.05176e-05 4.79674Q-3.05176e-05 4.67899 0.00574735 4.56138Q0.0115252 4.44377 0.023067 4.32658Q0.0346088 4.20939 0.0518868 4.09292Q0.0691648 3.97644 0.0921372 3.86095Q0.11511 3.74546 0.143721 3.63123Q0.172333 3.51701 0.206515 3.40433Q0.240697 3.29164 0.280367 3.18077Q0.320036 3.0699 0.365099 2.96111Q0.410161 2.85232 0.460507 2.74588Q0.510853 2.63943 0.566361 2.53558Q0.621869 2.43173 0.682406 2.33073Q0.742944 2.22973 0.808364 2.13182Q0.873784 2.03392 0.943929 1.93934Q1.01407 1.84476 1.08878 1.75373Q1.16348 1.66271 1.24256 1.57546Q1.32163 1.48821 1.4049 1.40494Q1.48816 1.32168 1.57541 1.2426Q1.66266 1.16352 1.75369 1.08882Q1.84471 1.01412 1.93929 0.943975Q2.03387 0.87383 2.13178 0.80841Q2.22969 0.742989 2.33069 0.682452Q2.43169 0.621915 2.53554 0.566407Q2.63938 0.510898 2.74583 0.460552Q2.85228 0.410206 2.96107 0.365144Q3.06986 0.320082 3.18073 0.280412Q3.2916 0.240743 3.40428 0.206561Q3.51696 0.172379 3.63119 0.143767Q3.74541 0.115155 3.8609 0.092183Q3.97639 0.0692105 4.09287 0.0519326Q4.20935 0.0346546 4.32654 0.0231128Q4.44372 0.011571 4.56133 0.00579313Q4.67894 1.52588e-05 4.7967 1.52588e-05Z" id="Rectangle" fill="#1E7EF5" fill-rule="evenodd" stroke="none" />
        <path d="M60.8529 55.2044L60.8529 55.2064Q60.8529 55.3242 60.8471 55.4418Q60.8413 55.5594 60.8298 55.6766Q60.8183 55.7938 60.801 55.9103Q60.7837 56.0268 60.7607 56.1423Q60.7378 56.2577 60.7091 56.372Q60.6805 56.4862 60.6464 56.5989Q60.6122 56.7116 60.5725 56.8225Q60.5328 56.9333 60.4878 57.0421Q60.4427 57.1509 60.3923 57.2574Q60.342 57.3638 60.2865 57.4677Q60.231 57.5715 60.1704 57.6725Q60.1099 57.7735 60.0445 57.8715Q59.979 57.9694 59.9089 58.0639Q59.8387 58.1585 59.764 58.2496Q59.6893 58.3406 59.6103 58.4278Q59.5312 58.5151 59.4479 58.5984Q59.3646 58.6816 59.2774 58.7607Q59.1901 58.8398 59.0991 58.9145Q59.0081 58.9892 58.9135 59.0594Q58.8189 59.1295 58.721 59.1949Q58.6231 59.2603 58.5221 59.3209Q58.4211 59.3814 58.3172 59.4369Q58.2134 59.4924 58.1069 59.5428Q58.0005 59.5931 57.8917 59.6382Q57.7829 59.6833 57.672 59.7229Q57.5611 59.7626 57.4484 59.7968Q57.3358 59.831 57.2215 59.8596Q57.1073 59.8882 56.9918 59.9112Q56.8763 59.9342 56.7598 59.9514Q56.6433 59.9687 56.5261 59.9803Q56.4089 59.9918 56.2913 59.9976Q56.1737 60.0034 56.056 60.0034L5.67556 60.0033Q5.5578 60.0033 5.44019 59.9976Q5.32257 59.9918 5.20538 59.9803Q5.08819 59.9687 4.9717 59.9514Q4.85522 59.9341 4.73972 59.9112Q4.62423 59.8882 4.51 59.8596Q4.39577 59.831 4.28308 59.7968Q4.17039 59.7626 4.05952 59.7229Q3.94865 59.6833 3.83985 59.6382Q3.73106 59.5931 3.6246 59.5428Q3.51815 59.4924 3.4143 59.4369Q3.31044 59.3814 3.20944 59.3209Q3.10844 59.2603 3.01052 59.1949Q2.91261 59.1295 2.81803 59.0593Q2.72344 58.9892 2.63241 58.9145Q2.54139 58.8398 2.45413 58.7607Q2.36688 58.6816 2.28361 58.5984Q2.20034 58.5151 2.12126 58.4278Q2.04218 58.3406 1.96748 58.2496Q1.89277 58.1585 1.82262 58.0639Q1.75247 57.9694 1.68705 57.8714Q1.62163 57.7735 1.56109 57.6725Q1.50055 57.5715 1.44504 57.4677Q1.38953 57.3638 1.33918 57.2574Q1.28883 57.1509 1.24377 57.0421Q1.1987 56.9333 1.15903 56.8225Q1.11936 56.7116 1.08518 56.5989Q1.05099 56.4862 1.02238 56.372Q0.993766 56.2577 0.970792 56.1422Q0.947819 56.0267 0.93054 55.9103Q0.913261 55.7938 0.901719 55.6766Q0.890176 55.5594 0.884398 55.4418Q0.87862 55.3242 0.87862 55.2064L0.87862 55.2044Q0.87862 55.0866 0.884398 54.969Q0.890177 54.8514 0.901719 54.7342Q0.913262 54.617 0.93054 54.5005Q0.947819 54.3841 0.970793 54.2686Q0.993766 54.1531 1.02238 54.0388Q1.05099 53.9246 1.08518 53.8119Q1.11936 53.6992 1.15903 53.5884Q1.1987 53.4775 1.24377 53.3687Q1.28883 53.2599 1.33918 53.1534Q1.38953 53.047 1.44504 52.9431Q1.50055 52.8393 1.56109 52.7383Q1.62163 52.6373 1.68705 52.5394Q1.75247 52.4414 1.82262 52.3469Q1.89277 52.2523 1.96748 52.1612Q2.04218 52.0702 2.12126 51.983Q2.20035 51.8957 2.28361 51.8124Q2.36688 51.7292 2.45413 51.6501Q2.54139 51.571 2.63242 51.4963Q2.72344 51.4216 2.81803 51.3515Q2.91261 51.2813 3.01053 51.2159Q3.10844 51.1505 3.20944 51.0899Q3.31045 51.0294 3.4143 50.9739Q3.51815 50.9184 3.62461 50.868Q3.73106 50.8177 3.83985 50.7726Q3.94865 50.7275 4.05952 50.6879Q4.1704 50.6482 4.28309 50.614Q4.39577 50.5798 4.51 50.5512Q4.62423 50.5226 4.73973 50.4996Q4.85522 50.4767 4.97171 50.4594Q5.08819 50.4421 5.20538 50.4306Q5.32257 50.419 5.44019 50.4132Q5.55781 50.4075 5.67556 50.4075L56.056 50.4075Q56.1737 50.4075 56.2913 50.4132Q56.4089 50.419 56.5261 50.4306Q56.6433 50.4421 56.7598 50.4594Q56.8763 50.4767 56.9918 50.4996Q57.1073 50.5226 57.2215 50.5512Q57.3357 50.5798 57.4484 50.614Q57.5611 50.6482 57.672 50.6879Q57.7829 50.7275 57.8917 50.7726Q58.0005 50.8177 58.1069 50.868Q58.2134 50.9184 58.3172 50.9739Q58.4211 51.0294 58.5221 51.0899Q58.6231 51.1505 58.721 51.2159Q58.8189 51.2813 58.9135 51.3515Q59.0081 51.4216 59.0991 51.4963Q59.1901 51.571 59.2774 51.6501Q59.3646 51.7292 59.4479 51.8125Q59.5312 51.8957 59.6103 51.983Q59.6893 52.0702 59.764 52.1613Q59.8387 52.2523 59.9089 52.3469Q59.979 52.4415 60.0445 52.5394Q60.1099 52.6373 60.1704 52.7383Q60.231 52.8393 60.2865 52.9431Q60.342 53.047 60.3923 53.1535Q60.4427 53.2599 60.4878 53.3687Q60.5328 53.4775 60.5725 53.5884Q60.6122 53.6992 60.6464 53.8119Q60.6805 53.9246 60.7091 54.0388Q60.7378 54.1531 60.7607 54.2686Q60.7837 54.3841 60.801 54.5005Q60.8183 54.617 60.8298 54.7342Q60.8414 54.8514 60.8471 54.969Q60.8529 55.0867 60.8529 55.2044Z" id="Rectangle-2" fill="#1E7EF5" fill-rule="evenodd" stroke="none" />
      </g>
    </g>
  </g>
</svg>