<?xml version="1.0" encoding="utf-8"?>
<svg width="120px" height="120px" viewBox="0 0 120 120" version="1.1" xmlns:xlink="http://www.w3.org/1999/xlink" xmlns="http://www.w3.org/2000/svg">
  <defs>
    <filter filterUnits="userSpaceOnUse" color-interpolation-filters="sRGB" id="filter_1">
      <feFlood flood-opacity="0" result="BackgroundImageFix" />
      <feColorMatrix in="SourceAlpha" type="matrix" values="0 0 0 0 0 0 0 0 0 0 0 0 0 0 0 0 0 0 127 0" />
      <feOffset dx="2" dy="2" />
      <feGaussianBlur stdDeviation="2" />
      <feColorMatrix type="matrix" values="0 0 0 0 0 0 0 0 0 0 0 0 0 0 0 0 0 0 0.32941177 0" />
      <feBlend mode="normal" in2="BackgroundImageFix" result="effect0_dropShadow" />
      <feColorMatrix in="SourceAlpha" type="matrix" values="0 0 0 0 0 0 0 0 0 0 0 0 0 0 0 0 0 0 127 0" />
      <feOffset dx="-2" dy="-2" />
      <feGaussianBlur stdDeviation="2" />
      <feColorMatrix type="matrix" values="0 0 0 0 1 0 0 0 0 1 0 0 0 0 1 0 0 0 0.2784314 0" />
      <feBlend mode="normal" in2="effect0_dropShadow" result="effect1_dropShadow" />
      <feBlend mode="normal" in="SourceGraphic" in2="effect1_dropShadow" result="shape" />
    </filter>
    <rect width="120" height="120" id="artboard_1" />
    <clipPath id="clip_1">
      <use xlink:href="#artboard_1" clip-rule="evenodd" />
    </clipPath>
  </defs>
  <g id="Whitespace-Launcher" clip-path="url(#clip_1)">
    <use xlink:href="#artboard_1" stroke="none" fill="#FFFFFF" fill-opacity="0" />
    <g filter="url(#filter_1)">
      <g id="Group-5" transform="translate(22.999947 22.99993)">
        <g id="Group-3" transform="translate(5.340576E-05 7.05719E-05)">
          <g id="Group">
            <path d="M5.30203 0L5.30403 0Q5.43419 0 5.56419 0.00638653Q5.69419 0.0127731 5.82372 0.0255307Q5.95325 0.0382884 6.082 0.0573865Q6.21075 0.0764845 6.3384 0.101877Q6.46606 0.127269 6.59232 0.158895Q6.71858 0.190521 6.84313 0.228304Q6.96768 0.266086 7.09023 0.309935Q7.21278 0.353784 7.33303 0.403593Q7.45328 0.453402 7.57094 0.509052Q7.6886 0.564701 7.80339 0.626057Q7.91818 0.687413 8.02982 0.754327Q8.14146 0.821241 8.24968 0.893553Q8.3579 0.965865 8.46244 1.0434Q8.56699 1.12093 8.6676 1.20351Q8.76822 1.28608 8.86466 1.37348Q8.9611 1.46089 9.05313 1.55293Q9.14517 1.64496 9.23257 1.7414Q9.31998 1.83784 9.40255 1.93846Q9.48512 2.03907 9.56266 2.14361Q9.64019 2.24816 9.71251 2.35638Q9.78482 2.4646 9.85173 2.57624Q9.91865 2.68788 9.98 2.80267Q10.0414 2.91746 10.097 3.03512Q10.1527 3.15278 10.2025 3.27303Q10.2523 3.39328 10.2961 3.51583Q10.34 3.63838 10.3778 3.76293Q10.4155 3.88749 10.4472 4.01374Q10.4788 4.14 10.5042 4.26766Q10.5296 4.39531 10.5487 4.52406Q10.5678 4.65281 10.5805 4.78234Q10.5933 4.91187 10.5997 5.04187Q10.6061 5.17187 10.6061 5.30203L10.6061 29.698Q10.6061 29.8281 10.5997 29.9581Q10.5933 30.0881 10.5805 30.2177Q10.5678 30.3472 10.5487 30.4759Q10.5296 30.6047 10.5042 30.7323Q10.4788 30.86 10.4472 30.9863Q10.4155 31.1125 10.3778 31.2371Q10.34 31.3616 10.2961 31.4842Q10.2523 31.6067 10.2025 31.727Q10.1527 31.8472 10.097 31.9649Q10.0414 32.0825 9.98 32.1973Q9.91865 32.3121 9.85173 32.4238Q9.78482 32.5354 9.71251 32.6436Q9.6402 32.7518 9.56266 32.8564Q9.48513 32.9609 9.40256 33.0615Q9.31998 33.1622 9.23258 33.2586Q9.14517 33.355 9.05313 33.4471Q8.9611 33.5391 8.86466 33.6265Q8.76822 33.7139 8.6676 33.7965Q8.56699 33.8791 8.46245 33.9566Q8.3579 34.0341 8.24968 34.1064Q8.14146 34.1788 8.02982 34.2457Q7.91818 34.3126 7.80339 34.3739Q7.6886 34.4353 7.57094 34.4909Q7.45328 34.5466 7.33303 34.5964Q7.21278 34.6462 7.09023 34.6901Q6.96768 34.7339 6.84313 34.7717Q6.71858 34.8095 6.59232 34.8411Q6.46606 34.8727 6.33841 34.8981Q6.21075 34.9235 6.082 34.9426Q5.95325 34.9617 5.82372 34.9745Q5.69419 34.9872 5.56419 34.9936Q5.43419 35 5.30403 35L5.30203 35Q5.17187 35 5.04187 34.9936Q4.91187 34.9872 4.78234 34.9745Q4.65281 34.9617 4.52406 34.9426Q4.39531 34.9235 4.26766 34.8981Q4.14 34.8727 4.01374 34.8411Q3.88749 34.8095 3.76293 34.7717Q3.63838 34.7339 3.51583 34.6901Q3.39328 34.6462 3.27303 34.5964Q3.15278 34.5466 3.03512 34.4909Q2.91746 34.4353 2.80267 34.3739Q2.68788 34.3126 2.57624 34.2457Q2.4646 34.1788 2.35638 34.1064Q2.24816 34.0341 2.14361 33.9566Q2.03907 33.8791 1.93846 33.7965Q1.83784 33.7139 1.7414 33.6265Q1.64496 33.5391 1.55293 33.4471Q1.46089 33.355 1.37348 33.2586Q1.28608 33.1622 1.20351 33.0615Q1.12093 32.9609 1.0434 32.8564Q0.965865 32.7518 0.893553 32.6436Q0.821242 32.5354 0.754327 32.4238Q0.687413 32.3121 0.626057 32.1973Q0.564701 32.0825 0.509052 31.9649Q0.453402 31.8472 0.403593 31.727Q0.353784 31.6067 0.309935 31.4842Q0.266086 31.3616 0.228304 31.2371Q0.190521 31.1125 0.158895 30.9863Q0.127269 30.86 0.101877 30.7323Q0.0764845 30.6047 0.0573865 30.4759Q0.0382884 30.3472 0.0255307 30.2177Q0.0127731 30.0881 0.00638653 29.9581Q0 29.8281 0 29.698L0 5.30203Q0 5.17187 0.00638653 5.04187Q0.0127731 4.91187 0.0255307 4.78234Q0.0382884 4.65281 0.0573865 4.52406Q0.0764845 4.39531 0.101877 4.26766Q0.127269 4.14 0.158895 4.01374Q0.190521 3.88749 0.228304 3.76293Q0.266086 3.63838 0.309935 3.51583Q0.353784 3.39328 0.403593 3.27303Q0.453402 3.15278 0.509052 3.03512Q0.564701 2.91746 0.626057 2.80267Q0.687413 2.68788 0.754327 2.57624Q0.821241 2.4646 0.893553 2.35638Q0.965865 2.24816 1.0434 2.14361Q1.12093 2.03907 1.20351 1.93846Q1.28608 1.83784 1.37348 1.7414Q1.46089 1.64496 1.55293 1.55293Q1.64496 1.46089 1.7414 1.37348Q1.83784 1.28608 1.93846 1.20351Q2.03907 1.12093 2.14361 1.0434Q2.24816 0.965865 2.35638 0.893553Q2.4646 0.821242 2.57624 0.754327Q2.68788 0.687413 2.80267 0.626057Q2.91746 0.564701 3.03512 0.509052Q3.15278 0.453402 3.27303 0.403593Q3.39328 0.353784 3.51583 0.309935Q3.63838 0.266086 3.76293 0.228304Q3.88749 0.190521 4.01374 0.158895Q4.14 0.127269 4.26766 0.101877Q4.39531 0.0764845 4.52406 0.0573865Q4.65281 0.0382884 4.78234 0.0255307Q4.91187 0.0127731 5.04187 0.00638653Q5.17187 0 5.30203 0Z" id="Rectangle" fill="#0088FF" fill-rule="evenodd" stroke="none" />
            <path d="M35 5.49898L35 5.50098Q35 5.63114 34.9936 5.76114Q34.9873 5.89114 34.9745 6.02067Q34.9617 6.1502 34.9426 6.27895Q34.9235 6.4077 34.8982 6.53535Q34.8728 6.66301 34.8411 6.78927Q34.8095 6.91552 34.7717 7.04008Q34.7339 7.16463 34.6901 7.28718Q34.6462 7.40973 34.5964 7.52998Q34.5466 7.65023 34.491 7.76789Q34.4353 7.88555 34.374 8.00034Q34.3126 8.11513 34.2457 8.22677Q34.1788 8.33841 34.1065 8.44663Q34.0342 8.55485 33.9566 8.6594Q33.8791 8.76394 33.7965 8.86455Q33.714 8.96517 33.6266 9.06161Q33.5391 9.15805 33.4471 9.25008Q33.3551 9.34212 33.2586 9.42953Q33.1622 9.51693 33.0616 9.59951Q32.961 9.68208 32.8564 9.75961Q32.7519 9.83715 32.6437 9.90946Q32.5354 9.98177 32.4238 10.0487Q32.3122 10.1156 32.1974 10.177Q32.0826 10.2383 31.9649 10.294Q31.8473 10.3496 31.727 10.3994Q31.6068 10.4492 31.4842 10.4931Q31.3617 10.5369 31.2371 10.5747Q31.1126 10.6125 30.9863 10.6441Q30.86 10.6757 30.7324 10.7011Q30.6047 10.7265 30.476 10.7456Q30.3472 10.7647 30.2177 10.7775Q30.0882 10.7902 29.9582 10.7966Q29.8282 10.803 29.698 10.803L5.30207 10.803Q5.17191 10.803 5.04191 10.7967Q4.91191 10.7903 4.78238 10.7775Q4.65285 10.7648 4.5241 10.7457Q4.39535 10.7266 4.2677 10.7012Q4.14004 10.6758 4.01378 10.6442Q3.88753 10.6125 3.76297 10.5747Q3.63842 10.537 3.51587 10.4931Q3.39332 10.4493 3.27307 10.3995Q3.15282 10.3496 3.03516 10.294Q2.9175 10.2383 2.80271 10.177Q2.68792 10.1156 2.57628 10.0487Q2.46464 9.98181 2.35642 9.9095Q2.2482 9.83719 2.14365 9.75965Q2.03911 9.68212 1.9385 9.59955Q1.83788 9.51698 1.74144 9.42957Q1.645 9.34216 1.55297 9.25012Q1.46093 9.15809 1.37352 9.06165Q1.28612 8.96521 1.20354 8.86459Q1.12097 8.76398 1.04344 8.65944Q0.965903 8.55489 0.893591 8.44667Q0.82128 8.33845 0.754365 8.22681Q0.687451 8.11517 0.626095 8.00038Q0.564739 7.88559 0.509089 7.76793Q0.453439 7.65027 0.40363 7.53002Q0.353821 7.40977 0.309972 7.28722Q0.266123 7.16467 0.22834 7.04012Q0.190557 6.91557 0.158931 6.78931Q0.127305 6.66305 0.101913 6.5354Q0.0765201 6.40774 0.0574219 6.27899Q0.0383236 6.15024 0.0255658 6.02071Q0.0128079 5.89118 0.00642123 5.76118Q3.45196e-05 5.63118 3.43323e-05 5.50102L3.43323e-05 5.49902Q3.4145e-05 5.36887 0.00642049 5.23887Q0.0128068 5.10886 0.0255643 4.97933Q0.0383218 4.8498 0.0574197 4.72105Q0.0765176 4.59231 0.10191 4.46465Q0.127302 4.33699 0.158928 4.21073Q0.190553 4.08448 0.228336 3.95993Q0.266118 3.83537 0.309967 3.71282Q0.353815 3.59027 0.403624 3.47002Q0.453433 3.34977 0.509083 3.23211Q0.564732 3.11445 0.626088 2.99966Q0.687443 2.88487 0.754358 2.77323Q0.821272 2.66159 0.893583 2.55337Q0.965895 2.44515 1.04343 2.34061Q1.12096 2.23606 1.20353 2.13545Q1.28611 2.03484 1.37351 1.9384Q1.46092 1.84196 1.55296 1.74992Q1.64499 1.65788 1.74143 1.57048Q1.83787 1.48307 1.93849 1.4005Q2.0391 1.31793 2.14364 1.24039Q2.24819 1.16286 2.35641 1.09054Q2.46463 1.01823 2.57627 0.951317Q2.68791 0.884403 2.8027 0.823047Q2.91749 0.761691 3.03515 0.706041Q3.15281 0.650392 3.27306 0.600582Q3.39331 0.550773 3.51586 0.506924Q3.63841 0.463075 3.76296 0.425292Q3.88751 0.387509 4.01377 0.355884Q4.14003 0.324258 4.26768 0.298865Q4.39534 0.273472 4.52409 0.254374Q4.65284 0.235276 4.78237 0.222518Q4.9119 0.20976 5.0419 0.203374Q5.1719 0.196987 5.30206 0.196987L29.698 0.196956Q29.8282 0.196956 29.9582 0.203342Q30.0882 0.209728 30.2177 0.222486Q30.3472 0.235243 30.476 0.254341Q30.6047 0.273439 30.7324 0.298831Q30.86 0.324224 30.9863 0.355849Q31.1125 0.387475 31.2371 0.425257Q31.3616 0.46304 31.4842 0.506889Q31.6067 0.550737 31.727 0.600546Q31.8472 0.650355 31.9649 0.706004Q32.0826 0.761654 32.1974 0.82301Q32.3121 0.884365 32.4238 0.951279Q32.5354 1.01819 32.6436 1.09051Q32.7519 1.16282 32.8564 1.24035Q32.961 1.31789 33.0616 1.40046Q33.1622 1.48303 33.2586 1.57044Q33.3551 1.65784 33.4471 1.74988Q33.5391 1.84191 33.6265 1.93836Q33.714 2.0348 33.7965 2.13541Q33.8791 2.23602 33.9566 2.34056Q34.0342 2.44511 34.1065 2.55333Q34.1788 2.66155 34.2457 2.77319Q34.3126 2.88483 34.374 2.99962Q34.4353 3.11441 34.491 3.23207Q34.5466 3.34973 34.5964 3.46998Q34.6462 3.59023 34.6901 3.71278Q34.7339 3.83533 34.7717 3.95988Q34.8095 4.08443 34.8411 4.21069Q34.8728 4.33695 34.8982 4.4646Q34.9235 4.59226 34.9426 4.72101Q34.9617 4.84976 34.9745 4.97929Q34.9873 5.10882 34.9936 5.23882Q35 5.36882 35 5.49898Z" id="Rectangle-2" fill="#0088FF" fill-rule="evenodd" stroke="none" />
          </g>
          <g id="Group-2" transform="matrix(-1 0 0 -1 75.000046 75)">
            <path d="M5.30203 0L5.30403 0Q5.43419 0 5.56419 0.00638653Q5.69419 0.0127731 5.82372 0.0255307Q5.95325 0.0382884 6.082 0.0573865Q6.21075 0.0764845 6.3384 0.101877Q6.46606 0.127269 6.59232 0.158895Q6.71858 0.190521 6.84313 0.228304Q6.96768 0.266086 7.09023 0.309935Q7.21278 0.353784 7.33303 0.403593Q7.45328 0.453402 7.57094 0.509052Q7.6886 0.564701 7.80339 0.626057Q7.91818 0.687413 8.02982 0.754327Q8.14146 0.821241 8.24968 0.893553Q8.3579 0.965865 8.46244 1.0434Q8.56699 1.12093 8.6676 1.20351Q8.76822 1.28608 8.86466 1.37348Q8.9611 1.46089 9.05313 1.55293Q9.14517 1.64496 9.23257 1.7414Q9.31998 1.83784 9.40255 1.93846Q9.48512 2.03907 9.56266 2.14361Q9.64019 2.24816 9.71251 2.35638Q9.78482 2.4646 9.85173 2.57624Q9.91865 2.68788 9.98 2.80267Q10.0414 2.91746 10.097 3.03512Q10.1527 3.15278 10.2025 3.27303Q10.2523 3.39328 10.2961 3.51583Q10.34 3.63838 10.3778 3.76293Q10.4155 3.88749 10.4472 4.01374Q10.4788 4.14 10.5042 4.26766Q10.5296 4.39531 10.5487 4.52406Q10.5678 4.65281 10.5805 4.78234Q10.5933 4.91187 10.5997 5.04187Q10.6061 5.17187 10.6061 5.30203L10.6061 29.698Q10.6061 29.8281 10.5997 29.9581Q10.5933 30.0881 10.5805 30.2177Q10.5678 30.3472 10.5487 30.4759Q10.5296 30.6047 10.5042 30.7323Q10.4788 30.86 10.4472 30.9863Q10.4155 31.1125 10.3778 31.2371Q10.34 31.3616 10.2961 31.4842Q10.2523 31.6067 10.2025 31.727Q10.1527 31.8472 10.097 31.9649Q10.0414 32.0825 9.98 32.1973Q9.91865 32.3121 9.85173 32.4238Q9.78482 32.5354 9.71251 32.6436Q9.6402 32.7518 9.56266 32.8564Q9.48513 32.9609 9.40256 33.0615Q9.31998 33.1622 9.23258 33.2586Q9.14517 33.355 9.05313 33.4471Q8.9611 33.5391 8.86466 33.6265Q8.76822 33.7139 8.6676 33.7965Q8.56699 33.8791 8.46245 33.9566Q8.3579 34.0341 8.24968 34.1064Q8.14146 34.1788 8.02982 34.2457Q7.91818 34.3126 7.80339 34.3739Q7.6886 34.4353 7.57094 34.4909Q7.45328 34.5466 7.33303 34.5964Q7.21278 34.6462 7.09023 34.6901Q6.96768 34.7339 6.84313 34.7717Q6.71858 34.8095 6.59232 34.8411Q6.46606 34.8727 6.33841 34.8981Q6.21075 34.9235 6.082 34.9426Q5.95325 34.9617 5.82372 34.9745Q5.69419 34.9872 5.56419 34.9936Q5.43419 35 5.30403 35L5.30203 35Q5.17187 35 5.04187 34.9936Q4.91187 34.9872 4.78234 34.9745Q4.65281 34.9617 4.52406 34.9426Q4.39531 34.9235 4.26766 34.8981Q4.14 34.8727 4.01374 34.8411Q3.88749 34.8095 3.76293 34.7717Q3.63838 34.7339 3.51583 34.6901Q3.39328 34.6462 3.27303 34.5964Q3.15278 34.5466 3.03512 34.4909Q2.91746 34.4353 2.80267 34.3739Q2.68788 34.3126 2.57624 34.2457Q2.4646 34.1788 2.35638 34.1064Q2.24816 34.0341 2.14361 33.9566Q2.03907 33.8791 1.93846 33.7965Q1.83784 33.7139 1.7414 33.6265Q1.64496 33.5391 1.55293 33.4471Q1.46089 33.355 1.37348 33.2586Q1.28608 33.1622 1.20351 33.0615Q1.12093 32.9609 1.0434 32.8564Q0.965865 32.7518 0.893553 32.6436Q0.821242 32.5354 0.754327 32.4238Q0.687413 32.3121 0.626057 32.1973Q0.564701 32.0825 0.509052 31.9649Q0.453402 31.8472 0.403593 31.727Q0.353784 31.6067 0.309935 31.4842Q0.266086 31.3616 0.228304 31.2371Q0.190521 31.1125 0.158895 30.9863Q0.127269 30.86 0.101877 30.7323Q0.0764845 30.6047 0.0573865 30.4759Q0.0382884 30.3472 0.0255307 30.2177Q0.0127731 30.0881 0.00638653 29.9581Q0 29.8281 0 29.698L0 5.30203Q0 5.17187 0.00638653 5.04187Q0.0127731 4.91187 0.0255307 4.78234Q0.0382884 4.65281 0.0573865 4.52406Q0.0764845 4.39531 0.101877 4.26766Q0.127269 4.14 0.158895 4.01374Q0.190521 3.88749 0.228304 3.76293Q0.266086 3.63838 0.309935 3.51583Q0.353784 3.39328 0.403593 3.27303Q0.453402 3.15278 0.509052 3.03512Q0.564701 2.91746 0.626057 2.80267Q0.687413 2.68788 0.754327 2.57624Q0.821241 2.4646 0.893553 2.35638Q0.965865 2.24816 1.0434 2.14361Q1.12093 2.03907 1.20351 1.93846Q1.28608 1.83784 1.37348 1.7414Q1.46089 1.64496 1.55293 1.55293Q1.64496 1.46089 1.7414 1.37348Q1.83784 1.28608 1.93846 1.20351Q2.03907 1.12093 2.14361 1.0434Q2.24816 0.965865 2.35638 0.893553Q2.4646 0.821242 2.57624 0.754327Q2.68788 0.687413 2.80267 0.626057Q2.91746 0.564701 3.03512 0.509052Q3.15278 0.453402 3.27303 0.403593Q3.39328 0.353784 3.51583 0.309935Q3.63838 0.266086 3.76293 0.228304Q3.88749 0.190521 4.01374 0.158895Q4.14 0.127269 4.26766 0.101877Q4.39531 0.0764845 4.52406 0.0573865Q4.65281 0.0382884 4.78234 0.0255307Q4.91187 0.0127731 5.04187 0.00638653Q5.17187 0 5.30203 0Z" id="Rectangle" fill="#0088FF" fill-rule="evenodd" stroke="none" />
            <path d="M35 5.49898L35 5.50098Q35 5.63113 34.9936 5.76113Q34.9873 5.89113 34.9745 6.02067Q34.9617 6.1502 34.9426 6.27894Q34.9235 6.40769 34.8982 6.53535Q34.8728 6.66301 34.8411 6.78926Q34.8095 6.91552 34.7717 7.04007Q34.7339 7.16463 34.6901 7.28718Q34.6462 7.40972 34.5964 7.52997Q34.5466 7.65022 34.491 7.76789Q34.4353 7.88555 34.374 8.00034Q34.3126 8.11512 34.2457 8.22676Q34.1788 8.3384 34.1065 8.44663Q34.0342 8.55485 33.9566 8.65939Q33.8791 8.76394 33.7965 8.86455Q33.714 8.96516 33.6266 9.0616Q33.5391 9.15804 33.4471 9.25008Q33.3551 9.34211 33.2586 9.42952Q33.1622 9.51693 33.0616 9.5995Q32.961 9.68207 32.8564 9.75961Q32.7519 9.83714 32.6437 9.90945Q32.5354 9.98177 32.4238 10.0487Q32.3122 10.1156 32.1974 10.177Q32.0826 10.2383 31.9649 10.294Q31.8473 10.3496 31.727 10.3994Q31.6068 10.4492 31.4842 10.4931Q31.3617 10.5369 31.2371 10.5747Q31.1126 10.6125 30.9863 10.6441Q30.86 10.6757 30.7324 10.7011Q30.6047 10.7265 30.476 10.7456Q30.3472 10.7647 30.2177 10.7775Q30.0882 10.7902 29.9582 10.7966Q29.8282 10.803 29.698 10.803L5.30207 10.803Q5.17191 10.803 5.04191 10.7967Q4.91191 10.7903 4.78238 10.7775Q4.65285 10.7648 4.5241 10.7457Q4.39535 10.7266 4.2677 10.7012Q4.14004 10.6758 4.01378 10.6441Q3.88753 10.6125 3.76297 10.5747Q3.63842 10.537 3.51587 10.4931Q3.39332 10.4493 3.27307 10.3995Q3.15282 10.3496 3.03516 10.294Q2.9175 10.2383 2.80271 10.177Q2.68792 10.1156 2.57628 10.0487Q2.46464 9.9818 2.35642 9.90949Q2.2482 9.83718 2.14365 9.75965Q2.03911 9.68211 1.9385 9.59954Q1.83788 9.51697 1.74144 9.42956Q1.645 9.34215 1.55297 9.25012Q1.46093 9.15808 1.37352 9.06164Q1.28612 8.9652 1.20354 8.86459Q1.12097 8.76398 1.04344 8.65943Q0.965903 8.55489 0.893591 8.44667Q0.82128 8.33845 0.754365 8.22681Q0.687451 8.11517 0.626095 8.00038Q0.564739 7.88559 0.509089 7.76793Q0.453439 7.65027 0.40363 7.53002Q0.353821 7.40977 0.309972 7.28722Q0.266123 7.16467 0.22834 7.04012Q0.190557 6.91556 0.158931 6.78931Q0.127305 6.66305 0.101913 6.53539Q0.0765201 6.40774 0.0574219 6.27899Q0.0383236 6.15024 0.0255658 6.02071Q0.0128079 5.89118 0.00642123 5.76118Q3.45196e-05 5.63118 3.43323e-05 5.50102L3.43323e-05 5.49902Q3.4145e-05 5.36886 0.00642049 5.23886Q0.0128068 5.10886 0.0255643 4.97933Q0.0383218 4.8498 0.0574197 4.72105Q0.0765176 4.5923 0.10191 4.46464Q0.127302 4.33699 0.158928 4.21073Q0.190553 4.08447 0.228336 3.95992Q0.266118 3.83537 0.309967 3.71282Q0.353815 3.59027 0.403624 3.47002Q0.453433 3.34977 0.509083 3.23211Q0.564732 3.11445 0.626088 2.99966Q0.687443 2.88487 0.754358 2.77323Q0.821272 2.66159 0.893583 2.55337Q0.965895 2.44515 1.04343 2.3406Q1.12096 2.23606 1.20353 2.13545Q1.28611 2.03483 1.37351 1.93839Q1.46092 1.84195 1.55296 1.74992Q1.64499 1.65788 1.74143 1.57047Q1.83787 1.48306 1.93849 1.40049Q2.0391 1.31792 2.14364 1.24039Q2.24819 1.16285 2.35641 1.09054Q2.46463 1.01823 2.57627 0.951313Q2.68791 0.884399 2.8027 0.823043Q2.91749 0.761687 3.03515 0.706037Q3.15281 0.650388 3.27306 0.600578Q3.39331 0.550769 3.51586 0.50692Q3.63841 0.463071 3.76296 0.425288Q3.88751 0.387506 4.01377 0.35588Q4.14003 0.324254 4.26768 0.298861Q4.39534 0.273468 4.52409 0.25437Q4.65284 0.235272 4.78237 0.222514Q4.9119 0.209756 5.0419 0.20337Q5.1719 0.196983 5.30206 0.196983L29.698 0.196952Q29.8282 0.196952 29.9582 0.203338Q30.0882 0.209724 30.2177 0.222482Q30.3472 0.235239 30.476 0.254337Q30.6047 0.273435 30.7324 0.298828Q30.86 0.32422 30.9863 0.355845Q31.1125 0.387471 31.2371 0.425254Q31.3616 0.463036 31.4842 0.506885Q31.6067 0.550733 31.727 0.600542Q31.8472 0.650351 31.9649 0.706001Q32.0826 0.76165 32.1974 0.823006Q32.3121 0.884362 32.4238 0.951276Q32.5354 1.01819 32.6436 1.0905Q32.7519 1.16281 32.8564 1.24035Q32.961 1.31788 33.0616 1.40045Q33.1622 1.48302 33.2586 1.57043Q33.3551 1.65784 33.4471 1.74988Q33.5391 1.84191 33.6265 1.93835Q33.714 2.03479 33.7965 2.1354Q33.8791 2.23602 33.9566 2.34056Q34.0342 2.4451 34.1065 2.55333Q34.1788 2.66155 34.2457 2.77319Q34.3126 2.88483 34.374 2.99962Q34.4353 3.11441 34.491 3.23207Q34.5466 3.34973 34.5964 3.46998Q34.6462 3.59023 34.6901 3.71278Q34.7339 3.83532 34.7717 3.95988Q34.8095 4.08443 34.8411 4.21069Q34.8728 4.33694 34.8982 4.4646Q34.9235 4.59226 34.9426 4.72101Q34.9617 4.84975 34.9745 4.97929Q34.9873 5.10882 34.9936 5.23882Q35 5.36882 35 5.49898Z" id="Rectangle-2" fill="#0088FF" fill-rule="evenodd" stroke="none" />
          </g>
        </g>
        <g id="Group-4" transform="matrix(1.2675908E-06 1 -1 1.2675908E-06 75.00003 0)">
          <g id="Group">
            <path d="M5.30203 0L5.30403 0Q5.43419 0 5.56419 0.00638653Q5.69419 0.0127731 5.82372 0.0255307Q5.95325 0.0382884 6.082 0.0573865Q6.21075 0.0764845 6.3384 0.101877Q6.46606 0.127269 6.59232 0.158895Q6.71858 0.190521 6.84313 0.228304Q6.96768 0.266086 7.09023 0.309935Q7.21278 0.353784 7.33303 0.403593Q7.45328 0.453402 7.57094 0.509052Q7.6886 0.564701 7.80339 0.626057Q7.91818 0.687413 8.02982 0.754327Q8.14146 0.821241 8.24968 0.893553Q8.3579 0.965865 8.46244 1.0434Q8.56699 1.12093 8.6676 1.20351Q8.76822 1.28608 8.86466 1.37348Q8.9611 1.46089 9.05313 1.55293Q9.14517 1.64496 9.23257 1.7414Q9.31998 1.83784 9.40255 1.93846Q9.48512 2.03907 9.56266 2.14361Q9.64019 2.24816 9.71251 2.35638Q9.78482 2.4646 9.85173 2.57624Q9.91865 2.68788 9.98 2.80267Q10.0414 2.91746 10.097 3.03512Q10.1527 3.15278 10.2025 3.27303Q10.2523 3.39328 10.2961 3.51583Q10.34 3.63838 10.3778 3.76293Q10.4155 3.88749 10.4472 4.01374Q10.4788 4.14 10.5042 4.26766Q10.5296 4.39531 10.5487 4.52406Q10.5678 4.65281 10.5805 4.78234Q10.5933 4.91187 10.5997 5.04187Q10.6061 5.17187 10.6061 5.30203L10.6061 29.698Q10.6061 29.8281 10.5997 29.9581Q10.5933 30.0881 10.5805 30.2177Q10.5678 30.3472 10.5487 30.4759Q10.5296 30.6047 10.5042 30.7323Q10.4788 30.86 10.4472 30.9863Q10.4155 31.1125 10.3778 31.2371Q10.34 31.3616 10.2961 31.4842Q10.2523 31.6067 10.2025 31.727Q10.1527 31.8472 10.097 31.9649Q10.0414 32.0825 9.98 32.1973Q9.91865 32.3121 9.85173 32.4238Q9.78482 32.5354 9.71251 32.6436Q9.6402 32.7518 9.56266 32.8564Q9.48513 32.9609 9.40256 33.0615Q9.31998 33.1622 9.23258 33.2586Q9.14517 33.355 9.05313 33.4471Q8.9611 33.5391 8.86466 33.6265Q8.76822 33.7139 8.6676 33.7965Q8.56699 33.8791 8.46245 33.9566Q8.3579 34.0341 8.24968 34.1064Q8.14146 34.1788 8.02982 34.2457Q7.91818 34.3126 7.80339 34.3739Q7.6886 34.4353 7.57094 34.4909Q7.45328 34.5466 7.33303 34.5964Q7.21278 34.6462 7.09023 34.6901Q6.96768 34.7339 6.84313 34.7717Q6.71858 34.8095 6.59232 34.8411Q6.46606 34.8727 6.33841 34.8981Q6.21075 34.9235 6.082 34.9426Q5.95325 34.9617 5.82372 34.9745Q5.69419 34.9872 5.56419 34.9936Q5.43419 35 5.30403 35L5.30203 35Q5.17187 35 5.04187 34.9936Q4.91187 34.9872 4.78234 34.9745Q4.65281 34.9617 4.52406 34.9426Q4.39531 34.9235 4.26766 34.8981Q4.14 34.8727 4.01374 34.8411Q3.88749 34.8095 3.76293 34.7717Q3.63838 34.7339 3.51583 34.6901Q3.39328 34.6462 3.27303 34.5964Q3.15278 34.5466 3.03512 34.4909Q2.91746 34.4353 2.80267 34.3739Q2.68788 34.3126 2.57624 34.2457Q2.4646 34.1788 2.35638 34.1064Q2.24816 34.0341 2.14361 33.9566Q2.03907 33.8791 1.93846 33.7965Q1.83784 33.7139 1.7414 33.6265Q1.64496 33.5391 1.55293 33.4471Q1.46089 33.355 1.37348 33.2586Q1.28608 33.1622 1.20351 33.0615Q1.12093 32.9609 1.0434 32.8564Q0.965865 32.7518 0.893553 32.6436Q0.821242 32.5354 0.754327 32.4238Q0.687413 32.3121 0.626057 32.1973Q0.564701 32.0825 0.509052 31.9649Q0.453402 31.8472 0.403593 31.727Q0.353784 31.6067 0.309935 31.4842Q0.266086 31.3616 0.228304 31.2371Q0.190521 31.1125 0.158895 30.9863Q0.127269 30.86 0.101877 30.7323Q0.0764845 30.6047 0.0573865 30.4759Q0.0382884 30.3472 0.0255307 30.2177Q0.0127731 30.0881 0.00638653 29.9581Q0 29.8281 0 29.698L0 5.30203Q0 5.17187 0.00638653 5.04187Q0.0127731 4.91187 0.0255307 4.78234Q0.0382884 4.65281 0.0573865 4.52406Q0.0764845 4.39531 0.101877 4.26766Q0.127269 4.14 0.158895 4.01374Q0.190521 3.88749 0.228304 3.76293Q0.266086 3.63838 0.309935 3.51583Q0.353784 3.39328 0.403593 3.27303Q0.453402 3.15278 0.509052 3.03512Q0.564701 2.91746 0.626057 2.80267Q0.687413 2.68788 0.754327 2.57624Q0.821241 2.4646 0.893553 2.35638Q0.965865 2.24816 1.0434 2.14361Q1.12093 2.03907 1.20351 1.93846Q1.28608 1.83784 1.37348 1.7414Q1.46089 1.64496 1.55293 1.55293Q1.64496 1.46089 1.7414 1.37348Q1.83784 1.28608 1.93846 1.20351Q2.03907 1.12093 2.14361 1.0434Q2.24816 0.965865 2.35638 0.893553Q2.4646 0.821242 2.57624 0.754327Q2.68788 0.687413 2.80267 0.626057Q2.91746 0.564701 3.03512 0.509052Q3.15278 0.453402 3.27303 0.403593Q3.39328 0.353784 3.51583 0.309935Q3.63838 0.266086 3.76293 0.228304Q3.88749 0.190521 4.01374 0.158895Q4.14 0.127269 4.26766 0.101877Q4.39531 0.0764845 4.52406 0.0573865Q4.65281 0.0382884 4.78234 0.0255307Q4.91187 0.0127731 5.04187 0.00638653Q5.17187 0 5.30203 0Z" id="Rectangle" fill="#0088FF" fill-rule="evenodd" stroke="none" />
            <path d="M35 5.49898L35 5.50098Q35 5.63114 34.9936 5.76114Q34.9873 5.89114 34.9745 6.02067Q34.9617 6.1502 34.9426 6.27895Q34.9235 6.4077 34.8982 6.53535Q34.8728 6.66301 34.8411 6.78927Q34.8095 6.91552 34.7717 7.04008Q34.7339 7.16463 34.6901 7.28718Q34.6462 7.40973 34.5964 7.52998Q34.5466 7.65023 34.491 7.76789Q34.4353 7.88555 34.374 8.00034Q34.3126 8.11513 34.2457 8.22677Q34.1788 8.33841 34.1065 8.44663Q34.0342 8.55485 33.9566 8.6594Q33.8791 8.76394 33.7965 8.86455Q33.714 8.96517 33.6266 9.06161Q33.5391 9.15805 33.4471 9.25008Q33.3551 9.34212 33.2586 9.42953Q33.1622 9.51693 33.0616 9.59951Q32.961 9.68208 32.8564 9.75961Q32.7519 9.83715 32.6437 9.90946Q32.5354 9.98177 32.4238 10.0487Q32.3122 10.1156 32.1974 10.177Q32.0826 10.2383 31.9649 10.294Q31.8473 10.3496 31.727 10.3994Q31.6068 10.4492 31.4842 10.4931Q31.3617 10.5369 31.2371 10.5747Q31.1126 10.6125 30.9863 10.6441Q30.86 10.6757 30.7324 10.7011Q30.6047 10.7265 30.476 10.7456Q30.3472 10.7647 30.2177 10.7775Q30.0882 10.7902 29.9582 10.7966Q29.8282 10.803 29.698 10.803L5.30207 10.803Q5.17191 10.803 5.04191 10.7967Q4.91191 10.7903 4.78238 10.7775Q4.65285 10.7648 4.5241 10.7457Q4.39535 10.7266 4.2677 10.7012Q4.14004 10.6758 4.01378 10.6442Q3.88753 10.6125 3.76297 10.5747Q3.63842 10.537 3.51587 10.4931Q3.39332 10.4493 3.27307 10.3995Q3.15282 10.3496 3.03516 10.294Q2.9175 10.2383 2.80271 10.177Q2.68792 10.1156 2.57628 10.0487Q2.46464 9.98181 2.35642 9.9095Q2.2482 9.83719 2.14365 9.75965Q2.03911 9.68212 1.9385 9.59955Q1.83788 9.51698 1.74144 9.42957Q1.645 9.34216 1.55297 9.25012Q1.46093 9.15809 1.37352 9.06165Q1.28612 8.96521 1.20354 8.86459Q1.12097 8.76398 1.04344 8.65944Q0.965903 8.55489 0.893591 8.44667Q0.82128 8.33845 0.754365 8.22681Q0.687451 8.11517 0.626095 8.00038Q0.564739 7.88559 0.509089 7.76793Q0.453439 7.65027 0.40363 7.53002Q0.353821 7.40977 0.309972 7.28722Q0.266123 7.16467 0.22834 7.04012Q0.190557 6.91557 0.158931 6.78931Q0.127305 6.66305 0.101913 6.5354Q0.0765201 6.40774 0.0574219 6.27899Q0.0383236 6.15024 0.0255658 6.02071Q0.0128079 5.89118 0.00642123 5.76118Q3.45196e-05 5.63118 3.43323e-05 5.50102L3.43323e-05 5.49902Q3.4145e-05 5.36887 0.00642049 5.23887Q0.0128068 5.10886 0.0255643 4.97933Q0.0383218 4.8498 0.0574197 4.72105Q0.0765176 4.59231 0.10191 4.46465Q0.127302 4.33699 0.158928 4.21073Q0.190553 4.08448 0.228336 3.95993Q0.266118 3.83537 0.309967 3.71282Q0.353815 3.59027 0.403624 3.47002Q0.453433 3.34977 0.509083 3.23211Q0.564732 3.11445 0.626088 2.99966Q0.687443 2.88487 0.754358 2.77323Q0.821272 2.66159 0.893583 2.55337Q0.965895 2.44515 1.04343 2.34061Q1.12096 2.23606 1.20353 2.13545Q1.28611 2.03484 1.37351 1.9384Q1.46092 1.84196 1.55296 1.74992Q1.64499 1.65788 1.74143 1.57048Q1.83787 1.48307 1.93849 1.4005Q2.0391 1.31793 2.14364 1.24039Q2.24819 1.16286 2.35641 1.09054Q2.46463 1.01823 2.57627 0.951317Q2.68791 0.884403 2.8027 0.823047Q2.91749 0.761691 3.03515 0.706041Q3.15281 0.650392 3.27306 0.600582Q3.39331 0.550773 3.51586 0.506924Q3.63841 0.463075 3.76296 0.425292Q3.88751 0.387509 4.01377 0.355884Q4.14003 0.324258 4.26768 0.298865Q4.39534 0.273472 4.52409 0.254374Q4.65284 0.235276 4.78237 0.222518Q4.9119 0.20976 5.0419 0.203374Q5.1719 0.196987 5.30206 0.196987L29.698 0.196956Q29.8282 0.196956 29.9582 0.203342Q30.0882 0.209728 30.2177 0.222486Q30.3472 0.235243 30.476 0.254341Q30.6047 0.273439 30.7324 0.298831Q30.86 0.324224 30.9863 0.355849Q31.1125 0.387475 31.2371 0.425257Q31.3616 0.46304 31.4842 0.506889Q31.6067 0.550737 31.727 0.600546Q31.8472 0.650355 31.9649 0.706004Q32.0826 0.761654 32.1974 0.82301Q32.3121 0.884365 32.4238 0.951279Q32.5354 1.01819 32.6436 1.09051Q32.7519 1.16282 32.8564 1.24035Q32.961 1.31789 33.0616 1.40046Q33.1622 1.48303 33.2586 1.57044Q33.3551 1.65784 33.4471 1.74988Q33.5391 1.84191 33.6265 1.93836Q33.714 2.0348 33.7965 2.13541Q33.8791 2.23602 33.9566 2.34056Q34.0342 2.44511 34.1065 2.55333Q34.1788 2.66155 34.2457 2.77319Q34.3126 2.88483 34.374 2.99962Q34.4353 3.11441 34.491 3.23207Q34.5466 3.34973 34.5964 3.46998Q34.6462 3.59023 34.6901 3.71278Q34.7339 3.83533 34.7717 3.95988Q34.8095 4.08443 34.8411 4.21069Q34.8728 4.33695 34.8982 4.4646Q34.9235 4.59226 34.9426 4.72101Q34.9617 4.84976 34.9745 4.97929Q34.9873 5.10882 34.9936 5.23882Q35 5.36882 35 5.49898Z" id="Rectangle-2" fill="#0088FF" fill-rule="evenodd" stroke="none" />
          </g>
          <g id="Group-2" transform="matrix(-1 0 0 -1 75.000046 75.00004)">
            <path d="M5.30203 0L5.30403 0Q5.43419 0 5.56419 0.00638653Q5.69419 0.0127731 5.82372 0.0255307Q5.95325 0.0382884 6.082 0.0573865Q6.21075 0.0764845 6.3384 0.101877Q6.46606 0.127269 6.59232 0.158895Q6.71858 0.190521 6.84313 0.228304Q6.96768 0.266086 7.09023 0.309935Q7.21278 0.353784 7.33303 0.403593Q7.45328 0.453402 7.57094 0.509052Q7.6886 0.564701 7.80339 0.626057Q7.91818 0.687413 8.02982 0.754327Q8.14146 0.821241 8.24968 0.893553Q8.3579 0.965865 8.46244 1.0434Q8.56699 1.12093 8.6676 1.20351Q8.76822 1.28608 8.86466 1.37348Q8.9611 1.46089 9.05313 1.55293Q9.14517 1.64496 9.23257 1.7414Q9.31998 1.83784 9.40255 1.93846Q9.48512 2.03907 9.56266 2.14361Q9.64019 2.24816 9.71251 2.35638Q9.78482 2.4646 9.85173 2.57624Q9.91865 2.68788 9.98 2.80267Q10.0414 2.91746 10.097 3.03512Q10.1527 3.15278 10.2025 3.27303Q10.2523 3.39328 10.2961 3.51583Q10.34 3.63838 10.3778 3.76293Q10.4155 3.88749 10.4472 4.01374Q10.4788 4.14 10.5042 4.26766Q10.5296 4.39531 10.5487 4.52406Q10.5678 4.65281 10.5805 4.78234Q10.5933 4.91187 10.5997 5.04187Q10.6061 5.17187 10.6061 5.30203L10.6061 29.698Q10.6061 29.8281 10.5997 29.9581Q10.5933 30.0881 10.5805 30.2177Q10.5678 30.3472 10.5487 30.4759Q10.5296 30.6047 10.5042 30.7323Q10.4788 30.86 10.4472 30.9863Q10.4155 31.1125 10.3778 31.2371Q10.34 31.3616 10.2961 31.4842Q10.2523 31.6067 10.2025 31.727Q10.1527 31.8472 10.097 31.9649Q10.0414 32.0825 9.98 32.1973Q9.91865 32.3121 9.85173 32.4238Q9.78482 32.5354 9.71251 32.6436Q9.6402 32.7518 9.56266 32.8564Q9.48513 32.9609 9.40256 33.0615Q9.31998 33.1622 9.23258 33.2586Q9.14517 33.355 9.05313 33.4471Q8.9611 33.5391 8.86466 33.6265Q8.76822 33.7139 8.6676 33.7965Q8.56699 33.8791 8.46245 33.9566Q8.3579 34.0341 8.24968 34.1064Q8.14146 34.1788 8.02982 34.2457Q7.91818 34.3126 7.80339 34.3739Q7.6886 34.4353 7.57094 34.4909Q7.45328 34.5466 7.33303 34.5964Q7.21278 34.6462 7.09023 34.6901Q6.96768 34.7339 6.84313 34.7717Q6.71858 34.8095 6.59232 34.8411Q6.46606 34.8727 6.33841 34.8981Q6.21075 34.9235 6.082 34.9426Q5.95325 34.9617 5.82372 34.9745Q5.69419 34.9872 5.56419 34.9936Q5.43419 35 5.30403 35L5.30203 35Q5.17187 35 5.04187 34.9936Q4.91187 34.9872 4.78234 34.9745Q4.65281 34.9617 4.52406 34.9426Q4.39531 34.9235 4.26766 34.8981Q4.14 34.8727 4.01374 34.8411Q3.88749 34.8095 3.76293 34.7717Q3.63838 34.7339 3.51583 34.6901Q3.39328 34.6462 3.27303 34.5964Q3.15278 34.5466 3.03512 34.4909Q2.91746 34.4353 2.80267 34.3739Q2.68788 34.3126 2.57624 34.2457Q2.4646 34.1788 2.35638 34.1064Q2.24816 34.0341 2.14361 33.9566Q2.03907 33.8791 1.93846 33.7965Q1.83784 33.7139 1.7414 33.6265Q1.64496 33.5391 1.55293 33.4471Q1.46089 33.355 1.37348 33.2586Q1.28608 33.1622 1.20351 33.0615Q1.12093 32.9609 1.0434 32.8564Q0.965865 32.7518 0.893553 32.6436Q0.821242 32.5354 0.754327 32.4238Q0.687413 32.3121 0.626057 32.1973Q0.564701 32.0825 0.509052 31.9649Q0.453402 31.8472 0.403593 31.727Q0.353784 31.6067 0.309935 31.4842Q0.266086 31.3616 0.228304 31.2371Q0.190521 31.1125 0.158895 30.9863Q0.127269 30.86 0.101877 30.7323Q0.0764845 30.6047 0.0573865 30.4759Q0.0382884 30.3472 0.0255307 30.2177Q0.0127731 30.0881 0.00638653 29.9581Q0 29.8281 0 29.698L0 5.30203Q0 5.17187 0.00638653 5.04187Q0.0127731 4.91187 0.0255307 4.78234Q0.0382884 4.65281 0.0573865 4.52406Q0.0764845 4.39531 0.101877 4.26766Q0.127269 4.14 0.158895 4.01374Q0.190521 3.88749 0.228304 3.76293Q0.266086 3.63838 0.309935 3.51583Q0.353784 3.39328 0.403593 3.27303Q0.453402 3.15278 0.509052 3.03512Q0.564701 2.91746 0.626057 2.80267Q0.687413 2.68788 0.754327 2.57624Q0.821241 2.4646 0.893553 2.35638Q0.965865 2.24816 1.0434 2.14361Q1.12093 2.03907 1.20351 1.93846Q1.28608 1.83784 1.37348 1.7414Q1.46089 1.64496 1.55293 1.55293Q1.64496 1.46089 1.7414 1.37348Q1.83784 1.28608 1.93846 1.20351Q2.03907 1.12093 2.14361 1.0434Q2.24816 0.965865 2.35638 0.893553Q2.4646 0.821242 2.57624 0.754327Q2.68788 0.687413 2.80267 0.626057Q2.91746 0.564701 3.03512 0.509052Q3.15278 0.453402 3.27303 0.403593Q3.39328 0.353784 3.51583 0.309935Q3.63838 0.266086 3.76293 0.228304Q3.88749 0.190521 4.01374 0.158895Q4.14 0.127269 4.26766 0.101877Q4.39531 0.0764845 4.52406 0.0573865Q4.65281 0.0382884 4.78234 0.0255307Q4.91187 0.0127731 5.04187 0.00638653Q5.17187 0 5.30203 0Z" id="Rectangle" fill="#0088FF" fill-rule="evenodd" stroke="none" />
            <path d="M35 5.49898L35 5.50098Q35 5.63113 34.9936 5.76113Q34.9873 5.89113 34.9745 6.02067Q34.9617 6.1502 34.9426 6.27894Q34.9235 6.40769 34.8982 6.53535Q34.8728 6.66301 34.8411 6.78926Q34.8095 6.91552 34.7717 7.04007Q34.7339 7.16463 34.6901 7.28718Q34.6462 7.40972 34.5964 7.52997Q34.5466 7.65022 34.491 7.76789Q34.4353 7.88555 34.374 8.00034Q34.3126 8.11512 34.2457 8.22676Q34.1788 8.3384 34.1065 8.44663Q34.0342 8.55485 33.9566 8.65939Q33.8791 8.76394 33.7965 8.86455Q33.714 8.96516 33.6266 9.0616Q33.5391 9.15804 33.4471 9.25008Q33.3551 9.34211 33.2586 9.42952Q33.1622 9.51693 33.0616 9.5995Q32.961 9.68207 32.8564 9.75961Q32.7519 9.83714 32.6437 9.90945Q32.5354 9.98177 32.4238 10.0487Q32.3122 10.1156 32.1974 10.177Q32.0826 10.2383 31.9649 10.294Q31.8473 10.3496 31.727 10.3994Q31.6068 10.4492 31.4842 10.4931Q31.3617 10.5369 31.2371 10.5747Q31.1126 10.6125 30.9863 10.6441Q30.86 10.6757 30.7324 10.7011Q30.6047 10.7265 30.476 10.7456Q30.3472 10.7647 30.2177 10.7775Q30.0882 10.7902 29.9582 10.7966Q29.8282 10.803 29.698 10.803L5.30207 10.803Q5.17191 10.803 5.04191 10.7967Q4.91191 10.7903 4.78238 10.7775Q4.65285 10.7648 4.5241 10.7457Q4.39535 10.7266 4.2677 10.7012Q4.14004 10.6758 4.01378 10.6441Q3.88753 10.6125 3.76297 10.5747Q3.63842 10.537 3.51587 10.4931Q3.39332 10.4493 3.27307 10.3995Q3.15282 10.3496 3.03516 10.294Q2.9175 10.2383 2.80271 10.177Q2.68792 10.1156 2.57628 10.0487Q2.46464 9.9818 2.35642 9.90949Q2.2482 9.83718 2.14365 9.75965Q2.03911 9.68211 1.9385 9.59954Q1.83788 9.51697 1.74144 9.42956Q1.645 9.34215 1.55297 9.25012Q1.46093 9.15808 1.37352 9.06164Q1.28612 8.9652 1.20354 8.86459Q1.12097 8.76398 1.04344 8.65943Q0.965903 8.55489 0.893591 8.44667Q0.82128 8.33845 0.754365 8.22681Q0.687451 8.11517 0.626095 8.00038Q0.564739 7.88559 0.509089 7.76793Q0.453439 7.65027 0.40363 7.53002Q0.353821 7.40977 0.309972 7.28722Q0.266123 7.16467 0.22834 7.04012Q0.190557 6.91556 0.158931 6.78931Q0.127305 6.66305 0.101913 6.53539Q0.0765201 6.40774 0.0574219 6.27899Q0.0383236 6.15024 0.0255658 6.02071Q0.0128079 5.89118 0.00642123 5.76118Q3.45196e-05 5.63118 3.43323e-05 5.50102L3.43323e-05 5.49902Q3.4145e-05 5.36886 0.00642049 5.23886Q0.0128068 5.10886 0.0255643 4.97933Q0.0383218 4.8498 0.0574197 4.72105Q0.0765176 4.5923 0.10191 4.46464Q0.127302 4.33699 0.158928 4.21073Q0.190553 4.08447 0.228336 3.95992Q0.266118 3.83537 0.309967 3.71282Q0.353815 3.59027 0.403624 3.47002Q0.453433 3.34977 0.509083 3.23211Q0.564732 3.11445 0.626088 2.99966Q0.687443 2.88487 0.754358 2.77323Q0.821272 2.66159 0.893583 2.55337Q0.965895 2.44515 1.04343 2.3406Q1.12096 2.23606 1.20353 2.13545Q1.28611 2.03483 1.37351 1.93839Q1.46092 1.84195 1.55296 1.74992Q1.64499 1.65788 1.74143 1.57047Q1.83787 1.48306 1.93849 1.40049Q2.0391 1.31792 2.14364 1.24039Q2.24819 1.16285 2.35641 1.09054Q2.46463 1.01823 2.57627 0.951313Q2.68791 0.884399 2.8027 0.823043Q2.91749 0.761687 3.03515 0.706037Q3.15281 0.650388 3.27306 0.600578Q3.39331 0.550769 3.51586 0.50692Q3.63841 0.463071 3.76296 0.425288Q3.88751 0.387506 4.01377 0.35588Q4.14003 0.324254 4.26768 0.298861Q4.39534 0.273468 4.52409 0.25437Q4.65284 0.235272 4.78237 0.222514Q4.9119 0.209756 5.0419 0.20337Q5.1719 0.196983 5.30206 0.196983L29.698 0.196952Q29.8282 0.196952 29.9582 0.203338Q30.0882 0.209724 30.2177 0.222482Q30.3472 0.235239 30.476 0.254337Q30.6047 0.273435 30.7324 0.298828Q30.86 0.32422 30.9863 0.355845Q31.1125 0.387471 31.2371 0.425254Q31.3616 0.463036 31.4842 0.506885Q31.6067 0.550733 31.727 0.600542Q31.8472 0.650351 31.9649 0.706001Q32.0826 0.76165 32.1974 0.823006Q32.3121 0.884362 32.4238 0.951276Q32.5354 1.01819 32.6436 1.0905Q32.7519 1.16281 32.8564 1.24035Q32.961 1.31788 33.0616 1.40045Q33.1622 1.48302 33.2586 1.57043Q33.3551 1.65784 33.4471 1.74988Q33.5391 1.84191 33.6265 1.93835Q33.714 2.03479 33.7965 2.1354Q33.8791 2.23602 33.9566 2.34056Q34.0342 2.4451 34.1065 2.55333Q34.1788 2.66155 34.2457 2.77319Q34.3126 2.88483 34.374 2.99962Q34.4353 3.11441 34.491 3.23207Q34.5466 3.34973 34.5964 3.46998Q34.6462 3.59023 34.6901 3.71278Q34.7339 3.83532 34.7717 3.95988Q34.8095 4.08443 34.8411 4.21069Q34.8728 4.33694 34.8982 4.4646Q34.9235 4.59226 34.9426 4.72101Q34.9617 4.84975 34.9745 4.97929Q34.9873 5.10882 34.9936 5.23882Q35 5.36882 35 5.49898Z" id="Rectangle-2" fill="#0088FF" fill-rule="evenodd" stroke="none" />
          </g>
        </g>
      </g>
    </g>
  </g>
</svg>