<?xml version="1.0" encoding="utf-8"?>
<svg width="120px" height="120px" viewBox="0 0 120 120" version="1.1" xmlns:xlink="http://www.w3.org/1999/xlink" xmlns="http://www.w3.org/2000/svg">
  <defs>
    <linearGradient gradientUnits="userSpaceOnUse" x1="6.654321" y1="25.666668" x2="51.333336" y2="25.666668" id="gradient_1">
      <stop offset="0%" stop-color="#FFC653" />
      <stop offset="100%" stop-color="#FFAA00" />
    </linearGradient>
    <linearGradient gradientUnits="userSpaceOnUse" x1="0" y1="22.944445" x2="69.22222" y2="22.94444" id="gradient_2">
      <stop offset="0%" stop-color="#FFC34D" />
      <stop offset="100%" stop-color="#FFAA00" />
    </linearGradient>
    <filter filterUnits="userSpaceOnUse" color-interpolation-filters="sRGB" id="filter_1">
      <feFlood flood-opacity="0" result="BackgroundImageFix" />
      <feBlend mode="normal" in="SourceGraphic" in2="BackgroundImageFix" result="shape" />
      <feColorMatrix in="SourceAlpha" type="matrix" values="0 0 0 0 0 0 0 0 0 0 0 0 0 0 0 0 0 0 127 0" result="hardAlpha" />
      <feOffset dx="2" dy="2" />
      <feGaussianBlur stdDeviation="2" />
      <feComposite in2="hardAlpha" operator="arithmetic" k2="-1" k3="1" />
      <feColorMatrix type="matrix" values="0 0 0 0 0 0 0 0 0 0 0 0 0 0 0 0 0 0 0.49803922 0" />
      <feBlend mode="normal" in2="shape" result="effect0_innerShadow" />
      <feColorMatrix in="SourceAlpha" type="matrix" values="0 0 0 0 0 0 0 0 0 0 0 0 0 0 0 0 0 0 127 0" result="hardAlpha" />
      <feOffset dx="-2" dy="-2" />
      <feGaussianBlur stdDeviation="2" />
      <feComposite in2="hardAlpha" operator="arithmetic" k2="-1" k3="1" />
      <feColorMatrix type="matrix" values="0 0 0 0 1 0 0 0 0 1 0 0 0 0 1 0 0 0 0.69803923 0" />
      <feBlend mode="normal" in2="effect0_innerShadow" result="effect1_innerShadow" />
    </filter>
    <filter filterUnits="userSpaceOnUse" color-interpolation-filters="sRGB" id="filter_2">
      <feFlood flood-opacity="0" result="BackgroundImageFix" />
      <feColorMatrix in="SourceAlpha" type="matrix" values="0 0 0 0 0 0 0 0 0 0 0 0 0 0 0 0 0 0 127 0" />
      <feOffset dx="2" dy="2" />
      <feGaussianBlur stdDeviation="2" />
      <feColorMatrix type="matrix" values="0 0 0 0 1 0 0 0 0 1 0 0 0 0 1 0 0 0 0.49803922 0" />
      <feBlend mode="normal" in2="BackgroundImageFix" result="effect0_dropShadow" />
      <feColorMatrix in="SourceAlpha" type="matrix" values="0 0 0 0 0 0 0 0 0 0 0 0 0 0 0 0 0 0 127 0" />
      <feOffset dx="-2" dy="-2" />
      <feGaussianBlur stdDeviation="2" />
      <feColorMatrix type="matrix" values="0 0 0 0 0 0 0 0 0 0 0 0 0 0 0 0 0 0 0.2509804 0" />
      <feBlend mode="normal" in2="effect0_dropShadow" result="effect1_dropShadow" />
      <feBlend mode="normal" in="SourceGraphic" in2="effect1_dropShadow" result="shape" />
    </filter>
    <path d="M9.999 24.1111L59.2232 24.1111Q59.4687 24.1111 59.7138 24.1232Q59.959 24.1352 60.2033 24.1593Q60.4476 24.1833 60.6904 24.2193Q60.9332 24.2554 61.1739 24.3032Q61.4147 24.3511 61.6528 24.4108Q61.8909 24.4704 62.1258 24.5417Q62.3607 24.6129 62.5918 24.6956Q62.8229 24.7783 63.0497 24.8722Q63.2764 24.9662 63.4983 25.0711Q63.7202 25.1761 63.9367 25.2918Q64.1532 25.4075 64.3637 25.5337Q64.5743 25.6599 64.7784 25.7962Q64.9825 25.9326 65.1796 26.0788Q65.3768 26.2251 65.5665 26.3808Q65.7563 26.5365 65.9381 26.7013Q66.12 26.8662 66.2936 27.0398Q66.4671 27.2133 66.632 27.3952Q66.7968 27.5771 66.9525 27.7668Q67.1083 27.9566 67.2545 28.1537Q67.4007 28.3509 67.5371 28.555Q67.6734 28.7591 67.7996 28.9696Q67.9258 29.1801 68.0415 29.3966Q68.1573 29.6131 68.2622 29.835Q68.3671 30.0569 68.4611 30.2837Q68.555 30.5104 68.6377 30.7416Q68.7204 30.9727 68.7917 31.2076Q68.8629 31.4425 68.9226 31.6806Q68.9822 31.9187 69.0301 32.1594Q69.078 32.4002 69.114 32.643Q69.15 32.8858 69.1741 33.13Q69.1981 33.3743 69.2102 33.6195Q69.2222 33.8647 69.2222 34.1101L69.2222 47.0566Q69.2222 47.6198 69.1946 48.1823Q69.1669 48.7449 69.1117 49.3054Q69.0565 49.8659 68.9739 50.423Q68.8912 50.9802 68.7814 51.5326Q68.6715 52.085 68.5346 52.6314Q68.3978 53.1777 68.2343 53.7167Q68.0708 54.2557 67.881 54.786Q67.6913 55.3163 67.4757 55.8366Q67.2602 56.357 67.0194 56.8661Q66.7786 57.3753 66.5131 57.872Q66.2476 58.3687 65.958 58.8518Q65.6685 59.3349 65.3555 59.8032Q65.0426 60.2715 64.7071 60.7239Q64.3716 61.1763 64.0143 61.6117Q63.657 62.0471 63.2787 62.4644Q62.9005 62.8818 62.5022 63.28Q62.104 63.6783 61.6866 64.0565Q61.2693 64.4348 60.8339 64.7921Q60.3986 65.1494 59.9462 65.4849Q59.4938 65.8204 59.0255 66.1333Q58.5572 66.4462 58.0741 66.7358Q57.591 67.0254 57.0942 67.2909Q56.5975 67.5564 56.0884 67.7972Q55.5792 68.038 55.0588 68.2535Q54.5385 68.4691 54.0082 68.6588Q53.4779 68.8486 52.9389 69.0121Q52.3999 69.1756 51.8536 69.3124Q51.3072 69.4493 50.7548 69.5591Q50.2024 69.669 49.6453 69.7517Q49.0881 69.8343 48.5276 69.8895Q47.9671 69.9447 47.4046 69.9724Q46.842 70 46.2788 70L22.9434 70Q22.3802 70 21.8177 69.9724Q21.2551 69.9447 20.6946 69.8895Q20.1341 69.8343 19.5769 69.7517Q19.0198 69.669 18.4674 69.5591Q17.915 69.4493 17.3686 69.3124Q16.8223 69.1756 16.2833 69.0121Q15.7443 68.8486 15.214 68.6588Q14.6837 68.4691 14.1634 68.2535Q13.643 68.038 13.1339 67.7972Q12.6247 67.5564 12.128 67.2909Q11.6313 67.0254 11.1482 66.7358Q10.6651 66.4462 10.1967 66.1333Q9.72844 65.8204 9.27605 65.4849Q8.82366 65.1494 8.38828 64.7921Q7.95289 64.4348 7.53557 64.0565Q7.11824 63.6783 6.71998 63.28Q6.32171 62.8818 5.94347 62.4644Q5.56523 62.0471 5.20792 61.6117Q4.85061 61.1763 4.5151 60.7239Q4.17958 60.2715 3.86667 59.8032Q3.55375 59.3349 3.2642 58.8518Q2.97464 58.3687 2.70913 57.872Q2.44363 57.3753 2.20282 56.8661Q1.962 56.357 1.74647 55.8366Q1.53093 55.3163 1.34118 54.786Q1.15143 54.2557 0.987937 53.7167Q0.82444 53.1777 0.687586 52.6314Q0.550732 52.085 0.440852 51.5326Q0.330971 50.9802 0.248328 50.4231Q0.165685 49.8659 0.110479 49.3054Q0.0552728 48.7449 0.0276364 48.1823Q0 47.6198 0 47.0566L0 34.1101Q0 33.8647 0.0120442 33.6195Q0.0240885 33.3743 0.0481479 33.13Q0.0722074 32.8858 0.108224 32.643Q0.144241 32.4002 0.192128 32.1594Q0.240015 31.9187 0.299657 31.6806Q0.3593 31.4425 0.430553 31.2076Q0.501807 30.9727 0.584501 30.7416Q0.667194 30.5104 0.761128 30.2837Q0.855062 30.0569 0.960011 29.835Q1.06496 29.6131 1.18067 29.3966Q1.29638 29.1801 1.42257 28.9696Q1.54876 28.7591 1.68514 28.555Q1.82151 28.3509 1.96773 28.1537Q2.11395 27.9566 2.26967 27.7668Q2.42539 27.5771 2.59023 27.3952Q2.75507 27.2133 2.92864 27.0398Q3.10221 26.8662 3.28408 26.7013Q3.46596 26.5365 3.6557 26.3808Q3.84545 26.2251 4.0426 26.0788Q4.23976 25.9326 4.44385 25.7962Q4.64795 25.6599 4.85849 25.5337Q5.06903 25.4075 5.2855 25.2918Q5.50198 25.1761 5.72388 25.0711Q5.94577 24.9662 6.17255 24.8722Q6.39932 24.7783 6.63044 24.6956Q6.86155 24.6129 7.09644 24.5417Q7.33134 24.4704 7.56944 24.4108Q7.80755 24.3511 8.04829 24.3032Q8.28904 24.2554 8.53184 24.2193Q8.77465 24.1833 9.01893 24.1593Q9.26321 24.1352 9.50837 24.1232Q9.75354 24.1111 9.999 24.1111Z" id="path_1" />
    <rect width="120" height="120" id="artboard_1" />
    <clipPath id="clip_1">
      <use xlink:href="#artboard_1" clip-rule="evenodd" />
    </clipPath>
  </defs>
  <g id="lock_neu" clip-path="url(#clip_1)">
    <use xlink:href="#artboard_1" stroke="none" fill="#FFFFFF" fill-opacity="0" />
    <g id="Group-4" transform="translate(26 25)">
      <g id="Group-3">
        <g id="Group" transform="translate(8.555557 0)">
          <path d="M0 25.6667C0 11.4914 11.4914 0 25.6667 0C39.842 0 51.3333 11.4914 51.3333 25.6667C51.3333 39.842 39.842 51.3333 25.6667 51.3333C11.4914 51.3333 0 39.842 0 25.6667Z" id="Ellipse" fill="#FFAA00" fill-opacity="0" fill-rule="evenodd" stroke="url(#gradient_1)" stroke-width="8.8" />
        </g>
        <g id="Rectangle">
          <use stroke="none" fill="#FFAA00" xlink:href="#path_1" fill-rule="evenodd" filter="url(#filter_1)" />
          <use xlink:href="#path_1" fill="none" stroke="url(#gradient_2)" stroke-width="5" />
        </g>
        <g filter="url(#filter_2)">
          <g id="Group-2" transform="translate(27.222229 37.333344)">
            <path d="M1.55554 5.83333C1.55554 2.61167 4.16721 0 7.38888 0C10.6105 0 13.2222 2.61167 13.2222 5.83333C13.2222 9.05499 10.6105 11.6667 7.38888 11.6667C4.16721 11.6667 1.55554 9.05499 1.55554 5.83333Z" id="Ellipse" fill="#5B3E00" fill-rule="evenodd" stroke="none" />
            <path d="M7.38889 3.11111L14.7778 18.6667L0 18.6667L7.38889 3.11111Z" id="Triangle" fill="#5B3E00" fill-rule="evenodd" stroke="none" />
          </g>
        </g>
      </g>
    </g>
  </g>
</svg>