<?xml version="1.0" encoding="utf-8"?>
<svg width="120px" height="120px" viewBox="0 0 120 120" version="1.1" xmlns:xlink="http://www.w3.org/1999/xlink" xmlns="http://www.w3.org/2000/svg">
  <defs>
    <filter filterUnits="userSpaceOnUse" color-interpolation-filters="sRGB" id="filter_1">
      <feFlood flood-opacity="0" result="BackgroundImageFix" />
      <feBlend mode="normal" in="SourceGraphic" in2="BackgroundImageFix" result="shape" />
      <feColorMatrix in="SourceAlpha" type="matrix" values="0 0 0 0 0 0 0 0 0 0 0 0 0 0 0 0 0 0 127 0" result="hardAlpha" />
      <feOffset dx="2" dy="2" />
      <feGaussianBlur stdDeviation="1" />
      <feComposite in2="hardAlpha" operator="arithmetic" k2="-1" k3="1" />
      <feColorMatrix type="matrix" values="0 0 0 0 0 0 0 0 0 0 0 0 0 0 0 0 0 0 0.2784314 0" />
      <feBlend mode="normal" in2="shape" result="effect0_innerShadow" />
      <feColorMatrix in="SourceAlpha" type="matrix" values="0 0 0 0 0 0 0 0 0 0 0 0 0 0 0 0 0 0 127 0" result="hardAlpha" />
      <feOffset dx="-2" dy="-2" />
      <feGaussianBlur stdDeviation="2" />
      <feComposite in2="hardAlpha" operator="arithmetic" k2="-1" k3="1" />
      <feColorMatrix type="matrix" values="0 0 0 0 1 0 0 0 0 1 0 0 0 0 1 0 0 0 0.49803922 0" />
      <feBlend mode="normal" in2="effect0_innerShadow" result="effect1_innerShadow" />
    </filter>
    <path d="M23.999 30L96.001 30Q96.1237 30 96.2463 30.006Q96.3689 30.012 96.491 30.0241Q96.6131 30.0361 96.7345 30.0541Q96.8559 30.0721 96.9762 30.0961Q97.0966 30.12 97.2157 30.1498Q97.3347 30.1796 97.4521 30.2153Q97.5696 30.2509 97.6851 30.2922Q97.8007 30.3336 97.914 30.3805Q98.0274 30.4275 98.1384 30.48Q98.2493 30.5324 98.3575 30.5903Q98.4657 30.6481 98.571 30.7112Q98.6762 30.7743 98.7783 30.8425Q98.8803 30.9107 98.9789 30.9838Q99.0775 31.0569 99.1723 31.1347Q99.2672 31.2126 99.3581 31.295Q99.449 31.3774 99.5358 31.4642Q99.6226 31.5509 99.705 31.6419Q99.7874 31.7328 99.8653 31.8277Q99.9431 31.9225 100.016 32.0211Q100.089 32.1197 100.158 32.2217Q100.226 32.3237 100.289 32.429Q100.352 32.5343 100.41 32.6425Q100.468 32.7507 100.52 32.8617Q100.573 32.9726 100.619 33.086Q100.666 33.1993 100.708 33.3149Q100.749 33.4304 100.785 33.5479Q100.82 33.6653 100.85 33.7843Q100.88 33.9034 100.904 34.0237Q100.928 34.1441 100.946 34.2655Q100.964 34.3869 100.976 34.509Q100.988 34.6311 100.994 34.7537Q101 34.8763 101 34.999L101 86.001Q101 86.1237 100.994 86.2463Q100.988 86.3689 100.976 86.491Q100.964 86.6131 100.946 86.7345Q100.928 86.8559 100.904 86.9762Q100.88 87.0966 100.85 87.2157Q100.82 87.3347 100.785 87.4521Q100.749 87.5695 100.708 87.6851Q100.666 87.8007 100.619 87.914Q100.573 88.0274 100.52 88.1383Q100.468 88.2493 100.41 88.3575Q100.352 88.4657 100.289 88.571Q100.226 88.6762 100.158 88.7783Q100.089 88.8803 100.016 88.9789Q99.9431 89.0775 99.8653 89.1723Q99.7874 89.2672 99.705 89.3581Q99.6226 89.449 99.5358 89.5358Q99.449 89.6226 99.3581 89.705Q99.2672 89.7874 99.1723 89.8653Q99.0775 89.9431 98.9789 90.0162Q98.8803 90.0893 98.7783 90.1575Q98.6762 90.2257 98.571 90.2888Q98.4657 90.3519 98.3575 90.4097Q98.2493 90.4676 98.1384 90.52Q98.0274 90.5725 97.914 90.6195Q97.8007 90.6664 97.6851 90.7078Q97.5696 90.7491 97.4521 90.7847Q97.3347 90.8204 97.2157 90.8502Q97.0966 90.88 96.9762 90.9039Q96.8559 90.9279 96.7345 90.9459Q96.6131 90.9639 96.491 90.9759Q96.3689 90.9879 96.2463 90.994Q96.1237 91 96.001 91L23.999 91Q23.8763 91 23.7537 90.994Q23.6311 90.9879 23.509 90.9759Q23.3869 90.9639 23.2655 90.9459Q23.1441 90.9279 23.0237 90.9039Q22.9034 90.88 22.7843 90.8502Q22.6653 90.8204 22.5479 90.7847Q22.4304 90.7491 22.3149 90.7078Q22.1993 90.6664 22.086 90.6195Q21.9726 90.5725 21.8617 90.52Q21.7507 90.4676 21.6425 90.4097Q21.5343 90.3519 21.429 90.2888Q21.3237 90.2257 21.2217 90.1575Q21.1197 90.0893 21.0211 90.0162Q20.9225 89.9431 20.8277 89.8653Q20.7328 89.7874 20.6419 89.705Q20.5509 89.6226 20.4642 89.5358Q20.3774 89.449 20.295 89.3581Q20.2126 89.2672 20.1347 89.1723Q20.0569 89.0775 19.9838 88.9789Q19.9107 88.8803 19.8425 88.7783Q19.7743 88.6762 19.7112 88.571Q19.6481 88.4657 19.5903 88.3575Q19.5324 88.2493 19.48 88.1383Q19.4275 88.0274 19.3805 87.914Q19.3336 87.8007 19.2922 87.6851Q19.2509 87.5695 19.2153 87.4521Q19.1796 87.3347 19.1498 87.2157Q19.12 87.0966 19.0961 86.9762Q19.0721 86.8559 19.0541 86.7345Q19.0361 86.6131 19.0241 86.491Q19.012 86.3689 19.006 86.2463Q19 86.1237 19 86.001L19 34.999Q19 34.8763 19.006 34.7537Q19.012 34.6311 19.0241 34.509Q19.0361 34.3869 19.0541 34.2655Q19.0721 34.1441 19.0961 34.0237Q19.12 33.9034 19.1498 33.7843Q19.1796 33.6653 19.2153 33.5479Q19.2509 33.4304 19.2922 33.3149Q19.3336 33.1993 19.3805 33.086Q19.4275 32.9726 19.48 32.8616Q19.5324 32.7507 19.5903 32.6425Q19.6481 32.5343 19.7112 32.429Q19.7743 32.3237 19.8425 32.2217Q19.9107 32.1197 19.9838 32.0211Q20.0569 31.9225 20.1347 31.8277Q20.2126 31.7328 20.295 31.6419Q20.3774 31.5509 20.4642 31.4642Q20.5509 31.3774 20.6419 31.295Q20.7328 31.2126 20.8277 31.1347Q20.9225 31.0569 21.0211 30.9838Q21.1197 30.9107 21.2217 30.8425Q21.3237 30.7743 21.429 30.7112Q21.5343 30.6481 21.6425 30.5903Q21.7507 30.5324 21.8617 30.48Q21.9726 30.4275 22.086 30.3805Q22.1993 30.3336 22.3149 30.2922Q22.4304 30.2509 22.5479 30.2153Q22.6653 30.1796 22.7843 30.1498Q22.9034 30.12 23.0237 30.0961Q23.1441 30.0721 23.2655 30.0541Q23.3869 30.0361 23.509 30.0241Q23.6311 30.012 23.7537 30.006Q23.8763 30 23.999 30Z" id="path_1" />
    <rect width="120" height="120" id="artboard_1" />
    <clipPath id="clip_1">
      <use xlink:href="#artboard_1" clip-rule="evenodd" />
    </clipPath>
  </defs>
  <g id="Whitespace-Launcher" clip-path="url(#clip_1)">
    <use xlink:href="#artboard_1" stroke="none" fill="#FFFFFF" fill-opacity="0" />
    <g id="Rectangle">
      <use stroke="none" fill="#148FDB" xlink:href="#path_1" fill-rule="evenodd" filter="url(#filter_1)" />
      <use xlink:href="#path_1" fill="none" stroke="#148FDB" stroke-width="2" />
    </g>
    <g id="Group-3" transform="translate(27 35)">
      <g id="Group" transform="translate(0.5 0)">
        <path d="M66 7.99895L66 8.00095Q66 8.12372 65.988 8.24589Q65.9759 8.36807 65.952 8.48848Q65.928 8.60889 65.8924 8.72637Q65.8568 8.84385 65.8098 8.95728Q65.7628 9.0707 65.7049 9.17897Q65.647 9.28724 65.5788 9.38932Q65.5106 9.4914 65.4327 9.5863Q65.3549 9.6812 65.2681 9.76801Q65.1813 9.85482 65.0863 9.9327Q64.9914 10.0106 64.8894 10.0788Q64.7873 10.147 64.679 10.2049Q64.5707 10.2627 64.4573 10.3097Q64.3439 10.3567 64.2264 10.3923Q64.1089 10.428 63.9885 10.4519Q63.8681 10.4759 63.746 10.4879Q63.6238 10.5 63.501 10.5L2.49901 10.5Q2.37624 10.5 2.25406 10.488Q2.13189 10.476 2.01148 10.452Q1.89107 10.4281 1.77359 10.3924Q1.6561 10.3568 1.54268 10.3098Q1.42926 10.2628 1.32099 10.205Q1.21271 10.1471 1.11064 10.0789Q1.00856 10.0107 0.913657 9.93279Q0.818756 9.8549 0.731946 9.76809Q0.645135 9.68128 0.567252 9.58638Q0.489368 9.49148 0.421162 9.3894Q0.352955 9.28732 0.295082 9.17905Q0.23721 9.07078 0.190228 8.95736Q0.143246 8.84394 0.107608 8.72645Q0.0719703 8.60897 0.0480191 8.48856Q0.0240679 8.36816 0.0120341 8.24598Q3.74808e-07 8.1238 0 8.00103L0 7.99903Q0 7.87627 0.0120334 7.75409Q0.0240667 7.63191 0.0480176 7.5115Q0.0719684 7.39109 0.107606 7.27361Q0.143244 7.15613 0.190225 7.04271Q0.237206 6.92928 0.295079 6.82101Q0.352951 6.71274 0.421157 6.61066Q0.489364 6.50858 0.567247 6.41368Q0.64513 6.31878 0.73194 6.23197Q0.81875 6.14516 0.913651 6.06728Q1.00855 5.9894 1.11063 5.92119Q1.21271 5.85298 1.32098 5.79511Q1.42925 5.73724 1.54267 5.69026Q1.6561 5.64328 1.77358 5.60764Q1.89106 5.572 2.01147 5.54805Q2.13188 5.5241 2.25406 5.51206Q2.37623 5.50003 2.499 5.50003L63.501 5.49995Q63.6238 5.49995 63.7459 5.51199Q63.8681 5.52402 63.9885 5.54797Q64.1089 5.57192 64.2264 5.60756Q64.3439 5.6432 64.4573 5.69018Q64.5707 5.73716 64.679 5.79503Q64.7873 5.8529 64.8894 5.92111Q64.9914 5.98932 65.0863 6.0672Q65.1812 6.14508 65.2681 6.23189Q65.3549 6.3187 65.4327 6.4136Q65.5106 6.5085 65.5788 6.61058Q65.6471 6.71266 65.7049 6.82093Q65.7628 6.9292 65.8098 7.04262Q65.8568 7.15605 65.8924 7.27353Q65.928 7.39101 65.952 7.51142Q65.9759 7.63183 65.988 7.75401Q66 7.87618 66 7.99895Z" id="Rectangle-2" fill="#000000" fill-rule="evenodd" stroke="none" />
        <path d="M54.499 0L54.501 0Q54.6483 0 54.795 0.014441Q54.9416 0.028882 55.0861 0.0576249Q55.2306 0.0863679 55.3716 0.129136Q55.5125 0.171904 55.6487 0.228285Q55.7848 0.284667 55.9147 0.354118Q56.0446 0.42357 56.1671 0.505423Q56.2896 0.587276 56.4035 0.680742Q56.5174 0.774208 56.6216 0.878387Q56.7258 0.982566 56.8193 1.09645Q56.9127 1.21034 56.9946 1.33284Q57.0764 1.45535 57.1459 1.58528Q57.2153 1.71522 57.2717 1.85133Q57.3281 1.98745 57.3709 2.12844Q57.4136 2.26942 57.4424 2.41392Q57.4711 2.55842 57.4856 2.70505Q57.5 2.85167 57.5 2.999L57.5 12.001Q57.5 12.1483 57.4856 12.295Q57.4711 12.4416 57.4424 12.5861Q57.4136 12.7306 57.3709 12.8716Q57.3281 13.0126 57.2717 13.1487Q57.2153 13.2848 57.1459 13.4147Q57.0764 13.5447 56.9946 13.6672Q56.9127 13.7897 56.8193 13.9035Q56.7258 14.0174 56.6216 14.1216Q56.5174 14.2258 56.4035 14.3193Q56.2896 14.4127 56.1671 14.4946Q56.0446 14.5764 55.9147 14.6459Q55.7848 14.7153 55.6487 14.7717Q55.5125 14.8281 55.3716 14.8709Q55.2306 14.9136 55.0861 14.9424Q54.9416 14.9711 54.795 14.9856Q54.6483 15 54.501 15L54.499 15Q54.3517 15 54.205 14.9856Q54.0584 14.9711 53.9139 14.9424Q53.7694 14.9136 53.6284 14.8709Q53.4874 14.8281 53.3513 14.7717Q53.2152 14.7153 53.0853 14.6459Q52.9553 14.5764 52.8328 14.4946Q52.7103 14.4127 52.5965 14.3193Q52.4826 14.2258 52.3784 14.1216Q52.2742 14.0174 52.1807 13.9035Q52.0873 13.7897 52.0054 13.6672Q51.9236 13.5447 51.8541 13.4147Q51.7847 13.2848 51.7283 13.1487Q51.6719 13.0126 51.6291 12.8716Q51.5864 12.7306 51.5576 12.5861Q51.5289 12.4416 51.5144 12.295Q51.5 12.1483 51.5 12.001L51.5 2.999Q51.5 2.85167 51.5144 2.70505Q51.5289 2.55842 51.5576 2.41392Q51.5864 2.26942 51.6291 2.12844Q51.6719 1.98745 51.7283 1.85133Q51.7847 1.71522 51.8541 1.58528Q51.9236 1.45535 52.0054 1.33284Q52.0873 1.21034 52.1807 1.09645Q52.2742 0.982566 52.3784 0.878387Q52.4826 0.774208 52.5965 0.680742Q52.7103 0.587276 52.8328 0.505423Q52.9553 0.42357 53.0853 0.354118Q53.2152 0.284667 53.3513 0.228285Q53.4874 0.171904 53.6284 0.129136Q53.7694 0.0863679 53.9139 0.0576249Q54.0584 0.028882 54.205 0.014441Q54.3517 0 54.499 0Z" id="Rectangle-3" fill="#000000" fill-rule="evenodd" stroke="#148FDB" stroke-width="2" />
      </g>
      <g id="Group-2" transform="matrix(-1 0 0 1 66.00001 18)">
        <path d="M66 7.99895L66 8.00095Q66 8.12372 65.988 8.24589Q65.9759 8.36807 65.952 8.48848Q65.928 8.60889 65.8924 8.72637Q65.8568 8.84385 65.8098 8.95728Q65.7628 9.0707 65.7049 9.17897Q65.647 9.28724 65.5788 9.38932Q65.5106 9.4914 65.4327 9.5863Q65.3549 9.6812 65.2681 9.76801Q65.1813 9.85482 65.0863 9.9327Q64.9914 10.0106 64.8894 10.0788Q64.7873 10.147 64.679 10.2049Q64.5707 10.2627 64.4573 10.3097Q64.3439 10.3567 64.2264 10.3923Q64.1089 10.428 63.9885 10.4519Q63.8681 10.4759 63.746 10.4879Q63.6238 10.5 63.501 10.5L2.49901 10.5Q2.37624 10.5 2.25406 10.488Q2.13189 10.476 2.01148 10.452Q1.89107 10.4281 1.77359 10.3924Q1.6561 10.3568 1.54268 10.3098Q1.42926 10.2628 1.32099 10.205Q1.21271 10.1471 1.11064 10.0789Q1.00856 10.0107 0.913657 9.93279Q0.818756 9.8549 0.731946 9.76809Q0.645135 9.68128 0.567252 9.58638Q0.489368 9.49148 0.421162 9.3894Q0.352955 9.28732 0.295082 9.17905Q0.23721 9.07078 0.190228 8.95736Q0.143246 8.84394 0.107608 8.72645Q0.0719703 8.60897 0.0480191 8.48856Q0.0240679 8.36816 0.0120341 8.24598Q3.74808e-07 8.1238 0 8.00103L0 7.99903Q0 7.87627 0.0120334 7.75409Q0.0240667 7.63191 0.0480176 7.5115Q0.0719684 7.39109 0.107606 7.27361Q0.143244 7.15613 0.190225 7.04271Q0.237206 6.92928 0.295079 6.82101Q0.352951 6.71274 0.421157 6.61066Q0.489364 6.50858 0.567247 6.41368Q0.64513 6.31878 0.73194 6.23197Q0.81875 6.14516 0.913651 6.06728Q1.00855 5.9894 1.11063 5.92119Q1.21271 5.85298 1.32098 5.79511Q1.42925 5.73724 1.54267 5.69026Q1.6561 5.64328 1.77358 5.60764Q1.89106 5.572 2.01147 5.54805Q2.13188 5.5241 2.25406 5.51206Q2.37623 5.50003 2.499 5.50003L63.501 5.49995Q63.6238 5.49995 63.7459 5.51199Q63.8681 5.52402 63.9885 5.54797Q64.1089 5.57192 64.2264 5.60756Q64.3439 5.6432 64.4573 5.69018Q64.5707 5.73716 64.679 5.79503Q64.7873 5.8529 64.8894 5.92111Q64.9914 5.98932 65.0863 6.0672Q65.1812 6.14508 65.2681 6.23189Q65.3549 6.3187 65.4327 6.4136Q65.5106 6.5085 65.5788 6.61058Q65.6471 6.71266 65.7049 6.82093Q65.7628 6.9292 65.8098 7.04262Q65.8568 7.15605 65.8924 7.27353Q65.928 7.39101 65.952 7.51142Q65.9759 7.63183 65.988 7.75401Q66 7.87618 66 7.99895Z" id="Rectangle-2" fill="#000000" fill-rule="evenodd" stroke="none" />
        <path d="M54.499 0L54.501 0Q54.6483 0 54.795 0.014441Q54.9416 0.028882 55.0861 0.0576249Q55.2306 0.0863679 55.3716 0.129136Q55.5125 0.171904 55.6487 0.228285Q55.7848 0.284667 55.9147 0.354118Q56.0446 0.42357 56.1671 0.505423Q56.2896 0.587276 56.4035 0.680742Q56.5174 0.774208 56.6216 0.878387Q56.7258 0.982566 56.8193 1.09645Q56.9127 1.21034 56.9946 1.33284Q57.0764 1.45535 57.1459 1.58528Q57.2153 1.71522 57.2717 1.85133Q57.3281 1.98745 57.3709 2.12844Q57.4136 2.26942 57.4424 2.41392Q57.4711 2.55842 57.4856 2.70505Q57.5 2.85167 57.5 2.999L57.5 12.001Q57.5 12.1483 57.4856 12.295Q57.4711 12.4416 57.4424 12.5861Q57.4136 12.7306 57.3709 12.8716Q57.3281 13.0126 57.2717 13.1487Q57.2153 13.2848 57.1459 13.4147Q57.0764 13.5447 56.9946 13.6672Q56.9127 13.7897 56.8193 13.9035Q56.7258 14.0174 56.6216 14.1216Q56.5174 14.2258 56.4035 14.3193Q56.2896 14.4127 56.1671 14.4946Q56.0446 14.5764 55.9147 14.6459Q55.7848 14.7153 55.6487 14.7717Q55.5125 14.8281 55.3716 14.8709Q55.2306 14.9136 55.0861 14.9424Q54.9416 14.9711 54.795 14.9856Q54.6483 15 54.501 15L54.499 15Q54.3517 15 54.205 14.9856Q54.0584 14.9711 53.9139 14.9424Q53.7694 14.9136 53.6284 14.8709Q53.4874 14.8281 53.3513 14.7717Q53.2152 14.7153 53.0853 14.6459Q52.9553 14.5764 52.8328 14.4946Q52.7103 14.4127 52.5965 14.3193Q52.4826 14.2258 52.3784 14.1216Q52.2742 14.0174 52.1807 13.9035Q52.0873 13.7897 52.0054 13.6672Q51.9236 13.5447 51.8541 13.4147Q51.7847 13.2848 51.7283 13.1487Q51.6719 13.0126 51.6291 12.8716Q51.5864 12.7306 51.5576 12.5861Q51.5289 12.4416 51.5144 12.295Q51.5 12.1483 51.5 12.001L51.5 2.999Q51.5 2.85167 51.5144 2.70505Q51.5289 2.55842 51.5576 2.41392Q51.5864 2.26942 51.6291 2.12844Q51.6719 1.98745 51.7283 1.85133Q51.7847 1.71522 51.8541 1.58528Q51.9236 1.45535 52.0054 1.33284Q52.0873 1.21034 52.1807 1.09645Q52.2742 0.982566 52.3784 0.878387Q52.4826 0.774208 52.5965 0.680742Q52.7103 0.587276 52.8328 0.505423Q52.9553 0.42357 53.0853 0.354118Q53.2152 0.284667 53.3513 0.228285Q53.4874 0.171904 53.6284 0.129136Q53.7694 0.0863679 53.9139 0.0576249Q54.0584 0.028882 54.205 0.014441Q54.3517 0 54.499 0Z" id="Rectangle-3" fill="#000000" fill-rule="evenodd" stroke="#148FDB" stroke-width="2" />
      </g>
      <g id="Group" transform="translate(0 36)">
        <path d="M66 7.99895L66 8.00095Q66 8.12372 65.988 8.2459Q65.9759 8.36808 65.952 8.48848Q65.928 8.60889 65.8924 8.72637Q65.8568 8.84386 65.8098 8.95728Q65.7628 9.0707 65.7049 9.17898Q65.647 9.28725 65.5788 9.38932Q65.5106 9.4914 65.4327 9.5863Q65.3549 9.68121 65.2681 9.76801Q65.1813 9.85483 65.0863 9.93271Q64.9914 10.0106 64.8894 10.0788Q64.7873 10.147 64.679 10.2049Q64.5707 10.2628 64.4573 10.3097Q64.3439 10.3567 64.2264 10.3924Q64.1089 10.428 63.9885 10.4519Q63.8681 10.4759 63.746 10.4879Q63.6238 10.5 63.501 10.5L2.49901 10.5Q2.37624 10.5 2.25406 10.488Q2.13189 10.476 2.01148 10.452Q1.89107 10.4281 1.77359 10.3924Q1.6561 10.3568 1.54268 10.3098Q1.42926 10.2628 1.32099 10.205Q1.21271 10.1471 1.11064 10.0789Q1.00856 10.0107 0.913657 9.93279Q0.818756 9.85491 0.731946 9.7681Q0.645135 9.68129 0.567252 9.58639Q0.489368 9.49148 0.421162 9.38941Q0.352955 9.28733 0.295082 9.17906Q0.23721 9.07079 0.190228 8.95736Q0.143246 8.84394 0.107608 8.72646Q0.0719703 8.60898 0.0480191 8.48857Q0.0240679 8.36816 0.0120341 8.24598Q3.74808e-07 8.12381 0 8.00104L0 7.99904Q0 7.87627 0.0120334 7.75409Q0.0240667 7.63192 0.0480176 7.51151Q0.0719684 7.3911 0.107606 7.27362Q0.143244 7.15613 0.190225 7.04271Q0.237206 6.92929 0.295079 6.82102Q0.352951 6.71274 0.421157 6.61067Q0.489364 6.50859 0.567247 6.41369Q0.64513 6.31879 0.73194 6.23198Q0.81875 6.14517 0.913651 6.06728Q1.00855 5.9894 1.11063 5.92119Q1.21271 5.85299 1.32098 5.79511Q1.42925 5.73724 1.54267 5.69026Q1.6561 5.64328 1.77358 5.60764Q1.89106 5.572 2.01147 5.54805Q2.13188 5.5241 2.25406 5.51207Q2.37623 5.50003 2.499 5.50003L63.501 5.49996Q63.6238 5.49996 63.7459 5.51199Q63.8681 5.52402 63.9885 5.54797Q64.1089 5.57192 64.2264 5.60756Q64.3439 5.6432 64.4573 5.69018Q64.5707 5.73716 64.679 5.79503Q64.7873 5.85291 64.8894 5.92111Q64.9914 5.98932 65.0863 6.0672Q65.1812 6.14509 65.2681 6.23189Q65.3549 6.31871 65.4327 6.41361Q65.5106 6.50851 65.5788 6.61058Q65.6471 6.71266 65.7049 6.82093Q65.7628 6.92921 65.8098 7.04263Q65.8568 7.15605 65.8924 7.27353Q65.928 7.39102 65.952 7.51142Q65.9759 7.63183 65.988 7.75401Q66 7.87619 66 7.99895Z" id="Rectangle-2" fill="#000000" fill-rule="evenodd" stroke="none" />
        <path d="M47.499 0L47.501 0Q47.6483 0 47.795 0.014441Q47.9416 0.028882 48.0861 0.0576249Q48.2306 0.0863679 48.3716 0.129136Q48.5125 0.171904 48.6487 0.228285Q48.7848 0.284667 48.9147 0.354118Q49.0447 0.42357 49.1672 0.505423Q49.2897 0.587276 49.4035 0.680742Q49.5174 0.774208 49.6216 0.878387Q49.7258 0.982566 49.8193 1.09645Q49.9127 1.21034 49.9946 1.33284Q50.0764 1.45535 50.1459 1.58528Q50.2153 1.71522 50.2717 1.85133Q50.3281 1.98745 50.3709 2.12844Q50.4136 2.26942 50.4424 2.41392Q50.4711 2.55842 50.4856 2.70505Q50.5 2.85167 50.5 2.999L50.5 12.001Q50.5 12.1483 50.4856 12.295Q50.4711 12.4416 50.4424 12.5861Q50.4136 12.7306 50.3709 12.8716Q50.3281 13.0126 50.2717 13.1487Q50.2153 13.2848 50.1459 13.4147Q50.0764 13.5447 49.9946 13.6672Q49.9127 13.7897 49.8193 13.9035Q49.7258 14.0174 49.6216 14.1216Q49.5174 14.2258 49.4035 14.3193Q49.2897 14.4127 49.1672 14.4946Q49.0447 14.5764 48.9147 14.6459Q48.7848 14.7153 48.6487 14.7717Q48.5125 14.8281 48.3716 14.8709Q48.2306 14.9136 48.0861 14.9424Q47.9416 14.9711 47.795 14.9856Q47.6483 15 47.501 15L47.499 15Q47.3517 15 47.2051 14.9856Q47.0584 14.9711 46.9139 14.9424Q46.7694 14.9136 46.6284 14.8709Q46.4874 14.8281 46.3513 14.7717Q46.2152 14.7153 46.0853 14.6459Q45.9553 14.5764 45.8328 14.4946Q45.7103 14.4127 45.5965 14.3193Q45.4826 14.2258 45.3784 14.1216Q45.2742 14.0174 45.1807 13.9035Q45.0873 13.7897 45.0054 13.6672Q44.9236 13.5447 44.8541 13.4147Q44.7847 13.2848 44.7283 13.1487Q44.6719 13.0126 44.6291 12.8716Q44.5864 12.7306 44.5576 12.5861Q44.5289 12.4416 44.5144 12.295Q44.5 12.1483 44.5 12.001L44.5 2.999Q44.5 2.85167 44.5144 2.70505Q44.5289 2.55842 44.5576 2.41392Q44.5864 2.26942 44.6291 2.12844Q44.6719 1.98745 44.7283 1.85133Q44.7847 1.71522 44.8541 1.58528Q44.9236 1.45535 45.0054 1.33284Q45.0873 1.21034 45.1807 1.09645Q45.2742 0.982566 45.3784 0.878387Q45.4826 0.774208 45.5965 0.680742Q45.7103 0.587276 45.8328 0.505423Q45.9553 0.42357 46.0853 0.354118Q46.2152 0.284667 46.3513 0.228285Q46.4874 0.171904 46.6284 0.129136Q46.7694 0.0863679 46.9139 0.0576249Q47.0584 0.028882 47.205 0.014441Q47.3517 0 47.499 0Z" id="Rectangle-3" fill="#000000" fill-rule="evenodd" stroke="#148FDB" stroke-width="2" />
      </g>
    </g>
  </g>
</svg>