<?xml version="1.0" encoding="utf-8"?>
<svg width="120px" height="120px" viewBox="0 0 120 120" version="1.1" xmlns:xlink="http://www.w3.org/1999/xlink" xmlns="http://www.w3.org/2000/svg">
  <defs>
    <radialGradient gradientUnits="objectBoundingBox" cx="7.588539%" cy="5.480604%" fx="7.588539%" fy="5.480604%" r="141.42136%" gradientTransform="translate(0.07588539,0.054806042),rotate(45.000042),translate(-0.07588539,-0.054806042)" id="gradient_1">
      <stop offset="0%" stop-color="#67B3FF" />
      <stop offset="100%" stop-color="#0894FF" />
    </radialGradient>
    <filter filterUnits="userSpaceOnUse" color-interpolation-filters="sRGB" id="filter_1">
      <feFlood flood-opacity="0" result="BackgroundImageFix" />
      <feBlend mode="normal" in="SourceGraphic" in2="BackgroundImageFix" result="shape" />
      <feColorMatrix in="SourceAlpha" type="matrix" values="0 0 0 0 0 0 0 0 0 0 0 0 0 0 0 0 0 0 127 0" result="hardAlpha" />
      <feOffset dx="2" dy="2" />
      <feGaussianBlur stdDeviation="2" />
      <feComposite in2="hardAlpha" operator="arithmetic" k2="-1" k3="1" />
      <feColorMatrix type="matrix" values="0 0 0 0 0 0 0 0 0 0 0 0 0 0 0 0 0 0 0.2901961 0" />
      <feBlend mode="normal" in2="shape" result="effect0_innerShadow" />
      <feColorMatrix in="SourceAlpha" type="matrix" values="0 0 0 0 0 0 0 0 0 0 0 0 0 0 0 0 0 0 127 0" result="hardAlpha" />
      <feOffset dx="-2" dy="-2" />
      <feGaussianBlur stdDeviation="2" />
      <feComposite in2="hardAlpha" operator="arithmetic" k2="-1" k3="1" />
      <feColorMatrix type="matrix" values="0 0 0 0 1 0 0 0 0 1 0 0 0 0 1 0 0 0 0.49803922 0" />
      <feBlend mode="normal" in2="effect0_innerShadow" result="effect1_innerShadow" />
    </filter>
    <filter filterUnits="userSpaceOnUse" color-interpolation-filters="sRGB" id="filter_2">
      <feFlood flood-opacity="0" result="BackgroundImageFix" />
      <feColorMatrix in="SourceAlpha" type="matrix" values="0 0 0 0 0 0 0 0 0 0 0 0 0 0 0 0 0 0 127 0" />
      <feOffset dx="2" dy="2" />
      <feGaussianBlur stdDeviation="2" />
      <feColorMatrix type="matrix" values="0 0 0 0 0 0 0 0 0 0 0 0 0 0 0 0 0 0 0.4 0" />
      <feBlend mode="normal" in2="BackgroundImageFix" result="effect0_dropShadow" />
      <feColorMatrix in="SourceAlpha" type="matrix" values="0 0 0 0 0 0 0 0 0 0 0 0 0 0 0 0 0 0 127 0" />
      <feOffset dx="-2" dy="-2" />
      <feGaussianBlur stdDeviation="2" />
      <feColorMatrix type="matrix" values="0 0 0 0 1 0 0 0 0 1 0 0 0 0 1 0 0 0 0.49803922 0" />
      <feBlend mode="normal" in2="effect0_dropShadow" result="effect1_dropShadow" />
      <feBlend mode="normal" in="SourceGraphic" in2="effect1_dropShadow" result="shape" />
    </filter>
    <filter filterUnits="userSpaceOnUse" color-interpolation-filters="sRGB" id="filter_3">
      <feFlood flood-opacity="0" result="BackgroundImageFix" />
      <feColorMatrix in="SourceAlpha" type="matrix" values="0 0 0 0 0 0 0 0 0 0 0 0 0 0 0 0 0 0 127 0" />
      <feOffset dx="2" dy="2" />
      <feGaussianBlur stdDeviation="2" />
      <feColorMatrix type="matrix" values="0 0 0 0 0 0 0 0 0 0 0 0 0 0 0 0 0 0 0.2509804 0" />
      <feBlend mode="normal" in2="BackgroundImageFix" result="effect0_dropShadow" />
      <feColorMatrix in="SourceAlpha" type="matrix" values="0 0 0 0 0 0 0 0 0 0 0 0 0 0 0 0 0 0 127 0" />
      <feOffset dx="-2" dy="-2" />
      <feGaussianBlur stdDeviation="2" />
      <feColorMatrix type="matrix" values="0 0 0 0 1 0 0 0 0 1 0 0 0 0 1 0 0 0 0.2509804 0" />
      <feBlend mode="normal" in2="effect0_dropShadow" result="effect1_dropShadow" />
      <feBlend mode="normal" in="SourceGraphic" in2="effect1_dropShadow" result="shape" />
    </filter>
    <path d="M4.999 20L62.1439 20Q62.2666 20 62.3891 20.006Q62.5117 20.012 62.6338 20.0241Q62.756 20.0361 62.8774 20.0541Q62.9987 20.0721 63.1191 20.0961Q63.2395 20.12 63.3585 20.1498Q63.4775 20.1796 63.595 20.2153Q63.7124 20.2509 63.828 20.2922Q63.9435 20.3336 64.0569 20.3805Q64.1702 20.4275 64.2812 20.48Q64.3921 20.5324 64.5004 20.5903Q64.6086 20.6481 64.7138 20.7112Q64.8191 20.7743 64.9211 20.8425Q65.0232 20.9107 65.1217 20.9838Q65.2203 21.0569 65.3152 21.1347Q65.41 21.2126 65.501 21.295Q65.5919 21.3774 65.6787 21.4642Q65.7654 21.5509 65.8479 21.6419Q65.9303 21.7328 66.0081 21.8277Q66.086 21.9225 66.1591 22.0211Q66.2322 22.1197 66.3004 22.2217Q66.3685 22.3237 66.4316 22.429Q66.4947 22.5343 66.5526 22.6425Q66.6104 22.7507 66.6629 22.8617Q66.7153 22.9726 66.7623 23.086Q66.8093 23.1993 66.8506 23.3149Q66.892 23.4304 66.9276 23.5479Q66.9632 23.6653 66.993 23.7843Q67.0229 23.9034 67.0468 24.0237Q67.0707 24.1441 67.0887 24.2655Q67.1068 24.3869 67.1188 24.509Q67.1308 24.6311 67.1368 24.7537Q67.1429 24.8763 67.1429 24.999L67.1429 62.001Q67.1429 62.1237 67.1368 62.2463Q67.1308 62.3689 67.1188 62.491Q67.1068 62.6131 67.0887 62.7345Q67.0707 62.8559 67.0468 62.9762Q67.0229 63.0966 66.993 63.2156Q66.9632 63.3347 66.9276 63.4521Q66.892 63.5696 66.8506 63.6851Q66.8093 63.8006 66.7623 63.914Q66.7154 64.0274 66.6629 64.1383Q66.6104 64.2493 66.5526 64.3575Q66.4947 64.4657 66.4316 64.571Q66.3685 64.6762 66.3004 64.7783Q66.2322 64.8803 66.1591 64.9789Q66.086 65.0775 66.0081 65.1723Q65.9303 65.2672 65.8479 65.3581Q65.7654 65.449 65.6787 65.5358Q65.5919 65.6226 65.501 65.705Q65.41 65.7874 65.3152 65.8653Q65.2203 65.9431 65.1217 66.0162Q65.0232 66.0893 64.9211 66.1575Q64.8191 66.2257 64.7138 66.2888Q64.6086 66.3519 64.5004 66.4097Q64.3921 66.4676 64.2812 66.52Q64.1702 66.5725 64.0569 66.6195Q63.9435 66.6664 63.828 66.7078Q63.7124 66.7491 63.595 66.7847Q63.4775 66.8204 63.3585 66.8502Q63.2395 66.88 63.1191 66.9039Q62.9987 66.9279 62.8774 66.9459Q62.756 66.9639 62.6338 66.9759Q62.5117 66.988 62.3891 66.994Q62.2666 67 62.1439 67L4.999 67Q4.87628 67 4.75371 66.994Q4.63114 66.988 4.50901 66.9759Q4.38688 66.9639 4.26549 66.9459Q4.1441 66.9279 4.02374 66.9039Q3.90338 66.88 3.78434 66.8502Q3.6653 66.8204 3.54787 66.7847Q3.43043 66.7491 3.31489 66.7078Q3.19934 66.6664 3.08597 66.6195Q2.97259 66.5725 2.86165 66.52Q2.75072 66.4676 2.64249 66.4097Q2.53426 66.3519 2.429 66.2888Q2.32374 66.2257 2.2217 66.1575Q2.11967 66.0893 2.0211 66.0162Q1.92253 65.9431 1.82767 65.8653Q1.73281 65.7874 1.64188 65.705Q1.55095 65.6226 1.46417 65.5358Q1.3774 65.449 1.29499 65.3581Q1.21257 65.2672 1.13472 65.1723Q1.05687 65.0775 0.983765 64.9789Q0.910662 64.8803 0.842483 64.7783Q0.774305 64.6762 0.711215 64.571Q0.648125 64.4657 0.590276 64.3575Q0.532426 64.2493 0.479957 64.1383Q0.427489 64.0274 0.380526 63.914Q0.333564 63.8006 0.292221 63.6851Q0.250879 63.5696 0.215255 63.4521Q0.179632 63.3347 0.149814 63.2157Q0.119996 63.0966 0.0960544 62.9762Q0.0721132 62.8559 0.0541066 62.7345Q0.0361001 62.6131 0.0240715 62.491Q0.012043 62.3689 0.00602151 62.2463Q0 62.1237 0 62.001L0 24.999Q0 24.8763 0.00602151 24.7537Q0.012043 24.6311 0.0240715 24.509Q0.0361001 24.3869 0.0541066 24.2655Q0.0721132 24.1441 0.0960544 24.0237Q0.119996 23.9034 0.149814 23.7843Q0.179632 23.6653 0.215255 23.5479Q0.250879 23.4304 0.292221 23.3149Q0.333564 23.1993 0.380526 23.086Q0.427489 22.9726 0.479957 22.8617Q0.532426 22.7507 0.590276 22.6425Q0.648125 22.5343 0.711215 22.429Q0.774305 22.3237 0.842483 22.2217Q0.910662 22.1197 0.983765 22.0211Q1.05687 21.9225 1.13472 21.8277Q1.21257 21.7328 1.29499 21.6419Q1.3774 21.5509 1.46417 21.4642Q1.55095 21.3774 1.64188 21.295Q1.73281 21.2126 1.82767 21.1347Q1.92253 21.0569 2.0211 20.9838Q2.11967 20.9107 2.2217 20.8425Q2.32374 20.7743 2.429 20.7112Q2.53426 20.6481 2.64249 20.5903Q2.75072 20.5324 2.86165 20.48Q2.97259 20.4275 3.08597 20.3805Q3.19934 20.3336 3.31489 20.2922Q3.43043 20.2509 3.54787 20.2153Q3.6653 20.1796 3.78434 20.1498Q3.90338 20.12 4.02374 20.0961Q4.1441 20.0721 4.26549 20.0541Q4.38688 20.0361 4.50901 20.0241Q4.63114 20.012 4.75371 20.006Q4.87628 20 4.999 20Z" id="path_1" />
    <rect width="120" height="120" id="artboard_1" />
    <clipPath id="clip_1">
      <use xlink:href="#artboard_1" clip-rule="evenodd" />
    </clipPath>
  </defs>
  <g id="Whitespace-Launcher" clip-path="url(#clip_1)">
    <g filter="url(#filter_3)">
      <g id="Group-2" transform="translate(27.000048 27)">
        <path d="M13 20C13 8.9543 21.9543 0 33 0C44.0456 0 53 8.9543 53 20C53 31.0457 44.0456 40 33 40C21.9543 40 13 31.0457 13 20Z" id="Ellipse" fill="#000000" fill-opacity="0" fill-rule="evenodd" stroke="url(#gradient_1)" stroke-width="7" />
        <g id="Rectangle">
          <use stroke="none" fill="#0894FF" xlink:href="#path_1" fill-rule="evenodd" filter="url(#filter_1)" />
          <use xlink:href="#path_1" fill="none" stroke="#0894FF" stroke-width="3" />
        </g>
        <g filter="url(#filter_2)">
          <g id="Group" transform="matrix(0.70710725 -0.70710635 0.70710635 0.70710725 19.645376 40.864525)">
            <path d="M3.92061 0L3.92261 0Q4.11521 0 4.30689 0.0188786Q4.49857 0.0377572 4.68747 0.0753325Q4.87638 0.112908 5.06069 0.168818Q5.245 0.224728 5.42294 0.298435Q5.60089 0.372142 5.77075 0.462935Q5.94061 0.553729 6.10076 0.660734Q6.2609 0.76774 6.40979 0.889927Q6.55867 1.01211 6.69487 1.14831Q6.83106 1.2845 6.95325 1.43338Q7.07543 1.58227 7.18244 1.74242Q7.28944 1.90256 7.38024 2.07242Q7.47103 2.24229 7.54474 2.42023Q7.61844 2.59817 7.67435 2.78248Q7.73026 2.9668 7.76784 3.1557Q7.80542 3.3446 7.82429 3.53628Q7.84317 3.72796 7.84317 3.92056L7.84317 15.6873Q7.84317 15.8799 7.82429 16.0715Q7.80542 16.2632 7.76784 16.4521Q7.73027 16.641 7.67435 16.8253Q7.61844 17.0097 7.54474 17.1876Q7.47103 17.3655 7.38024 17.5354Q7.28944 17.7053 7.18244 17.8654Q7.07543 18.0256 6.95324 18.1744Q6.83106 18.3233 6.69487 18.4595Q6.55867 18.5957 6.40979 18.7179Q6.2609 18.8401 6.10076 18.9471Q5.94061 19.0541 5.77075 19.1449Q5.60089 19.2357 5.42294 19.3094Q5.245 19.3831 5.06069 19.439Q4.87638 19.4949 4.68747 19.5325Q4.49857 19.5701 4.30689 19.5889Q4.11521 19.6078 3.92261 19.6078L3.92061 19.6078Q3.728 19.6078 3.53633 19.5889Q3.34465 19.5701 3.15574 19.5325Q2.96684 19.4949 2.78253 19.439Q2.59822 19.3831 2.42027 19.3094Q2.24233 19.2357 2.07247 19.1449Q1.9026 19.0541 1.74246 18.9471Q1.58231 18.8401 1.43343 18.7179Q1.28454 18.5957 1.14835 18.4595Q1.01216 18.3233 0.889971 18.1744Q0.767784 18.0256 0.660778 17.8654Q0.553772 17.7053 0.462979 17.5354Q0.372186 17.3655 0.298479 17.1876Q0.224772 17.0097 0.168862 16.8253Q0.112952 16.641 0.0753764 16.4521Q0.037801 16.2632 0.0189225 16.0715Q4.3869e-05 15.8799 4.3869e-05 15.6873L4.3869e-05 3.92056Q4.3869e-05 3.72796 0.0189225 3.53628Q0.037801 3.3446 0.0753764 3.1557Q0.112952 2.9668 0.168862 2.78248Q0.224772 2.59817 0.298479 2.42023Q0.372186 2.24229 0.462979 2.07242Q0.553772 1.90256 0.660778 1.74242Q0.767784 1.58227 0.889971 1.43338Q1.01216 1.2845 1.14835 1.14831Q1.28454 1.01211 1.43343 0.889927Q1.58231 0.76774 1.74246 0.660734Q1.9026 0.553729 2.07247 0.462935Q2.24233 0.372142 2.42027 0.298435Q2.59822 0.224728 2.78253 0.168818Q2.96684 0.112908 3.15574 0.0753325Q3.34465 0.0377572 3.53633 0.0188786Q3.728 0 3.92061 0Z" id="Rectangle-2" fill="#B2DEFF" fill-rule="evenodd" stroke="none" />
            <path d="M19.6075 16.0772L19.6075 16.0792Q19.6075 16.2718 19.5886 16.4634Q19.5697 16.6551 19.5322 16.844Q19.4946 17.0329 19.4387 17.2172Q19.3828 17.4015 19.3091 17.5795Q19.2354 17.7574 19.1446 17.9273Q19.0538 18.0971 18.9468 18.2573Q18.8398 18.4174 18.7176 18.5663Q18.5954 18.7152 18.4592 18.8514Q18.323 18.9876 18.1741 19.1098Q18.0253 19.2319 17.8651 19.3389Q17.705 19.4459 17.5351 19.5367Q17.3653 19.6275 17.1873 19.7012Q17.0094 19.7749 16.8251 19.8308Q16.6408 19.8868 16.4519 19.9243Q16.263 19.9619 16.0713 19.9808Q15.8796 19.9997 15.687 19.9997L3.92051 19.9997Q3.72791 19.9997 3.53623 19.9808Q3.34456 19.9619 3.15566 19.9243Q2.96676 19.8868 2.78245 19.8309Q2.59814 19.775 2.4202 19.7012Q2.24226 19.6275 2.0724 19.5368Q1.90254 19.446 1.7424 19.339Q1.58225 19.232 1.43337 19.1098Q1.28449 18.9876 1.1483 18.8514Q1.01211 18.7152 0.889922 18.5663Q0.767737 18.4174 0.660733 18.2573Q0.553729 18.0972 0.462937 17.9273Q0.372145 17.7574 0.298439 17.5795Q0.224734 17.4016 0.168824 17.2172Q0.112915 17.0329 0.0753397 16.844Q0.0377647 16.6551 0.0188863 16.4635Q7.8168e-06 16.2718 7.62939e-06 16.0792L7.62939e-06 16.0772Q7.34829e-06 15.8846 0.0188853 15.6929Q0.0377633 15.5012 0.0753378 15.3123Q0.112912 15.1234 0.168821 14.9391Q0.22473 14.7548 0.298436 14.5769Q0.372141 14.3989 0.462932 14.2291Q0.553724 14.0592 0.660728 13.8991Q0.767731 13.7389 0.889916 13.59Q1.0121 13.4412 1.14829 13.305Q1.28448 13.1688 1.43336 13.0466Q1.58225 12.9244 1.74239 12.8174Q1.90253 12.7104 2.07239 12.6196Q2.24225 12.5288 2.42019 12.4551Q2.59813 12.3814 2.78244 12.3255Q2.96675 12.2696 3.15565 12.232Q3.34455 12.1944 3.53622 12.1756Q3.7279 12.1567 3.9205 12.1567L15.687 12.1567Q15.8796 12.1567 16.0713 12.1755Q16.2629 12.1944 16.4518 12.232Q16.6408 12.2696 16.8251 12.3255Q17.0094 12.3814 17.1873 12.4551Q17.3653 12.5288 17.5351 12.6196Q17.705 12.7104 17.8651 12.8174Q18.0253 12.9244 18.1741 13.0466Q18.323 13.1688 18.4592 13.3049Q18.5954 13.4411 18.7176 13.59Q18.8398 13.7389 18.9468 13.899Q19.0538 14.0592 19.1446 14.2291Q19.2354 14.3989 19.3091 14.5768Q19.3828 14.7548 19.4387 14.9391Q19.4946 15.1234 19.5322 15.3123Q19.5697 15.5012 19.5886 15.6929Q19.6075 15.8846 19.6075 16.0772Z" id="Rectangle-3" fill="#B2DEFF" fill-rule="evenodd" stroke="none" />
          </g>
        </g>
      </g>
    </g>
  </g>
</svg>