<?xml version="1.0" encoding="utf-8"?>
<svg width="120px" height="120px" viewBox="0 0 120 120" version="1.1" xmlns:xlink="http://www.w3.org/1999/xlink" xmlns="http://www.w3.org/2000/svg">
  <defs>
    <radialGradient gradientUnits="objectBoundingBox" cx="0%" cy="0%" fx="0%" fy="0%" r="186.26294%" gradientTransform="translate(0,0),scale(1,0.6363636),rotate(57.528854),translate(-0,-0)" id="gradient_1">
      <stop offset="0%" stop-color="#86FFA0" />
      <stop offset="100%" stop-color="#2BFF00" />
    </radialGradient>
    <filter filterUnits="userSpaceOnUse" color-interpolation-filters="sRGB" id="filter_1">
      <feFlood flood-opacity="0" result="BackgroundImageFix" />
      <feColorMatrix in="SourceAlpha" type="matrix" values="0 0 0 0 0 0 0 0 0 0 0 0 0 0 0 0 0 0 127 0" />
      <feOffset dx="2" dy="2" />
      <feGaussianBlur stdDeviation="2" />
      <feColorMatrix type="matrix" values="0 0 0 0 0 0 0 0 0 0 0 0 0 0 0 0 0 0 0.5803922 0" />
      <feBlend mode="normal" in2="BackgroundImageFix" result="effect0_dropShadow" />
      <feColorMatrix in="SourceAlpha" type="matrix" values="0 0 0 0 0 0 0 0 0 0 0 0 0 0 0 0 0 0 127 0" />
      <feOffset dx="-2" dy="-2" />
      <feGaussianBlur stdDeviation="2" />
      <feColorMatrix type="matrix" values="0 0 0 0 1 0 0 0 0 1 0 0 0 0 1 0 0 0 0.16078432 0" />
      <feBlend mode="normal" in2="effect0_dropShadow" result="effect1_dropShadow" />
      <feBlend mode="normal" in="SourceGraphic" in2="effect1_dropShadow" result="shape" />
    </filter>
    <filter filterUnits="userSpaceOnUse" color-interpolation-filters="sRGB" id="filter_2">
      <feFlood flood-opacity="0" result="BackgroundImageFix" />
      <feBlend mode="normal" in="SourceGraphic" in2="BackgroundImageFix" result="shape" />
      <feColorMatrix in="SourceAlpha" type="matrix" values="0 0 0 0 0 0 0 0 0 0 0 0 0 0 0 0 0 0 127 0" result="hardAlpha" />
      <feOffset dx="-2" dy="-2" />
      <feGaussianBlur stdDeviation="7.5" />
      <feComposite in2="hardAlpha" operator="arithmetic" k2="-1" k3="1" />
      <feColorMatrix type="matrix" values="0 0 0 0 1 0 0 0 0 1 0 0 0 0 1 0 0 0 0.4 0" />
      <feBlend mode="normal" in2="shape" result="effect0_innerShadow" />
    </filter>
    <filter filterUnits="userSpaceOnUse" color-interpolation-filters="sRGB" id="filter_3">
      <feFlood flood-opacity="0" result="BackgroundImageFix" />
      <feColorMatrix in="SourceAlpha" type="matrix" values="0 0 0 0 0 0 0 0 0 0 0 0 0 0 0 0 0 0 127 0" />
      <feOffset dx="-1" dy="-1" />
      <feGaussianBlur stdDeviation="2" />
      <feColorMatrix type="matrix" values="0 0 0 0 1 0 0 0 0 1 0 0 0 0 1 0 0 0 0.21176471 0" />
      <feBlend mode="normal" in2="BackgroundImageFix" result="effect0_dropShadow" />
      <feBlend mode="normal" in="SourceGraphic" in2="effect0_dropShadow" result="shape" />
    </filter>
    <path d="M32.999 23L88.001 23Q88.2465 23 88.4916 23.012Q88.7368 23.0241 88.9811 23.0481Q89.2253 23.0722 89.4681 23.1082Q89.7109 23.1442 89.9517 23.1921Q90.1924 23.24 90.4305 23.2997Q90.6686 23.3593 90.9035 23.4306Q91.1384 23.5018 91.3695 23.5845Q91.6007 23.6672 91.8274 23.7611Q92.0542 23.8551 92.2761 23.96Q92.498 24.065 92.7145 24.1807Q92.931 24.2964 93.1415 24.4226Q93.352 24.5488 93.5561 24.6851Q93.7602 24.8215 93.9574 24.9677Q94.1545 25.1139 94.3443 25.2697Q94.534 25.4254 94.7159 25.5902Q94.8978 25.7551 95.0714 25.9286Q95.2449 26.1022 95.4098 26.2841Q95.5746 26.466 95.7303 26.6557Q95.886 26.8454 96.0323 27.0426Q96.1785 27.2398 96.3149 27.4438Q96.4512 27.6479 96.5774 27.8585Q96.7036 28.069 96.8193 28.2855Q96.935 28.502 97.04 28.7239Q97.1449 28.9458 97.2389 29.1725Q97.3328 29.3993 97.4155 29.6304Q97.4982 29.8616 97.5694 30.0964Q97.6407 30.3313 97.7003 30.5694Q97.76 30.8075 97.8079 31.0483Q97.8558 31.289 97.8918 31.5318Q97.9278 31.7746 97.9519 32.0189Q97.9759 32.2632 97.988 32.5084Q98 32.7535 98 32.999L98 88.001Q98 88.2465 97.988 88.4916Q97.9759 88.7368 97.9519 88.9811Q97.9278 89.2253 97.8918 89.4681Q97.8557 89.7109 97.8079 89.9517Q97.76 90.1924 97.7003 90.4305Q97.6407 90.6686 97.5694 90.9035Q97.4982 91.1384 97.4155 91.3695Q97.3328 91.6007 97.2389 91.8274Q97.1449 92.0542 97.04 92.2761Q96.935 92.498 96.8193 92.7145Q96.7036 92.931 96.5774 93.1415Q96.4512 93.352 96.3149 93.5561Q96.1785 93.7602 96.0323 93.9574Q95.886 94.1545 95.7303 94.3443Q95.5746 94.534 95.4098 94.7159Q95.2449 94.8978 95.0714 95.0714Q94.8978 95.2449 94.7159 95.4098Q94.534 95.5746 94.3443 95.7303Q94.1545 95.886 93.9574 96.0323Q93.7602 96.1785 93.5561 96.3149Q93.352 96.4512 93.1415 96.5774Q92.931 96.7036 92.7145 96.8193Q92.498 96.935 92.2761 97.04Q92.0542 97.1449 91.8274 97.2389Q91.6007 97.3328 91.3696 97.4155Q91.1384 97.4982 90.9036 97.5694Q90.6687 97.6407 90.4305 97.7003Q90.1924 97.76 89.9517 97.8079Q89.7109 97.8558 89.4681 97.8918Q89.2253 97.9278 88.9811 97.9519Q88.7368 97.9759 88.4916 97.988Q88.2465 98 88.001 98L32.999 98Q32.7535 98 32.5084 97.988Q32.2632 97.9759 32.0189 97.9519Q31.7746 97.9278 31.5318 97.8918Q31.289 97.8557 31.0483 97.8079Q30.8075 97.76 30.5694 97.7003Q30.3313 97.6407 30.0964 97.5694Q29.8615 97.4982 29.6304 97.4155Q29.3993 97.3328 29.1725 97.2389Q28.9458 97.1449 28.7239 97.04Q28.502 96.935 28.2855 96.8193Q28.069 96.7036 27.8585 96.5774Q27.6479 96.4512 27.4438 96.3149Q27.2398 96.1785 27.0426 96.0323Q26.8454 95.886 26.6557 95.7303Q26.466 95.5746 26.2841 95.4098Q26.1022 95.2449 25.9286 95.0714Q25.7551 94.8978 25.5902 94.7159Q25.4254 94.534 25.2697 94.3443Q25.1139 94.1545 24.9677 93.9574Q24.8215 93.7602 24.6851 93.5561Q24.5488 93.352 24.4226 93.1415Q24.2964 92.931 24.1807 92.7145Q24.065 92.498 23.96 92.2761Q23.8551 92.0542 23.7611 91.8274Q23.6672 91.6007 23.5845 91.3696Q23.5018 91.1384 23.4306 90.9036Q23.3593 90.6687 23.2997 90.4305Q23.24 90.1924 23.1921 89.9517Q23.1442 89.7109 23.1082 89.4681Q23.0722 89.2253 23.0481 88.9811Q23.0241 88.7368 23.012 88.4916Q23 88.2465 23 88.001L23 32.999Q23 32.7535 23.012 32.5084Q23.0241 32.2632 23.0481 32.0189Q23.0722 31.7746 23.1082 31.5318Q23.1442 31.289 23.1921 31.0483Q23.24 30.8075 23.2997 30.5694Q23.3593 30.3313 23.4306 30.0964Q23.5018 29.8615 23.5845 29.6304Q23.6672 29.3993 23.7611 29.1725Q23.8551 28.9458 23.96 28.7239Q24.065 28.502 24.1807 28.2855Q24.2964 28.069 24.4226 27.8585Q24.5488 27.6479 24.6851 27.4438Q24.8215 27.2398 24.9677 27.0426Q25.1139 26.8454 25.2697 26.6557Q25.4254 26.466 25.5902 26.2841Q25.7551 26.1022 25.9286 25.9286Q26.1022 25.7551 26.2841 25.5902Q26.466 25.4254 26.6557 25.2697Q26.8454 25.1139 27.0426 24.9677Q27.2398 24.8215 27.4438 24.6851Q27.6479 24.5488 27.8585 24.4226Q28.069 24.2964 28.2855 24.1807Q28.502 24.065 28.7239 23.96Q28.9458 23.8551 29.1725 23.7611Q29.3993 23.6672 29.6304 23.5845Q29.8616 23.5018 30.0964 23.4306Q30.3313 23.3593 30.5694 23.2997Q30.8075 23.24 31.0483 23.1921Q31.289 23.1442 31.5318 23.1082Q31.7746 23.0722 32.0189 23.0481Q32.2632 23.0241 32.5084 23.012Q32.7535 23 32.999 23Z" id="path_1" />
    <rect width="120" height="120" id="artboard_1" />
    <clipPath id="clip_1">
      <use xlink:href="#artboard_1" clip-rule="evenodd" />
    </clipPath>
  </defs>
  <g id="Artboard" clip-path="url(#clip_1)">
    <use xlink:href="#artboard_1" stroke="none" fill="#FFFFFF" fill-opacity="0" />
    <g id="Rectangle" filter="url(#filter_1)">
      <use stroke="none" fill="#000000" xlink:href="#path_1" fill-rule="evenodd" filter="url(#filter_2)" />
      <use xlink:href="#path_1" fill="none" stroke="#50FF41" stroke-width="1" />
    </g>
    <path d="M40.692 57.6555L40.692 53.312L47.7994 49.025L47.7994 48.9122L40.692 44.6252L40.692 40.2818L51.748 47.3328L51.748 50.6045L40.692 57.6555Z" id="" fill="url(#gradient_1)" fill-rule="evenodd" stroke="none" filter="url(#filter_3)" />
  </g>
</svg>