<?xml version="1.0" encoding="utf-8"?>
<svg width="120px" height="120px" viewBox="0 0 120 120" version="1.1" xmlns:xlink="http://www.w3.org/1999/xlink" xmlns="http://www.w3.org/2000/svg">
  <defs>
    <radialGradient gradientUnits="objectBoundingBox" cx="50%" cy="50%" fx="50%" fy="50%" r="87.54009%" gradientTransform="translate(0.5,0.5),rotate(52.737026),translate(-0.5,-0.5)" id="gradient_1">
      <stop offset="0%" stop-color="#003610" />
      <stop offset="100%" stop-color="#00FF91" />
    </radialGradient>
    <filter filterUnits="userSpaceOnUse" color-interpolation-filters="sRGB" id="filter_1">
      <feFlood flood-opacity="0" result="BackgroundImageFix" />
      <feBlend mode="normal" in="SourceGraphic" in2="BackgroundImageFix" result="shape" />
      <feColorMatrix in="SourceAlpha" type="matrix" values="0 0 0 0 0 0 0 0 0 0 0 0 0 0 0 0 0 0 127 0" result="hardAlpha" />
      <feOffset dx="2" dy="2" />
      <feGaussianBlur stdDeviation="2" />
      <feComposite in2="hardAlpha" operator="arithmetic" k2="-1" k3="1" />
      <feColorMatrix type="matrix" values="0 0 0 0 0 0 0 0 0 0 0 0 0 0 0 0 0 0 0.49803922 0" />
      <feBlend mode="normal" in2="shape" result="effect0_innerShadow" />
      <feColorMatrix in="SourceAlpha" type="matrix" values="0 0 0 0 0 0 0 0 0 0 0 0 0 0 0 0 0 0 127 0" result="hardAlpha" />
      <feOffset dx="-2" dy="-2" />
      <feGaussianBlur stdDeviation="2" />
      <feComposite in2="hardAlpha" operator="arithmetic" k2="-1" k3="1" />
      <feColorMatrix type="matrix" values="0 0 0 0 1 0 0 0 0 1 0 0 0 0 1 0 0 0 0.49803922 0" />
      <feBlend mode="normal" in2="effect0_innerShadow" result="effect1_innerShadow" />
    </filter>
    <filter filterUnits="userSpaceOnUse" color-interpolation-filters="sRGB" id="filter_2">
      <feFlood flood-opacity="0" result="BackgroundImageFix" />
      <feColorMatrix in="SourceAlpha" type="matrix" values="0 0 0 0 0 0 0 0 0 0 0 0 0 0 0 0 0 0 127 0" />
      <feOffset dx="2" dy="2" />
      <feGaussianBlur stdDeviation="2" />
      <feColorMatrix type="matrix" values="0 0 0 0 0 0 0 0 0 0 0 0 0 0 0 0 0 0 0.49803922 0" />
      <feBlend mode="normal" in2="BackgroundImageFix" result="effect0_dropShadow" />
      <feColorMatrix in="SourceAlpha" type="matrix" values="0 0 0 0 0 0 0 0 0 0 0 0 0 0 0 0 0 0 127 0" />
      <feOffset dx="-2" dy="-2" />
      <feGaussianBlur stdDeviation="2" />
      <feColorMatrix type="matrix" values="0 0 0 0 1 0 0 0 0 1 0 0 0 0 1 0 0 0 0.25882354 0" />
      <feBlend mode="normal" in2="effect0_dropShadow" result="effect1_dropShadow" />
      <feBlend mode="normal" in="SourceGraphic" in2="effect1_dropShadow" result="shape" />
    </filter>
    <path d="M23 60.5C23 39.7893 39.7893 23 60.5 23C81.2107 23 98 39.7893 98 60.5C98 81.2107 81.2107 98 60.5 98C39.7893 98 23 81.2107 23 60.5Z" id="path_1" />
    <rect width="120" height="120" id="artboard_1" />
    <clipPath id="clip_1">
      <use xlink:href="#artboard_1" clip-rule="evenodd" />
    </clipPath>
  </defs>
  <g id="Whitespace-Launcher" clip-path="url(#clip_1)">
    <use xlink:href="#artboard_1" stroke="none" fill="#000000" fill-opacity="0" />
    <g id="Ellipse">
      <use stroke="none" fill="#212121" xlink:href="#path_1" fill-rule="evenodd" filter="url(#filter_1)" />
      <use xlink:href="#path_1" fill="none" stroke="url(#gradient_1)" stroke-width="5" />
    </g>
    <g filter="url(#filter_2)">
      <g id="Group" transform="translate(54 36)">
        <path d="M2.399 0L2.401 0Q2.51885 0 2.63614 0.0115518Q2.75343 0.0231037 2.86902 0.0460961Q2.98461 0.0690885 3.09739 0.1033Q3.21017 0.137512 3.31906 0.182613Q3.42794 0.227714 3.53188 0.283271Q3.63582 0.338827 3.73381 0.404304Q3.8318 0.469781 3.92291 0.544548Q4.01401 0.619314 4.09735 0.70265Q4.18068 0.785987 4.25545 0.87709Q4.33022 0.968193 4.39569 1.06619Q4.46117 1.16418 4.51673 1.26812Q4.57228 1.37206 4.61738 1.48094Q4.66249 1.58983 4.6967 1.70261Q4.73091 1.81539 4.7539 1.93098Q4.77689 2.04657 4.78844 2.16386Q4.8 2.28114 4.8 2.399L4.8 27.201Q4.8 27.3188 4.78844 27.4361Q4.77689 27.5534 4.7539 27.669Q4.73091 27.7846 4.6967 27.8974Q4.66248 28.0102 4.61738 28.119Q4.57228 28.2279 4.51673 28.3319Q4.46117 28.4358 4.39569 28.5338Q4.33022 28.6318 4.25545 28.7229Q4.18068 28.814 4.09735 28.8973Q4.01401 28.9807 3.92291 29.0554Q3.8318 29.1302 3.73381 29.1957Q3.63582 29.2611 3.53188 29.3167Q3.42794 29.3723 3.31905 29.4174Q3.21017 29.4625 3.09739 29.4967Q2.98461 29.5309 2.86902 29.5539Q2.75343 29.5769 2.63614 29.5884Q2.51885 29.6 2.401 29.6L2.399 29.6Q2.28114 29.6 2.16386 29.5884Q2.04657 29.5769 1.93098 29.5539Q1.81539 29.5309 1.70261 29.4967Q1.58983 29.4625 1.48094 29.4174Q1.37206 29.3723 1.26812 29.3167Q1.16418 29.2611 1.06619 29.1957Q0.968193 29.1302 0.87709 29.0554Q0.785987 28.9807 0.70265 28.8973Q0.619314 28.814 0.544548 28.7229Q0.469781 28.6318 0.404304 28.5338Q0.338827 28.4358 0.283271 28.3319Q0.227714 28.2279 0.182613 28.119Q0.137512 28.0102 0.1033 27.8974Q0.0690885 27.7846 0.0460961 27.669Q0.0231037 27.5534 0.0115518 27.4361Q0 27.3188 0 27.201L0 2.399Q0 2.28114 0.0115518 2.16386Q0.0231037 2.04657 0.0460961 1.93098Q0.0690885 1.81539 0.1033 1.70261Q0.137512 1.58983 0.182613 1.48094Q0.227714 1.37206 0.283271 1.26812Q0.338827 1.16418 0.404304 1.06619Q0.469781 0.968193 0.544548 0.87709Q0.619314 0.785987 0.70265 0.70265Q0.785987 0.619314 0.87709 0.544548Q0.968193 0.469781 1.06619 0.404304Q1.16418 0.338827 1.26812 0.283271Q1.37206 0.227714 1.48094 0.182613Q1.58983 0.137512 1.70261 0.1033Q1.81539 0.0690885 1.93098 0.0460961Q2.04657 0.0231037 2.16386 0.0115518Q2.28114 0 2.399 0Z" id="Rectangle" fill="#00D168" fill-rule="evenodd" stroke="none" />
        <path d="M26.4 27.599L26.4 27.601Q26.4 27.7188 26.3885 27.8361Q26.3769 27.9534 26.3539 28.069Q26.3309 28.1846 26.2967 28.2974Q26.2625 28.4102 26.2174 28.519Q26.1723 28.6279 26.1167 28.7319Q26.0612 28.8358 25.9957 28.9338Q25.9302 29.0318 25.8555 29.1229Q25.7807 29.214 25.6974 29.2973Q25.614 29.3807 25.5229 29.4554Q25.4318 29.5302 25.3338 29.5957Q25.2358 29.6612 25.1319 29.7167Q25.0279 29.7723 24.9191 29.8174Q24.8102 29.8625 24.6974 29.8967Q24.5846 29.9309 24.469 29.9539Q24.3534 29.9769 24.2362 29.9884Q24.1189 30 24.001 30L2.39901 30Q2.28115 30 2.16386 29.9885Q2.04658 29.9769 1.93099 29.9539Q1.8154 29.9309 1.70261 29.8967Q1.58983 29.8625 1.48095 29.8174Q1.37207 29.7723 1.26813 29.7167Q1.16419 29.6612 1.06619 29.5957Q0.968201 29.5302 0.877098 29.4555Q0.785994 29.3807 0.702658 29.2974Q0.619322 29.214 0.544555 29.1229Q0.469788 29.0318 0.404311 28.9338Q0.338834 28.8358 0.283278 28.7319Q0.227721 28.628 0.182619 28.5191Q0.137518 28.4102 0.103306 28.2974Q0.0690947 28.1846 0.0461022 28.069Q0.0231097 27.9535 0.0115577 27.8362Q5.81575e-06 27.7189 5.72205e-06 27.601L5.72205e-06 27.599Q5.53464e-06 27.4812 0.0115572 27.3639Q0.0231088 27.2466 0.0461011 27.131Q0.0690933 27.0154 0.103305 26.9026Q0.137516 26.7898 0.182617 26.681Q0.227718 26.5721 0.283275 26.4681Q0.338831 26.3642 0.404308 26.2662Q0.469785 26.1682 0.544551 26.0771Q0.619318 25.986 0.702654 25.9027Q0.78599 25.8193 0.877093 25.7446Q0.968197 25.6698 1.06619 25.6043Q1.16418 25.5388 1.26812 25.4833Q1.37206 25.4277 1.48094 25.3826Q1.58983 25.3375 1.70261 25.3033Q1.81539 25.2691 1.93098 25.2461Q2.04657 25.2231 2.16386 25.2116Q2.28115 25.2 2.399 25.2L24.001 25.2Q24.1189 25.2 24.2361 25.2115Q24.3534 25.2231 24.469 25.2461Q24.5846 25.2691 24.6974 25.3033Q24.8102 25.3375 24.9191 25.3826Q25.0279 25.4277 25.1319 25.4833Q25.2358 25.5388 25.3338 25.6043Q25.4318 25.6698 25.5229 25.7445Q25.614 25.8193 25.6974 25.9026Q25.7807 25.986 25.8555 26.0771Q25.9302 26.1682 25.9957 26.2662Q26.0612 26.3642 26.1167 26.4681Q26.1723 26.572 26.2174 26.6809Q26.2625 26.7898 26.2967 26.9026Q26.3309 27.0154 26.3539 27.131Q26.3769 27.2466 26.3885 27.3638Q26.4 27.4811 26.4 27.599Z" id="Rectangle-2" fill="#00A7D1" fill-rule="evenodd" stroke="none" />
      </g>
    </g>
  </g>
</svg>