<?xml version="1.0" encoding="UTF-8" standalone="no"?>
<!-- Generator: Gravit.io -->
<svg xmlns="http://www.w3.org/2000/svg" xmlns:xlink="http://www.w3.org/1999/xlink" style="isolation:isolate" viewBox="0 0 256 256" width="256pt" height="256pt"><defs><clipPath id="_clipPath_4mzeP7UDQYevYCyhAPSWt79mGmAkcIDp"><rect width="256" height="256"/></clipPath></defs><g clip-path="url(#_clipPath_4mzeP7UDQYevYCyhAPSWt79mGmAkcIDp)"><path d="M 43.383 23.46 L 136.473 23.46 C 146.064 23.46 153.85 31.246 153.85 40.836 L 153.85 81.544 C 153.85 91.134 146.064 98.92 136.473 98.92 L 25.15 98.92 L 25.15 41.692 C 25.15 31.63 33.32 23.46 43.383 23.46 Z" style="stroke:none;fill:#00699D;stroke-miterlimit:10;"/><path d="M 30.812 23.46 L 123.895 23.46 C 133.484 23.46 141.27 31.246 141.27 40.836 L 141.27 81.544 C 141.27 91.134 133.484 98.92 123.895 98.92 L 12.58 98.92 L 12.58 41.692 C 12.58 31.63 20.749 23.46 30.812 23.46 Z" style="stroke:none;fill:#0082C3;stroke-miterlimit:10;"/><path d="M 18.232 23.46 L 111.315 23.46 C 120.904 23.46 128.69 31.246 128.69 40.836 L 128.69 81.544 C 128.69 91.134 120.904 98.92 111.315 98.92 L 0 98.92 L 0 41.692 C 0 31.63 8.169 23.46 18.232 23.46 Z" style="stroke:none;fill:#0099E6;stroke-miterlimit:10;"/><path d="M 21.274 61.27 L 236.116 61.27 C 247.858 61.27 257.39 70.802 257.39 82.543 L 257.39 211.267 C 257.39 223.008 247.858 232.54 236.116 232.54 L 21.274 232.54 C 9.532 232.54 0 223.008 0 211.267 L 0 82.543 C 0 70.802 9.532 61.27 21.274 61.27 Z" style="stroke:none;fill:#0082C3;stroke-miterlimit:10;"/><path d="M 20.65 51.76 L 236.74 51.76 C 248.137 51.76 257.39 61.013 257.39 72.409 L 257.39 198.571 C 257.39 209.967 248.137 219.22 236.74 219.22 L 20.65 219.22 C 9.253 219.22 0 209.967 0 198.571 L 0 72.409 C 0 61.013 9.253 51.76 20.65 51.76 Z" style="stroke:none;fill:#00AAFF;stroke-miterlimit:10;"/><circle vector-effect="non-scaling-stroke" cx="233.80522899358334" cy="76.9080860834723" r="7.860294448696379" fill="rgb(0,105,157)"/><circle vector-effect="non-scaling-stroke" cx="213.36846342697245" cy="76.9080860834723" r="7.860294448696379" fill="rgb(0,105,157)"/><circle vector-effect="non-scaling-stroke" cx="192.93169786036157" cy="76.9080860834723" r="7.860294448696379" fill="rgb(0,105,157)"/><defs><filter id="hFvOOJNgIowYz8qOEPk3f7VKzDQcDzZ6" x="-200%" y="-200%" width="400%" height="400%" filterUnits="objectBoundingBox" color-interpolation-filters="sRGB"><feOffset xmlns="http://www.w3.org/2000/svg" in="SourceGraphic" dx="0" dy="0"/><feGaussianBlur xmlns="http://www.w3.org/2000/svg" stdDeviation="3.4348872502712227" result="pf_100_offsetBlur"/><feComposite xmlns="http://www.w3.org/2000/svg" in="SourceGraphic" in2="pf_100_offsetBlur" result="pf_100_inverse" operator="out"/><feFlood xmlns="http://www.w3.org/2000/svg" flood-color="#00699D" flood-opacity="1" result="pf_100_color"/><feComposite xmlns="http://www.w3.org/2000/svg" in="pf_100_color" in2="pf_100_inverse" operator="in" result="pf_100_shadow"/><feComposite xmlns="http://www.w3.org/2000/svg" in="pf_100_shadow" in2="SourceGraphic" operator="over"/></filter></defs><g filter="url(#hFvOOJNgIowYz8qOEPk3f7VKzDQcDzZ6)"><path d=" M 128.609 76.83 L 128.609 76.83 Q 144.196 76.83 155.676 82.025 L 155.676 82.025 L 155.676 82.025 Q 167.156 87.221 173.357 96.774 L 173.357 96.774 L 173.357 96.774 Q 179.558 106.326 179.558 119.399 L 179.558 119.399 L 179.558 119.399 Q 179.558 132.304 173.357 141.94 L 173.357 141.94 L 173.357 141.94 Q 167.156 151.577 155.676 156.689 L 155.676 156.689 L 155.676 156.689 Q 144.196 161.8 128.609 161.8 L 128.609 161.8 L 104.978 161.8 L 104.978 194.146 L 77.828 194.146 L 77.828 76.83 L 128.609 76.83 Z  M 127.101 139.678 L 127.101 139.678 Q 139.335 139.678 145.704 134.399 L 145.704 134.399 L 145.704 134.399 Q 152.073 129.119 152.073 119.399 L 152.073 119.399 L 152.073 119.399 Q 152.073 109.511 145.704 104.232 L 145.704 104.232 L 145.704 104.232 Q 139.335 98.952 127.101 98.952 L 127.101 98.952 L 104.978 98.952 L 104.978 139.678 L 127.101 139.678 Z " fill="rgb(0,139,208)"/></g></g></svg>