<?xml version="1.0" encoding="UTF-8" standalone="no"?>
<!-- Generator: Gravit.io -->
<svg xmlns="http://www.w3.org/2000/svg" xmlns:xlink="http://www.w3.org/1999/xlink" style="isolation:isolate" viewBox="0 0 560 315" width="560pt" height="315pt"><defs><clipPath id="_clipPath_WURwHmJ8RS3CMwFFZAjNJl0BSf82XTuU"><rect width="560" height="315"/></clipPath></defs><g clip-path="url(#_clipPath_WURwHmJ8RS3CMwFFZAjNJl0BSf82XTuU)"><linearGradient id="_lgradient_0" x1="1" y1="0.5" x2="0" y2="0.4999999999999999" gradientTransform="matrix(241,0,0,293.391,334,35.522)" gradientUnits="userSpaceOnUse"><stop offset="0%" stop-opacity="1" style="stop-color:rgb(157,165,255)"/><stop offset="100%" stop-opacity="1" style="stop-color:rgb(127,137,255)"/></linearGradient><path d=" M 405.546 35.522 C 398.546 35.522 391.976 38.246 387.025 43.197 L 341.675 88.547 C 336.745 93.447 333.981 100.116 334 107.067 L 334 313.196 C 334 321.851 341.062 328.913 349.717 328.913 L 559.283 328.913 C 567.938 328.913 575 321.851 575 313.196 L 575 51.239 C 575 42.584 567.938 35.522 559.283 35.522 L 405.546 35.522 Z  M 407.348 46 L 559.283 46 C 562.164 46 564.522 48.358 564.522 51.239 L 564.522 313.196 C 564.522 316.077 562.164 318.435 559.283 318.435 L 349.717 318.435 C 346.836 318.435 344.478 316.077 344.478 313.196 L 344.478 108.87 L 391.631 108.87 C 400.286 108.87 407.348 101.807 407.348 93.152 L 407.348 46 Z  M 396.87 48.62 L 396.87 93.152 C 396.87 96.034 394.512 98.391 391.631 98.391 L 347.098 98.391 C 347.674 97.532 348.324 96.715 349.084 95.955 L 394.433 50.605 C 395.193 49.846 396.005 49.191 396.87 48.62 Z  M 469.4 119.411 C 467.321 119.732 465.639 121.275 465.141 123.319 L 433.706 249.058 C 433.307 250.623 433.655 252.284 434.648 253.557 C 435.641 254.83 437.168 255.571 438.783 255.565 C 441.14 255.565 443.262 253.993 443.859 251.615 L 475.294 125.876 C 475.638 124.526 475.429 123.096 474.714 121.901 C 473.999 120.706 472.837 119.845 471.485 119.51 C 470.806 119.323 470.094 119.288 469.4 119.406 L 469.4 119.411 Z  M 407.348 150.783 C 405.959 150.783 404.626 151.335 403.644 152.318 L 372.209 183.752 C 370.164 185.798 370.164 189.115 372.209 191.161 L 403.644 222.595 C 404.665 223.617 406.001 224.13 407.348 224.13 C 409.467 224.13 411.376 222.854 412.187 220.896 C 412.998 218.939 412.55 216.686 411.052 215.187 L 383.321 187.457 L 411.052 159.726 C 412.55 158.227 412.998 155.974 412.187 154.017 C 411.376 152.06 409.467 150.783 407.348 150.783 Z  M 501.652 150.783 C 499.534 150.783 497.624 152.06 496.813 154.017 C 496.002 155.974 496.45 158.227 497.948 159.726 L 525.679 187.457 L 497.948 215.187 C 496.586 216.503 496.04 218.451 496.519 220.282 C 496.999 222.114 498.429 223.545 500.261 224.024 C 502.093 224.504 504.041 223.957 505.356 222.595 L 536.791 191.161 C 538.836 189.115 538.836 185.798 536.791 183.752 L 505.356 152.318 C 504.374 151.335 503.042 150.783 501.652 150.783 Z " fill="url(#_lgradient_0)"/><linearGradient id="_lgradient_1" x1="0.14644660940672616" y1="0.8535533905932737" x2="0.8535533905932735" y2="0.14644660940672605" gradientTransform="matrix(263,0,0,263,-37,42.797)" gradientUnits="userSpaceOnUse"><stop offset="0%" stop-opacity="1" style="stop-color:rgb(135,255,215)"/><stop offset="100%" stop-opacity="1" style="stop-color:rgb(0,255,149)"/></linearGradient><path d=" M 94.5 42.797 C 22.175 42.797 -37 101.972 -37 174.297 C -37 183.502 -35.869 192.68 -34.528 200.597 L -6.597 200.597 C -9.326 192.097 -10.711 183.223 -10.7 174.297 C -10.7 116.463 36.666 69.097 94.5 69.097 C 152.334 69.097 199.7 116.463 199.7 174.297 C 199.7 183.502 198.214 192.68 195.584 200.597 L 223.528 200.597 C 224.869 192.68 226 183.502 226 174.297 C 226 101.972 166.825 42.797 94.5 42.797 Z  M 66.149 98.684 C 44.034 107.543 26.51 125.067 17.651 147.181 L 34.51 154.151 C 41.44 136.793 55.773 122.88 73.131 115.95 L 66.149 98.684 Z  M 94.5 134.847 C 72.145 134.847 55.05 151.942 55.05 174.297 C 55.05 184.817 59.166 194.022 65.741 200.597 L 123.259 200.597 C 129.834 194.022 133.95 184.817 133.95 174.297 C 133.95 151.942 116.855 134.847 94.5 134.847 Z  M 94.5 161.147 C 102.416 161.147 107.65 166.38 107.65 174.297 C 107.65 182.213 102.416 187.447 94.5 187.447 C 86.584 187.447 81.35 182.213 81.35 174.297 C 81.35 166.38 86.584 161.147 94.5 161.147 Z  M -37 213.747 L -37 279.497 C -37 293.988 -25.191 305.797 -10.7 305.797 L 199.7 305.797 C 214.191 305.797 226 293.988 226 279.497 L 226 213.747 L -37 213.747 Z " fill="url(#_lgradient_1)" fill-opacity="0.77"/><g><linearGradient id="_lgradient_2" x1="0.1464466094067262" y1="0.8535533905932737" x2="0.8535533905932735" y2="0.14644660940672605" gradientTransform="matrix(256.501,0,0,256.502,113.249,97.749)" gradientUnits="userSpaceOnUse"><stop offset="0%" stop-opacity="1" style="stop-color:rgb(104,205,255)"/><stop offset="100%" stop-opacity="1" style="stop-color:rgb(0,170,255)"/></linearGradient><path d=" M 241.5 97.75 C 253.272 97.75 264.63 99.28 275.565 102.322 C 286.509 105.382 296.733 109.666 306.255 115.228 C 315.742 120.759 324.476 127.493 332.238 135.262 C 340.041 143.065 346.728 151.732 352.272 161.245 C 357.875 170.878 362.213 181.193 365.178 191.935 C 368.229 202.879 369.75 214.228 369.75 226 C 369.75 237.772 368.22 249.13 365.178 260.065 C 362.213 270.807 357.875 281.122 352.272 290.755 C 346.741 300.242 340.007 308.976 332.238 316.738 C 324.435 324.541 315.768 331.228 306.255 336.772 C 296.622 342.375 286.307 346.713 275.565 349.678 C 264.471 352.747 253.01 354.286 241.5 354.25 C 229.737 354.25 218.37 352.72 207.435 349.678 C 196.693 346.713 186.378 342.375 176.745 336.772 C 167.258 331.241 158.524 324.507 150.762 316.738 C 142.993 308.976 136.259 300.243 130.728 290.755 C 125.137 281.139 120.803 270.846 117.831 260.128 C 114.75 249.015 113.208 237.532 113.25 226 C 113.25 214.228 114.78 202.87 117.831 191.935 C 120.793 181.193 125.128 170.878 130.728 161.245 C 136.259 151.758 142.993 143.024 150.762 135.262 C 158.523 127.488 167.26 120.754 176.754 115.228 C 186.366 109.635 196.656 105.297 207.372 102.322 C 218.485 99.244 229.968 97.706 241.5 97.75 Z  M 129.288 226 C 129.288 237.106 130.827 247.798 133.914 258.067 L 179.382 258.067 C 178.053 247.43 177.383 236.72 177.375 226 C 177.37 215.282 178.041 204.575 179.382 193.942 L 133.914 193.942 C 130.81 204.344 129.251 215.145 129.288 226 Z  M 204.807 119.917 C 197.796 122.347 191.073 125.47 184.647 129.304 C 178.221 133.147 172.245 137.53 166.737 142.462 C 161.206 147.406 156.172 152.881 151.707 158.806 C 147.213 164.754 143.352 171.154 140.187 177.904 L 181.893 177.904 C 182.917 172.819 184.087 167.765 185.403 162.748 C 186.741 157.638 188.352 152.603 190.227 147.664 C 192.108 142.696 194.25 137.872 196.671 133.201 C 199.101 128.521 201.801 124.093 204.807 119.917 L 204.807 119.917 Z  M 140.178 274.087 C 143.346 280.855 147.189 287.227 151.698 293.194 C 160.649 305.082 171.84 315.104 184.638 322.696 C 191.073 326.53 197.787 329.671 204.798 332.083 C 201.766 327.862 199.047 323.425 196.662 318.808 C 194.227 314.119 192.072 309.289 190.209 304.345 C 188.341 299.401 186.731 294.363 185.385 289.252 C 184.062 284.24 182.892 279.188 181.875 274.105 L 140.178 274.105 L 140.178 274.096 L 140.178 274.087 Z  M 287.463 258.067 C 288.138 252.721 288.66 247.393 289.038 242.092 C 289.801 231.378 289.801 220.622 289.038 209.908 C 288.66 204.598 288.138 199.288 287.463 193.942 L 195.537 193.942 C 194.873 199.249 194.35 204.573 193.971 209.908 C 193.208 220.622 193.208 231.378 193.971 242.092 C 194.349 247.402 194.871 252.712 195.537 258.067 L 287.463 258.067 Z  M 241.5 113.779 C 237.434 113.772 233.453 114.948 230.043 117.163 C 226.497 119.422 223.221 122.383 220.215 126.055 C 217.209 129.736 214.518 133.885 212.133 138.52 C 207.584 147.434 203.913 156.769 201.171 166.393 C 200.077 170.198 199.116 174.041 198.291 177.913 L 284.718 177.913 C 282.877 169.297 280.364 160.838 277.203 152.614 C 275.346 147.807 273.234 143.102 270.876 138.52 C 268.633 134.091 265.927 129.913 262.803 126.055 C 260.022 122.583 256.701 119.58 252.966 117.163 C 249.552 114.949 245.569 113.774 241.5 113.779 L 241.5 113.779 Z  M 241.5 338.221 C 245.595 338.221 249.42 337.096 252.957 334.837 C 256.512 332.578 259.788 329.617 262.794 325.945 C 265.8 322.264 268.491 318.115 270.876 313.48 C 275.425 304.566 279.096 295.231 281.838 285.607 C 282.929 281.802 283.887 277.959 284.709 274.087 L 198.3 274.087 C 200.138 282.703 202.648 291.162 205.806 299.386 C 207.642 304.147 209.757 308.836 212.133 313.48 C 214.518 318.115 217.209 322.264 220.215 325.945 C 223.221 329.617 226.497 332.587 230.043 334.837 C 233.598 337.087 237.414 338.221 241.5 338.221 L 241.5 338.221 Z  M 342.831 177.904 C 339.667 171.154 335.806 164.753 331.311 158.806 C 322.36 146.918 311.169 136.896 298.371 129.304 C 291.993 125.488 285.237 122.342 278.211 119.917 C 281.208 124.093 283.926 128.512 286.347 133.192 C 288.777 137.872 290.919 142.687 292.8 147.655 C 294.672 152.623 296.283 157.645 297.624 162.748 C 298.956 167.842 300.126 172.891 301.125 177.895 L 342.831 177.895 L 342.831 177.904 Z  M 278.193 332.083 C 285.219 329.658 291.975 326.513 298.353 322.696 C 304.732 318.892 310.733 314.486 316.272 309.538 C 321.803 304.594 326.837 299.119 331.302 293.194 C 335.796 287.246 339.657 280.846 342.822 274.096 L 301.107 274.096 C 300.083 279.181 298.913 284.235 297.597 289.252 C 296.26 294.362 294.653 299.397 292.782 304.336 C 290.916 309.278 288.764 314.107 286.338 318.799 C 283.908 323.479 281.208 327.907 278.193 332.083 L 278.193 332.083 Z  M 353.721 226 C 353.721 214.894 352.173 204.202 349.095 193.942 L 303.627 193.942 C 304.952 204.577 305.619 215.283 305.625 226 C 305.633 236.72 304.966 247.431 303.627 258.067 L 349.095 258.067 C 352.173 247.798 353.721 237.106 353.721 226 Z " fill-rule="evenodd" fill="url(#_lgradient_2)"/><rect x="79.5" y="64" width="324" height="324" transform="matrix(1,0,0,1,0,0)" fill="none"/></g></g></svg>