<?xml version="1.0" encoding="UTF-8" standalone="no"?>
<!-- Created with Inkscape (http://www.inkscape.org/) -->

<svg
   width="16"
   height="16"
   viewBox="0 0 4.2333334 4.2333334"
   version="1.1"
   id="svg26107"
   inkscape:version="1.2 (dc2aedaf03, 2022-05-15)"
   inkscape:export-filename="lumos_chat.png"
   inkscape:export-xdpi="768"
   inkscape:export-ydpi="768"
   sodipodi:docname="lumos_chat.svg"
   xmlns:inkscape="http://www.inkscape.org/namespaces/inkscape"
   xmlns:sodipodi="http://sodipodi.sourceforge.net/DTD/sodipodi-0.dtd"
   xmlns:xlink="http://www.w3.org/1999/xlink"
   xmlns="http://www.w3.org/2000/svg"
   xmlns:svg="http://www.w3.org/2000/svg">
  <sodipodi:namedview
     id="namedview26109"
     pagecolor="#ffffff"
     bordercolor="#828282"
     borderopacity="1"
     inkscape:showpageshadow="false"
     inkscape:pageopacity="0"
     inkscape:pagecheckerboard="false"
     inkscape:deskcolor="#ffffff"
     inkscape:document-units="mm"
     showgrid="false"
     shape-rendering="auto" />
  <defs
     id="defs26104">
    <inkscape:path-effect
       effect="fillet_chamfer"
       id="path-effect4706"
       is_visible="true"
       lpeversion="1"
       nodesatellites_param="F,0,0,1,0,0.79375,0,1 @ F,0,0,1,0,0.79375,0,1 @ F,0,0,1,0,0.79375,0,1 @ F,0,0,1,0,0.79375,0,1 @ F,0,0,1,0,0.79375,0,1 @ F,0,0,1,0,0.79375,0,1"
       unit="px"
       method="auto"
       mode="F"
       radius="3"
       chamfer_steps="1"
       flexible="false"
       use_knot_distance="true"
       apply_no_radius="true"
       apply_with_radius="true"
       only_selected="false"
       hide_knots="false" />
    <linearGradient
       inkscape:collect="always"
       id="linearGradient3282">
      <stop
         style="stop-color:#1368d1;stop-opacity:1;"
         offset="0"
         id="stop3278" />
      <stop
         style="stop-color:#1f1f1f;stop-opacity:1;"
         offset="1"
         id="stop3280" />
    </linearGradient>
    <linearGradient
       inkscape:collect="always"
       id="linearGradient2399">
      <stop
         style="stop-color:#1177f5;stop-opacity:1;"
         offset="0"
         id="stop2395" />
      <stop
         style="stop-color:#1f1f1f;stop-opacity:1;"
         offset="1"
         id="stop2397" />
    </linearGradient>
    <linearGradient
       inkscape:collect="always"
       xlink:href="#linearGradient2399"
       id="linearGradient2401"
       x1="1.0803384"
       y1="2.3889964"
       x2="4.1269808"
       y2="3.9787757"
       gradientUnits="userSpaceOnUse"
       gradientTransform="translate(-2.8813099,-0.15519936)" />
    <linearGradient
       inkscape:collect="always"
       xlink:href="#linearGradient3282"
       id="linearGradient3284"
       x1="1.3538623"
       y1="0.94361603"
       x2="4.0810075"
       y2="1.2000325"
       gradientUnits="userSpaceOnUse"
       gradientTransform="translate(-2.8813099,-0.15519936)" />
  </defs>
  <g
     inkscape:label="Ebene 1"
     inkscape:groupmode="layer"
     id="layer1">
    <g
       id="g1633"
       transform="matrix(1.4094174,0,0,1.4094174,-0.86660009,-0.68015845)">
      <path
         style="fill:none;fill-opacity:1;stroke:url(#linearGradient3284);stroke-width:0.324;stroke-linecap:square;stroke-linejoin:round;stroke-miterlimit:0;stroke-dasharray:none;stroke-opacity:1"
         id="path1000"
         sodipodi:type="arc"
         sodipodi:cx="-0.76464337"
         sodipodi:cy="1.0888188"
         sodipodi:rx="0.60080427"
         sodipodi:ry="0.60080427"
         sodipodi:start="3.1415927"
         sodipodi:end="0"
         sodipodi:arc-type="arc"
         d="M -1.3654476,1.0888188 A 0.60080427,0.60080427 0 0 1 -0.76464337,0.48801452 0.60080427,0.60080427 0 0 1 -0.1638391,1.0888188"
         sodipodi:open="true" />
      <path
         id="rect736"
         style="fill:url(#linearGradient2401);fill-opacity:1;stroke-width:0.786328;stroke-linecap:round;stroke-linejoin:round;stroke-miterlimit:0"
         d="m -1.5401102,1.1365807 c -0.1445115,0 -0.2606889,0.1165439 -0.2606889,0.2610555 v 1.6726619 c 0,0.1445116 0.1161774,0.2606889 0.2606889,0.2606889 h 1.55093377 c 0.1445116,0 0.2606889,-0.1161773 0.2606889,-0.2606889 V 1.3976362 c 0,-0.1445116 -0.1161773,-0.2610555 -0.2606889,-0.2610555 z m 0.77546687,0.6339396 a 0.28273138,0.28273138 0 0 1 0.2826879,0.2826879 0.28273138,0.28273138 0 0 1 -0.1477603,0.2485894 l 0.009166,0.023832 0.1437272,0.3714175 h -0.2878211 -0.28782097 l 0.14372717,-0.3714175 0.009166,-0.023832 A 0.28273138,0.28273138 0 0 1 -1.0473312,2.0532082 0.28273138,0.28273138 0 0 1 -0.76464333,1.7705203 Z" />
      <g
         id="g4726"
         transform="matrix(1.0070673,0,0,1.0070673,-3.8505915,-0.19940687)">
        <path
           id="path4703"
           style="fill:#00b926;fill-opacity:1;stroke-width:0.229883;stroke-linecap:square;stroke-linejoin:round;stroke-miterlimit:0"
           inkscape:transform-center-x="-0.14313894"
           inkscape:transform-center-y="0.14265701"
           transform="matrix(0.12090618,0.06980522,0.12079697,-0.20922649,1.178475,5.940692)"
           d="M 15.253726,22.636949 H 12.871291 8.9013565 a 0.45827181,0.45827181 59.999998 0 1 -0.396875,-0.687408 l 1.1912175,-2.063249 1.984967,-3.438064 a 0.45827185,0.45827185 179.99999 0 1 0.79375,0 l 1.191218,2.063248 1.984967,3.438065 a 0.45827186,0.45827186 120 0 1 -0.396875,0.687408 z"
           inkscape:path-effect="#path-effect4706"
           inkscape:original-d="M 16.047476,22.636949 H 12.077541 8.1076065 l 1.9849675,-3.438065 1.984967,-3.438064 1.984968,3.438064 z" />
        <rect
           style="fill:#00d42b;fill-opacity:1;stroke:none;stroke-width:0.278138;stroke-linecap:square;stroke-linejoin:round;stroke-miterlimit:0;stroke-dasharray:none;stroke-opacity:1"
           id="rect4025"
           width="2.9825268"
           height="1.6135587"
           x="4.4341183"
           y="0.94143158"
           ry="0.32829353" />
      </g>
    </g>
  </g>
</svg>
