<?xml version="1.0" encoding="UTF-8" standalone="no"?>
<!-- Created with Inkscape (http://www.inkscape.org/) -->

<svg
   width="16"
   height="16"
   viewBox="0 0 4.2333334 4.2333334"
   version="1.1"
   id="svg26107"
   inkscape:version="1.2 (dc2aedaf03, 2022-05-15)"
   inkscape:export-filename="lumos_admin.svg"
   inkscape:export-xdpi="768"
   inkscape:export-ydpi="768"
   xmlns:inkscape="http://www.inkscape.org/namespaces/inkscape"
   xmlns:sodipodi="http://sodipodi.sourceforge.net/DTD/sodipodi-0.dtd"
   xmlns="http://www.w3.org/2000/svg"
   xmlns:svg="http://www.w3.org/2000/svg">
  <sodipodi:namedview
     id="namedview26109"
     pagecolor="#ffffff"
     bordercolor="#828282"
     borderopacity="1"
     inkscape:showpageshadow="false"
     inkscape:pageopacity="0"
     inkscape:pagecheckerboard="false"
     inkscape:deskcolor="#ffffff"
     inkscape:document-units="mm"
     showgrid="false"
     shape-rendering="auto" />
  <defs
     id="defs26104" />
  <g
     inkscape:label="Ebene 1"
     inkscape:groupmode="layer"
     id="layer1">
    <g
       id="g3431"
       transform="matrix(1.5929798,0,0,1.5929798,-1.4171941,-0.97133526)">
      <path
         style="fill:#1b9977;fill-opacity:1;stroke-width:0.324001;stroke-linecap:square;stroke-linejoin:round;stroke-miterlimit:0"
         id="path790"
         sodipodi:type="arc"
         sodipodi:cx="2.2191262"
         sodipodi:cy="1.9392364"
         sodipodi:rx="1.3294765"
         sodipodi:ry="1.3294765"
         sodipodi:start="0"
         sodipodi:end="6.2542133"
         sodipodi:arc-type="slice"
         d="M 3.5486027,1.9392364 A 1.3294765,1.3294765 0 0 1 2.2287555,3.268678 1.3294765,1.3294765 0 0 1 0.88978924,1.9584945 1.3294765,1.3294765 0 0 1 2.1902403,0.61007377 1.3294765,1.3294765 0 0 1 3.5480448,1.9007242 l -1.3289186,0.038512 z" />
      <path
         style="fill:#1b6799;fill-opacity:1;stroke-width:0.324001;stroke-linecap:square;stroke-linejoin:round;stroke-miterlimit:0"
         id="path790-4"
         sodipodi:type="arc"
         sodipodi:cx="2.2191262"
         sodipodi:cy="1.9392364"
         sodipodi:rx="1.3294765"
         sodipodi:ry="1.3294765"
         sodipodi:start="4.3809355"
         sodipodi:end="0.046862403"
         sodipodi:arc-type="slice"
         d="M 1.786491,0.68212286 A 1.3294765,1.3294765 0 0 1 3.0163882,0.87533744 1.3294765,1.3294765 0 0 1 3.5471431,2.0015161 l -1.3280169,-0.06228 z" />
      <path
         style="fill:#3bcb7f;fill-opacity:1;stroke-width:0.324001;stroke-linecap:square;stroke-linejoin:round;stroke-miterlimit:0"
         id="path790-4-4"
         sodipodi:type="arc"
         sodipodi:cx="-2.2191262"
         sodipodi:cy="-1.9392364"
         sodipodi:rx="1.3294765"
         sodipodi:ry="1.3294765"
         sodipodi:start="5.2359878"
         sodipodi:end="1.3107012"
         sodipodi:arc-type="slice"
         d="m -1.5543879,-3.0905968 a 1.3294765,1.3294765 0 0 1 0.65321594,1.3260151 1.3294765,1.3294765 0 0 1 -0.97604954,1.11010552 L -2.2191262,-1.9392364 Z"
         transform="scale(-1)" />
    </g>
  </g>
</svg>
