<?xml version="1.0" encoding="UTF-8" standalone="no"?>
<!-- Created with Inkscape (http://www.inkscape.org/) -->

<svg
   width="16"
   height="16"
   viewBox="0 0 4.2333334 4.2333334"
   version="1.1"
   id="svg26107"
   inkscape:version="1.2 (dc2aedaf03, 2022-05-15)"
   inkscape:export-filename="lumos_lock.png"
   inkscape:export-xdpi="768"
   inkscape:export-ydpi="768"
   sodipodi:docname="lumos_vprotection.svg"
   xmlns:inkscape="http://www.inkscape.org/namespaces/inkscape"
   xmlns:sodipodi="http://sodipodi.sourceforge.net/DTD/sodipodi-0.dtd"
   xmlns="http://www.w3.org/2000/svg"
   xmlns:svg="http://www.w3.org/2000/svg">
  <sodipodi:namedview
     id="namedview26109"
     pagecolor="#ffffff"
     bordercolor="#828282"
     borderopacity="1"
     inkscape:showpageshadow="false"
     inkscape:pageopacity="0"
     inkscape:pagecheckerboard="false"
     inkscape:deskcolor="#ffffff"
     inkscape:document-units="mm"
     showgrid="false"
     shape-rendering="auto" />
  <defs
     id="defs26104" />
  <g
     inkscape:label="Ebene 1"
     inkscape:groupmode="layer"
     id="layer1">
    <g
       id="g1633"
       transform="matrix(1.4094174,0,0,1.4094174,-0.86660009,-0.68015845)">
      <path
         style="fill:none;fill-opacity:1;stroke:#006bd1;stroke-width:0.324;stroke-linecap:square;stroke-linejoin:round;stroke-miterlimit:0;stroke-dasharray:none;stroke-opacity:1"
         id="path1000"
         sodipodi:type="arc"
         sodipodi:cx="2.1166663"
         sodipodi:cy="1.2447019"
         sodipodi:rx="0.60080427"
         sodipodi:ry="0.60080427"
         sodipodi:start="3.1415927"
         sodipodi:end="0"
         sodipodi:arc-type="arc"
         d="M 1.515862,1.2447019 A 0.60080427,0.60080427 0 0 1 2.1166663,0.64389759 0.60080427,0.60080427 0 0 1 2.7174706,1.2447019"
         sodipodi:open="true" />
      <path
         id="rect736"
         style="fill:#0080f0;fill-opacity:1;stroke-width:0.786328;stroke-linecap:round;stroke-linejoin:round;stroke-miterlimit:0"
         d="m 1.3411997,1.2924638 c -0.1445115,0 -0.2606889,0.1165439 -0.2606889,0.2610555 v 1.6726619 c 0,0.1445116 0.1161774,0.2606889 0.2606889,0.2606889 h 1.5509338 c 0.1445116,0 0.2606889,-0.1161773 0.2606889,-0.2606889 V 1.5535193 c 0,-0.1445116 -0.1161773,-0.2610555 -0.2606889,-0.2610555 z M 2.1166666,1.9264034 A 0.28273138,0.28273138 0 0 1 2.3993545,2.2090913 0.28273138,0.28273138 0 0 1 2.2515942,2.4576807 l 0.00917,0.023832 0.1437272,0.3714175 H 2.1166663 1.8288453 l 0.1437272,-0.3714175 0.00917,-0.023832 A 0.28273138,0.28273138 0 0 1 1.8339787,2.2090913 0.28273138,0.28273138 0 0 1 2.1166666,1.9264034 Z" />
      <g
         id="g3833"
         transform="matrix(0.88013327,0,0,0.88013327,-1.0680685,-0.54831636)" />
    </g>
  </g>
</svg>
