<?xml version="1.0" encoding="UTF-8" standalone="no"?>
<!-- Created with Inkscape (http://www.inkscape.org/) -->

<svg
   width="512"
   height="512"
   viewBox="0 0 135.46667 135.46667"
   version="1.1"
   id="svg26107"
   xmlns:xlink="http://www.w3.org/1999/xlink"
   xmlns="http://www.w3.org/2000/svg"
   xmlns:svg="http://www.w3.org/2000/svg">
  <defs
     id="defs26104">
    <linearGradient
       id="linearGradient1">
      <stop
         style="stop-color:#ffbf00;stop-opacity:1;"
         offset="0"
         id="stop1" />
      <stop
         style="stop-color:#cb9c00;stop-opacity:1;"
         offset="1"
         id="stop2" />
    </linearGradient>
    <linearGradient
       xlink:href="#linearGradient1"
       id="linearGradient2"
       x1="-40.290985"
       y1="-55.498413"
       x2="-19.320824"
       y2="-76.468575"
       gradientUnits="userSpaceOnUse" />
  </defs>
  <g
     id="layer1">
    <g
       id="g399"
       transform="matrix(1.0604005,0,0,1.0604005,-4.0911275,-5.1277551)">
      <g
         id="g1">
        <path
           style="fill:none;fill-opacity:1;stroke:url(#linearGradient2);stroke-width:11.9097;stroke-linecap:round;stroke-linejoin:round;stroke-miterlimit:0;stroke-dasharray:none;stroke-opacity:1"
           id="path1"
           d="m 8.4010029,-75.667305 a 28.523109,28.523109 0 0 1 -28.4886599,28.523089 28.523109,28.523109 0 0 1 -28.557476,-28.454191 28.523109,28.523109 0 0 1 28.419679,-28.591823"
           transform="rotate(135)" />
        <rect
           style="fill:#ffbf00;fill-opacity:1;stroke:none;stroke-width:0.499999;stroke-linecap:round;stroke-linejoin:round;stroke-miterlimit:0;stroke-opacity:1"
           id="rect1"
           width="92.17659"
           height="92.17659"
           x="21.645039"
           y="40.409561"
           ry="8" />
      </g>
      <path
         id="path254"
         style="stroke-width:0.151142"
         d="m 67.733044,70.585247 c -5.912024,-6.1e-5 -10.704682,4.792597 -10.70462,10.704621 0.0011,3.280848 1.506676,6.380004 4.085017,8.408826 l -0.359932,0.623071 -6.978956,12.088705 h 13.958491 13.95907 l -6.979536,-12.088705 -0.35993,-0.623071 c 2.578341,-2.028822 4.083915,-5.127978 4.085017,-8.408826 6.2e-5,-5.912025 -4.792596,-10.704683 -10.704621,-10.704621 z" />
    </g>
  </g>
</svg>
