<?xml version="1.0" encoding="utf-8"?>
<svg width="1200px" height="900px" viewBox="0 0 1200 900" version="1.1" xmlns:xlink="http://www.w3.org/1999/xlink" xmlns="http://www.w3.org/2000/svg">
  <defs>
    <linearGradient gradientUnits="userSpaceOnUse" x1="600" y1="54" x2="600" y2="0" id="gradient_1">
      <stop offset="0%" stop-color="#2B5F9E" />
      <stop offset="100%" stop-color="#236CC6" />
    </linearGradient>
    <path d="M19.999 0L384.001 0Q384.492 0 384.982 0.0240897Q385.473 0.0481793 385.961 0.0963006Q386.45 0.144422 386.935 0.216459Q387.421 0.288496 387.903 0.384275Q388.384 0.480054 388.86 0.599345Q389.337 0.718635 389.806 0.86115Q390.276 1.00366 390.738 1.16906Q391.201 1.33446 391.654 1.52233Q392.108 1.71021 392.552 1.92012Q392.995 2.13003 393.428 2.36146Q393.861 2.59289 394.283 2.84529Q394.704 3.09768 395.112 3.37044Q395.52 3.64319 395.914 3.93565Q396.309 4.22811 396.688 4.53956Q397.068 4.85102 397.432 5.18072Q397.795 5.51042 398.142 5.85757Q398.49 6.20472 398.819 6.56849Q399.149 6.93226 399.46 7.31177Q399.772 7.69128 400.064 8.08561Q400.357 8.47994 400.63 8.88815Q400.902 9.29636 401.155 9.71746Q401.407 10.1386 401.639 10.5715Q401.87 11.0045 402.08 11.4483Q402.29 11.8921 402.478 12.3457Q402.665 12.7993 402.831 13.2615Q402.996 13.7238 403.139 14.1936Q403.281 14.6634 403.401 15.1396Q403.52 15.6159 403.616 16.0974Q403.712 16.5789 403.784 17.0645Q403.856 17.5502 403.904 18.0388Q403.952 18.5273 403.976 19.0177Q404 19.5081 404 19.999L404 715.001Q404 715.492 403.976 715.982Q403.952 716.473 403.904 716.961Q403.856 717.45 403.784 717.935Q403.712 718.421 403.616 718.903Q403.52 719.384 403.401 719.86Q403.281 720.337 403.139 720.806Q402.996 721.276 402.831 721.738Q402.665 722.201 402.478 722.654Q402.29 723.108 402.08 723.552Q401.87 723.995 401.638 724.428Q401.407 724.861 401.155 725.282Q400.902 725.704 400.63 726.112Q400.357 726.52 400.064 726.914Q399.772 727.309 399.46 727.688Q399.149 728.068 398.819 728.432Q398.49 728.795 398.142 729.142Q397.795 729.49 397.431 729.819Q397.068 730.149 396.688 730.46Q396.309 730.772 395.914 731.064Q395.52 731.357 395.112 731.629Q394.704 731.902 394.283 732.155Q393.861 732.407 393.428 732.639Q392.995 732.87 392.552 733.08Q392.108 733.29 391.654 733.478Q391.201 733.665 390.738 733.831Q390.276 733.996 389.806 734.139Q389.337 734.281 388.86 734.401Q388.384 734.52 387.903 734.616Q387.421 734.711 386.935 734.783Q386.45 734.856 385.961 734.904Q385.473 734.952 384.982 734.976Q384.492 735 384.001 735L19.999 735Q19.5081 735 19.0177 734.976Q18.5273 734.952 18.0388 734.904Q17.5502 734.856 17.0645 734.784Q16.5789 734.711 16.0974 734.616Q15.6159 734.52 15.1396 734.401Q14.6634 734.281 14.1936 734.139Q13.7238 733.996 13.2615 733.831Q12.7993 733.665 12.3457 733.478Q11.8921 733.29 11.4483 733.08Q11.0045 732.87 10.5715 732.639Q10.1386 732.407 9.71746 732.155Q9.29636 731.902 8.88815 731.629Q8.47994 731.357 8.08561 731.064Q7.69128 730.772 7.31177 730.46Q6.93226 730.149 6.56849 729.819Q6.20472 729.49 5.85757 729.142Q5.51042 728.795 5.18072 728.432Q4.85102 728.068 4.53956 727.688Q4.22811 727.309 3.93565 726.914Q3.64319 726.52 3.37044 726.112Q3.09768 725.704 2.84529 725.283Q2.59289 724.861 2.36146 724.429Q2.13003 723.995 1.92012 723.552Q1.71021 723.108 1.52233 722.654Q1.33446 722.201 1.16906 721.738Q1.00366 721.276 0.86115 720.806Q0.718635 720.337 0.599345 719.86Q0.480054 719.384 0.384275 718.903Q0.288496 718.421 0.216459 717.935Q0.144422 717.45 0.0963006 716.961Q0.0481793 716.473 0.0240897 715.982Q0 715.492 0 715.001L0 19.999Q0 19.5081 0.0240897 19.0177Q0.0481793 18.5273 0.0963006 18.0388Q0.144422 17.5502 0.216459 17.0645Q0.288496 16.5789 0.384275 16.0974Q0.480054 15.6159 0.599345 15.1396Q0.718635 14.6634 0.86115 14.1936Q1.00366 13.7238 1.16906 13.2615Q1.33446 12.7993 1.52233 12.3457Q1.71021 11.8921 1.92012 11.4483Q2.13003 11.0045 2.36146 10.5715Q2.59289 10.1386 2.84529 9.71746Q3.09768 9.29636 3.37044 8.88815Q3.64319 8.47994 3.93565 8.08561Q4.22811 7.69128 4.53956 7.31177Q4.85102 6.93226 5.18072 6.56849Q5.51042 6.20472 5.85757 5.85757Q6.20472 5.51042 6.56849 5.18072Q6.93226 4.85102 7.31177 4.53956Q7.69128 4.22811 8.08561 3.93565Q8.47994 3.64319 8.88815 3.37044Q9.29636 3.09768 9.71746 2.84529Q10.1386 2.59289 10.5715 2.36146Q11.0045 2.13003 11.4483 1.92012Q11.8921 1.71021 12.3457 1.52233Q12.7993 1.33446 13.2615 1.16906Q13.7238 1.00366 14.1936 0.86115Q14.6634 0.718635 15.1396 0.599345Q15.6159 0.480054 16.0974 0.384275Q16.5789 0.288496 17.0645 0.216459Q17.5502 0.144422 18.0388 0.0963006Q18.5273 0.0481793 19.0177 0.0240897Q19.5081 0 19.999 0L19.999 0Z" id="path_1" />
    <path d="M74.7005 0C250.631 -6.53053e-06 250.631 -6.53053e-06 250.631 -6.53053e-06C268.152 0.00325085 285.674 -0.00227186 303.196 0.00976563C304.652 0.0107664 306.109 0.0229948 307.566 0.0391083C308.471 0.0491182 309.376 0.065481 310.28 0.0881348C310.945 0.104789 311.61 0.127689 312.275 0.157028C312.803 0.180337 313.331 0.209921 313.858 0.246071C314.296 0.276115 314.734 0.312495 315.171 0.355591C315.546 0.392495 315.92 0.43583 316.292 0.486038C318.374 0.766382 320.605 1.27669 322.201 2.73581C322.477 2.9881 322.729 3.26422 322.956 3.56151C323.32 4.03947 323.617 4.56677 323.856 5.11767C324.394 6.35818 324.665 7.70435 324.845 9.03845C325.024 10.3702 325.115 11.7139 325.174 13.0557C325.307 16.0779 325.319 19.1101 325.321 22.1341C325.333 39.6563 325.328 57.1784 325.331 74.7005C325.331 74.7005 325.331 74.7005 325.331 74.7005C325.328 92.2223 325.333 109.744 325.321 127.266C325.32 128.722 325.308 130.179 325.292 131.636C325.275 133.161 325.242 134.81 325.174 136.345C325.115 137.687 325.024 139.031 324.845 140.362C324.589 142.267 324.146 144.28 322.956 145.839C322.728 146.137 322.477 146.412 322.201 146.665C320.605 148.124 318.374 148.635 316.293 148.915C315.92 148.965 315.546 149.009 315.172 149.045C314.735 149.089 314.297 149.125 313.858 149.155C313.331 149.191 312.803 149.221 312.275 149.244C311.611 149.273 310.946 149.296 310.281 149.313C309.376 149.336 308.471 149.352 307.567 149.362C306.11 149.378 304.654 149.39 303.197 149.391C285.675 149.403 268.153 149.398 250.631 149.401C74.7005 149.401 74.7005 149.401 74.7005 149.401C57.1788 149.398 39.6571 149.403 22.1354 149.391C19.1111 149.389 16.0786 149.377 13.0561 149.244C12.1012 149.202 11.1129 149.139 10.1596 149.046C8.90556 148.922 7.64705 148.74 6.43327 148.392C5.41033 148.099 4.41196 147.674 3.5616 147.026C3.26403 146.799 2.98844 146.547 2.73589 146.271C1.27678 144.675 0.766443 142.444 0.486076 140.363C0.435865 139.99 0.392521 139.616 0.355614 139.242C0.312514 138.805 0.276131 138.367 0.246086 137.928C0.209937 137.401 0.180361 136.873 0.157051 136.345C0.12771 135.681 0.104799 135.016 0.0881424 134.351C0.0654858 133.446 0.0491272 132.541 0.0391159 131.637C0.0230012 130.18 0.0107664 128.723 0.00976563 127.267C-0.00227335 109.745 0.00325303 92.2227 -3.26526e-06 74.7005C-3.26526e-06 74.7005 -3.26526e-06 74.7005 -3.26526e-06 74.7005C0.00325303 57.1788 -0.00227086 39.6571 0.00976563 22.1354C0.0118431 19.1111 0.0236085 16.0786 0.157028 13.0561C0.216261 11.7142 0.306675 10.3705 0.486046 9.03867C0.604272 8.16085 0.764967 7.28556 1.00894 6.43326C1.30176 5.41034 1.72659 4.41193 2.37544 3.5616C2.60252 3.26401 2.85386 2.98847 3.13018 2.73589C4.72646 1.27679 6.95689 0.766434 9.03848 0.486069C9.41127 0.435858 9.78504 0.39252 10.1594 0.355614C10.5965 0.312515 11.0344 0.276131 11.4726 0.246086C11.9999 0.209937 12.5277 0.180361 13.0557 0.157051C13.7203 0.12771 14.3853 0.104799 15.0503 0.0881424C15.9549 0.0654861 16.8597 0.0491271 17.7645 0.0391159C19.221 0.0230011 20.6776 0.0107663 22.1341 0.00976563C39.6563 -0.00227234 57.1784 0.00325521 74.7005 0Z" id="path_2" />
    <rect width="1200" height="900" id="artboard_1" />
    <clipPath id="clip_1">
      <use xlink:href="#artboard_1" clip-rule="evenodd" />
    </clipPath>
    <clipPath id="mask_1">
      <use xlink:href="#path_1" />
    </clipPath>
    <clipPath id="mask_2">
      <use xlink:href="#path_2" />
    </clipPath>
  </defs>
  <g id="Artboard" clip-path="url(#clip_1)">
    <use xlink:href="#artboard_1" stroke="none" fill="#D8D8D8" />
    <path d="M0 846L1200 846L1200 900L0 900L0 846Z" id="Rectangle" fill="url(#gradient_1)" fill-rule="evenodd" stroke="none" />
    <g id="Group-4" transform="translate(398 45)">
      <g id="Group-3">
        <g id="Group-2">
          <g id="Rectangle-3-+-Rectangle-4-Mask-2" transform="scale(0.99999994 0.99999994)">
            <path d="M19.999 0L384.001 0Q384.492 0 384.982 0.0240897Q385.473 0.0481793 385.961 0.0963006Q386.45 0.144422 386.935 0.216459Q387.421 0.288496 387.903 0.384275Q388.384 0.480054 388.86 0.599345Q389.337 0.718635 389.806 0.86115Q390.276 1.00366 390.738 1.16906Q391.201 1.33446 391.654 1.52233Q392.108 1.71021 392.552 1.92012Q392.995 2.13003 393.428 2.36146Q393.861 2.59289 394.283 2.84529Q394.704 3.09768 395.112 3.37044Q395.52 3.64319 395.914 3.93565Q396.309 4.22811 396.688 4.53956Q397.068 4.85102 397.432 5.18072Q397.795 5.51042 398.142 5.85757Q398.49 6.20472 398.819 6.56849Q399.149 6.93226 399.46 7.31177Q399.772 7.69128 400.064 8.08561Q400.357 8.47994 400.63 8.88815Q400.902 9.29636 401.155 9.71746Q401.407 10.1386 401.639 10.5715Q401.87 11.0045 402.08 11.4483Q402.29 11.8921 402.478 12.3457Q402.665 12.7993 402.831 13.2615Q402.996 13.7238 403.139 14.1936Q403.281 14.6634 403.401 15.1396Q403.52 15.6159 403.616 16.0974Q403.712 16.5789 403.784 17.0645Q403.856 17.5502 403.904 18.0388Q403.952 18.5273 403.976 19.0177Q404 19.5081 404 19.999L404 715.001Q404 715.492 403.976 715.982Q403.952 716.473 403.904 716.961Q403.856 717.45 403.784 717.935Q403.712 718.421 403.616 718.903Q403.52 719.384 403.401 719.86Q403.281 720.337 403.139 720.806Q402.996 721.276 402.831 721.738Q402.665 722.201 402.478 722.654Q402.29 723.108 402.08 723.552Q401.87 723.995 401.638 724.428Q401.407 724.861 401.155 725.282Q400.902 725.704 400.63 726.112Q400.357 726.52 400.064 726.914Q399.772 727.309 399.46 727.688Q399.149 728.068 398.819 728.432Q398.49 728.795 398.142 729.142Q397.795 729.49 397.431 729.819Q397.068 730.149 396.688 730.46Q396.309 730.772 395.914 731.064Q395.52 731.357 395.112 731.629Q394.704 731.902 394.283 732.155Q393.861 732.407 393.428 732.639Q392.995 732.87 392.552 733.08Q392.108 733.29 391.654 733.478Q391.201 733.665 390.738 733.831Q390.276 733.996 389.806 734.139Q389.337 734.281 388.86 734.401Q388.384 734.52 387.903 734.616Q387.421 734.711 386.935 734.783Q386.45 734.856 385.961 734.904Q385.473 734.952 384.982 734.976Q384.492 735 384.001 735L19.999 735Q19.5081 735 19.0177 734.976Q18.5273 734.952 18.0388 734.904Q17.5502 734.856 17.0645 734.784Q16.5789 734.711 16.0974 734.616Q15.6159 734.52 15.1396 734.401Q14.6634 734.281 14.1936 734.139Q13.7238 733.996 13.2615 733.831Q12.7993 733.665 12.3457 733.478Q11.8921 733.29 11.4483 733.08Q11.0045 732.87 10.5715 732.639Q10.1386 732.407 9.71746 732.155Q9.29636 731.902 8.88815 731.629Q8.47994 731.357 8.08561 731.064Q7.69128 730.772 7.31177 730.46Q6.93226 730.149 6.56849 729.819Q6.20472 729.49 5.85757 729.142Q5.51042 728.795 5.18072 728.432Q4.85102 728.068 4.53956 727.688Q4.22811 727.309 3.93565 726.914Q3.64319 726.52 3.37044 726.112Q3.09768 725.704 2.84529 725.283Q2.59289 724.861 2.36146 724.429Q2.13003 723.995 1.92012 723.552Q1.71021 723.108 1.52233 722.654Q1.33446 722.201 1.16906 721.738Q1.00366 721.276 0.86115 720.806Q0.718635 720.337 0.599345 719.86Q0.480054 719.384 0.384275 718.903Q0.288496 718.421 0.216459 717.935Q0.144422 717.45 0.0963006 716.961Q0.0481793 716.473 0.0240897 715.982Q0 715.492 0 715.001L0 19.999Q0 19.5081 0.0240897 19.0177Q0.0481793 18.5273 0.0963006 18.0388Q0.144422 17.5502 0.216459 17.0645Q0.288496 16.5789 0.384275 16.0974Q0.480054 15.6159 0.599345 15.1396Q0.718635 14.6634 0.86115 14.1936Q1.00366 13.7238 1.16906 13.2615Q1.33446 12.7993 1.52233 12.3457Q1.71021 11.8921 1.92012 11.4483Q2.13003 11.0045 2.36146 10.5715Q2.59289 10.1386 2.84529 9.71746Q3.09768 9.29636 3.37044 8.88815Q3.64319 8.47994 3.93565 8.08561Q4.22811 7.69128 4.53956 7.31177Q4.85102 6.93226 5.18072 6.56849Q5.51042 6.20472 5.85757 5.85757Q6.20472 5.51042 6.56849 5.18072Q6.93226 4.85102 7.31177 4.53956Q7.69128 4.22811 8.08561 3.93565Q8.47994 3.64319 8.88815 3.37044Q9.29636 3.09768 9.71746 2.84529Q10.1386 2.59289 10.5715 2.36146Q11.0045 2.13003 11.4483 1.92012Q11.8921 1.71021 12.3457 1.52233Q12.7993 1.33446 13.2615 1.16906Q13.7238 1.00366 14.1936 0.86115Q14.6634 0.718635 15.1396 0.599345Q15.6159 0.480054 16.0974 0.384275Q16.5789 0.288496 17.0645 0.216459Q17.5502 0.144422 18.0388 0.0963006Q18.5273 0.0481793 19.0177 0.0240897Q19.5081 0 19.999 0L19.999 0Z" id="Mask" fill="#3C6CA7" fill-rule="evenodd" stroke="none" />
            <g clip-path="url(#mask_1)">
              <path d="M0 654.964L404 654.964L404 735L0 735L0 654.964Z" id="Rectangle-3" fill="#191919" fill-rule="evenodd" stroke="none" />
              <path d="M0 0L404 0L404 45.3539L0 45.3539L0 0Z" id="Rectangle-4" fill="#191919" fill-rule="evenodd" stroke="none" />
            </g>
          </g>
          <path d="M177.629 691.931C177.629 678.962 188.54 668.448 202 668.448C215.46 668.448 226.371 678.962 226.371 691.931C226.371 704.901 215.46 715.415 202 715.415C188.54 715.415 177.629 704.901 177.629 691.931Z" id="Ellipse-3" fill="#D3D3D3" fill-rule="evenodd" stroke="none" />
          <path d="M189.815 21.6142C189.815 15.1295 195.27 9.87265 202 9.87265C208.73 9.87265 214.186 15.1295 214.186 21.6142C214.186 28.0989 208.73 33.3558 202 33.3558C195.27 33.3558 189.815 28.0989 189.815 21.6142Z" id="Ellipse-4" fill="#B9B9B9" fill-rule="evenodd" stroke="none" />
          <g id="Group-2" transform="translate(38.762817 251.3612)">
            <g id="Group">
              <path d="M74.7005 0C250.631 -6.53053e-06 250.631 -6.53053e-06 250.631 -6.53053e-06C268.152 0.00325085 285.674 -0.00227186 303.196 0.00976563C304.652 0.0107664 306.109 0.0229948 307.566 0.0391083C308.471 0.0491182 309.376 0.065481 310.28 0.0881348C310.945 0.104789 311.61 0.127689 312.275 0.157028C312.803 0.180337 313.331 0.209921 313.858 0.246071C314.296 0.276115 314.734 0.312495 315.171 0.355591C315.546 0.392495 315.92 0.43583 316.292 0.486038C318.374 0.766382 320.605 1.27669 322.201 2.73581C322.477 2.9881 322.729 3.26422 322.956 3.56151C323.32 4.03947 323.617 4.56677 323.856 5.11767C324.394 6.35818 324.665 7.70435 324.845 9.03845C325.024 10.3702 325.115 11.7139 325.174 13.0557C325.307 16.0779 325.319 19.1101 325.321 22.1341C325.333 39.6563 325.328 57.1784 325.331 74.7005C325.331 74.7005 325.331 74.7005 325.331 74.7005C325.328 92.2223 325.333 109.744 325.321 127.266C325.32 128.722 325.308 130.179 325.292 131.636C325.275 133.161 325.242 134.81 325.174 136.345C325.115 137.687 325.024 139.031 324.845 140.362C324.589 142.267 324.146 144.28 322.956 145.839C322.728 146.137 322.477 146.412 322.201 146.665C320.605 148.124 318.374 148.635 316.293 148.915C315.92 148.965 315.546 149.009 315.172 149.045C314.735 149.089 314.297 149.125 313.858 149.155C313.331 149.191 312.803 149.221 312.275 149.244C311.611 149.273 310.946 149.296 310.281 149.313C309.376 149.336 308.471 149.352 307.567 149.362C306.11 149.378 304.654 149.39 303.197 149.391C285.675 149.403 268.153 149.398 250.631 149.401C74.7005 149.401 74.7005 149.401 74.7005 149.401C57.1788 149.398 39.6571 149.403 22.1354 149.391C19.1111 149.389 16.0786 149.377 13.0561 149.244C12.1012 149.202 11.1129 149.139 10.1596 149.046C8.90556 148.922 7.64705 148.74 6.43327 148.392C5.41033 148.099 4.41196 147.674 3.5616 147.026C3.26403 146.799 2.98844 146.547 2.73589 146.271C1.27678 144.675 0.766443 142.444 0.486076 140.363C0.435865 139.99 0.392521 139.616 0.355614 139.242C0.312514 138.805 0.276131 138.367 0.246086 137.928C0.209937 137.401 0.180361 136.873 0.157051 136.345C0.12771 135.681 0.104799 135.016 0.0881424 134.351C0.0654858 133.446 0.0491272 132.541 0.0391159 131.637C0.0230012 130.18 0.0107664 128.723 0.00976563 127.267C-0.00227335 109.745 0.00325303 92.2227 -3.26526e-06 74.7005C-3.26526e-06 74.7005 -3.26526e-06 74.7005 -3.26526e-06 74.7005C0.00325303 57.1788 -0.00227086 39.6571 0.00976563 22.1354C0.0118431 19.1111 0.0236085 16.0786 0.157028 13.0561C0.216261 11.7142 0.306675 10.3705 0.486046 9.03867C0.604272 8.16085 0.764967 7.28556 1.00894 6.43326C1.30176 5.41034 1.72659 4.41193 2.37544 3.5616C2.60252 3.26401 2.85386 2.98847 3.13018 2.73589C4.72646 1.27679 6.95689 0.766434 9.03848 0.486069C9.41127 0.435858 9.78504 0.39252 10.1594 0.355614C10.5965 0.312515 11.0344 0.276131 11.4726 0.246086C11.9999 0.209937 12.5277 0.180361 13.0557 0.157051C13.7203 0.12771 14.3853 0.104799 15.0503 0.0881424C15.9549 0.0654861 16.8597 0.0491271 17.7645 0.0391159C19.221 0.0230011 20.6776 0.0107663 22.1341 0.00976563C39.6563 -0.00227234 57.1784 0.00325521 74.7005 0Z" id="Mask" fill="#104280" fill-rule="evenodd" stroke="none" />
              <g clip-path="url(#mask_2)">
                <path d="M0 0L325.331 0L325.331 29.3466L0 29.3466L0 0Z" id="Rectangle-6" fill="#EBEBEB" fill-rule="evenodd" stroke="none" />
              </g>
            </g>
            <path d="M11.0751 14.6733C11.0751 10.253 14.794 6.66968 19.3815 6.66968C23.9689 6.66968 27.6878 10.253 27.6878 14.6733C27.6878 19.0936 23.9689 22.6769 19.3815 22.6769C14.794 22.6769 11.0751 19.0936 11.0751 14.6733Z" id="Ellipse-5" fill="#104280" fill-rule="evenodd" stroke="none" />
            <path d="M46.0861 10.6714L305.271 10.6714Q305.468 10.6714 305.664 10.6907Q305.859 10.71 306.052 10.7483Q306.245 10.7867 306.433 10.8437Q306.621 10.9008 306.802 10.976Q306.984 11.0512 307.157 11.1439Q307.331 11.2365 307.494 11.3457Q307.658 11.4549 307.809 11.5796Q307.961 11.7043 308.1 11.8433Q308.239 11.9822 308.364 12.1342Q308.489 12.2861 308.598 12.4495Q308.707 12.613 308.8 12.7863Q308.892 12.9596 308.968 13.1412Q309.043 13.3228 309.1 13.5109Q309.157 13.699 309.195 13.8917Q309.234 14.0845 309.253 14.2801Q309.272 14.4757 309.272 14.6723L309.272 14.6743Q309.272 14.8708 309.253 15.0664Q309.234 15.262 309.195 15.4548Q309.157 15.6476 309.1 15.8356Q309.043 16.0237 308.968 16.2053Q308.892 16.3869 308.8 16.5602Q308.707 16.7336 308.598 16.897Q308.489 17.0604 308.364 17.2124Q308.239 17.3643 308.1 17.5033Q307.961 17.6422 307.809 17.7669Q307.658 17.8916 307.494 18.0008Q307.331 18.11 307.157 18.2027Q306.984 18.2953 306.802 18.3705Q306.621 18.4457 306.433 18.5028Q306.245 18.5599 306.052 18.5982Q305.859 18.6365 305.664 18.6558Q305.468 18.6751 305.271 18.6751L46.0861 18.6751Q45.8896 18.6751 45.694 18.6558Q45.4984 18.6365 45.3056 18.5982Q45.1129 18.5599 44.9248 18.5028Q44.7367 18.4457 44.5551 18.3705Q44.3735 18.2953 44.2002 18.2027Q44.0268 18.11 43.8634 18.0008Q43.7 17.8916 43.5481 17.7669Q43.3961 17.6422 43.2571 17.5033Q43.1182 17.3643 42.9935 17.2124Q42.8688 17.0604 42.7596 16.897Q42.6504 16.7336 42.5577 16.5602Q42.4651 16.3869 42.3899 16.2053Q42.3147 16.0237 42.2576 15.8356Q42.2005 15.6476 42.1622 15.4548Q42.1239 15.262 42.1046 15.0664Q42.0853 14.8708 42.0853 14.6743L42.0853 14.6723Q42.0853 14.4757 42.1046 14.2801Q42.1239 14.0845 42.1622 13.8917Q42.2005 13.699 42.2576 13.5109Q42.3147 13.3228 42.3899 13.1412Q42.4651 12.9596 42.5577 12.7863Q42.6504 12.613 42.7596 12.4495Q42.8688 12.2861 42.9935 12.1342Q43.1182 11.9822 43.2571 11.8433Q43.3961 11.7043 43.5481 11.5796Q43.7 11.4549 43.8634 11.3457Q44.0268 11.2365 44.2002 11.1439Q44.3735 11.0512 44.5551 10.976Q44.7367 10.9008 44.9248 10.8437Q45.1129 10.7867 45.3056 10.7483Q45.4984 10.71 45.694 10.6907Q45.8896 10.6714 46.0861 10.6714Z" id="Rectangle-5" fill="#000000" fill-rule="evenodd" stroke="none" />
            <path d="M315.753 111.849L315.518 114.551L314.283 114.551L314.028 111.849L315.753 111.849ZM312.951 118.651C312.951 118.886 312.937 119.135 312.91 119.397L306.865 119.397C306.911 120.13 307.166 120.703 307.631 121.115C308.095 121.526 308.659 121.732 309.321 121.732C309.864 121.732 310.317 121.608 310.681 121.359C311.044 121.11 311.299 120.777 311.447 120.361L312.799 120.361C312.597 121.076 312.192 121.658 311.585 122.106C310.977 122.554 310.223 122.778 309.321 122.778C308.604 122.778 307.962 122.619 307.396 122.302C306.83 121.986 306.386 121.535 306.064 120.952C305.742 120.368 305.581 119.691 305.581 118.922C305.581 118.153 305.738 117.479 306.051 116.899C306.363 116.32 306.803 115.875 307.369 115.562C307.934 115.25 308.585 115.094 309.321 115.094C310.039 115.094 310.674 115.248 311.226 115.555C311.778 115.863 312.203 116.286 312.502 116.825C312.801 117.363 312.951 117.972 312.951 118.651L312.951 118.651ZM311.654 118.393C311.654 117.922 311.548 117.517 311.336 117.178C311.125 116.838 310.837 116.58 310.474 116.404C310.11 116.227 309.708 116.139 309.266 116.139C308.631 116.139 308.091 116.338 307.645 116.737C307.198 117.135 306.943 117.687 306.879 118.393L311.654 118.393ZM304.809 115.216L302.449 122.655L301.151 122.655L299.33 116.75L297.508 122.655L296.211 122.655L293.837 115.216L295.12 115.216L296.859 121.461L298.736 115.216L300.02 115.216L301.855 121.474L303.566 115.216L304.809 115.216ZM293.175 115.963C293.175 116.75 292.901 117.404 292.353 117.924C291.806 118.445 290.971 118.705 289.849 118.705L287.999 118.705L287.999 122.655L286.743 122.655L286.743 113.193L289.849 113.193C290.934 113.193 291.76 113.451 292.326 113.967C292.892 114.483 293.175 115.148 293.175 115.963L293.175 115.963ZM289.849 117.687C290.548 117.687 291.063 117.537 291.394 117.239C291.726 116.94 291.891 116.515 291.891 115.963C291.891 114.795 291.21 114.212 289.849 114.212L287.999 114.212L287.999 117.687L289.849 117.687ZM281.789 113.967L281.789 112.84L284.383 112.84L284.383 122.655L283.114 122.655L283.114 113.967L281.789 113.967ZM275.04 120.022C275.132 120.538 275.346 120.936 275.682 121.216C276.018 121.497 276.471 121.637 277.042 121.637C277.805 121.637 278.369 121.343 278.732 120.755C279.096 120.166 279.268 119.175 279.25 117.782C279.056 118.189 278.734 118.508 278.284 118.739C277.833 118.97 277.331 119.085 276.779 119.085C276.163 119.085 275.613 118.961 275.13 118.712C274.647 118.463 274.268 118.098 273.992 117.619C273.716 117.139 273.578 116.56 273.578 115.881C273.578 114.913 273.863 114.132 274.433 113.539C275.004 112.947 275.813 112.65 276.862 112.65C278.15 112.65 279.054 113.062 279.574 113.886C280.094 114.709 280.354 115.935 280.354 117.565C280.354 118.705 280.25 119.646 280.043 120.388C279.836 121.13 279.487 121.696 278.994 122.085C278.502 122.474 277.828 122.669 276.973 122.669C276.034 122.669 275.303 122.42 274.778 121.922C274.254 121.424 273.955 120.791 273.881 120.022L275.04 120.022ZM276.986 118.04C277.603 118.04 278.109 117.852 278.504 117.476C278.9 117.101 279.098 116.592 279.098 115.949C279.098 115.27 278.905 114.723 278.518 114.307C278.132 113.89 277.589 113.682 276.89 113.682C276.246 113.682 275.733 113.881 275.351 114.279C274.969 114.678 274.778 115.203 274.778 115.854C274.778 116.515 274.967 117.044 275.344 117.442C275.721 117.841 276.269 118.04 276.986 118.04L276.986 118.04ZM272.253 113.193L269.465 122.655L268.057 122.655L265.821 115.04L263.503 122.655L262.109 122.669L259.418 113.193L260.757 113.193L262.854 121.216L265.173 113.193L266.58 113.193L268.789 121.189L270.9 113.193L272.253 113.193ZM258.507 118.651C258.507 118.886 258.493 119.135 258.466 119.397L252.421 119.397C252.467 120.13 252.722 120.703 253.187 121.115C253.651 121.526 254.215 121.732 254.877 121.732C255.42 121.732 255.873 121.608 256.237 121.359C256.6 121.11 256.856 120.777 257.003 120.361L258.355 120.361C258.153 121.076 257.748 121.658 257.141 122.106C256.534 122.554 255.779 122.778 254.877 122.778C254.16 122.778 253.518 122.619 252.952 122.302C252.386 121.986 251.943 121.535 251.62 120.952C251.298 120.368 251.137 119.691 251.137 118.922C251.137 118.153 251.294 117.479 251.607 116.899C251.919 116.32 252.359 115.875 252.925 115.562C253.49 115.25 254.141 115.094 254.877 115.094C255.595 115.094 256.23 115.248 256.782 115.555C257.334 115.863 257.76 116.286 258.059 116.825C258.358 117.363 258.507 117.972 258.507 118.651L258.507 118.651ZM257.21 118.393C257.21 117.922 257.104 117.517 256.892 117.178C256.681 116.838 256.393 116.58 256.03 116.404C255.666 116.227 255.264 116.139 254.822 116.139C254.187 116.139 253.647 116.338 253.201 116.737C252.754 117.135 252.499 117.687 252.435 118.393L257.21 118.393ZM245.396 115.094C246.05 115.094 246.622 115.234 247.115 115.515C247.607 115.795 247.972 116.148 248.212 116.574L248.212 115.216L249.481 115.216L249.481 122.818C249.481 123.497 249.334 124.101 249.04 124.631C248.745 125.16 248.324 125.574 247.777 125.873C247.23 126.171 246.592 126.321 245.866 126.321C244.872 126.321 244.044 126.09 243.381 125.628C242.719 125.167 242.328 124.538 242.208 123.741L243.45 123.741C243.588 124.194 243.874 124.558 244.306 124.834C244.738 125.11 245.258 125.248 245.866 125.248C246.556 125.248 247.119 125.036 247.556 124.61C247.993 124.185 248.212 123.588 248.212 122.818L248.212 121.257C247.963 121.692 247.595 122.054 247.108 122.343C246.62 122.633 246.05 122.778 245.396 122.778C244.725 122.778 244.115 122.615 243.568 122.289C243.02 121.963 242.59 121.506 242.277 120.918C241.965 120.329 241.808 119.66 241.808 118.909C241.808 118.148 241.965 117.481 242.277 116.906C242.59 116.332 243.02 115.886 243.568 115.569C244.115 115.252 244.725 115.094 245.396 115.094L245.396 115.094ZM248.212 118.922C248.212 118.361 248.097 117.872 247.867 117.456C247.637 117.04 247.326 116.721 246.935 116.499C246.544 116.277 246.114 116.166 245.645 116.166C245.175 116.166 244.748 116.275 244.361 116.492C243.975 116.709 243.667 117.026 243.437 117.443C243.207 117.859 243.092 118.348 243.092 118.909C243.092 119.479 243.207 119.974 243.437 120.395C243.667 120.816 243.975 121.137 244.361 121.359C244.748 121.581 245.175 121.692 245.645 121.692C246.114 121.692 246.544 121.581 246.935 121.359C247.326 121.137 247.637 120.816 247.867 120.395C248.097 119.974 248.212 119.483 248.212 118.922L248.212 118.922ZM234.19 113.193L234.19 119.18C234.19 120.022 234.399 120.646 234.818 121.053C235.237 121.461 235.819 121.664 236.564 121.664C237.3 121.664 237.877 121.461 238.296 121.053C238.714 120.646 238.924 120.022 238.924 119.18L238.924 113.193L240.18 113.193L240.18 119.166C240.18 119.954 240.019 120.617 239.697 121.155C239.375 121.694 238.94 122.094 238.392 122.357C237.845 122.619 237.231 122.75 236.55 122.75C235.869 122.75 235.255 122.619 234.708 122.357C234.16 122.094 233.728 121.694 233.41 121.155C233.093 120.617 232.934 119.954 232.934 119.166L232.934 113.193L234.19 113.193ZM227.842 115.08C228.431 115.08 228.955 115.2 229.415 115.44C229.875 115.68 230.238 116.04 230.505 116.519C230.772 116.999 230.906 117.583 230.906 118.271L230.906 122.655L229.663 122.655L229.663 118.447C229.663 117.705 229.477 117.137 229.105 116.743C228.732 116.35 228.228 116.153 227.593 116.153C226.94 116.153 226.42 116.359 226.034 116.77C225.647 117.182 225.454 117.777 225.454 118.556L225.454 122.655L224.212 122.655L224.212 118.447C224.212 117.705 224.026 117.137 223.653 116.743C223.281 116.35 222.777 116.153 222.142 116.153C221.489 116.153 220.969 116.359 220.583 116.77C220.196 117.182 220.003 117.777 220.003 118.556L220.003 122.655L218.747 122.655L218.747 115.216L220.003 115.216L220.003 116.289C220.251 115.899 220.585 115.601 221.003 115.393C221.422 115.184 221.884 115.08 222.39 115.08C223.025 115.08 223.587 115.221 224.074 115.501C224.562 115.782 224.925 116.194 225.164 116.737C225.376 116.212 225.726 115.804 226.213 115.515C226.701 115.225 227.244 115.08 227.842 115.08L227.842 115.08ZM217.505 115.216L215.145 122.655L213.848 122.655L212.026 116.75L210.204 122.655L208.907 122.655L206.533 115.216L207.817 115.216L209.556 121.461L211.433 115.216L212.716 115.216L214.552 121.474L216.263 115.216L217.505 115.216ZM205.871 115.963C205.871 116.75 205.597 117.404 205.05 117.924C204.502 118.445 203.667 118.705 202.545 118.705L200.696 118.705L200.696 122.655L199.44 122.655L199.44 113.193L202.545 113.193C203.631 113.193 204.456 113.451 205.022 113.967C205.588 114.483 205.871 115.148 205.871 115.963L205.871 115.963ZM202.545 117.687C203.244 117.687 203.759 117.537 204.091 117.239C204.422 116.94 204.587 116.515 204.587 115.963C204.587 114.795 203.907 114.212 202.545 114.212L200.696 114.212L200.696 117.687L202.545 117.687ZM194.485 113.967L194.485 112.84L197.08 112.84L197.08 122.655L195.81 122.655L195.81 113.967L194.485 113.967ZM187.737 120.022C187.829 120.538 188.043 120.936 188.378 121.216C188.714 121.497 189.167 121.637 189.738 121.637C190.501 121.637 191.065 121.343 191.428 120.755C191.792 120.166 191.964 119.175 191.946 117.782C191.753 118.189 191.431 118.508 190.98 118.739C190.529 118.97 190.028 119.085 189.476 119.085C188.859 119.085 188.309 118.961 187.826 118.712C187.343 118.463 186.964 118.098 186.688 117.619C186.412 117.139 186.274 116.56 186.274 115.881C186.274 114.913 186.559 114.132 187.13 113.539C187.7 112.947 188.51 112.65 189.558 112.65C190.846 112.65 191.75 113.062 192.27 113.886C192.79 114.709 193.05 115.935 193.05 117.565C193.05 118.705 192.947 119.646 192.74 120.388C192.532 121.13 192.183 121.696 191.691 122.085C191.198 122.474 190.524 122.669 189.669 122.669C188.73 122.669 187.999 122.42 187.475 121.922C186.95 121.424 186.651 120.791 186.577 120.022L187.737 120.022ZM189.683 118.04C190.299 118.04 190.805 117.852 191.201 117.476C191.596 117.101 191.794 116.592 191.794 115.949C191.794 115.27 191.601 114.723 191.215 114.307C190.828 113.89 190.285 113.682 189.586 113.682C188.942 113.682 188.429 113.881 188.047 114.279C187.666 114.678 187.475 115.203 187.475 115.854C187.475 116.515 187.663 117.044 188.04 117.442C188.418 117.841 188.965 118.04 189.683 118.04L189.683 118.04ZM184.949 113.193L182.161 122.655L180.754 122.655L178.518 115.04L176.199 122.655L174.805 122.669L172.114 113.193L173.453 113.193L175.551 121.216L177.869 113.193L179.277 113.193L181.485 121.189L183.597 113.193L184.949 113.193ZM171.204 118.651C171.204 118.886 171.19 119.135 171.162 119.397L165.117 119.397C165.163 120.13 165.419 120.703 165.883 121.115C166.348 121.526 166.911 121.732 167.574 121.732C168.117 121.732 168.57 121.608 168.933 121.359C169.297 121.11 169.552 120.777 169.699 120.361L171.052 120.361C170.849 121.076 170.444 121.658 169.837 122.106C169.23 122.554 168.476 122.778 167.574 122.778C166.856 122.778 166.215 122.619 165.649 122.302C165.083 121.986 164.639 121.535 164.317 120.952C163.995 120.368 163.834 119.691 163.834 118.922C163.834 118.153 163.99 117.479 164.303 116.899C164.616 116.32 165.055 115.875 165.621 115.562C166.187 115.25 166.838 115.094 167.574 115.094C168.292 115.094 168.926 115.248 169.478 115.555C170.03 115.863 170.456 116.286 170.755 116.825C171.054 117.363 171.204 117.972 171.204 118.651L171.204 118.651ZM169.906 118.393C169.906 117.922 169.8 117.517 169.589 117.178C169.377 116.838 169.09 116.58 168.726 116.404C168.363 116.227 167.96 116.139 167.519 116.139C166.884 116.139 166.343 116.338 165.897 116.737C165.451 117.135 165.196 117.687 165.131 118.393L169.906 118.393ZM158.093 115.094C158.746 115.094 159.319 115.234 159.811 115.515C160.303 115.795 160.669 116.148 160.908 116.574L160.908 115.216L162.178 115.216L162.178 122.818C162.178 123.497 162.031 124.101 161.736 124.631C161.442 125.16 161.021 125.574 160.473 125.873C159.926 126.171 159.289 126.321 158.562 126.321C157.568 126.321 156.74 126.09 156.078 125.628C155.415 125.167 155.024 124.538 154.905 123.741L156.147 123.741C156.285 124.194 156.57 124.558 157.003 124.834C157.435 125.11 157.955 125.248 158.562 125.248C159.252 125.248 159.816 125.036 160.253 124.61C160.69 124.185 160.908 123.588 160.908 122.818L160.908 121.257C160.66 121.692 160.292 122.054 159.804 122.343C159.316 122.633 158.746 122.778 158.093 122.778C157.421 122.778 156.812 122.615 156.264 122.289C155.717 121.963 155.287 121.506 154.974 120.918C154.661 120.329 154.505 119.66 154.505 118.909C154.505 118.148 154.661 117.481 154.974 116.906C155.287 116.332 155.717 115.886 156.264 115.569C156.812 115.252 157.421 115.094 158.093 115.094L158.093 115.094ZM160.908 118.922C160.908 118.361 160.793 117.872 160.563 117.456C160.333 117.04 160.023 116.721 159.632 116.499C159.24 116.277 158.81 116.166 158.341 116.166C157.872 116.166 157.444 116.275 157.058 116.492C156.671 116.709 156.363 117.026 156.133 117.443C155.903 117.859 155.788 118.348 155.788 118.909C155.788 119.479 155.903 119.974 156.133 120.395C156.363 120.816 156.671 121.137 157.058 121.359C157.444 121.581 157.872 121.692 158.341 121.692C158.81 121.692 159.24 121.581 159.632 121.359C160.023 121.137 160.333 120.816 160.563 120.395C160.793 119.974 160.908 119.483 160.908 118.922L160.908 118.922ZM146.887 113.193L146.887 119.18C146.887 120.022 147.096 120.646 147.514 121.053C147.933 121.461 148.515 121.664 149.26 121.664C149.996 121.664 150.574 121.461 150.992 121.053C151.411 120.646 151.62 120.022 151.62 119.18L151.62 113.193L152.876 113.193L152.876 119.166C152.876 119.954 152.715 120.617 152.393 121.155C152.071 121.694 151.636 122.094 151.089 122.357C150.541 122.619 149.927 122.75 149.246 122.75C148.566 122.75 147.952 122.619 147.404 122.357C146.857 122.094 146.424 121.694 146.107 121.155C145.789 120.617 145.631 119.954 145.631 119.166L145.631 113.193L146.887 113.193ZM140.538 115.08C141.127 115.08 141.652 115.2 142.112 115.44C142.572 115.68 142.935 116.04 143.202 116.519C143.469 116.999 143.602 117.583 143.602 118.271L143.602 122.655L142.36 122.655L142.36 118.447C142.36 117.705 142.174 117.137 141.801 116.743C141.428 116.35 140.925 116.153 140.29 116.153C139.637 116.153 139.117 116.359 138.73 116.77C138.344 117.182 138.151 117.777 138.151 118.556L138.151 122.655L136.909 122.655L136.909 118.447C136.909 117.705 136.722 117.137 136.35 116.743C135.977 116.35 135.473 116.153 134.839 116.153C134.185 116.153 133.665 116.359 133.279 116.77C132.893 117.182 132.699 117.777 132.699 118.556L132.699 122.655L131.444 122.655L131.444 115.216L132.699 115.216L132.699 116.289C132.948 115.899 133.281 115.601 133.7 115.393C134.119 115.184 134.581 115.08 135.087 115.08C135.722 115.08 136.283 115.221 136.771 115.501C137.258 115.782 137.622 116.194 137.861 116.737C138.073 116.212 138.422 115.804 138.91 115.515C139.397 115.225 139.94 115.08 140.538 115.08L140.538 115.08ZM125.233 115.094C125.886 115.094 126.459 115.234 126.951 115.515C127.444 115.795 127.809 116.148 128.048 116.574L128.048 115.216L129.318 115.216L129.318 122.818C129.318 123.497 129.171 124.101 128.877 124.631C128.582 125.16 128.161 125.574 127.614 125.873C127.066 126.171 126.429 126.321 125.702 126.321C124.709 126.321 123.881 126.09 123.218 125.628C122.556 125.167 122.165 124.538 122.045 123.741L123.287 123.741C123.425 124.194 123.71 124.558 124.143 124.834C124.575 125.11 125.095 125.248 125.702 125.248C126.392 125.248 126.956 125.036 127.393 124.61C127.83 124.185 128.048 123.588 128.048 122.818L128.048 121.257C127.8 121.692 127.432 122.054 126.944 122.343C126.457 122.633 125.886 122.778 125.233 122.778C124.562 122.778 123.952 122.615 123.405 122.289C122.857 121.963 122.427 121.506 122.114 120.918C121.801 120.329 121.645 119.66 121.645 118.909C121.645 118.148 121.801 117.481 122.114 116.906C122.427 116.332 122.857 115.886 123.405 115.569C123.952 115.252 124.562 115.094 125.233 115.094L125.233 115.094ZM128.048 118.922C128.048 118.361 127.933 117.872 127.703 117.456C127.473 117.04 127.163 116.721 126.772 116.499C126.381 116.277 125.951 116.166 125.482 116.166C125.012 116.166 124.585 116.275 124.198 116.492C123.812 116.709 123.503 117.026 123.273 117.443C123.043 117.859 122.928 118.348 122.928 118.909C122.928 119.479 123.043 119.974 123.273 120.395C123.503 120.816 123.812 121.137 124.198 121.359C124.585 121.581 125.012 121.692 125.482 121.692C125.951 121.692 126.381 121.581 126.772 121.359C127.163 121.137 127.473 120.816 127.703 120.395C127.933 119.974 128.048 119.483 128.048 118.922L128.048 118.922ZM114.027 113.193L114.027 119.18C114.027 120.022 114.236 120.646 114.655 121.053C115.074 121.461 115.655 121.664 116.401 121.664C117.137 121.664 117.714 121.461 118.133 121.053C118.551 120.646 118.761 120.022 118.761 119.18L118.761 113.193L120.017 113.193L120.017 119.166C120.017 119.954 119.856 120.617 119.533 121.155C119.211 121.694 118.777 122.094 118.229 122.357C117.682 122.619 117.068 122.75 116.387 122.75C115.706 122.75 115.092 122.619 114.545 122.357C113.997 122.094 113.565 121.694 113.247 121.155C112.93 120.617 112.771 119.954 112.771 119.166L112.771 113.193L114.027 113.193ZM107.679 115.08C108.267 115.08 108.792 115.2 109.252 115.44C109.712 115.68 110.075 116.04 110.342 116.519C110.609 116.999 110.742 117.583 110.742 118.271L110.742 122.655L109.5 122.655L109.5 118.447C109.5 117.705 109.314 117.137 108.941 116.743C108.569 116.35 108.065 116.153 107.43 116.153C106.777 116.153 106.257 116.359 105.871 116.77C105.484 117.182 105.291 117.777 105.291 118.556L105.291 122.655L104.049 122.655L104.049 118.447C104.049 117.705 103.863 117.137 103.49 116.743C103.117 116.35 102.614 116.153 101.979 116.153C101.326 116.153 100.806 116.359 100.419 116.77C100.033 117.182 99.8398 117.777 99.8398 118.556L99.8398 122.655L98.5839 122.655L98.5839 115.216L99.8398 115.216L99.8398 116.289C100.088 115.899 100.422 115.601 100.84 115.393C101.259 115.184 101.721 115.08 102.227 115.08C102.862 115.08 103.423 115.221 103.911 115.501C104.399 115.782 104.762 116.194 105.001 116.737C105.213 116.212 105.563 115.804 106.05 115.515C106.538 115.225 107.081 115.08 107.679 115.08L107.679 115.08ZM89.7376 118.922C89.7376 118.153 89.894 117.481 90.2068 116.906C90.5196 116.332 90.9544 115.886 91.511 115.569C92.0676 115.252 92.7048 115.094 93.4224 115.094C94.3517 115.094 95.1176 115.316 95.7202 115.759C96.3229 116.203 96.7208 116.818 96.914 117.605L95.5615 117.605C95.4327 117.153 95.182 116.795 94.8094 116.533C94.4368 116.27 93.9744 116.139 93.4224 116.139C92.7048 116.139 92.1251 116.381 91.6835 116.866C91.2419 117.35 91.0211 118.035 91.0211 118.922C91.0211 119.818 91.2419 120.51 91.6835 120.999C92.1251 121.488 92.7048 121.732 93.4224 121.732C93.9744 121.732 94.4345 121.606 94.8025 121.352C95.1705 121.099 95.4235 120.737 95.5615 120.266L96.914 120.266C96.7116 121.026 96.3068 121.635 95.6995 122.092C95.0923 122.549 94.3333 122.778 93.4224 122.778C92.7048 122.778 92.0676 122.619 91.511 122.302C90.9544 121.986 90.5196 121.538 90.2068 120.958C89.894 120.379 89.7376 119.701 89.7376 118.922L89.7376 118.922ZM85.1282 115.08C85.6986 115.08 86.2139 115.2 86.6739 115.44C87.1339 115.68 87.495 116.04 87.7572 116.519C88.0195 116.999 88.1506 117.583 88.1506 118.271L88.1506 122.655L86.9085 122.655L86.9085 118.447C86.9085 117.705 86.7199 117.137 86.3427 116.743C85.9654 116.35 85.4502 116.153 84.797 116.153C84.1345 116.153 83.6078 116.356 83.2168 116.764C82.8258 117.171 82.6303 117.764 82.6303 118.542L82.6303 122.655L81.3744 122.655L81.3744 112.61L82.6303 112.61L82.6303 116.275C82.8787 115.895 83.2214 115.601 83.6584 115.393C84.0954 115.184 84.5854 115.08 85.1282 115.08L85.1282 115.08ZM77.731 117.782C78.0806 117.836 78.4004 117.976 78.6902 118.203C78.98 118.429 79.21 118.709 79.3802 119.044C79.5504 119.379 79.6355 119.737 79.6355 120.117C79.6355 120.596 79.5113 121.029 79.2629 121.413C79.0145 121.798 78.6534 122.101 78.1795 122.323C77.7057 122.544 77.1468 122.655 76.5027 122.655L72.9146 122.655L72.9146 113.193L76.3647 113.193C77.018 113.193 77.5746 113.3 78.0346 113.512C78.4947 113.725 78.8397 114.012 79.0697 114.374C79.2997 114.736 79.4147 115.144 79.4147 115.596C79.4147 116.157 79.2606 116.621 78.9524 116.988C78.6442 117.354 78.237 117.619 77.731 117.782L77.731 117.782ZM74.1704 117.28L76.2819 117.28C76.8708 117.28 77.3262 117.144 77.6482 116.872C77.9702 116.601 78.1312 116.225 78.1312 115.746C78.1312 115.266 77.9702 114.89 77.6482 114.619C77.3262 114.347 76.8615 114.212 76.2543 114.212L74.1704 114.212L74.1704 117.28ZM76.3923 121.637C77.018 121.637 77.5056 121.492 77.8552 121.203C78.2048 120.913 78.3796 120.51 78.3796 119.995C78.3796 119.47 78.1956 119.056 77.8276 118.752C77.4596 118.449 76.9674 118.298 76.3509 118.298L74.1704 118.298L74.1704 121.637L76.3923 121.637ZM71.6587 115.216L67.1044 126.158L65.8072 126.158L67.2976 122.574L64.2477 115.216L65.6416 115.216L68.0153 121.244L70.3614 115.216L71.6587 115.216ZM63.4887 118.651C63.4887 118.886 63.4749 119.135 63.4473 119.397L57.4025 119.397C57.4486 120.13 57.7039 120.703 58.1685 121.115C58.6331 121.526 59.1966 121.732 59.8591 121.732C60.4019 121.732 60.855 121.608 61.2185 121.359C61.5819 121.11 61.8372 120.777 61.9844 120.361L63.3369 120.361C63.1345 121.076 62.7296 121.658 62.1224 122.106C61.5152 122.554 60.7607 122.778 59.8591 122.778C59.1414 122.778 58.4997 122.619 57.9339 122.302C57.368 121.986 56.9241 121.535 56.6021 120.952C56.2801 120.368 56.1191 119.691 56.1191 118.922C56.1191 118.153 56.2755 117.479 56.5883 116.899C56.9011 116.32 57.3404 115.875 57.9063 115.562C58.4721 115.25 59.123 115.094 59.8591 115.094C60.5767 115.094 61.2116 115.248 61.7636 115.555C62.3156 115.863 62.7411 116.286 63.0402 116.825C63.3392 117.363 63.4887 117.972 63.4887 118.651L63.4887 118.651ZM62.1914 118.393C62.1914 117.922 62.0856 117.517 61.874 117.178C61.6624 116.838 61.3749 116.58 61.0115 116.404C60.6481 116.227 60.2455 116.139 59.8039 116.139C59.1691 116.139 58.6285 116.338 58.1823 116.737C57.7361 117.135 57.4808 117.687 57.4164 118.393L62.1914 118.393ZM51.4682 115.08C52.057 115.08 52.5814 115.2 53.0415 115.44C53.5015 115.68 53.8649 116.04 54.1317 116.519C54.3985 116.999 54.5319 117.583 54.5319 118.271L54.5319 122.655L53.2899 122.655L53.2899 118.447C53.2899 117.705 53.1036 117.137 52.7309 116.743C52.3583 116.35 51.8546 116.153 51.2198 116.153C50.5665 116.153 50.0467 116.359 49.6603 116.77C49.2738 117.182 49.0806 117.777 49.0806 118.556L49.0806 122.655L47.8386 122.655L47.8386 118.447C47.8386 117.705 47.6523 117.137 47.2796 116.743C46.907 116.35 46.4033 116.153 45.7685 116.153C45.1152 116.153 44.5954 116.359 44.209 116.77C43.8226 117.182 43.6293 117.777 43.6293 118.556L43.6293 122.655L42.3735 122.655L42.3735 115.216L43.6293 115.216L43.6293 116.289C43.8778 115.899 44.2113 115.601 44.6299 115.393C45.0485 115.184 45.5108 115.08 46.0169 115.08C46.6517 115.08 47.2129 115.221 47.7006 115.501C48.1882 115.782 48.5516 116.194 48.7908 116.737C49.0024 116.212 49.3521 115.804 49.8397 115.515C50.3273 115.225 50.8701 115.08 51.4682 115.08L51.4682 115.08ZM33.5273 118.922C33.5273 118.153 33.6837 117.481 33.9965 116.906C34.3093 116.332 34.744 115.886 35.3007 115.569C35.8573 115.252 36.4944 115.094 37.2121 115.094C38.1413 115.094 38.9073 115.316 39.5099 115.759C40.1125 116.203 40.5105 116.818 40.7037 117.605L39.3512 117.605C39.2224 117.153 38.9717 116.795 38.5991 116.533C38.2264 116.27 37.7641 116.139 37.2121 116.139C36.4944 116.139 35.9148 116.381 35.4732 116.866C35.0316 117.35 34.8108 118.035 34.8108 118.922C34.8108 119.818 35.0316 120.51 35.4732 120.999C35.9148 121.488 36.4944 121.732 37.2121 121.732C37.7641 121.732 38.2241 121.606 38.5922 121.352C38.9602 121.099 39.2132 120.737 39.3512 120.266L40.7037 120.266C40.5013 121.026 40.0964 121.635 39.4892 122.092C38.882 122.549 38.1229 122.778 37.2121 122.778C36.4944 122.778 35.8573 122.619 35.3007 122.302C34.744 121.986 34.3093 121.538 33.9965 120.958C33.6837 120.379 33.5273 119.701 33.5273 118.922L33.5273 118.922ZM28.9177 115.08C29.4882 115.08 30.0034 115.2 30.4634 115.44C30.9235 115.68 31.2846 116.04 31.5468 116.519C31.809 116.999 31.9401 117.583 31.9401 118.271L31.9401 122.655L30.698 122.655L30.698 118.447C30.698 117.705 30.5094 117.137 30.1322 116.743C29.755 116.35 29.2398 116.153 28.5865 116.153C27.9241 116.153 27.3974 116.356 27.0063 116.764C26.6153 117.171 26.4198 117.764 26.4198 118.542L26.4198 122.655L25.1639 122.655L25.1639 112.61L26.4198 112.61L26.4198 116.275C26.6682 115.895 27.0109 115.601 27.448 115.393C27.885 115.184 28.3749 115.08 28.9177 115.08L28.9177 115.08ZM21.5206 117.782C21.8702 117.836 22.19 117.976 22.4798 118.203C22.7696 118.429 22.9996 118.709 23.1698 119.044C23.34 119.379 23.4251 119.737 23.4251 120.117C23.4251 120.596 23.3009 121.029 23.0525 121.413C22.8041 121.798 22.443 122.101 21.9691 122.323C21.4953 122.544 20.9364 122.655 20.2924 122.655L16.7042 122.655L16.7042 113.193L20.1543 113.193C20.8076 113.193 21.3642 113.3 21.8242 113.512C22.2843 113.725 22.6293 114.012 22.8593 114.374C23.0893 114.736 23.2043 115.144 23.2043 115.596C23.2043 116.157 23.0502 116.621 22.742 116.988C22.4338 117.354 22.0266 117.619 21.5206 117.782L21.5206 117.782ZM17.96 117.28L20.0715 117.28C20.6603 117.28 21.1157 117.144 21.4377 116.872C21.7598 116.601 21.9208 116.225 21.9208 115.746C21.9208 115.266 21.7598 114.89 21.4377 114.619C21.1157 114.347 20.6511 114.212 20.0439 114.212L17.96 114.212L17.96 117.28ZM20.1819 121.637C20.8075 121.637 21.2951 121.492 21.6448 121.203C21.9944 120.913 22.1692 120.51 22.1692 119.995C22.1692 119.47 21.9852 119.056 21.6172 118.752C21.2491 118.449 20.7569 118.298 20.1405 118.298L17.96 118.298L17.96 121.637L20.1819 121.637ZM15.4482 115.216L10.894 126.158L9.59672 126.158L11.0872 122.574L8.03723 115.216L9.43111 115.216L11.8048 121.244L14.151 115.216L15.4482 115.216ZM82.8925 94.7173C83.4814 94.7173 84.0058 94.8373 84.4658 95.0771C84.9259 95.3169 85.2893 95.6767 85.5561 96.1563C85.8229 96.636 85.9563 97.2197 85.9563 97.9075L85.9563 102.292L84.7142 102.292L84.7142 98.084C84.7142 97.3419 84.5279 96.774 84.1553 96.3803C83.7827 95.9866 83.279 95.7898 82.6441 95.7898C81.9909 95.7898 81.4711 95.9957 81.0846 96.4075C80.6982 96.8193 80.505 97.4143 80.505 98.1926L80.505 102.292L79.2629 102.292L79.2629 98.084C79.2629 97.3419 79.0766 96.774 78.704 96.3803C78.3314 95.9866 77.8277 95.7898 77.1928 95.7898C76.5396 95.7898 76.0198 95.9957 75.6333 96.4075C75.2469 96.8193 75.0537 97.4143 75.0537 98.1926L75.0537 102.292L73.7979 102.292L73.7979 94.8531L75.0537 94.8531L75.0537 95.9256C75.3021 95.5364 75.6357 95.2377 76.0543 95.0296C76.4729 94.8214 76.9352 94.7173 77.4412 94.7173C78.0761 94.7173 78.6373 94.8576 79.1249 95.1382C79.6126 95.4187 79.976 95.8305 80.2152 96.3735C80.4268 95.8486 80.7764 95.4414 81.2641 95.1518C81.7517 94.8622 82.2945 94.7173 82.8925 94.7173L82.8925 94.7173ZM64.9515 98.5591C64.9515 97.7899 65.1079 97.1179 65.4207 96.5432C65.7335 95.9685 66.1682 95.5228 66.7249 95.206C67.2815 94.8893 67.9186 94.7309 68.6363 94.7309C69.5655 94.7309 70.3315 94.9526 70.9341 95.3961C71.5367 95.8395 71.9347 96.455 72.1279 97.2423L70.7754 97.2423C70.6466 96.7898 70.3959 96.4323 70.0233 96.1699C69.6506 95.9074 69.1883 95.7762 68.6363 95.7762C67.9186 95.7762 67.339 96.0183 66.8974 96.5025C66.4558 96.9867 66.2349 97.6722 66.2349 98.5591C66.2349 99.4551 66.4558 100.147 66.8974 100.636C67.339 101.125 67.9186 101.369 68.6363 101.369C69.1883 101.369 69.6483 101.243 70.0163 100.989C70.3844 100.736 70.6374 100.374 70.7754 99.9031L72.1279 99.9031C71.9255 100.663 71.5206 101.272 70.9134 101.729C70.3062 102.186 69.5471 102.415 68.6363 102.415C67.9186 102.415 67.2815 102.256 66.7249 101.939C66.1682 101.623 65.7335 101.175 65.4207 100.595C65.1079 100.016 64.9515 99.3374 64.9515 98.5591L64.9515 98.5591ZM60.3421 94.7173C60.9125 94.7173 61.4277 94.8373 61.8877 95.0771C62.3478 95.3169 62.7089 95.6767 62.9711 96.1563C63.2333 96.636 63.3644 97.2197 63.3644 97.9076L63.3644 102.292L62.1224 102.292L62.1224 98.084C62.1224 97.3419 61.9338 96.774 61.5565 96.3803C61.1793 95.9866 60.6641 95.7898 60.0108 95.7898C59.3484 95.7898 58.8217 95.9934 58.4307 96.4007C58.0396 96.808 57.8441 97.4007 57.8441 98.1791L57.8441 102.292L56.5883 102.292L56.5883 92.2466L57.8441 92.2466L57.8441 95.912C58.0925 95.5319 58.4353 95.2377 58.8723 95.0296C59.3093 94.8214 59.7992 94.7173 60.3421 94.7173L60.3421 94.7173ZM52.9449 97.4188C53.2945 97.4731 53.6142 97.6134 53.904 97.8397C54.1938 98.0659 54.4239 98.3465 54.5941 98.6814C54.7643 99.0162 54.8494 99.3737 54.8494 99.7538C54.8494 100.233 54.7252 100.666 54.4768 101.05C54.2283 101.435 53.8672 101.738 53.3934 101.96C52.9196 102.182 52.3606 102.292 51.7166 102.292L48.1284 102.292L48.1284 92.8304L51.5786 92.8304C52.2318 92.8304 52.7885 92.9367 53.2485 93.1494C53.7085 93.3621 54.0535 93.6494 54.2836 94.0114C54.5136 94.3734 54.6286 94.7807 54.6286 95.2332C54.6286 95.7943 54.4745 96.2581 54.1662 96.6247C53.858 96.9912 53.4509 97.2559 52.9449 97.4188L52.9449 97.4188ZM49.3843 96.9166L51.4958 96.9166C52.0846 96.9166 52.5401 96.7808 52.8621 96.5093C53.1841 96.2378 53.3451 95.8622 53.3451 95.3826C53.3451 94.9029 53.1841 94.5273 52.8621 94.2558C52.5401 93.9843 52.0754 93.8486 51.4682 93.8486L49.3843 93.8486L49.3843 96.9166ZM51.6062 101.274C52.2318 101.274 52.7195 101.129 53.0691 100.84C53.4187 100.55 53.5935 100.148 53.5935 99.6317C53.5935 99.1068 53.4095 98.6927 53.0415 98.3895C52.6735 98.0863 52.1812 97.9348 51.5648 97.9348L49.3843 97.9348L49.3843 101.274L51.6062 101.274ZM46.8726 94.8531L42.3183 105.795L41.021 105.795L42.5115 102.211L39.4615 94.8531L40.8554 94.8531L43.2292 100.881L45.5753 94.8531L46.8726 94.8531ZM35.2384 94.7173C35.8272 94.7173 36.3516 94.8373 36.8117 95.0771C37.2717 95.3169 37.6351 95.6767 37.9019 96.1563C38.1687 96.636 38.3021 97.2197 38.3021 97.9075L38.3021 102.292L37.0601 102.292L37.0601 98.084C37.0601 97.3419 36.8738 96.774 36.5011 96.3803C36.1285 95.9866 35.6248 95.7898 34.99 95.7898C34.3367 95.7898 33.8169 95.9957 33.4305 96.4075C33.0441 96.8193 32.8508 97.4143 32.8508 98.1926L32.8508 102.292L31.6088 102.292L31.6088 98.084C31.6088 97.3419 31.4225 96.774 31.0498 96.3803C30.6772 95.9866 30.1735 95.7898 29.5387 95.7898C28.8854 95.7898 28.3656 95.9957 27.9792 96.4075C27.5928 96.8193 27.3995 97.4143 27.3995 98.1926L27.3995 102.292L26.1437 102.292L26.1437 94.8531L27.3995 94.8531L27.3995 95.9256C27.648 95.5364 27.9815 95.2377 28.4001 95.0296C28.8187 94.8214 29.281 94.7173 29.7871 94.7173C30.4219 94.7173 30.9831 94.8576 31.4708 95.1382C31.9584 95.4187 32.3218 95.8305 32.561 96.3735C32.7726 95.8486 33.1223 95.4414 33.6099 95.1518C34.0975 94.8622 34.6403 94.7173 35.2384 94.7173L35.2384 94.7173ZM17.2974 98.5591C17.2974 97.7899 17.4538 97.1179 17.7667 96.5432C18.0795 95.9685 18.5142 95.5228 19.0708 95.206C19.6275 94.8893 20.2646 94.7309 20.9822 94.7309C21.9115 94.7309 22.6774 94.9526 23.2801 95.3961C23.8827 95.8395 24.2806 96.455 24.4738 97.2423L23.1213 97.2423C22.9925 96.7898 22.7418 96.4323 22.3692 96.1699C21.9966 95.9074 21.5343 95.7762 20.9822 95.7762C20.2646 95.7762 19.685 96.0183 19.2433 96.5025C18.8017 96.9867 18.5809 97.6722 18.5809 98.5591C18.5809 99.4551 18.8017 100.147 19.2433 100.636C19.685 101.125 20.2646 101.369 20.9822 101.369C21.5343 101.369 21.9943 101.243 22.3623 100.989C22.7303 100.736 22.9833 100.374 23.1213 99.9031L24.4738 99.9031C24.2714 100.663 23.8666 101.272 23.2593 101.729C22.6521 102.186 21.8931 102.415 20.9822 102.415C20.2646 102.415 19.6275 102.256 19.0708 101.939C18.5142 101.623 18.0795 101.175 17.7667 100.595C17.4538 100.016 17.2974 99.3374 17.2974 98.5591L17.2974 98.5591ZM12.6881 94.7173C13.2585 94.7173 13.7737 94.8373 14.2338 95.0771C14.6938 95.3169 15.0549 95.6767 15.3171 96.1563C15.5793 96.636 15.7104 97.2197 15.7104 97.9076L15.7104 102.292L14.4684 102.292L14.4684 98.084C14.4684 97.3419 14.2798 96.774 13.9025 96.3803C13.5253 95.9866 13.0101 95.7898 12.3569 95.7898C11.6944 95.7898 11.1677 95.9934 10.7767 96.4007C10.3856 96.808 10.1901 97.4007 10.1901 98.1791L10.1901 102.292L8.93427 102.292L8.93427 92.2466L10.1901 92.2466L10.1901 95.912C10.4385 95.5319 10.7813 95.2377 11.2183 95.0296C11.6553 94.8214 12.1452 94.7173 12.6881 94.7173L12.6881 94.7173ZM225.178 74.4901L222.818 81.9294L221.521 81.9294L219.699 76.0241L217.878 81.9294L216.58 81.9294L214.207 74.4901L215.49 74.4901L217.229 80.7348L219.106 74.4901L220.389 74.4901L222.225 80.7483L223.936 74.4901L225.178 74.4901ZM213.544 75.2368C213.544 76.0241 213.27 76.678 212.723 77.1984C212.176 77.7188 211.341 77.979 210.218 77.979L208.369 77.979L208.369 81.9294L207.113 81.9294L207.113 72.4674L210.218 72.4674C211.304 72.4674 212.13 72.7253 212.695 73.2412C213.261 73.7571 213.544 74.4223 213.544 75.2368L213.544 75.2368ZM210.218 76.9609C210.917 76.9609 211.433 76.8116 211.764 76.5129C212.095 76.2142 212.261 75.7889 212.261 75.2368C212.261 74.0693 211.58 73.4856 210.218 73.4856L208.369 73.4856L208.369 76.9609L210.218 76.9609ZM202.159 73.2412L202.159 72.1144L204.753 72.1144L204.753 81.9294L203.483 81.9294L203.483 73.2412L202.159 73.2412ZM195.41 79.2957C195.502 79.8116 195.716 80.2098 196.052 80.4903C196.388 80.7709 196.841 80.9112 197.411 80.9112C198.175 80.9112 198.738 80.617 199.102 80.0288C199.465 79.4405 199.638 78.4495 199.619 77.0558C199.426 77.463 199.104 77.7821 198.653 78.0128C198.202 78.2436 197.701 78.359 197.149 78.359C196.532 78.359 195.983 78.2346 195.5 77.9857C195.017 77.7368 194.637 77.3725 194.361 76.8929C194.085 76.4132 193.947 75.834 193.947 75.1552C193.947 74.1869 194.232 73.4063 194.803 72.8135C195.373 72.2207 196.183 71.9243 197.232 71.9243C198.52 71.9243 199.424 72.3361 199.944 73.1597C200.463 73.9832 200.723 75.2095 200.723 76.8386C200.723 77.9789 200.62 78.9201 200.413 79.6622C200.206 80.4044 199.856 80.97 199.364 81.3592C198.872 81.7483 198.198 81.9429 197.342 81.9429C196.404 81.9429 195.672 81.694 195.148 81.1963C194.623 80.6985 194.324 80.065 194.251 79.2957L195.41 79.2957ZM197.356 77.3138C197.972 77.3138 198.478 77.126 198.874 76.7504C199.27 76.3748 199.467 75.8658 199.467 75.2232C199.467 74.5444 199.274 73.9969 198.888 73.5806C198.501 73.1643 197.959 72.9561 197.259 72.9561C196.615 72.9561 196.102 73.1552 195.721 73.5534C195.339 73.9516 195.148 74.4765 195.148 75.1282C195.148 75.7888 195.336 76.3183 195.714 76.7165C196.091 77.1147 196.638 77.3138 197.356 77.3138L197.356 77.3138ZM192.622 72.4674L189.834 81.9294L188.427 81.9294L186.191 74.3136L183.873 81.9294L182.479 81.943L179.788 72.4674L181.126 72.4674L183.224 80.4904L185.542 72.4674L186.95 72.4674L189.158 80.4633L191.27 72.4674L192.622 72.4674ZM178.877 77.9247C178.877 78.16 178.863 78.4089 178.835 78.6714L172.791 78.6714C172.837 79.4044 173.092 79.9769 173.556 80.3886C174.021 80.8004 174.585 81.0063 175.247 81.0063C175.79 81.0063 176.243 80.8819 176.606 80.633C176.97 80.3841 177.225 80.0515 177.372 79.6352L178.725 79.6352C178.522 80.3502 178.118 80.9316 177.51 81.3796C176.903 81.8276 176.149 82.0516 175.247 82.0516C174.529 82.0516 173.888 81.8932 173.322 81.5765C172.756 81.2597 172.312 80.8095 171.99 80.2257C171.668 79.642 171.507 78.9655 171.507 78.1962C171.507 77.427 171.663 76.7527 171.976 76.1735C172.289 75.5943 172.728 75.1486 173.294 74.8363C173.86 74.5241 174.511 74.368 175.247 74.368C175.965 74.368 176.6 74.5218 177.152 74.8295C177.704 75.1373 178.129 75.5603 178.428 76.0988C178.727 76.6373 178.877 77.2459 178.877 77.9247L178.877 77.9247ZM177.579 77.6668C177.579 77.1962 177.474 76.7912 177.262 76.4518C177.05 76.1124 176.763 75.8545 176.4 75.678C176.036 75.5015 175.634 75.4133 175.192 75.4133C174.557 75.4133 174.017 75.6124 173.57 76.0106C173.124 76.4088 172.869 76.9609 172.804 77.6668L177.579 77.6668ZM165.766 74.368C166.419 74.368 166.992 74.5083 167.484 74.7888C167.976 75.0694 168.342 75.4223 168.581 75.8477L168.581 74.4902L169.851 74.4902L169.851 82.0923C169.851 82.7711 169.704 83.3752 169.409 83.9046C169.115 84.4341 168.694 84.8481 168.147 85.1468C167.599 85.4454 166.962 85.5948 166.235 85.5948C165.242 85.5948 164.413 85.364 163.751 84.9024C163.089 84.4409 162.698 83.8119 162.578 83.0155L163.82 83.0155C163.958 83.468 164.243 83.8322 164.676 84.1083C165.108 84.3843 165.628 84.5223 166.235 84.5223C166.925 84.5223 167.489 84.3096 167.926 83.8843C168.363 83.4589 168.581 82.8616 168.581 82.0923L168.581 80.5312C168.333 80.9656 167.965 81.3276 167.477 81.6172C166.99 81.9068 166.419 82.0516 165.766 82.0516C165.094 82.0516 164.485 81.8887 163.937 81.5629C163.39 81.2371 162.96 80.7801 162.647 80.1918C162.334 79.6035 162.178 78.9338 162.178 78.1826C162.178 77.4224 162.334 76.755 162.647 76.1803C162.96 75.6056 163.39 75.1599 163.937 74.8431C164.485 74.5264 165.094 74.368 165.766 74.368L165.766 74.368ZM168.581 78.1962C168.581 77.6351 168.466 77.1464 168.236 76.7301C168.006 76.3138 167.696 75.9948 167.305 75.773C166.914 75.5513 166.484 75.4404 166.014 75.4404C165.545 75.4404 165.117 75.549 164.731 75.7662C164.345 75.9834 164.036 76.3002 163.806 76.7165C163.576 77.1328 163.461 77.6215 163.461 78.1826C163.461 78.7528 163.576 79.2483 163.806 79.6691C164.036 80.09 164.345 80.4113 164.731 80.633C165.117 80.8547 165.545 80.9656 166.014 80.9656C166.484 80.9656 166.914 80.8547 167.305 80.633C167.696 80.4113 168.006 80.09 168.236 79.6691C168.466 79.2483 168.581 78.7573 168.581 78.1962L168.581 78.1962ZM154.56 72.4674L154.56 78.4541C154.56 79.2958 154.769 79.9203 155.188 80.3275C155.606 80.7348 156.188 80.9384 156.934 80.9384C157.67 80.9384 158.247 80.7348 158.666 80.3275C159.084 79.9203 159.293 79.2958 159.293 78.4541L159.293 72.4674L160.549 72.4674L160.549 78.4405C160.549 79.2279 160.388 79.8908 160.066 80.4293C159.744 80.9678 159.31 81.3683 158.762 81.6307C158.215 81.8932 157.601 82.0244 156.92 82.0244C156.239 82.0244 155.625 81.8932 155.077 81.6307C154.53 81.3683 154.098 80.9678 153.78 80.4293C153.463 79.8908 153.304 79.2279 153.304 78.4405L153.304 72.4674L154.56 72.4674ZM148.211 74.3544C148.8 74.3544 149.325 74.4743 149.785 74.7141C150.245 74.9539 150.608 75.3137 150.875 75.7934C151.142 76.273 151.275 76.8568 151.275 77.5446L151.275 81.9294L150.033 81.9294L150.033 77.7211C150.033 76.9789 149.847 76.411 149.474 76.0173C149.102 75.6237 148.598 75.4268 147.963 75.4268C147.31 75.4268 146.79 75.6327 146.404 76.0445C146.017 76.4563 145.824 77.0513 145.824 77.8297L145.824 81.9294L144.582 81.9294L144.582 77.7211C144.582 76.9789 144.395 76.411 144.023 76.0173C143.65 75.6237 143.147 75.4268 142.512 75.4268C141.858 75.4268 141.339 75.6327 140.952 76.0445C140.566 76.4563 140.373 77.0513 140.373 77.8297L140.373 81.9294L139.117 81.9294L139.117 74.4901L140.373 74.4901L140.373 75.5626C140.621 75.1734 140.955 74.8748 141.373 74.6666C141.792 74.4585 142.254 74.3544 142.76 74.3544C143.395 74.3544 143.956 74.4946 144.444 74.7752C144.931 75.0558 145.295 75.4675 145.534 76.0106C145.746 75.4856 146.095 75.0784 146.583 74.7888C147.071 74.4992 147.613 74.3544 148.211 74.3544L148.211 74.3544ZM135.473 77.0559C135.823 77.1102 136.143 77.2504 136.433 77.4767C136.722 77.703 136.952 77.9835 137.123 78.3184C137.293 78.6532 137.378 79.0107 137.378 79.3908C137.378 79.8705 137.254 80.3026 137.005 80.6873C136.757 81.0719 136.396 81.3751 135.922 81.5968C135.448 81.8185 134.889 81.9294 134.245 81.9294L130.657 81.9294L130.657 72.4674L134.107 72.4674C134.76 72.4674 135.317 72.5737 135.777 72.7864C136.237 72.9991 136.582 73.2865 136.812 73.6485C137.042 74.0105 137.157 74.4177 137.157 74.8702C137.157 75.4314 137.003 75.8952 136.695 76.2617C136.387 76.6282 135.979 76.893 135.473 77.0559L135.473 77.0559ZM131.913 76.5536L134.024 76.5536C134.613 76.5536 135.069 76.4179 135.391 76.1464C135.713 75.8748 135.874 75.4993 135.874 75.0196C135.874 74.5399 135.713 74.1644 135.391 73.8929C135.069 73.6214 134.604 73.4856 133.997 73.4856L131.913 73.4856L131.913 76.5536ZM134.135 80.9112C134.76 80.9112 135.248 80.7664 135.598 80.4768C135.947 80.1872 136.122 79.7845 136.122 79.2686C136.122 78.7437 135.938 78.3297 135.57 78.0265C135.202 77.7233 134.71 77.5717 134.093 77.5717L131.913 77.5717L131.913 80.9112L134.135 80.9112ZM129.401 74.4901L124.847 85.4318L123.549 85.4318L125.04 81.8479L121.99 74.4901L123.384 74.4901L125.758 80.5175L128.104 74.4901L129.401 74.4901ZM117.767 74.3544C118.356 74.3544 118.88 74.4743 119.34 74.7141C119.8 74.9539 120.164 75.3137 120.431 75.7934C120.697 76.273 120.831 76.8568 120.831 77.5446L120.831 81.9294L119.589 81.9294L119.589 77.7211C119.589 76.9789 119.402 76.411 119.03 76.0173C118.657 75.6237 118.153 75.4268 117.519 75.4268C116.865 75.4268 116.346 75.6327 115.959 76.0445C115.573 76.4563 115.379 77.0513 115.379 77.8297L115.379 81.9294L114.137 81.9294L114.137 77.7211C114.137 76.9789 113.951 76.411 113.578 76.0173C113.206 75.6237 112.702 75.4268 112.067 75.4268C111.414 75.4268 110.894 75.6327 110.508 76.0445C110.121 76.4563 109.928 77.0513 109.928 77.8297L109.928 81.9294L108.672 81.9294L108.672 74.4901L109.928 74.4901L109.928 75.5626C110.177 75.1734 110.51 74.8748 110.929 74.6666C111.347 74.4585 111.81 74.3544 112.316 74.3544C112.951 74.3544 113.512 74.4946 113.999 74.7752C114.487 75.0558 114.85 75.4675 115.09 76.0106C115.301 75.4856 115.651 75.0784 116.139 74.7888C116.626 74.4992 117.169 74.3544 117.767 74.3544L117.767 74.3544ZM99.826 78.1962C99.826 77.427 99.9825 76.755 100.295 76.1803C100.608 75.6056 101.043 75.1599 101.599 74.8431C102.156 74.5264 102.793 74.368 103.511 74.368C104.44 74.368 105.206 74.5897 105.809 75.0332C106.411 75.4766 106.809 76.092 107.002 76.8794L105.65 76.8794C105.521 76.4269 105.27 76.0694 104.898 75.807C104.525 75.5445 104.063 75.4133 103.511 75.4133C102.793 75.4133 102.214 75.6554 101.772 76.1396C101.33 76.6237 101.11 77.3093 101.11 78.1962C101.11 79.0922 101.33 79.7845 101.772 80.2732C102.214 80.762 102.793 81.0063 103.511 81.0063C104.063 81.0063 104.523 80.8796 104.891 80.6262C105.259 80.3728 105.512 80.0108 105.65 79.5402L107.002 79.5402C106.8 80.3004 106.395 80.909 105.788 81.3661C105.181 81.8231 104.422 82.0516 103.511 82.0516C102.793 82.0516 102.156 81.8932 101.599 81.5765C101.043 81.2597 100.608 80.8117 100.295 80.2325C99.9825 79.6533 99.826 78.9745 99.826 78.1962L99.826 78.1962ZM95.2166 74.3544C95.787 74.3544 96.3022 74.4743 96.7623 74.7141C97.2223 74.9539 97.5834 75.3137 97.8456 75.7934C98.1078 76.273 98.2389 76.8568 98.2389 77.5446L98.2389 81.9294L96.9969 81.9294L96.9969 77.7211C96.9969 76.9789 96.8083 76.411 96.431 76.0173C96.0538 75.6237 95.5386 75.4268 94.8853 75.4268C94.2229 75.4268 93.6962 75.6305 93.3052 76.0377C92.9142 76.445 92.7186 77.0378 92.7186 77.8161L92.7186 81.9294L91.4628 81.9294L91.4628 71.8837L92.7186 71.8837L92.7186 75.549C92.9671 75.1689 93.3098 74.8748 93.7468 74.6666C94.1838 74.4585 94.6737 74.3544 95.2166 74.3544L95.2166 74.3544ZM87.8194 77.0559C88.169 77.1102 88.4887 77.2504 88.7785 77.4767C89.0684 77.703 89.2984 77.9835 89.4686 78.3184C89.6388 78.6532 89.7239 79.0107 89.7239 79.3908C89.7239 79.8705 89.5997 80.3026 89.3513 80.6873C89.1029 81.0719 88.7417 81.3751 88.2679 81.5968C87.7941 81.8185 87.2352 81.9294 86.5911 81.9294L83.0029 81.9294L83.0029 72.4674L86.4531 72.4674C87.1064 72.4674 87.663 72.5737 88.123 72.7864C88.583 72.9991 88.928 73.2865 89.1581 73.6485C89.3881 74.0105 89.5031 74.4177 89.5031 74.8702C89.5031 75.4314 89.349 75.8952 89.0408 76.2617C88.7325 76.6282 88.3254 76.893 87.8194 77.0559L87.8194 77.0559ZM84.2589 76.5536L86.3704 76.5536C86.9592 76.5536 87.4146 76.4179 87.7366 76.1464C88.0586 75.8748 88.2197 75.4993 88.2197 75.0196C88.2197 74.5399 88.0586 74.1644 87.7366 73.8929C87.4146 73.6214 86.95 73.4856 86.3428 73.4856L84.2589 73.4856L84.2589 76.5536ZM86.4808 80.9112C87.1064 80.9112 87.594 80.7664 87.9436 80.4768C88.2933 80.1872 88.4681 79.7845 88.4681 79.2686C88.4681 78.7437 88.2841 78.3297 87.916 78.0265C87.548 77.7233 87.0558 77.5717 86.4394 77.5717L84.2589 77.5717L84.2589 80.9112L86.4808 80.9112ZM81.747 74.4901L77.1927 85.4318L75.8955 85.4318L77.386 81.8479L74.336 74.4901L75.7299 74.4901L78.1036 80.5175L80.4497 74.4901L81.747 74.4901ZM69.0226 74.368C69.6759 74.368 70.2486 74.5083 70.7408 74.7888C71.2331 75.0694 71.5988 75.4223 71.838 75.8477L71.838 74.4902L73.1077 74.4902L73.1077 82.0923C73.1077 82.7711 72.9604 83.3752 72.666 83.9046C72.3716 84.4341 71.9507 84.8481 71.4033 85.1468C70.8558 85.4454 70.2187 85.5948 69.4919 85.5948C68.4982 85.5948 67.6702 85.364 67.0077 84.9024C66.3453 84.4409 65.9543 83.8119 65.8347 83.0155L67.0767 83.0155C67.2147 83.468 67.5 83.8322 67.9324 84.1083C68.3648 84.3843 68.8846 84.5223 69.4919 84.5223C70.1819 84.5223 70.7454 84.3096 71.1825 83.8843C71.6195 83.4589 71.838 82.8616 71.838 82.0923L71.838 80.5312C71.5896 80.9656 71.2216 81.3276 70.7339 81.6172C70.2463 81.9068 69.6759 82.0516 69.0226 82.0516C68.351 82.0516 67.7415 81.8887 67.194 81.5629C66.6466 81.2371 66.2165 80.7801 65.9037 80.1918C65.5909 79.6035 65.4344 78.9338 65.4344 78.1826C65.4344 77.4224 65.5909 76.755 65.9037 76.1803C66.2165 75.6056 66.6466 75.1599 67.194 74.8431C67.7415 74.5264 68.351 74.368 69.0226 74.368L69.0226 74.368ZM71.8382 78.1962C71.8382 77.6351 71.7231 77.1464 71.4931 76.7301C71.2631 76.3138 70.9526 75.9948 70.5616 75.773C70.1706 75.5513 69.7404 75.4404 69.2712 75.4404C68.802 75.4404 68.3742 75.549 67.9877 75.7662C67.6013 75.9834 67.2931 76.3002 67.0631 76.7165C66.8331 77.1328 66.7181 77.6215 66.7181 78.1826C66.7181 78.7528 66.8331 79.2483 67.0631 79.6691C67.2931 80.09 67.6013 80.4113 67.9877 80.633C68.3742 80.8547 68.802 80.9656 69.2712 80.9656C69.7404 80.9656 70.1706 80.8547 70.5616 80.633C70.9526 80.4113 71.2631 80.09 71.4931 79.6691C71.7231 79.2483 71.8382 78.7573 71.8382 78.1962L71.8382 78.1962ZM57.8165 72.4674L57.8165 78.4541C57.8165 79.2958 58.0258 79.9203 58.4445 80.3275C58.8631 80.7348 59.445 80.9384 60.1903 80.9384C60.9263 80.9384 61.5036 80.7348 61.9223 80.3275C62.3409 79.9203 62.5502 79.2958 62.5502 78.4541L62.5502 72.4674L63.8061 72.4674L63.8061 78.4405C63.8061 79.2279 63.6451 79.8908 63.323 80.4293C63.001 80.9678 62.5663 81.3683 62.0189 81.6307C61.4714 81.8932 60.8573 82.0244 60.1765 82.0244C59.4956 82.0244 58.8815 81.8932 58.3341 81.6307C57.7866 81.3683 57.3542 80.9678 57.0368 80.4293C56.7194 79.8908 56.5607 79.2279 56.5607 78.4405L56.5607 72.4674L57.8165 72.4674ZM51.4682 74.3544C52.057 74.3544 52.5814 74.4743 53.0415 74.7141C53.5015 74.9539 53.8649 75.3137 54.1317 75.7934C54.3985 76.273 54.5319 76.8568 54.5319 77.5446L54.5319 81.9294L53.2899 81.9294L53.2899 77.7211C53.2899 76.9789 53.1036 76.411 52.7309 76.0173C52.3583 75.6237 51.8546 75.4268 51.2198 75.4268C50.5665 75.4268 50.0467 75.6327 49.6603 76.0445C49.2738 76.4563 49.0806 77.0513 49.0806 77.8297L49.0806 81.9294L47.8386 81.9294L47.8386 77.7211C47.8386 76.9789 47.6523 76.411 47.2796 76.0173C46.907 75.6237 46.4033 75.4268 45.7685 75.4268C45.1152 75.4268 44.5954 75.6327 44.209 76.0445C43.8226 76.4563 43.6293 77.0513 43.6293 77.8297L43.6293 81.9294L42.3735 81.9294L42.3735 74.4901L43.6293 74.4901L43.6293 75.5626C43.8778 75.1734 44.2113 74.8748 44.6299 74.6666C45.0485 74.4585 45.5108 74.3544 46.0169 74.3544C46.6517 74.3544 47.2129 74.4946 47.7006 74.7752C48.1882 75.0558 48.5516 75.4675 48.7908 76.0106C49.0024 75.4856 49.3521 75.0784 49.8397 74.7888C50.3273 74.4992 50.8701 74.3544 51.4682 74.3544L51.4682 74.3544ZM33.5273 78.1962C33.5273 77.427 33.6837 76.755 33.9965 76.1803C34.3093 75.6056 34.744 75.1599 35.3007 74.8431C35.8573 74.5264 36.4944 74.368 37.2121 74.368C38.1413 74.368 38.9073 74.5897 39.5099 75.0332C40.1125 75.4766 40.5105 76.092 40.7037 76.8794L39.3512 76.8794C39.2224 76.4269 38.9717 76.0694 38.5991 75.807C38.2264 75.5445 37.7641 75.4133 37.2121 75.4133C36.4944 75.4133 35.9148 75.6554 35.4732 76.1396C35.0316 76.6237 34.8108 77.3093 34.8108 78.1962C34.8108 79.0922 35.0316 79.7845 35.4732 80.2732C35.9148 80.762 36.4944 81.0063 37.2121 81.0063C37.7641 81.0063 38.2241 80.8796 38.5922 80.6262C38.9602 80.3728 39.2132 80.0108 39.3512 79.5402L40.7037 79.5402C40.5013 80.3004 40.0964 80.909 39.4892 81.3661C38.882 81.8231 38.1229 82.0516 37.2121 82.0516C36.4944 82.0516 35.8573 81.8932 35.3007 81.5765C34.744 81.2597 34.3093 80.8117 33.9965 80.2325C33.6837 79.6533 33.5273 78.9745 33.5273 78.1962L33.5273 78.1962ZM28.9177 74.3544C29.4882 74.3544 30.0034 74.4743 30.4634 74.7141C30.9235 74.9539 31.2846 75.3137 31.5468 75.7934C31.809 76.273 31.9401 76.8568 31.9401 77.5446L31.9401 81.9294L30.698 81.9294L30.698 77.7211C30.698 76.9789 30.5094 76.411 30.1322 76.0173C29.755 75.6237 29.2398 75.4268 28.5865 75.4268C27.9241 75.4268 27.3974 75.6305 27.0063 76.0377C26.6153 76.445 26.4198 77.0378 26.4198 77.8161L26.4198 81.9294L25.1639 81.9294L25.1639 71.8837L26.4198 71.8837L26.4198 75.549C26.6682 75.1689 27.0109 74.8748 27.448 74.6666C27.885 74.4585 28.3749 74.3544 28.9177 74.3544L28.9177 74.3544ZM21.5206 77.0559C21.8702 77.1102 22.19 77.2504 22.4798 77.4767C22.7696 77.703 22.9996 77.9835 23.1698 78.3184C23.34 78.6532 23.4251 79.0107 23.4251 79.3908C23.4251 79.8705 23.3009 80.3026 23.0525 80.6873C22.8041 81.0719 22.443 81.3751 21.9691 81.5968C21.4953 81.8185 20.9364 81.9294 20.2924 81.9294L16.7042 81.9294L16.7042 72.4674L20.1543 72.4674C20.8076 72.4674 21.3642 72.5737 21.8242 72.7864C22.2843 72.9991 22.6293 73.2865 22.8593 73.6485C23.0893 74.0105 23.2043 74.4177 23.2043 74.8702C23.2043 75.4314 23.0502 75.8952 22.742 76.2617C22.4338 76.6282 22.0266 76.893 21.5206 77.0559L21.5206 77.0559ZM17.96 76.5536L20.0715 76.5536C20.6603 76.5536 21.1157 76.4179 21.4377 76.1464C21.7598 75.8748 21.9208 75.4993 21.9208 75.0196C21.9208 74.5399 21.7598 74.1644 21.4377 73.8929C21.1157 73.6214 20.6511 73.4856 20.0439 73.4856L17.96 73.4856L17.96 76.5536ZM20.1819 80.9112C20.8075 80.9112 21.2951 80.7664 21.6448 80.4768C21.9944 80.1872 22.1692 79.7845 22.1692 79.2686C22.1692 78.7437 21.9852 78.3297 21.6172 78.0265C21.2491 77.7233 20.7569 77.5717 20.1405 77.5717L17.96 77.5717L17.96 80.9112L20.1819 80.9112ZM15.4482 74.4901L10.894 85.4318L9.59672 85.4318L11.0872 81.8479L8.03723 74.4901L9.43111 74.4901L11.8048 80.5175L14.151 74.4901L15.4482 74.4901ZM316.898 57.5617C316.898 57.797 316.884 58.0459 316.857 58.3083L310.812 58.3083C310.858 59.0414 311.113 59.6138 311.578 60.0256C312.042 60.4374 312.606 60.6433 313.268 60.6433C313.811 60.6433 314.264 60.5188 314.628 60.27C314.991 60.0211 315.247 59.6885 315.394 59.2722L316.746 59.2722C316.544 59.9871 316.139 60.5686 315.532 61.0166C314.925 61.4646 314.17 61.6886 313.268 61.6886C312.551 61.6886 311.909 61.5302 311.343 61.2134C310.777 60.8967 310.333 60.4464 310.011 59.8627C309.689 59.279 309.528 58.6025 309.528 57.8332C309.528 57.0639 309.685 56.3897 309.998 55.8105C310.31 55.2312 310.75 54.7855 311.316 54.4733C311.881 54.1611 312.532 54.0049 313.268 54.0049C313.986 54.0049 314.621 54.1588 315.173 54.4665C315.725 54.7742 316.151 55.1973 316.45 55.7358C316.749 56.2743 316.898 56.8829 316.898 57.5617L316.898 57.5617ZM315.601 57.3038C315.601 56.8332 315.495 56.4282 315.283 56.0888C315.072 55.7494 314.784 55.4915 314.421 55.315C314.057 55.1385 313.655 55.0503 313.213 55.0503C312.578 55.0503 312.038 55.2494 311.591 55.6476C311.145 56.0458 310.89 56.5979 310.826 57.3038L315.601 57.3038ZM304.878 53.9913C305.466 53.9913 305.991 54.1112 306.451 54.3511C306.911 54.5909 307.274 54.9507 307.541 55.4303C307.808 55.91 307.941 56.4937 307.941 57.1815L307.941 61.5664L306.699 61.5664L306.699 57.358C306.699 56.6159 306.513 56.048 306.14 55.6543C305.768 55.2606 305.264 55.0638 304.629 55.0638C303.976 55.0638 303.456 55.2697 303.07 55.6815C302.683 56.0932 302.49 56.6883 302.49 57.4666L302.49 61.5664L301.248 61.5664L301.248 57.358C301.248 56.6159 301.062 56.048 300.689 55.6543C300.316 55.2606 299.813 55.0638 299.178 55.0638C298.525 55.0638 298.005 55.2697 297.618 55.6815C297.232 56.0932 297.039 56.6883 297.039 57.4666L297.039 61.5664L295.783 61.5664L295.783 54.1271L297.039 54.1271L297.039 55.1995C297.287 54.8104 297.621 54.5117 298.039 54.3036C298.458 54.0954 298.92 53.9913 299.426 53.9913C300.061 53.9913 300.622 54.1316 301.11 54.4122C301.598 54.6927 301.961 55.1045 302.2 55.6475C302.412 55.1226 302.761 54.7154 303.249 54.4257C303.737 54.1361 304.279 53.9913 304.878 53.9913L304.878 53.9913ZM286.937 57.8332C286.937 57.0639 287.093 56.3919 287.406 55.8172C287.719 55.2426 288.153 54.7968 288.71 54.4801C289.267 54.1633 289.904 54.0049 290.621 54.0049C291.551 54.0049 292.317 54.2267 292.919 54.6701C293.522 55.1136 293.92 55.729 294.113 56.5164L292.761 56.5164C292.632 56.0639 292.381 55.7064 292.008 55.4439C291.636 55.1815 291.173 55.0502 290.621 55.0502C289.904 55.0502 289.324 55.2923 288.883 55.7765C288.441 56.2607 288.22 56.9463 288.22 57.8332C288.22 58.7292 288.441 59.4215 288.883 59.9102C289.324 60.3989 289.904 60.6433 290.621 60.6433C291.173 60.6433 291.634 60.5166 292.002 60.2632C292.37 60.0098 292.623 59.6478 292.761 59.1771L294.113 59.1771C293.911 59.9374 293.506 60.546 292.899 61.003C292.291 61.4601 291.532 61.6886 290.621 61.6886C289.904 61.6886 289.267 61.5302 288.71 61.2134C288.153 60.8967 287.719 60.4487 287.406 59.8695C287.093 59.2903 286.937 58.6115 286.937 57.8332L286.937 57.8332ZM282.327 53.9914C282.898 53.9914 283.413 54.1113 283.873 54.3511C284.333 54.591 284.694 54.9507 284.956 55.4304C285.218 55.91 285.349 56.4938 285.349 57.1816L285.349 61.5664L284.107 61.5664L284.107 57.3581C284.107 56.616 283.919 56.0481 283.542 55.6544C283.164 55.2607 282.649 55.0639 281.996 55.0638C281.333 55.0638 280.807 55.2675 280.416 55.6747C280.025 56.082 279.829 56.6748 279.829 57.4531L279.829 61.5664L278.573 61.5664L278.573 51.5207L279.829 51.5207L279.829 55.186C280.078 54.8059 280.42 54.5118 280.857 54.3036C281.294 54.0955 281.784 53.9914 282.327 53.9914L282.327 53.9914ZM274.93 56.6929C275.28 56.7472 275.599 56.8875 275.889 57.1137C276.179 57.34 276.409 57.6205 276.579 57.9554C276.749 58.2903 276.834 58.6477 276.834 59.0278C276.834 59.5075 276.71 59.9397 276.462 60.3243C276.213 60.7089 275.852 61.0121 275.378 61.2338C274.905 61.4556 274.346 61.5664 273.702 61.5664L270.113 61.5664L270.113 52.1044L273.564 52.1044C274.217 52.1044 274.773 52.2108 275.233 52.4235C275.694 52.6361 276.039 52.9235 276.269 53.2855C276.499 53.6475 276.614 54.0548 276.614 54.5073C276.614 55.0684 276.459 55.5322 276.151 55.8987C275.843 56.2653 275.436 56.53 274.93 56.6929L274.93 56.6929ZM271.369 56.1906L273.481 56.1906C274.07 56.1906 274.525 56.0548 274.847 55.7833C275.169 55.5118 275.33 55.1362 275.33 54.6566C275.33 54.1769 275.169 53.8013 274.847 53.5298C274.525 53.2583 274.06 53.1226 273.453 53.1226L271.369 53.1226L271.369 56.1906ZM273.591 60.5483C274.217 60.5483 274.704 60.4035 275.054 60.1139C275.404 59.8243 275.578 59.4216 275.578 58.9057C275.578 58.3808 275.395 57.9668 275.026 57.6636C274.658 57.3604 274.166 57.2088 273.55 57.2088L271.369 57.2088L271.369 60.5483L273.591 60.5483ZM268.858 54.1272L264.303 65.0689L263.006 65.0689L264.497 61.485L261.447 54.1272L262.841 54.1272L265.214 60.1546L267.56 54.1272L268.858 54.1272ZM259.873 54.6158L259.873 56.3128L252.697 56.3128L252.697 54.6158L259.873 54.6158ZM259.873 57.5346L259.873 59.2315L252.697 59.2315L252.697 57.5346L259.873 57.5346ZM249.895 54.6158L249.895 56.3128L242.719 56.3128L242.719 54.6158L249.895 54.6158ZM249.895 57.5346L249.895 59.2315L242.719 59.2315L242.719 57.5346L249.895 57.5346ZM241.146 54.1272L238.786 61.5665L237.489 61.5665L235.667 55.6612L233.845 61.5665L232.548 61.5665L230.174 54.1272L231.458 54.1272L233.197 60.3718L235.073 54.1272L236.357 54.1272L238.192 60.3854L239.904 54.1272L241.146 54.1272ZM229.512 54.8738C229.512 55.6612 229.238 56.315 228.691 56.8354C228.143 57.3558 227.308 57.616 226.186 57.616L224.336 57.616L224.336 61.5664L223.081 61.5664L223.081 52.1044L226.186 52.1044C227.271 52.1044 228.097 52.3624 228.663 52.8782C229.229 53.3941 229.512 54.0593 229.512 54.8738L229.512 54.8738ZM226.186 56.5978C226.885 56.5978 227.4 56.4485 227.731 56.1499C228.063 55.8512 228.228 55.4258 228.228 54.8738C228.228 53.7063 227.547 53.1226 226.186 53.1226L224.336 53.1226L224.336 56.5978L226.186 56.5978ZM218.126 52.8782L218.126 51.7515L220.721 51.7515L220.721 61.5664L219.451 61.5664L219.451 52.8782L218.126 52.8782ZM211.377 58.9328C211.469 59.4487 211.683 59.8469 212.019 60.1274C212.355 60.408 212.808 60.5483 213.379 60.5483C214.142 60.5483 214.706 60.2541 215.069 59.6659C215.433 59.0776 215.605 58.0866 215.587 56.6929C215.393 57.1001 215.071 57.4192 214.621 57.6499C214.17 57.8807 213.668 57.9961 213.116 57.9961C212.5 57.9961 211.95 57.8717 211.467 57.6228C210.984 57.3739 210.605 57.0096 210.329 56.53C210.053 56.0503 209.915 55.4711 209.915 54.7923C209.915 53.824 210.2 53.0434 210.77 52.4506C211.341 51.8578 212.15 51.5614 213.199 51.5614C214.487 51.5614 215.391 51.9732 215.911 52.7968C216.431 53.6203 216.691 54.8466 216.691 56.4757C216.691 57.616 216.587 58.5572 216.38 59.2993C216.173 60.0415 215.824 60.6071 215.331 60.9962C214.839 61.3854 214.165 61.58 213.31 61.58C212.371 61.58 211.64 61.3311 211.115 60.8333C210.591 60.3356 210.292 59.7021 210.218 58.9328L211.377 58.9328ZM213.323 56.9508C213.94 56.9508 214.446 56.763 214.841 56.3874C215.237 56.0119 215.435 55.5028 215.435 54.8602C215.435 54.1814 215.242 53.6339 214.855 53.2176C214.469 52.8013 213.926 52.5931 213.227 52.5931C212.583 52.5931 212.07 52.7922 211.688 53.1905C211.306 53.5887 211.115 54.1136 211.115 54.7652C211.115 55.4259 211.304 55.9553 211.681 56.3535C212.058 56.7517 212.606 56.9508 213.323 56.9508L213.323 56.9508ZM208.59 52.1044L205.802 61.5664L204.394 61.5664L202.159 53.9507L199.84 61.5664L198.446 61.58L195.755 52.1044L197.094 52.1044L199.191 60.1274L201.51 52.1044L202.918 52.1044L205.126 60.1003L207.237 52.1044L208.59 52.1044ZM194.844 57.5617C194.844 57.797 194.83 58.0459 194.803 58.3083L188.758 58.3083C188.804 59.0414 189.059 59.6138 189.524 60.0256C189.989 60.4374 190.552 60.6433 191.215 60.6433C191.757 60.6433 192.211 60.5188 192.574 60.27C192.937 60.0211 193.193 59.6885 193.34 59.2722L194.692 59.2722C194.49 59.9871 194.085 60.5686 193.478 61.0166C192.871 61.4646 192.116 61.6886 191.215 61.6886C190.497 61.6886 189.855 61.5302 189.289 61.2134C188.724 60.8967 188.28 60.4464 187.958 59.8627C187.636 59.279 187.475 58.6025 187.475 57.8332C187.475 57.0639 187.631 56.3897 187.944 55.8105C188.257 55.2312 188.696 54.7855 189.262 54.4733C189.828 54.1611 190.479 54.0049 191.215 54.0049C191.932 54.0049 192.567 54.1588 193.119 54.4665C193.671 54.7742 194.097 55.1973 194.396 55.7358C194.695 56.2743 194.844 56.8829 194.844 57.5617L194.844 57.5617ZM193.547 57.3038C193.547 56.8332 193.441 56.4282 193.23 56.0888C193.018 55.7494 192.73 55.4915 192.367 55.315C192.004 55.1385 191.601 55.0503 191.159 55.0503C190.525 55.0503 189.984 55.2494 189.538 55.6476C189.092 56.0458 188.836 56.5979 188.772 57.3038L193.547 57.3038ZM181.733 54.0049C182.387 54.0049 182.959 54.1452 183.452 54.4258C183.944 54.7063 184.31 55.0593 184.549 55.4847L184.549 54.1271L185.818 54.1271L185.818 61.7293C185.818 62.4081 185.671 63.0122 185.377 63.5416C185.082 64.071 184.661 64.4851 184.114 64.7837C183.567 65.0824 182.929 65.2317 182.203 65.2317C181.209 65.2317 180.381 65.001 179.718 64.5394C179.056 64.0778 178.665 63.4488 178.545 62.6524L179.787 62.6524C179.926 63.1049 180.211 63.4692 180.643 63.7452C181.076 64.0213 181.595 64.1593 182.203 64.1593C182.893 64.1593 183.456 63.9466 183.893 63.5212C184.33 63.0959 184.549 62.4986 184.549 61.7293L184.549 60.1681C184.3 60.6025 183.932 60.9646 183.445 61.2542C182.957 61.5438 182.387 61.6886 181.733 61.6886C181.062 61.6886 180.452 61.5257 179.905 61.1999C179.357 60.8741 178.927 60.417 178.614 59.8288C178.302 59.2405 178.145 58.5708 178.145 57.8196C178.145 57.0594 178.302 56.3919 178.614 55.8172C178.927 55.2426 179.357 54.7968 179.905 54.4801C180.452 54.1633 181.062 54.0049 181.733 54.0049L181.733 54.0049ZM184.549 57.8332C184.549 57.2721 184.434 56.7834 184.204 56.3671C183.974 55.9508 183.663 55.6318 183.272 55.41C182.881 55.1883 182.451 55.0775 181.982 55.0775C181.513 55.0775 181.085 55.1861 180.698 55.4033C180.312 55.6205 180.004 55.9372 179.774 56.3535C179.544 56.7698 179.429 57.2586 179.429 57.8197C179.429 58.3898 179.544 58.8853 179.774 59.3062C180.004 59.727 180.312 60.0483 180.698 60.27C181.085 60.4917 181.513 60.6026 181.982 60.6026C182.451 60.6026 182.881 60.4917 183.272 60.27C183.663 60.0483 183.974 59.727 184.204 59.3062C184.434 58.8853 184.549 58.3944 184.549 57.8332L184.549 57.8332ZM170.527 52.1044L170.527 58.0911C170.527 58.9328 170.737 59.5573 171.155 59.9645C171.574 60.3718 172.156 60.5754 172.901 60.5754C173.637 60.5754 174.214 60.3718 174.633 59.9645C175.052 59.5573 175.261 58.9328 175.261 58.0911L175.261 52.1044L176.517 52.1044L176.517 58.0776C176.517 58.8649 176.356 59.5279 176.034 60.0664C175.712 60.6048 175.277 61.0053 174.73 61.2678C174.182 61.5302 173.568 61.6615 172.887 61.6615C172.206 61.6615 171.592 61.5302 171.045 61.2678C170.497 61.0053 170.065 60.6048 169.747 60.0664C169.43 59.5279 169.271 58.8649 169.271 58.0776L169.271 52.1044L170.527 52.1044ZM164.179 53.9913C164.768 53.9913 165.292 54.1112 165.752 54.3511C166.212 54.5909 166.576 54.9507 166.842 55.4303C167.109 55.91 167.243 56.4937 167.243 57.1815L167.243 61.5664L166.001 61.5664L166.001 57.358C166.001 56.6159 165.814 56.048 165.442 55.6543C165.069 55.2606 164.565 55.0638 163.931 55.0638C163.277 55.0638 162.757 55.2697 162.371 55.6815C161.985 56.0932 161.791 56.6883 161.791 57.4666L161.791 61.5664L160.549 61.5664L160.549 57.358C160.549 56.6159 160.363 56.048 159.99 55.6543C159.618 55.2606 159.114 55.0638 158.479 55.0638C157.826 55.0638 157.306 55.2697 156.92 55.6815C156.533 56.0932 156.34 56.6883 156.34 57.4666L156.34 61.5664L155.084 61.5664L155.084 54.1271L156.34 54.1271L156.34 55.1995C156.589 54.8104 156.922 54.5117 157.341 54.3036C157.759 54.0954 158.222 53.9913 158.728 53.9913C159.362 53.9913 159.924 54.1316 160.411 54.4122C160.899 54.6927 161.262 55.1045 161.502 55.6475C161.713 55.1226 162.063 54.7154 162.55 54.4257C163.038 54.1361 163.581 53.9913 164.179 53.9913L164.179 53.9913ZM146.238 57.8332C146.238 57.0639 146.394 56.3919 146.707 55.8172C147.02 55.2426 147.455 54.7968 148.011 54.4801C148.568 54.1633 149.205 54.0049 149.923 54.0049C150.852 54.0049 151.618 54.2267 152.221 54.6701C152.823 55.1136 153.221 55.729 153.414 56.5164L152.062 56.5164C151.933 56.0639 151.682 55.7064 151.31 55.4439C150.937 55.1815 150.475 55.0502 149.923 55.0502C149.205 55.0502 148.626 55.2923 148.184 55.7765C147.742 56.2607 147.521 56.9463 147.521 57.8332C147.521 58.7292 147.742 59.4215 148.184 59.9102C148.626 60.3989 149.205 60.6433 149.923 60.6433C150.475 60.6433 150.935 60.5166 151.303 60.2632C151.671 60.0098 151.924 59.6478 152.062 59.1771L153.414 59.1771C153.212 59.9374 152.807 60.546 152.2 61.003C151.593 61.4601 150.834 61.6886 149.923 61.6886C149.205 61.6886 148.568 61.5302 148.011 61.2134C147.455 60.8967 147.02 60.4487 146.707 59.8695C146.394 59.2903 146.238 58.6115 146.238 57.8332L146.238 57.8332ZM141.628 53.9914C142.199 53.9914 142.714 54.1113 143.174 54.3511C143.634 54.591 143.995 54.9507 144.257 55.4304C144.52 55.91 144.651 56.4938 144.651 57.1816L144.651 61.5664L143.409 61.5664L143.409 57.3581C143.409 56.616 143.22 56.0481 142.843 55.6544C142.466 55.2607 141.95 55.0639 141.297 55.0638C140.635 55.0638 140.108 55.2675 139.717 55.6747C139.326 56.082 139.131 56.6748 139.131 57.4531L139.131 61.5664L137.875 61.5664L137.875 51.5207L139.131 51.5207L139.131 55.186C139.379 54.8059 139.722 54.5118 140.159 54.3036C140.596 54.0955 141.086 53.9914 141.628 53.9914L141.628 53.9914ZM136.219 57.5617C136.219 57.797 136.205 58.0459 136.177 58.3083L130.132 58.3083C130.178 59.0414 130.434 59.6138 130.898 60.0256C131.363 60.4374 131.926 60.6433 132.589 60.6433C133.132 60.6433 133.585 60.5188 133.948 60.27C134.312 60.0211 134.567 59.6885 134.714 59.2722L136.067 59.2722C135.864 59.9871 135.459 60.5686 134.852 61.0166C134.245 61.4646 133.491 61.6886 132.589 61.6886C131.871 61.6886 131.23 61.5302 130.664 61.2134C130.098 60.8967 129.654 60.4464 129.332 59.8627C129.01 59.279 128.849 58.6025 128.849 57.8332C128.849 57.0639 129.005 56.3897 129.318 55.8105C129.631 55.2312 130.07 54.7855 130.636 54.4733C131.202 54.1611 131.853 54.0049 132.589 54.0049C133.307 54.0049 133.941 54.1588 134.493 54.4665C135.045 54.7742 135.471 55.1973 135.77 55.7358C136.069 56.2743 136.219 56.8829 136.219 57.5617L136.219 57.5617ZM134.921 57.3038C134.921 56.8332 134.815 56.4282 134.604 56.0888C134.392 55.7494 134.105 55.4915 133.741 55.315C133.378 55.1385 132.975 55.0503 132.534 55.0503C131.899 55.0503 131.358 55.2494 130.912 55.6476C130.466 56.0458 130.211 56.5979 130.146 57.3038L134.921 57.3038ZM123.108 54.0049C123.761 54.0049 124.334 54.1452 124.826 54.4258C125.318 54.7063 125.684 55.0593 125.923 55.4847L125.923 54.1271L127.193 54.1271L127.193 61.7293C127.193 62.4081 127.046 63.0122 126.751 63.5416C126.457 64.071 126.036 64.4851 125.489 64.7837C124.941 65.0824 124.304 65.2317 123.577 65.2317C122.583 65.2317 121.755 65.001 121.093 64.5394C120.431 64.0778 120.04 63.4488 119.92 62.6524L121.162 62.6524C121.3 63.1049 121.585 63.4692 122.018 63.7452C122.45 64.0213 122.97 64.1593 123.577 64.1593C124.267 64.1593 124.831 63.9466 125.268 63.5212C125.705 63.0959 125.923 62.4986 125.923 61.7293L125.923 60.1681C125.675 60.6025 125.307 60.9646 124.819 61.2542C124.332 61.5438 123.761 61.6886 123.108 61.6886C122.436 61.6886 121.827 61.5257 121.279 61.1999C120.732 60.8741 120.302 60.417 119.989 59.8288C119.676 59.2405 119.52 58.5708 119.52 57.8196C119.52 57.0594 119.676 56.3919 119.989 55.8172C120.302 55.2426 120.732 54.7968 121.279 54.4801C121.827 54.1633 122.436 54.0049 123.108 54.0049L123.108 54.0049ZM125.923 57.8332C125.923 57.2721 125.808 56.7834 125.578 56.3671C125.348 55.9508 125.038 55.6318 124.647 55.41C124.256 55.1883 123.825 55.0775 123.356 55.0775C122.887 55.0775 122.459 55.1861 122.073 55.4033C121.686 55.6205 121.378 55.9372 121.148 56.3535C120.918 56.7698 120.803 57.2586 120.803 57.8197C120.803 58.3898 120.918 58.8853 121.148 59.3062C121.378 59.727 121.686 60.0483 122.073 60.27C122.459 60.4917 122.887 60.6026 123.356 60.6026C123.825 60.6026 124.256 60.4917 124.647 60.27C125.038 60.0483 125.348 59.727 125.578 59.3062C125.808 58.8853 125.923 58.3944 125.923 57.8332L125.923 57.8332ZM111.902 52.1044L111.902 58.0911C111.902 58.9328 112.111 59.5573 112.529 59.9645C112.948 60.3718 113.53 60.5754 114.275 60.5754C115.011 60.5754 115.589 60.3718 116.007 59.9645C116.426 59.5573 116.635 58.9328 116.635 58.0911L116.635 52.1044L117.891 52.1044L117.891 58.0776C117.891 58.8649 117.73 59.5279 117.408 60.0664C117.086 60.6048 116.651 61.0053 116.104 61.2678C115.556 61.5302 114.942 61.6615 114.261 61.6615C113.581 61.6615 112.967 61.5302 112.419 61.2678C111.872 61.0053 111.439 60.6048 111.122 60.0664C110.804 59.5279 110.646 58.8649 110.646 58.0776L110.646 52.1044L111.902 52.1044ZM105.553 53.9913C106.142 53.9913 106.667 54.1112 107.127 54.3511C107.587 54.5909 107.95 54.9507 108.217 55.4303C108.484 55.91 108.617 56.4937 108.617 57.1815L108.617 61.5664L107.375 61.5664L107.375 57.358C107.375 56.6159 107.189 56.048 106.816 55.6543C106.444 55.2606 105.94 55.0638 105.305 55.0638C104.652 55.0638 104.132 55.2697 103.745 55.6815C103.359 56.0932 103.166 56.6883 103.166 57.4666L103.166 61.5664L101.924 61.5664L101.924 57.358C101.924 56.6159 101.737 56.048 101.365 55.6543C100.992 55.2606 100.488 55.0638 99.8537 55.0638C99.2004 55.0638 98.6806 55.2697 98.2942 55.6815C97.9078 56.0932 97.7145 56.6883 97.7145 57.4666L97.7145 61.5664L96.4587 61.5664L96.4587 54.1271L97.7145 54.1271L97.7145 55.1995C97.963 54.8104 98.2965 54.5117 98.7151 54.3036C99.1337 54.0954 99.5961 53.9913 100.102 53.9913C100.737 53.9913 101.298 54.1316 101.786 54.4122C102.273 54.6927 102.637 55.1045 102.876 55.6475C103.088 55.1226 103.437 54.7154 103.925 54.4257C104.413 54.1361 104.955 53.9913 105.553 53.9913L105.553 53.9913ZM87.6123 57.8332C87.6123 57.0639 87.7687 56.3919 88.0815 55.8172C88.3943 55.2426 88.8291 54.7968 89.3857 54.4801C89.9423 54.1633 90.5795 54.0049 91.2971 54.0049C92.2263 54.0049 92.9923 54.2267 93.5949 54.6701C94.1976 55.1136 94.5955 55.729 94.7887 56.5164L93.4362 56.5164C93.3074 56.0639 93.0567 55.7064 92.6841 55.4439C92.3115 55.1815 91.8491 55.0502 91.2971 55.0502C90.5795 55.0502 89.9998 55.2923 89.5582 55.7765C89.1166 56.2607 88.8958 56.9463 88.8958 57.8332C88.8958 58.7292 89.1166 59.4215 89.5582 59.9102C89.9998 60.3989 90.5795 60.6433 91.2971 60.6433C91.8491 60.6433 92.3092 60.5166 92.6772 60.2632C93.0452 60.0098 93.2982 59.6478 93.4362 59.1771L94.7887 59.1771C94.5863 59.9374 94.1815 60.546 93.5742 61.003C92.967 61.4601 92.2079 61.6886 91.2971 61.6886C90.5795 61.6886 89.9423 61.5302 89.3857 61.2134C88.8291 60.8967 88.3943 60.4487 88.0815 59.8695C87.7687 59.2903 87.6123 58.6115 87.6123 57.8332L87.6123 57.8332ZM83.003 53.9914C83.5734 53.9914 84.0887 54.1113 84.5487 54.3511C85.0087 54.591 85.3698 54.9507 85.632 55.4304C85.8943 55.91 86.0254 56.4938 86.0254 57.1816L86.0254 61.5664L84.7833 61.5664L84.7833 57.3581C84.7833 56.616 84.5947 56.0481 84.2175 55.6544C83.8402 55.2607 83.325 55.0639 82.6718 55.0638C82.0094 55.0638 81.4826 55.2675 81.0916 55.6747C80.7006 56.082 80.5051 56.6748 80.5051 57.4531L80.5051 61.5664L79.2492 61.5664L79.2492 51.5207L80.5051 51.5207L80.5051 55.186C80.7535 54.8059 81.0962 54.5118 81.5332 54.3036C81.9703 54.0955 82.4602 53.9914 83.003 53.9914L83.003 53.9914ZM75.6057 56.6929C75.9553 56.7472 76.275 56.8875 76.5648 57.1137C76.8546 57.34 77.0846 57.6205 77.2548 57.9554C77.425 58.2903 77.5102 58.6477 77.5102 59.0278C77.5102 59.5075 77.3859 59.9397 77.1375 60.3243C76.8891 60.7089 76.528 61.0121 76.0542 61.2338C75.5803 61.4556 75.0214 61.5664 74.3774 61.5664L70.7892 61.5664L70.7892 52.1044L74.2394 52.1044C74.8926 52.1044 75.4492 52.2108 75.9093 52.4235C76.3693 52.6361 76.7143 52.9235 76.9443 53.2855C77.1743 53.6475 77.2893 54.0548 77.2893 54.5073C77.2893 55.0684 77.1352 55.5322 76.827 55.8987C76.5188 56.2653 76.1117 56.53 75.6057 56.6929L75.6057 56.6929ZM72.0451 56.1906L74.1566 56.1906C74.7455 56.1906 75.2009 56.0548 75.5229 55.7833C75.8449 55.5118 76.0059 55.1362 76.0059 54.6566C76.0059 54.1769 75.8449 53.8013 75.5229 53.5298C75.2009 53.2583 74.7363 53.1226 74.129 53.1226L72.0451 53.1226L72.0451 56.1906ZM74.267 60.5483C74.8927 60.5483 75.3803 60.4035 75.7299 60.1139C76.0795 59.8243 76.2543 59.4216 76.2543 58.9057C76.2543 58.3808 76.0703 57.9668 75.7023 57.6636C75.3343 57.3604 74.8421 57.2088 74.2256 57.2088L72.0451 57.2088L72.0451 60.5483L74.267 60.5483ZM69.5333 54.1272L64.979 65.0689L63.6817 65.0689L65.1722 61.485L62.1223 54.1272L63.5161 54.1272L65.8899 60.1546L68.236 54.1272L69.5333 54.1272ZM57.9408 53.9914C58.5112 53.9914 59.0264 54.1113 59.4864 54.3511C59.9465 54.591 60.3076 54.9507 60.5698 55.4304C60.832 55.91 60.9631 56.4938 60.9631 57.1816L60.9631 61.5664L59.7211 61.5664L59.7211 57.3581C59.7211 56.616 59.5324 56.0481 59.1552 55.6544C58.778 55.2607 58.2628 55.0639 57.6095 55.0638C56.9471 55.0638 56.4204 55.2675 56.0294 55.6747C55.6383 56.082 55.4428 56.6748 55.4428 57.4531L55.4428 61.5664L54.187 61.5664L54.187 51.5207L55.4428 51.5207L55.4428 55.186C55.6912 54.8059 56.034 54.5118 56.471 54.3036C56.908 54.0955 57.3979 53.9914 57.9408 53.9914L57.9408 53.9914ZM48.363 53.109L48.363 56.272L51.8684 56.272L51.8684 57.2902L48.363 57.2902L48.363 60.5482L52.2825 60.5482L52.2825 61.5664L47.1072 61.5664L47.1072 52.0908L52.2825 52.0908L52.2825 53.109L48.363 53.109ZM45.4373 52.1044L45.4373 61.5664L43.7122 61.5664L43.7122 52.1044L45.4373 52.1044ZM38.6335 53.9914C39.2039 53.9914 39.7192 54.1113 40.1792 54.3511C40.6392 54.591 41.0003 54.9507 41.2625 55.4304C41.5248 55.91 41.6559 56.4938 41.6559 57.1816L41.6559 61.5664L40.4138 61.5664L40.4138 57.3581C40.4138 56.616 40.2252 56.0481 39.848 55.6544C39.4707 55.2607 38.9555 55.0639 38.3023 55.0638C37.6398 55.0638 37.1131 55.2675 36.7221 55.6747C36.3311 56.082 36.1356 56.6748 36.1356 57.4531L36.1356 61.5664L34.8797 61.5664L34.8797 51.5207L36.1356 51.5207L36.1356 55.186C36.384 54.8059 36.7267 54.5118 37.1637 54.3036C37.6007 54.0955 38.0907 53.9914 38.6335 53.9914L38.6335 53.9914ZM31.9954 61.5664L29.0282 58.2812L29.0282 61.5664L27.7723 61.5664L27.7723 51.5207L29.0282 51.5207L29.0282 57.426L31.9402 54.1272L33.6929 54.1272L30.1323 57.8332L33.7067 61.5664L31.9954 61.5664ZM24.3221 54.8466C24.0553 54.2945 23.6689 53.8669 23.1629 53.5637C22.6568 53.2606 22.068 53.109 21.3964 53.109C20.7247 53.109 20.1198 53.2606 19.5816 53.5637C19.0433 53.8669 18.6201 54.3013 18.3119 54.867C18.0037 55.4326 17.8496 56.0865 17.8496 56.8286C17.8496 57.5707 18.0037 58.2223 18.3119 58.7834C18.6201 59.3446 19.0433 59.7767 19.5816 60.0799C20.1198 60.3831 20.7247 60.5347 21.3964 60.5347C22.3348 60.5347 23.1077 60.2586 23.7149 59.7066C24.3221 59.1545 24.6763 58.4079 24.7775 57.4666L20.9409 57.4666L20.9409 56.4621L26.1162 56.4621L26.1162 57.4123C26.0426 58.1907 25.7942 58.9034 25.371 59.5505C24.9478 60.1975 24.3911 60.7089 23.7011 61.0845C23.0111 61.46 22.2428 61.6478 21.3964 61.6478C20.5039 61.6478 19.6897 61.4419 18.9536 61.0302C18.2176 60.6184 17.6357 60.046 17.2078 59.3129C16.78 58.5798 16.5661 57.7517 16.5661 56.8286C16.5661 55.9055 16.78 55.0751 17.2078 54.3375C17.6357 53.5999 18.2176 53.0252 18.9536 52.6135C19.6897 52.2017 20.5039 51.9958 21.3964 51.9958C22.4176 51.9958 23.3216 52.2447 24.1082 52.7424C24.8949 53.2402 25.4676 53.9416 25.8264 54.8466L24.3221 54.8466ZM11.9842 61.6614C11.3493 61.6614 10.7812 61.5506 10.2798 61.3288C9.77836 61.1071 9.38504 60.7994 9.09983 60.4057C8.81461 60.012 8.6674 59.5573 8.6582 59.0414L9.99688 59.0414C10.0429 59.4849 10.2292 59.8582 10.5558 60.1614C10.8824 60.4645 11.3585 60.6161 11.9842 60.6161C12.5822 60.6161 13.0537 60.4691 13.3988 60.1749C13.7438 59.8808 13.9163 59.503 13.9163 59.0414C13.9163 58.6794 13.8151 58.3853 13.6127 58.159C13.4103 57.9328 13.1572 57.7608 12.8536 57.6431C12.55 57.5255 12.1406 57.3988 11.6254 57.263C10.9905 57.1001 10.4822 56.9372 10.1004 56.7743C9.71856 56.6114 9.39194 56.3558 9.12053 56.0073C8.84911 55.6589 8.71341 55.1905 8.71341 54.6023C8.71341 54.0864 8.84681 53.6294 9.11363 53.2312C9.38044 52.833 9.75536 52.5253 10.2384 52.308C10.7214 52.0908 11.2757 51.9822 11.9014 51.9822C12.803 51.9822 13.5414 52.204 14.1164 52.6474C14.6914 53.0909 15.0157 53.6792 15.0894 54.4122L13.7093 54.4122C13.6633 54.0502 13.4701 53.7312 13.1296 53.4552C12.7892 53.1791 12.3384 53.0411 11.7772 53.0411C11.2527 53.0411 10.8249 53.1746 10.4937 53.4416C10.1625 53.7086 9.99688 54.0819 9.99688 54.5616C9.99688 54.9055 10.0958 55.186 10.2936 55.4032C10.4914 55.6204 10.7352 55.7856 11.025 55.8987C11.3148 56.0118 11.722 56.1408 12.2464 56.2856C12.8812 56.4576 13.3919 56.6273 13.7783 56.7947C14.1647 56.9621 14.4959 57.22 14.7719 57.5685C15.0479 57.9169 15.186 58.3898 15.186 58.9871C15.186 59.4487 15.0618 59.8831 14.8133 60.2903C14.5649 60.6976 14.1969 61.0279 13.7093 61.2813C13.2217 61.5347 12.6466 61.6614 11.9842 61.6614L11.9842 61.6614Z" id="SGkhIEhyBhcmUgehcmUgeW91Pw==yBhcme-yBhcmUgyBhcmyBmUgeW91Pw-hcmyBhcm-yBhcmeyBhcmUgmUgeW91PwmUgeW91Pwe'" fill="#FFFFFF" stroke="none" />
          </g>
          <g stroke="#3C6CA7" stroke-width="6" id="100" fill="#FFFFFF" transform="translate(0.00012207031 69.99991)">
            <path d="M174.9 73.05Q174.9 55.75 182.25 45.85Q189.6 35.95 204.9 35.95Q220.1 35.95 227.5 45.9Q234.9 55.85 234.9 73.05Q234.9 90.35 227.5 100.3Q220.1 110.25 204.9 110.25Q189.6 110.25 182.25 100.3Q174.9 90.35 174.9 73.05ZM248.45 45.85Q241.1 55.75 241.1 73.05Q241.1 90.35 248.45 100.3Q255.8 110.25 271.1 110.25Q286.3 110.25 293.7 100.3Q301.1 90.35 301.1 73.05Q301.1 55.85 293.7 45.9Q286.3 35.95 271.1 35.95Q255.8 35.95 248.45 45.85ZM100.9 37.55L100.9 58.35L111.5 58.35L111.5 110.65L134.8 110.65L134.8 37.55L100.9 37.55ZM146.5 68.75Q150 71.85 155.8 71.85Q161.5 71.85 165 68.75Q168.5 65.65 168.5 60.95Q168.5 56.15 165 53Q161.5 49.85 155.8 49.85Q150 49.85 146.5 53Q143 56.15 143 60.95Q143 65.65 146.5 68.75ZM213 73.05Q213 65.05 211.4 61Q209.8 56.95 204.9 56.95Q199.9 56.95 198.3 61Q196.7 65.05 196.7 73.05Q196.7 81.15 198.3 85.2Q199.9 89.25 204.9 89.25Q209.8 89.25 211.4 85.2Q213 81.15 213 73.05ZM277.6 61Q279.2 65.05 279.2 73.05Q279.2 81.15 277.6 85.2Q276 89.25 271.1 89.25Q266.1 89.25 264.5 85.2Q262.9 81.15 262.9 73.05Q262.9 65.05 264.5 61Q266.1 56.95 271.1 56.95Q276 56.95 277.6 61ZM146.5 108.35Q150 111.45 155.8 111.45Q161.5 111.45 165 108.35Q168.5 105.25 168.5 100.55Q168.5 95.75 165 92.6Q161.5 89.45 155.8 89.45Q150 89.45 146.5 92.6Q143 95.75 143 100.55Q143 105.25 146.5 108.35Z" />
          </g>
        </g>
      </g>
    </g>
  </g>
</svg>