
<svg width="83" height="82" viewBox="0 0 83 82" fill="none" xmlns="http://www.w3.org/2000/svg">
<g filter="url(#filter0_d_7_27)">
<mask id="path-1-inside-1_7_27" fill="white">
<path fill-rule="evenodd" clip-rule="evenodd" d="M41.8829 68C59.0037 68 72.8829 54.1208 72.8829 37C72.8829 19.8792 59.0037 6 41.8829 6C24.762 6 10.8829 19.8792 10.8829 37C10.8829 54.1208 24.762 68 41.8829 68ZM42.391 52.5152L26.1287 28H35.0848L42.391 39.0141L49.6973 28H58.6533L42.391 52.5152Z"/>
</mask>
<path fill-rule="evenodd" clip-rule="evenodd" d="M41.8829 68C59.0037 68 72.8829 54.1208 72.8829 37C72.8829 19.8792 59.0037 6 41.8829 6C24.762 6 10.8829 19.8792 10.8829 37C10.8829 54.1208 24.762 68 41.8829 68ZM42.391 52.5152L26.1287 28H35.0848L42.391 39.0141L49.6973 28H58.6533L42.391 52.5152Z" fill="#D9D9D9"/>
<path d="M26.1287 28V27H24.2654L25.2954 28.5528L26.1287 28ZM42.391 52.5152L41.5577 53.068L42.391 54.3242L43.2244 53.068L42.391 52.5152ZM35.0848 28L35.9181 27.4472L35.6214 27H35.0848V28ZM42.391 39.0141L41.5577 39.5669L42.391 40.8231L43.2243 39.5669L42.391 39.0141ZM49.6973 28V27H49.1606L48.864 27.4472L49.6973 28ZM58.6533 28L59.4867 28.5528L60.5167 27H58.6533V28ZM71.8829 37C71.8829 53.5685 58.4514 67 41.8829 67V69C59.556 69 73.8829 54.6731 73.8829 37H71.8829ZM41.8829 7C58.4514 7 71.8829 20.4315 71.8829 37H73.8829C73.8829 19.3269 59.556 5 41.8829 5V7ZM11.8829 37C11.8829 20.4315 25.3143 7 41.8829 7V5C24.2098 5 9.88287 19.3269 9.88287 37H11.8829ZM41.8829 67C25.3143 67 11.8829 53.5685 11.8829 37H9.88287C9.88287 54.6731 24.2098 69 41.8829 69V67ZM25.2954 28.5528L41.5577 53.068L43.2244 51.9624L26.9621 27.4472L25.2954 28.5528ZM35.0848 27H26.1287V29H35.0848V27ZM43.2243 38.4613L35.9181 27.4472L34.2515 28.5528L41.5577 39.5669L43.2243 38.4613ZM48.864 27.4472L41.5577 38.4613L43.2243 39.5669L50.5306 28.5528L48.864 27.4472ZM58.6533 27H49.6973V29H58.6533V27ZM43.2244 53.068L59.4867 28.5528L57.82 27.4472L41.5577 51.9624L43.2244 53.068Z" fill="white" mask="url(#path-1-inside-1_7_27)"/>
</g>
<defs>
<filter id="filter0_d_7_27" x="0.882874" y="0" width="82" height="82" filterUnits="userSpaceOnUse" color-interpolation-filters="sRGB">
<feFlood flood-opacity="0" result="BackgroundImageFix"/>
<feColorMatrix in="SourceAlpha" type="matrix" values="0 0 0 0 0 0 0 0 0 0 0 0 0 0 0 0 0 0 127 0" result="hardAlpha"/>
<feOffset dy="4"/>
<feGaussianBlur stdDeviation="5"/>
<feComposite in2="hardAlpha" operator="out"/>
<feColorMatrix type="matrix" values="0 0 0 0 0 0 0 0 0 0 0 0 0 0 0 0 0 0 0.25 0"/>
<feBlend mode="normal" in2="BackgroundImageFix" result="effect1_dropShadow_7_27"/>
<feBlend mode="normal" in="SourceGraphic" in2="effect1_dropShadow_7_27" result="shape"/>
</filter>
</defs>
</svg>

