<?xml version="1.0" encoding="UTF-8" standalone="no"?>
<svg
   width="166"
   height="112"
   viewBox="0 0 166 112"
   fill="none"
   version="1.1"
   id="svg1"
   sodipodi:docname="zentrox_lines.svg"
   inkscape:version="1.3.2 (091e20ef0f, 2023-11-25)"
   xmlns:inkscape="http://www.inkscape.org/namespaces/inkscape"
   xmlns:sodipodi="http://sodipodi.sourceforge.net/DTD/sodipodi-0.dtd"
   xmlns="http://www.w3.org/2000/svg"
   xmlns:svg="http://www.w3.org/2000/svg">
  <defs
     id="defs1" />
  <sodipodi:namedview
     id="namedview1"
     pagecolor="#505050"
     bordercolor="#eeeeee"
     borderopacity="1"
     inkscape:showpageshadow="0"
     inkscape:pageopacity="0"
     inkscape:pagecheckerboard="0"
     inkscape:deskcolor="#505050"
     inkscape:zoom="3.5572289"
     inkscape:cx="4.9195597"
     inkscape:cy="45.962743"
     inkscape:window-width="1920"
     inkscape:window-height="1052"
     inkscape:window-x="0"
     inkscape:window-y="0"
     inkscape:window-maximized="1"
     inkscape:current-layer="svg1" />
  <path
     fill-rule="evenodd"
     clip-rule="evenodd"
     d="M109.565 112C140.493 112 165.565 86.9279 165.565 56C165.565 25.0721 140.493 0 109.565 0C78.6373 0 53.5652 25.0721 53.5652 56C53.5652 86.9279 78.6373 112 109.565 112ZM109.565 77.913C121.667 77.913 131.478 68.1022 131.478 56C131.478 43.8977 121.667 34.0869 109.565 34.0869C97.463 34.0869 87.6522 43.8977 87.6522 56C87.6522 68.1022 97.463 77.913 109.565 77.913ZM9.73903 17.9855C9.73903 15.2241 11.9776 12.9855 14.739 12.9855H107C109.761 12.9855 112 15.2241 112 17.9855V24.2174C112 26.9788 109.761 29.2174 107 29.2174H14.739C11.9776 29.2174 9.73903 26.9788 9.73903 24.2174V17.9855ZM21.2317 38.9565C18.4703 38.9565 16.2317 41.1951 16.2317 43.9565V50.1884C16.2317 52.9499 18.4703 55.1884 21.2317 55.1884H64.7969C67.5583 55.1884 69.7969 52.9499 69.7969 50.1884V43.9565C69.7969 41.1951 67.5583 38.9565 64.7969 38.9565H21.2317ZM5 64.9275C2.23858 64.9275 0 67.1661 0 69.9275V76.1594C0 78.9208 2.23857 81.1594 4.99999 81.1594H69.6667C72.4281 81.1594 74.6667 78.9208 74.6667 76.1594V69.9275C74.6667 67.1661 72.4281 64.9275 69.6667 64.9275H5ZM21.2317 90.8985C18.4703 90.8985 16.2317 93.1371 16.2317 95.8985V102.13C16.2317 104.892 18.4703 107.13 21.2317 107.13H98.5917C101.353 107.13 103.592 104.892 103.592 102.13V95.8985C103.592 93.1371 101.353 90.8985 98.5917 90.8985H21.2317Z"
     fill="#40A7E0"
     id="path1"
     style="fill:#ffffff;fill-opacity:1" />
</svg>
