<?xml version="1.0" encoding="UTF-8" standalone="no"?>
<!-- Generator: Gravit.io -->
<svg xmlns="http://www.w3.org/2000/svg" xmlns:xlink="http://www.w3.org/1999/xlink" style="isolation:isolate" viewBox="0 0 375 613" width="375pt" height="613pt"><defs><clipPath id="_clipPath_n3FSzaYJ1XpWeD8BjWXrVwoQZMhfxHDd"><rect width="375" height="613"/></clipPath></defs><g clip-path="url(#_clipPath_n3FSzaYJ1XpWeD8BjWXrVwoQZMhfxHDd)"><g style="opacity:0.59;" filter="url(#buFRsXxbxRTseBLFMP5rzlvVrp2xk5hy)"><path d=" M 47 613 L 128 613 C 128 443.386 255.386 316 425 316 L 425 235 C 216.236 235 47 404.236 47 613 Z " fill="rgb(255,102,0)"/><path d=" M 425 358.417 L 425 289 C 246.071 289 101 434.071 101 613 L 170.417 613 C 170.417 467.605 279.605 358.417 425 358.417 Z " fill="rgb(255,249,222)"/><path d=" M 101 613 L 182 613 C 182 478.795 290.795 370 425 370 L 425 289 C 246.071 289 101 434.071 101 613 Z " fill="rgb(255,208,0)"/><path d=" M 155 613 L 222.5 613 C 222.5 501.162 313.162 410.5 425 410.5 L 425 343 C 275.879 343 155 463.879 155 613 Z " fill="rgb(186,224,189)"/><path d=" M 155 613 L 236 613 C 236 508.618 320.618 424 425 424 L 425 343 C 275.879 343 155 463.879 155 613 Z " fill="rgb(136,255,0)"/><path d=" M 209 613 L 290 613 C 290 608.923 290.54 604.414 291.323 599.77 C 296.847 542.831 337.712 496.134 392.372 482.496 C 396.295 481.517 400.288 480.709 404.345 480.079 C 411.041 478.864 417.845 478 425 478 L 425 397 C 305.706 397 209 493.706 209 613 Z " fill="rgb(0,157,255)"/><path d=" M 425 505 L 425 451 C 335.53 451 263 523.53 263 613 L 317 613 C 317 553.353 365.353 505 425 505 Z " fill="rgb(60,0,255)"/></g><defs><filter id="buFRsXxbxRTseBLFMP5rzlvVrp2xk5hy" x="-200%" y="-200%" width="400%" height="400%" filterUnits="objectBoundingBox" color-interpolation-filters="sRGB"><feGaussianBlur xmlns="http://www.w3.org/2000/svg" in="SourceGraphic" stdDeviation="65.26285775515323"/><feOffset xmlns="http://www.w3.org/2000/svg" dx="0" dy="0" result="pf_100_offsetBlur"/><feFlood xmlns="http://www.w3.org/2000/svg" flood-color="#FFD500" flood-opacity="1"/><feComposite xmlns="http://www.w3.org/2000/svg" in2="pf_100_offsetBlur" operator="in" result="pf_100_dropShadow"/><feBlend xmlns="http://www.w3.org/2000/svg" in="SourceGraphic" in2="pf_100_dropShadow" mode="normal"/></filter></defs><g style="opacity:0.59;" filter="url(#tOaa8Lzx1vBsOlO8OkLynjH5zefE7Tmf)"><path d=" M 378 -71.5 L 297 -71.5 C 297 98.114 169.614 225.5 0 225.5 L 0 306.5 C 208.764 306.5 378 137.264 378 -71.5 Z " fill="rgb(255,102,0)"/><path d=" M 0 183.083 L 0 252.5 C 178.929 252.5 324 107.429 324 -71.5 L 254.583 -71.5 C 254.583 73.895 145.395 183.083 0 183.083 Z " fill="rgb(255,249,222)"/><path d=" M 324 -71.5 L 243 -71.5 C 243 62.705 134.205 171.5 0 171.5 L 0 252.5 C 178.929 252.5 324 107.429 324 -71.5 Z " fill="rgb(255,208,0)"/><path d=" M 270 -71.5 L 202.5 -71.5 C 202.5 40.338 111.838 131 0 131 L 0 198.5 C 149.121 198.5 270 77.621 270 -71.5 Z " fill="rgb(186,224,189)"/><path d=" M 270 -71.5 L 189 -71.5 C 189 32.882 104.382 117.5 0 117.5 L 0 198.5 C 149.121 198.5 270 77.621 270 -71.5 Z " fill="rgb(136,255,0)"/><path d=" M 216 -71.5 L 135 -71.5 C 135 -67.423 134.46 -62.914 133.677 -58.27 C 128.153 -1.331 87.288 45.366 32.628 59.004 C 28.705 59.983 24.712 60.791 20.655 61.421 C 13.959 62.636 7.155 63.5 0 63.5 L 0 144.5 C 119.293 144.5 216 47.793 216 -71.5 Z " fill="rgb(0,157,255)"/><path d=" M 0 36.5 L 0 90.5 C 89.47 90.5 162 17.97 162 -71.5 L 108 -71.5 C 108 -11.853 59.647 36.5 0 36.5 Z " fill="rgb(60,0,255)"/></g><defs><filter id="tOaa8Lzx1vBsOlO8OkLynjH5zefE7Tmf" x="-200%" y="-200%" width="400%" height="400%" filterUnits="objectBoundingBox" color-interpolation-filters="sRGB"><feGaussianBlur xmlns="http://www.w3.org/2000/svg" in="SourceGraphic" stdDeviation="65.26285775515323"/><feOffset xmlns="http://www.w3.org/2000/svg" dx="0" dy="0" result="pf_100_offsetBlur"/><feFlood xmlns="http://www.w3.org/2000/svg" flood-color="#FFD500" flood-opacity="1"/><feComposite xmlns="http://www.w3.org/2000/svg" in2="pf_100_offsetBlur" operator="in" result="pf_100_dropShadow"/><feBlend xmlns="http://www.w3.org/2000/svg" in="SourceGraphic" in2="pf_100_dropShadow" mode="normal"/></filter></defs></g></svg>